{
  "asset" : {
    "generator" : "UE Viewer (umodel) build 1590",
    "version" : "2.0"
  },
  "scene" : 0,
  "scenes" : [
    {
      "nodes" : [ 0 ]
    }
  ],
  "nodes" : [
    {
      "name" : "MbdMD_T_Mount_L_C_House_A",
      "mesh" : 0
    }
  ],
  "materials" : [
    {
      "name" : "MbdMI_Mount",
      "pbrMetallicRoughness" : {
        "baseColorFactor" : [ 0.3, 0.3, 0.3, 1.0 ],
        "metallicFactor" : 0.1,
        "roughnessFactor" : 0.5
      }
    }
  ],
  "meshes" : [
    {
      "primitives" : [
        {
          "attributes" : {
            "POSITION" : 1,
            "NORMAL" : 2,
            "TANGENT" : 3,
            "TEXCOORD_0" : 4
          },
          "indices" : 0,
          "material" : 0
        }
      ],
      "name" : "MbdMD_T_Mount_L_C_House_A"
    }
  ],
  "buffers" : [
    {
      "uri" : "MbdMD_T_Mount_L_C_House_A.bin",
      "byteLength" : 86280
    }
  ],
  "bufferViews" : [
    {
      "buffer" : 0,
      "byteOffset" : 0,
      "byteLength" : 5736
    },
    {
      "buffer" : 0,
      "byteOffset" : 5736,
      "byteLength" : 20136
    },
    {
      "buffer" : 0,
      "byteOffset" : 25872,
      "byteLength" : 20136
    },
    {
      "buffer" : 0,
      "byteOffset" : 46008,
      "byteLength" : 26848
    },
    {
      "buffer" : 0,
      "byteOffset" : 72856,
      "byteLength" : 13424
    }
  ],
  "accessors" : [
    {
      "bufferView" : 0,
      "componentType" : 5123,
      "count" : 2868,
      "type" : "SCALAR"
    },
    {
      "bufferView" : 1,
      "min" : [ -2.8125, -1.8274e-16, -3.29688 ],
      "max" : [ 2.8125, 6.625, 3.29688 ],
      "componentType" : 5126,
      "count" : 1678,
      "type" : "VEC3"
    },
    {
      "bufferView" : 2,
      "componentType" : 5126,
      "count" : 1678,
      "type" : "VEC3"
    },
    {
      "bufferView" : 3,
      "componentType" : 5126,
      "count" : 1678,
      "type" : "VEC4"
    },
    {
      "bufferView" : 4,
      "componentType" : 5126,
      "count" : 1678,
      "type" : "VEC2"
    }
  ]
}
