{
  "asset" : {
    "generator" : "UE Viewer (umodel) build 1590",
    "version" : "2.0"
  },
  "scene" : 0,
  "scenes" : [
    {
      "nodes" : [ 0 ]
    }
  ],
  "nodes" : [
    {
      "name" : "MbdMD_T_Mount_M_A_House_A",
      "mesh" : 0
    }
  ],
  "materials" : [
    {
      "name" : "MbdMI_Mount",
      "pbrMetallicRoughness" : {
        "baseColorFactor" : [ 0.3, 0.3, 0.3, 1.0 ],
        "metallicFactor" : 0.1,
        "roughnessFactor" : 0.5
      }
    }
  ],
  "meshes" : [
    {
      "primitives" : [
        {
          "attributes" : {
            "POSITION" : 1,
            "NORMAL" : 2,
            "TANGENT" : 3,
            "TEXCOORD_0" : 4
          },
          "indices" : 0,
          "material" : 0
        }
      ],
      "name" : "MbdMD_T_Mount_M_A_House_A"
    }
  ],
  "buffers" : [
    {
      "uri" : "MbdMD_T_Mount_M_A_House_A.bin",
      "byteLength" : 88256
    }
  ],
  "bufferViews" : [
    {
      "buffer" : 0,
      "byteOffset" : 0,
      "byteLength" : 4880
    },
    {
      "buffer" : 0,
      "byteOffset" : 4880,
      "byteLength" : 20844
    },
    {
      "buffer" : 0,
      "byteOffset" : 25724,
      "byteLength" : 20844
    },
    {
      "buffer" : 0,
      "byteOffset" : 46568,
      "byteLength" : 27792
    },
    {
      "buffer" : 0,
      "byteOffset" : 74360,
      "byteLength" : 13896
    }
  ],
  "accessors" : [
    {
      "bufferView" : 0,
      "componentType" : 5123,
      "count" : 2439,
      "type" : "SCALAR"
    },
    {
      "bufferView" : 1,
      "min" : [ -2.3183, -1.22463e-16, -2.3125 ],
      "max" : [ 2.3183, 7.125, 2.3125 ],
      "componentType" : 5126,
      "count" : 1737,
      "type" : "VEC3"
    },
    {
      "bufferView" : 2,
      "componentType" : 5126,
      "count" : 1737,
      "type" : "VEC3"
    },
    {
      "bufferView" : 3,
      "componentType" : 5126,
      "count" : 1737,
      "type" : "VEC4"
    },
    {
      "bufferView" : 4,
      "componentType" : 5126,
      "count" : 1737,
      "type" : "VEC2"
    }
  ]
}
