{
  "asset" : {
    "generator" : "UE Viewer (umodel) build 1590",
    "version" : "2.0"
  },
  "scene" : 0,
  "scenes" : [
    {
      "nodes" : [ 0 ]
    }
  ],
  "nodes" : [
    {
      "name" : "Co_BPI_Plain_Fence_A_nopillar_B_1300",
      "mesh" : 0
    }
  ],
  "materials" : [
    {
      "name" : "ObpMI_Plain_Fence_A",
      "pbrMetallicRoughness" : {
        "baseColorFactor" : [ 0.3, 0.3, 0.3, 1.0 ],
        "metallicFactor" : 0.1,
        "roughnessFactor" : 0.5
      }
    }
  ],
  "meshes" : [
    {
      "primitives" : [
        {
          "attributes" : {
            "POSITION" : 1,
            "NORMAL" : 2,
            "TANGENT" : 3,
            "TEXCOORD_0" : 4,
            "TEXCOORD_1" : 5
          },
          "indices" : 0,
          "material" : 0
        }
      ],
      "name" : "Co_BPI_Plain_Fence_A_nopillar_B_1300"
    }
  ],
  "buffers" : [
    {
      "uri" : "Co_BPI_Plain_Fence_A_nopillar_B_1300.bin",
      "byteLength" : 53184
    }
  ],
  "bufferViews" : [
    {
      "buffer" : 0,
      "byteOffset" : 0,
      "byteLength" : 2784
    },
    {
      "buffer" : 0,
      "byteOffset" : 2784,
      "byteLength" : 10800
    },
    {
      "buffer" : 0,
      "byteOffset" : 13584,
      "byteLength" : 10800
    },
    {
      "buffer" : 0,
      "byteOffset" : 24384,
      "byteLength" : 14400
    },
    {
      "buffer" : 0,
      "byteOffset" : 38784,
      "byteLength" : 7200
    },
    {
      "buffer" : 0,
      "byteOffset" : 45984,
      "byteLength" : 7200
    }
  ],
  "accessors" : [
    {
      "bufferView" : 0,
      "componentType" : 5123,
      "count" : 1392,
      "type" : "SCALAR"
    },
    {
      "bufferView" : 1,
      "min" : [ 0.0625, 0, -0.0625 ],
      "max" : [ 0.5625, 1, 14.93 ],
      "componentType" : 5126,
      "count" : 900,
      "type" : "VEC3"
    },
    {
      "bufferView" : 2,
      "componentType" : 5126,
      "count" : 900,
      "type" : "VEC3"
    },
    {
      "bufferView" : 3,
      "componentType" : 5126,
      "count" : 900,
      "type" : "VEC4"
    },
    {
      "bufferView" : 4,
      "componentType" : 5126,
      "count" : 900,
      "type" : "VEC2"
    },
    {
      "bufferView" : 5,
      "componentType" : 5126,
      "count" : 900,
      "type" : "VEC2"
    }
  ]
}
