{
  "asset" : {
    "generator" : "UE Viewer (umodel) build 1590",
    "version" : "2.0"
  },
  "scene" : 0,
  "scenes" : [
    {
      "nodes" : [ 0 ]
    }
  ],
  "nodes" : [
    {
      "name" : "MbdMD_T_Mount_L_C_Build_07",
      "mesh" : 0
    }
  ],
  "materials" : [
    {
      "name" : "MbdMI_Mount",
      "pbrMetallicRoughness" : {
        "baseColorFactor" : [ 0.3, 0.3, 0.3, 1.0 ],
        "metallicFactor" : 0.1,
        "roughnessFactor" : 0.5
      }
    }
  ],
  "meshes" : [
    {
      "primitives" : [
        {
          "attributes" : {
            "POSITION" : 1,
            "NORMAL" : 2,
            "TANGENT" : 3,
            "TEXCOORD_0" : 4
          },
          "indices" : 0,
          "material" : 0
        }
      ],
      "name" : "MbdMD_T_Mount_L_C_Build_07"
    }
  ],
  "buffers" : [
    {
      "uri" : "MbdMD_T_Mount_L_C_Build_07.bin",
      "byteLength" : 76800
    }
  ],
  "bufferViews" : [
    {
      "buffer" : 0,
      "byteOffset" : 0,
      "byteLength" : 5184
    },
    {
      "buffer" : 0,
      "byteOffset" : 5184,
      "byteLength" : 17904
    },
    {
      "buffer" : 0,
      "byteOffset" : 23088,
      "byteLength" : 17904
    },
    {
      "buffer" : 0,
      "byteOffset" : 40992,
      "byteLength" : 23872
    },
    {
      "buffer" : 0,
      "byteOffset" : 64864,
      "byteLength" : 11936
    }
  ],
  "accessors" : [
    {
      "bufferView" : 0,
      "componentType" : 5123,
      "count" : 2592,
      "type" : "SCALAR"
    },
    {
      "bufferView" : 1,
      "min" : [ -2.3125, -1.83697e-16, -3.28125 ],
      "max" : [ 2.3125, 8.125, 3.28125 ],
      "componentType" : 5126,
      "count" : 1492,
      "type" : "VEC3"
    },
    {
      "bufferView" : 2,
      "componentType" : 5126,
      "count" : 1492,
      "type" : "VEC3"
    },
    {
      "bufferView" : 3,
      "componentType" : 5126,
      "count" : 1492,
      "type" : "VEC4"
    },
    {
      "bufferView" : 4,
      "componentType" : 5126,
      "count" : 1492,
      "type" : "VEC2"
    }
  ]
}
