{
  "asset" : {
    "generator" : "UE Viewer (umodel) build 1590",
    "version" : "2.0"
  },
  "scene" : 0,
  "scenes" : [
    {
      "nodes" : [ 0 ]
    }
  ],
  "nodes" : [
    {
      "name" : "MbdMD_T_Forest_L_A_Pub_B",
      "mesh" : 0
    }
  ],
  "materials" : [
    {
      "name" : "MbdMI_Forest_L",
      "pbrMetallicRoughness" : {
        "baseColorFactor" : [ 0.3, 0.3, 0.3, 1.0 ],
        "metallicFactor" : 0.1,
        "roughnessFactor" : 0.5
      }
    }
  ],
  "meshes" : [
    {
      "primitives" : [
        {
          "attributes" : {
            "POSITION" : 1,
            "NORMAL" : 2,
            "TANGENT" : 3,
            "TEXCOORD_0" : 4,
            "TEXCOORD_1" : 5,
            "TEXCOORD_2" : 6
          },
          "indices" : 0,
          "material" : 0
        }
      ],
      "name" : "MbdMD_T_Forest_L_A_Pub_B"
    }
  ],
  "buffers" : [
    {
      "uri" : "MbdMD_T_Forest_L_A_Pub_B.bin",
      "byteLength" : 150868
    }
  ],
  "bufferViews" : [
    {
      "buffer" : 0,
      "byteOffset" : 0,
      "byteLength" : 7892
    },
    {
      "buffer" : 0,
      "byteOffset" : 7892,
      "byteLength" : 26808
    },
    {
      "buffer" : 0,
      "byteOffset" : 34700,
      "byteLength" : 26808
    },
    {
      "buffer" : 0,
      "byteOffset" : 61508,
      "byteLength" : 35744
    },
    {
      "buffer" : 0,
      "byteOffset" : 97252,
      "byteLength" : 17872
    },
    {
      "buffer" : 0,
      "byteOffset" : 115124,
      "byteLength" : 17872
    },
    {
      "buffer" : 0,
      "byteOffset" : 132996,
      "byteLength" : 17872
    }
  ],
  "accessors" : [
    {
      "bufferView" : 0,
      "componentType" : 5123,
      "count" : 3945,
      "type" : "SCALAR"
    },
    {
      "bufferView" : 1,
      "min" : [ -3.3125, -2.77459e-16, -4.78125 ],
      "max" : [ 3.3125, 5.625, 4.78125 ],
      "componentType" : 5126,
      "count" : 2234,
      "type" : "VEC3"
    },
    {
      "bufferView" : 2,
      "componentType" : 5126,
      "count" : 2234,
      "type" : "VEC3"
    },
    {
      "bufferView" : 3,
      "componentType" : 5126,
      "count" : 2234,
      "type" : "VEC4"
    },
    {
      "bufferView" : 4,
      "componentType" : 5126,
      "count" : 2234,
      "type" : "VEC2"
    },
    {
      "bufferView" : 5,
      "componentType" : 5126,
      "count" : 2234,
      "type" : "VEC2"
    },
    {
      "bufferView" : 6,
      "componentType" : 5126,
      "count" : 2234,
      "type" : "VEC2"
    }
  ]
}
