{
  "asset" : {
    "generator" : "UE Viewer (umodel) build 1590",
    "version" : "2.0"
  },
  "scene" : 0,
  "scenes" : [
    {
      "nodes" : [ 0 ]
    }
  ],
  "nodes" : [
    {
      "name" : "Co_BPI_Mount_Fence_D_typeB_300",
      "mesh" : 0
    }
  ],
  "materials" : [
    {
      "name" : "ObpMI_Mount_Fence_D",
      "pbrMetallicRoughness" : {
        "baseColorFactor" : [ 0.3, 0.3, 0.3, 1.0 ],
        "metallicFactor" : 0.1,
        "roughnessFactor" : 0.5
      }
    }
  ],
  "meshes" : [
    {
      "primitives" : [
        {
          "attributes" : {
            "POSITION" : 1,
            "NORMAL" : 2,
            "TANGENT" : 3,
            "TEXCOORD_0" : 4,
            "TEXCOORD_1" : 5
          },
          "indices" : 0,
          "material" : 0
        }
      ],
      "name" : "Co_BPI_Mount_Fence_D_typeB_300"
    }
  ],
  "buffers" : [
    {
      "uri" : "Co_BPI_Mount_Fence_D_typeB_300.bin",
      "byteLength" : 38076
    }
  ],
  "bufferViews" : [
    {
      "buffer" : 0,
      "byteOffset" : 0,
      "byteLength" : 1788
    },
    {
      "buffer" : 0,
      "byteOffset" : 1788,
      "byteLength" : 7776
    },
    {
      "buffer" : 0,
      "byteOffset" : 9564,
      "byteLength" : 7776
    },
    {
      "buffer" : 0,
      "byteOffset" : 17340,
      "byteLength" : 10368
    },
    {
      "buffer" : 0,
      "byteOffset" : 27708,
      "byteLength" : 5184
    },
    {
      "buffer" : 0,
      "byteOffset" : 32892,
      "byteLength" : 5184
    }
  ],
  "accessors" : [
    {
      "bufferView" : 0,
      "componentType" : 5123,
      "count" : 894,
      "type" : "SCALAR"
    },
    {
      "bufferView" : 1,
      "min" : [ -0.1875, -1.53081e-17, -0.25 ],
      "max" : [ 0.25, 1.25, 4.625 ],
      "componentType" : 5126,
      "count" : 648,
      "type" : "VEC3"
    },
    {
      "bufferView" : 2,
      "componentType" : 5126,
      "count" : 648,
      "type" : "VEC3"
    },
    {
      "bufferView" : 3,
      "componentType" : 5126,
      "count" : 648,
      "type" : "VEC4"
    },
    {
      "bufferView" : 4,
      "componentType" : 5126,
      "count" : 648,
      "type" : "VEC2"
    },
    {
      "bufferView" : 5,
      "componentType" : 5126,
      "count" : 648,
      "type" : "VEC2"
    }
  ]
}
