{
  "asset" : {
    "generator" : "UE Viewer (umodel) build 1590",
    "version" : "2.0"
  },
  "scene" : 0,
  "scenes" : [
    {
      "nodes" : [ 0 ]
    }
  ],
  "nodes" : [
    {
      "name" : "Co_BPI_Forest_Fence_A_100",
      "mesh" : 0
    }
  ],
  "materials" : [
    {
      "name" : "ObpMI_Forest_Fence_A",
      "pbrMetallicRoughness" : {
        "baseColorFactor" : [ 0.3, 0.3, 0.3, 1.0 ],
        "metallicFactor" : 0.1,
        "roughnessFactor" : 0.5
      }
    }
  ],
  "meshes" : [
    {
      "primitives" : [
        {
          "attributes" : {
            "POSITION" : 1,
            "NORMAL" : 2,
            "TANGENT" : 3,
            "TEXCOORD_0" : 4,
            "TEXCOORD_1" : 5
          },
          "indices" : 0,
          "material" : 0
        }
      ],
      "name" : "Co_BPI_Forest_Fence_A_100"
    }
  ],
  "buffers" : [
    {
      "uri" : "Co_BPI_Forest_Fence_A_100.bin",
      "byteLength" : 23280
    }
  ],
  "bufferViews" : [
    {
      "buffer" : 0,
      "byteOffset" : 0,
      "byteLength" : 1104
    },
    {
      "buffer" : 0,
      "byteOffset" : 1104,
      "byteLength" : 4752
    },
    {
      "buffer" : 0,
      "byteOffset" : 5856,
      "byteLength" : 4752
    },
    {
      "buffer" : 0,
      "byteOffset" : 10608,
      "byteLength" : 6336
    },
    {
      "buffer" : 0,
      "byteOffset" : 16944,
      "byteLength" : 3168
    },
    {
      "buffer" : 0,
      "byteOffset" : 20112,
      "byteLength" : 3168
    }
  ],
  "accessors" : [
    {
      "bufferView" : 0,
      "componentType" : 5123,
      "count" : 552,
      "type" : "SCALAR"
    },
    {
      "bufferView" : 1,
      "min" : [ -0.1875, -7.65404e-18, -0.125 ],
      "max" : [ 0.1875, 1.0625, 3.125 ],
      "componentType" : 5126,
      "count" : 396,
      "type" : "VEC3"
    },
    {
      "bufferView" : 2,
      "componentType" : 5126,
      "count" : 396,
      "type" : "VEC3"
    },
    {
      "bufferView" : 3,
      "componentType" : 5126,
      "count" : 396,
      "type" : "VEC4"
    },
    {
      "bufferView" : 4,
      "componentType" : 5126,
      "count" : 396,
      "type" : "VEC2"
    },
    {
      "bufferView" : 5,
      "componentType" : 5126,
      "count" : 396,
      "type" : "VEC2"
    }
  ]
}
