{
  "asset" : {
    "generator" : "UE Viewer (umodel) build 1590",
    "version" : "2.0"
  },
  "scene" : 0,
  "scenes" : [
    {
      "nodes" : [ 0 ]
    }
  ],
  "nodes" : [
    {
      "name" : "Co_BPI_Plain_Fence_A_nopillar_B_400",
      "mesh" : 0
    }
  ],
  "materials" : [
    {
      "name" : "ObpMI_Plain_Fence_A",
      "pbrMetallicRoughness" : {
        "baseColorFactor" : [ 0.3, 0.3, 0.3, 1.0 ],
        "metallicFactor" : 0.1,
        "roughnessFactor" : 0.5
      }
    }
  ],
  "meshes" : [
    {
      "primitives" : [
        {
          "attributes" : {
            "POSITION" : 1,
            "NORMAL" : 2,
            "TANGENT" : 3,
            "TEXCOORD_0" : 4,
            "TEXCOORD_1" : 5
          },
          "indices" : 0,
          "material" : 0
        }
      ],
      "name" : "Co_BPI_Plain_Fence_A_nopillar_B_400"
    }
  ],
  "buffers" : [
    {
      "uri" : "Co_BPI_Plain_Fence_A_nopillar_B_400.bin",
      "byteLength" : 20768
    }
  ],
  "bufferViews" : [
    {
      "buffer" : 0,
      "byteOffset" : 0,
      "byteLength" : 1056
    },
    {
      "buffer" : 0,
      "byteOffset" : 1056,
      "byteLength" : 4224
    },
    {
      "buffer" : 0,
      "byteOffset" : 5280,
      "byteLength" : 4224
    },
    {
      "buffer" : 0,
      "byteOffset" : 9504,
      "byteLength" : 5632
    },
    {
      "buffer" : 0,
      "byteOffset" : 15136,
      "byteLength" : 2816
    },
    {
      "buffer" : 0,
      "byteOffset" : 17952,
      "byteLength" : 2816
    }
  ],
  "accessors" : [
    {
      "bufferView" : 0,
      "componentType" : 5123,
      "count" : 528,
      "type" : "SCALAR"
    },
    {
      "bufferView" : 1,
      "min" : [ 0.0625, 0, -0.0625 ],
      "max" : [ 0.5625, 1, 5.93 ],
      "componentType" : 5126,
      "count" : 352,
      "type" : "VEC3"
    },
    {
      "bufferView" : 2,
      "componentType" : 5126,
      "count" : 352,
      "type" : "VEC3"
    },
    {
      "bufferView" : 3,
      "componentType" : 5126,
      "count" : 352,
      "type" : "VEC4"
    },
    {
      "bufferView" : 4,
      "componentType" : 5126,
      "count" : 352,
      "type" : "VEC2"
    },
    {
      "bufferView" : 5,
      "componentType" : 5126,
      "count" : 352,
      "type" : "VEC2"
    }
  ]
}
