{
  "asset" : {
    "generator" : "UE Viewer (umodel) build 1590",
    "version" : "2.0"
  },
  "scene" : 0,
  "scenes" : [
    {
      "nodes" : [ 0 ]
    }
  ],
  "nodes" : [
    {
      "name" : "Co_BPI_BD_Desert_Fence_A_400",
      "mesh" : 0
    }
  ],
  "materials" : [
    {
      "name" : "MbdMI_Desert",
      "pbrMetallicRoughness" : {
        "baseColorFactor" : [ 0.3, 0.3, 0.3, 1.0 ],
        "metallicFactor" : 0.1,
        "roughnessFactor" : 0.5
      }
    }
  ],
  "meshes" : [
    {
      "primitives" : [
        {
          "attributes" : {
            "POSITION" : 1,
            "NORMAL" : 2,
            "TANGENT" : 3,
            "TEXCOORD_0" : 4,
            "TEXCOORD_1" : 5
          },
          "indices" : 0,
          "material" : 0
        }
      ],
      "name" : "Co_BPI_BD_Desert_Fence_A_400"
    }
  ],
  "buffers" : [
    {
      "uri" : "Co_BPI_BD_Desert_Fence_A_400.bin",
      "byteLength" : 25724
    }
  ],
  "bufferViews" : [
    {
      "buffer" : 0,
      "byteOffset" : 0,
      "byteLength" : 1308
    },
    {
      "buffer" : 0,
      "byteOffset" : 1308,
      "byteLength" : 5232
    },
    {
      "buffer" : 0,
      "byteOffset" : 6540,
      "byteLength" : 5232
    },
    {
      "buffer" : 0,
      "byteOffset" : 11772,
      "byteLength" : 6976
    },
    {
      "buffer" : 0,
      "byteOffset" : 18748,
      "byteLength" : 3488
    },
    {
      "buffer" : 0,
      "byteOffset" : 22236,
      "byteLength" : 3488
    }
  ],
  "accessors" : [
    {
      "bufferView" : 0,
      "componentType" : 5123,
      "count" : 654,
      "type" : "SCALAR"
    },
    {
      "bufferView" : 1,
      "min" : [ 0, 0.0183058, -0.125 ],
      "max" : [ 0.125, 1, 6.125 ],
      "componentType" : 5126,
      "count" : 436,
      "type" : "VEC3"
    },
    {
      "bufferView" : 2,
      "componentType" : 5126,
      "count" : 436,
      "type" : "VEC3"
    },
    {
      "bufferView" : 3,
      "componentType" : 5126,
      "count" : 436,
      "type" : "VEC4"
    },
    {
      "bufferView" : 4,
      "componentType" : 5126,
      "count" : 436,
      "type" : "VEC2"
    },
    {
      "bufferView" : 5,
      "componentType" : 5126,
      "count" : 436,
      "type" : "VEC2"
    }
  ]
}
