{
  "asset" : {
    "generator" : "UE Viewer (umodel) build 1590",
    "version" : "2.0"
  },
  "scene" : 0,
  "scenes" : [
    {
      "nodes" : [ 0 ]
    }
  ],
  "nodes" : [
    {
      "name" : "Co_BPI_Forest_Fence_A_200",
      "mesh" : 0
    }
  ],
  "materials" : [
    {
      "name" : "ObpMI_Forest_Fence_A",
      "pbrMetallicRoughness" : {
        "baseColorFactor" : [ 0.3, 0.3, 0.3, 1.0 ],
        "metallicFactor" : 0.1,
        "roughnessFactor" : 0.5
      }
    }
  ],
  "meshes" : [
    {
      "primitives" : [
        {
          "attributes" : {
            "POSITION" : 1,
            "NORMAL" : 2,
            "TANGENT" : 3,
            "TEXCOORD_0" : 4,
            "TEXCOORD_1" : 5
          },
          "indices" : 0,
          "material" : 0
        }
      ],
      "name" : "Co_BPI_Forest_Fence_A_200"
    }
  ],
  "buffers" : [
    {
      "uri" : "Co_BPI_Forest_Fence_A_200.bin",
      "byteLength" : 31032
    }
  ],
  "bufferViews" : [
    {
      "buffer" : 0,
      "byteOffset" : 0,
      "byteLength" : 1464
    },
    {
      "buffer" : 0,
      "byteOffset" : 1464,
      "byteLength" : 6336
    },
    {
      "buffer" : 0,
      "byteOffset" : 7800,
      "byteLength" : 6336
    },
    {
      "buffer" : 0,
      "byteOffset" : 14136,
      "byteLength" : 8448
    },
    {
      "buffer" : 0,
      "byteOffset" : 22584,
      "byteLength" : 4224
    },
    {
      "buffer" : 0,
      "byteOffset" : 26808,
      "byteLength" : 4224
    }
  ],
  "accessors" : [
    {
      "bufferView" : 0,
      "componentType" : 5123,
      "count" : 732,
      "type" : "SCALAR"
    },
    {
      "bufferView" : 1,
      "min" : [ -0.1875, -7.65404e-18, -0.125 ],
      "max" : [ 0.1875, 1.0625, 4.125 ],
      "componentType" : 5126,
      "count" : 528,
      "type" : "VEC3"
    },
    {
      "bufferView" : 2,
      "componentType" : 5126,
      "count" : 528,
      "type" : "VEC3"
    },
    {
      "bufferView" : 3,
      "componentType" : 5126,
      "count" : 528,
      "type" : "VEC4"
    },
    {
      "bufferView" : 4,
      "componentType" : 5126,
      "count" : 528,
      "type" : "VEC2"
    },
    {
      "bufferView" : 5,
      "componentType" : 5126,
      "count" : 528,
      "type" : "VEC2"
    }
  ]
}
