{
  "asset" : {
    "generator" : "UE Viewer (umodel) build 1590",
    "version" : "2.0"
  },
  "scene" : 0,
  "scenes" : [
    {
      "nodes" : [ 0 ]
    }
  ],
  "nodes" : [
    {
      "name" : "Co_BPI_River_Fence_C_100",
      "mesh" : 0
    }
  ],
  "materials" : [
    {
      "name" : "MmeMI_River_T_Terrain_Tile_02",
      "pbrMetallicRoughness" : {
        "baseColorFactor" : [ 0.3, 0.3, 0.3, 1.0 ],
        "metallicFactor" : 0.1,
        "roughnessFactor" : 0.5
      }
    }
  ],
  "meshes" : [
    {
      "primitives" : [
        {
          "attributes" : {
            "POSITION" : 1,
            "NORMAL" : 2,
            "TANGENT" : 3,
            "TEXCOORD_0" : 4,
            "TEXCOORD_1" : 5
          },
          "indices" : 0,
          "material" : 0
        }
      ],
      "name" : "Co_BPI_River_Fence_C_100"
    }
  ],
  "buffers" : [
    {
      "uri" : "Co_BPI_River_Fence_C_100.bin",
      "byteLength" : 17844
    }
  ],
  "bufferViews" : [
    {
      "buffer" : 0,
      "byteOffset" : 0,
      "byteLength" : 1044
    },
    {
      "buffer" : 0,
      "byteOffset" : 1044,
      "byteLength" : 3600
    },
    {
      "buffer" : 0,
      "byteOffset" : 4644,
      "byteLength" : 3600
    },
    {
      "buffer" : 0,
      "byteOffset" : 8244,
      "byteLength" : 4800
    },
    {
      "buffer" : 0,
      "byteOffset" : 13044,
      "byteLength" : 2400
    },
    {
      "buffer" : 0,
      "byteOffset" : 15444,
      "byteLength" : 2400
    }
  ],
  "accessors" : [
    {
      "bufferView" : 0,
      "componentType" : 5123,
      "count" : 522,
      "type" : "SCALAR"
    },
    {
      "bufferView" : 1,
      "min" : [ -3.12924e-07, -1.14657e-17, -0.187374 ],
      "max" : [ 0.5, 1, 3.18805 ],
      "componentType" : 5126,
      "count" : 300,
      "type" : "VEC3"
    },
    {
      "bufferView" : 2,
      "componentType" : 5126,
      "count" : 300,
      "type" : "VEC3"
    },
    {
      "bufferView" : 3,
      "componentType" : 5126,
      "count" : 300,
      "type" : "VEC4"
    },
    {
      "bufferView" : 4,
      "componentType" : 5126,
      "count" : 300,
      "type" : "VEC2"
    },
    {
      "bufferView" : 5,
      "componentType" : 5126,
      "count" : 300,
      "type" : "VEC2"
    }
  ]
}
