{
  "asset" : {
    "generator" : "UE Viewer (umodel) build 1590",
    "version" : "2.0"
  },
  "scene" : 0,
  "scenes" : [
    {
      "nodes" : [ 0 ]
    }
  ],
  "nodes" : [
    {
      "name" : "Co_BPI_Mount_Fence_D_typeB_200",
      "mesh" : 0
    }
  ],
  "materials" : [
    {
      "name" : "ObpMI_Mount_Fence_D",
      "pbrMetallicRoughness" : {
        "baseColorFactor" : [ 0.3, 0.3, 0.3, 1.0 ],
        "metallicFactor" : 0.1,
        "roughnessFactor" : 0.5
      }
    }
  ],
  "meshes" : [
    {
      "primitives" : [
        {
          "attributes" : {
            "POSITION" : 1,
            "NORMAL" : 2,
            "TANGENT" : 3,
            "TEXCOORD_0" : 4,
            "TEXCOORD_1" : 5
          },
          "indices" : 0,
          "material" : 0
        }
      ],
      "name" : "Co_BPI_Mount_Fence_D_typeB_200"
    }
  ],
  "buffers" : [
    {
      "uri" : "Co_BPI_Mount_Fence_D_typeB_200.bin",
      "byteLength" : 30560
    }
  ],
  "bufferViews" : [
    {
      "buffer" : 0,
      "byteOffset" : 0,
      "byteLength" : 1440
    },
    {
      "buffer" : 0,
      "byteOffset" : 1440,
      "byteLength" : 6240
    },
    {
      "buffer" : 0,
      "byteOffset" : 7680,
      "byteLength" : 6240
    },
    {
      "buffer" : 0,
      "byteOffset" : 13920,
      "byteLength" : 8320
    },
    {
      "buffer" : 0,
      "byteOffset" : 22240,
      "byteLength" : 4160
    },
    {
      "buffer" : 0,
      "byteOffset" : 26400,
      "byteLength" : 4160
    }
  ],
  "accessors" : [
    {
      "bufferView" : 0,
      "componentType" : 5123,
      "count" : 720,
      "type" : "SCALAR"
    },
    {
      "bufferView" : 1,
      "min" : [ -0.1875, -1.53081e-17, -0.25 ],
      "max" : [ 0.25, 1.25, 3.625 ],
      "componentType" : 5126,
      "count" : 520,
      "type" : "VEC3"
    },
    {
      "bufferView" : 2,
      "componentType" : 5126,
      "count" : 520,
      "type" : "VEC3"
    },
    {
      "bufferView" : 3,
      "componentType" : 5126,
      "count" : 520,
      "type" : "VEC4"
    },
    {
      "bufferView" : 4,
      "componentType" : 5126,
      "count" : 520,
      "type" : "VEC2"
    },
    {
      "bufferView" : 5,
      "componentType" : 5126,
      "count" : 520,
      "type" : "VEC2"
    }
  ]
}
