{
  "asset" : {
    "generator" : "UE Viewer (umodel) build 1590",
    "version" : "2.0"
  },
  "scene" : 0,
  "scenes" : [
    {
      "nodes" : [ 0 ]
    }
  ],
  "nodes" : [
    {
      "name" : "Co_BPI_Sea_Fence_pillar_A_700",
      "mesh" : 0
    }
  ],
  "materials" : [
    {
      "name" : "ObpMI_Sea_Fence_A",
      "pbrMetallicRoughness" : {
        "baseColorFactor" : [ 0.3, 0.3, 0.3, 1.0 ],
        "metallicFactor" : 0.1,
        "roughnessFactor" : 0.5
      }
    }
  ],
  "meshes" : [
    {
      "primitives" : [
        {
          "attributes" : {
            "POSITION" : 1,
            "NORMAL" : 2,
            "TANGENT" : 3,
            "TEXCOORD_0" : 4,
            "TEXCOORD_1" : 5
          },
          "indices" : 0,
          "material" : 0
        }
      ],
      "name" : "Co_BPI_Sea_Fence_pillar_A_700"
    }
  ],
  "buffers" : [
    {
      "uri" : "Co_BPI_Sea_Fence_pillar_A_700.bin",
      "byteLength" : 8756
    }
  ],
  "bufferViews" : [
    {
      "buffer" : 0,
      "byteOffset" : 0,
      "byteLength" : 468
    },
    {
      "buffer" : 0,
      "byteOffset" : 468,
      "byteLength" : 1776
    },
    {
      "buffer" : 0,
      "byteOffset" : 2244,
      "byteLength" : 1776
    },
    {
      "buffer" : 0,
      "byteOffset" : 4020,
      "byteLength" : 2368
    },
    {
      "buffer" : 0,
      "byteOffset" : 6388,
      "byteLength" : 1184
    },
    {
      "buffer" : 0,
      "byteOffset" : 7572,
      "byteLength" : 1184
    }
  ],
  "accessors" : [
    {
      "bufferView" : 0,
      "componentType" : 5123,
      "count" : 234,
      "type" : "SCALAR"
    },
    {
      "bufferView" : 1,
      "min" : [ -0.0625, 0, -0.0625 ],
      "max" : [ 0.6875, 8.75, 0.6875 ],
      "componentType" : 5126,
      "count" : 148,
      "type" : "VEC3"
    },
    {
      "bufferView" : 2,
      "componentType" : 5126,
      "count" : 148,
      "type" : "VEC3"
    },
    {
      "bufferView" : 3,
      "componentType" : 5126,
      "count" : 148,
      "type" : "VEC4"
    },
    {
      "bufferView" : 4,
      "componentType" : 5126,
      "count" : 148,
      "type" : "VEC2"
    },
    {
      "bufferView" : 5,
      "componentType" : 5126,
      "count" : 148,
      "type" : "VEC2"
    }
  ]
}
