{
  "asset" : {
    "generator" : "UE Viewer (umodel) build 1590",
    "version" : "2.0"
  },
  "scene" : 0,
  "scenes" : [
    {
      "nodes" : [ 0 ]
    }
  ],
  "nodes" : [
    {
      "name" : "Co_BPI_Plain_Fence_pillar_A_700",
      "mesh" : 0
    }
  ],
  "materials" : [
    {
      "name" : "ObpMI_Plain_Fence_A",
      "pbrMetallicRoughness" : {
        "baseColorFactor" : [ 0.3, 0.3, 0.3, 1.0 ],
        "metallicFactor" : 0.1,
        "roughnessFactor" : 0.5
      }
    }
  ],
  "meshes" : [
    {
      "primitives" : [
        {
          "attributes" : {
            "POSITION" : 1,
            "NORMAL" : 2,
            "TANGENT" : 3,
            "TEXCOORD_0" : 4,
            "TEXCOORD_1" : 5
          },
          "indices" : 0,
          "material" : 0
        }
      ],
      "name" : "Co_BPI_Plain_Fence_pillar_A_700"
    }
  ],
  "buffers" : [
    {
      "uri" : "Co_BPI_Plain_Fence_pillar_A_700.bin",
      "byteLength" : 10668
    }
  ],
  "bufferViews" : [
    {
      "buffer" : 0,
      "byteOffset" : 0,
      "byteLength" : 588
    },
    {
      "buffer" : 0,
      "byteOffset" : 588,
      "byteLength" : 2160
    },
    {
      "buffer" : 0,
      "byteOffset" : 2748,
      "byteLength" : 2160
    },
    {
      "buffer" : 0,
      "byteOffset" : 4908,
      "byteLength" : 2880
    },
    {
      "buffer" : 0,
      "byteOffset" : 7788,
      "byteLength" : 1440
    },
    {
      "buffer" : 0,
      "byteOffset" : 9228,
      "byteLength" : 1440
    }
  ],
  "accessors" : [
    {
      "bufferView" : 0,
      "componentType" : 5123,
      "count" : 294,
      "type" : "SCALAR"
    },
    {
      "bufferView" : 1,
      "min" : [ -0.0625, 0, -0.0625 ],
      "max" : [ 0.6875, 9.125, 0.6875 ],
      "componentType" : 5126,
      "count" : 180,
      "type" : "VEC3"
    },
    {
      "bufferView" : 2,
      "componentType" : 5126,
      "count" : 180,
      "type" : "VEC3"
    },
    {
      "bufferView" : 3,
      "componentType" : 5126,
      "count" : 180,
      "type" : "VEC4"
    },
    {
      "bufferView" : 4,
      "componentType" : 5126,
      "count" : 180,
      "type" : "VEC2"
    },
    {
      "bufferView" : 5,
      "componentType" : 5126,
      "count" : 180,
      "type" : "VEC2"
    }
  ]
}
