{
  "asset" : {
    "generator" : "UE Viewer (umodel) build 1590",
    "version" : "2.0"
  },
  "scene" : 0,
  "scenes" : [
    {
      "nodes" : [ 0 ]
    }
  ],
  "nodes" : [
    {
      "name" : "Co_BPI_Desert_Fence_A_300",
      "mesh" : 0
    }
  ],
  "materials" : [
    {
      "name" : "ObpMI_Desert_Fence_A",
      "pbrMetallicRoughness" : {
        "baseColorFactor" : [ 0.3, 0.3, 0.3, 1.0 ],
        "metallicFactor" : 0.1,
        "roughnessFactor" : 0.5
      }
    }
  ],
  "meshes" : [
    {
      "primitives" : [
        {
          "attributes" : {
            "POSITION" : 1,
            "NORMAL" : 2,
            "TANGENT" : 3,
            "TEXCOORD_0" : 4,
            "TEXCOORD_1" : 5
          },
          "indices" : 0,
          "material" : 0
        }
      ],
      "name" : "Co_BPI_Desert_Fence_A_300"
    }
  ],
  "buffers" : [
    {
      "uri" : "Co_BPI_Desert_Fence_A_300.bin",
      "byteLength" : 46044
    }
  ],
  "bufferViews" : [
    {
      "buffer" : 0,
      "byteOffset" : 0,
      "byteLength" : 2700
    },
    {
      "buffer" : 0,
      "byteOffset" : 2700,
      "byteLength" : 9288
    },
    {
      "buffer" : 0,
      "byteOffset" : 11988,
      "byteLength" : 9288
    },
    {
      "buffer" : 0,
      "byteOffset" : 21276,
      "byteLength" : 12384
    },
    {
      "buffer" : 0,
      "byteOffset" : 33660,
      "byteLength" : 6192
    },
    {
      "buffer" : 0,
      "byteOffset" : 39852,
      "byteLength" : 6192
    }
  ],
  "accessors" : [
    {
      "bufferView" : 0,
      "componentType" : 5123,
      "count" : 1350,
      "type" : "SCALAR"
    },
    {
      "bufferView" : 1,
      "min" : [ -0.0587308, -3.35276e-10, -0.15625 ],
      "max" : [ 0.5, 1.07853, 4.57375 ],
      "componentType" : 5126,
      "count" : 774,
      "type" : "VEC3"
    },
    {
      "bufferView" : 2,
      "componentType" : 5126,
      "count" : 774,
      "type" : "VEC3"
    },
    {
      "bufferView" : 3,
      "componentType" : 5126,
      "count" : 774,
      "type" : "VEC4"
    },
    {
      "bufferView" : 4,
      "componentType" : 5126,
      "count" : 774,
      "type" : "VEC2"
    },
    {
      "bufferView" : 5,
      "componentType" : 5126,
      "count" : 774,
      "type" : "VEC2"
    }
  ]
}
