{
  "asset" : {
    "generator" : "UE Viewer (umodel) build 1590",
    "version" : "2.0"
  },
  "scene" : 0,
  "scenes" : [
    {
      "nodes" : [ 0 ]
    }
  ],
  "nodes" : [
    {
      "name" : "Co_BPI_BD_Desert_Fence_A_200",
      "mesh" : 0
    }
  ],
  "materials" : [
    {
      "name" : "MbdMI_Desert",
      "pbrMetallicRoughness" : {
        "baseColorFactor" : [ 0.3, 0.3, 0.3, 1.0 ],
        "metallicFactor" : 0.1,
        "roughnessFactor" : 0.5
      }
    }
  ],
  "meshes" : [
    {
      "primitives" : [
        {
          "attributes" : {
            "POSITION" : 1,
            "NORMAL" : 2,
            "TANGENT" : 3,
            "TEXCOORD_0" : 4,
            "TEXCOORD_1" : 5
          },
          "indices" : 0,
          "material" : 0
        }
      ],
      "name" : "Co_BPI_BD_Desert_Fence_A_200"
    }
  ],
  "buffers" : [
    {
      "uri" : "Co_BPI_BD_Desert_Fence_A_200.bin",
      "byteLength" : 17700
    }
  ],
  "bufferViews" : [
    {
      "buffer" : 0,
      "byteOffset" : 0,
      "byteLength" : 900
    },
    {
      "buffer" : 0,
      "byteOffset" : 900,
      "byteLength" : 3600
    },
    {
      "buffer" : 0,
      "byteOffset" : 4500,
      "byteLength" : 3600
    },
    {
      "buffer" : 0,
      "byteOffset" : 8100,
      "byteLength" : 4800
    },
    {
      "buffer" : 0,
      "byteOffset" : 12900,
      "byteLength" : 2400
    },
    {
      "buffer" : 0,
      "byteOffset" : 15300,
      "byteLength" : 2400
    }
  ],
  "accessors" : [
    {
      "bufferView" : 0,
      "componentType" : 5123,
      "count" : 450,
      "type" : "SCALAR"
    },
    {
      "bufferView" : 1,
      "min" : [ 0, 0.0183058, -0.125 ],
      "max" : [ 0.125, 1, 4.125 ],
      "componentType" : 5126,
      "count" : 300,
      "type" : "VEC3"
    },
    {
      "bufferView" : 2,
      "componentType" : 5126,
      "count" : 300,
      "type" : "VEC3"
    },
    {
      "bufferView" : 3,
      "componentType" : 5126,
      "count" : 300,
      "type" : "VEC4"
    },
    {
      "bufferView" : 4,
      "componentType" : 5126,
      "count" : 300,
      "type" : "VEC2"
    },
    {
      "bufferView" : 5,
      "componentType" : 5126,
      "count" : 300,
      "type" : "VEC2"
    }
  ]
}
