{
  "asset" : {
    "generator" : "UE Viewer (umodel) build 1590",
    "version" : "2.0"
  },
  "scene" : 0,
  "scenes" : [
    {
      "nodes" : [ 0 ]
    }
  ],
  "nodes" : [
    {
      "name" : "Co_BPI_River_Fence_C_500",
      "mesh" : 0
    }
  ],
  "materials" : [
    {
      "name" : "MmeMI_River_T_Terrain_Tile_02",
      "pbrMetallicRoughness" : {
        "baseColorFactor" : [ 0.3, 0.3, 0.3, 1.0 ],
        "metallicFactor" : 0.1,
        "roughnessFactor" : 0.5
      }
    }
  ],
  "meshes" : [
    {
      "primitives" : [
        {
          "attributes" : {
            "POSITION" : 1,
            "NORMAL" : 2,
            "TANGENT" : 3,
            "TEXCOORD_0" : 4,
            "TEXCOORD_1" : 5
          },
          "indices" : 0,
          "material" : 0
        }
      ],
      "name" : "Co_BPI_River_Fence_C_500"
    }
  ],
  "buffers" : [
    {
      "uri" : "Co_BPI_River_Fence_C_500.bin",
      "byteLength" : 37860
    }
  ],
  "bufferViews" : [
    {
      "buffer" : 0,
      "byteOffset" : 0,
      "byteLength" : 2244
    },
    {
      "buffer" : 0,
      "byteOffset" : 2244,
      "byteLength" : 7632
    },
    {
      "buffer" : 0,
      "byteOffset" : 9876,
      "byteLength" : 7632
    },
    {
      "buffer" : 0,
      "byteOffset" : 17508,
      "byteLength" : 10176
    },
    {
      "buffer" : 0,
      "byteOffset" : 27684,
      "byteLength" : 5088
    },
    {
      "buffer" : 0,
      "byteOffset" : 32772,
      "byteLength" : 5088
    }
  ],
  "accessors" : [
    {
      "bufferView" : 0,
      "componentType" : 5123,
      "count" : 1122,
      "type" : "SCALAR"
    },
    {
      "bufferView" : 1,
      "min" : [ -3.12924e-07, -1.14657e-17, -0.187374 ],
      "max" : [ 0.5, 1, 7.18805 ],
      "componentType" : 5126,
      "count" : 636,
      "type" : "VEC3"
    },
    {
      "bufferView" : 2,
      "componentType" : 5126,
      "count" : 636,
      "type" : "VEC3"
    },
    {
      "bufferView" : 3,
      "componentType" : 5126,
      "count" : 636,
      "type" : "VEC4"
    },
    {
      "bufferView" : 4,
      "componentType" : 5126,
      "count" : 636,
      "type" : "VEC2"
    },
    {
      "bufferView" : 5,
      "componentType" : 5126,
      "count" : 636,
      "type" : "VEC2"
    }
  ]
}
