{
  "asset" : {
    "generator" : "UE Viewer (umodel) build 1590",
    "version" : "2.0"
  },
  "scene" : 0,
  "scenes" : [
    {
      "nodes" : [ 0 ]
    }
  ],
  "nodes" : [
    {
      "name" : "Co_BPI_Mount_Fence_B_300",
      "mesh" : 0
    }
  ],
  "materials" : [
    {
      "name" : "ObpMI_Mount_Fence_B",
      "pbrMetallicRoughness" : {
        "baseColorFactor" : [ 0.3, 0.3, 0.3, 1.0 ],
        "metallicFactor" : 0.1,
        "roughnessFactor" : 0.5
      }
    }
  ],
  "meshes" : [
    {
      "primitives" : [
        {
          "attributes" : {
            "POSITION" : 1,
            "NORMAL" : 2,
            "TANGENT" : 3,
            "TEXCOORD_0" : 4,
            "TEXCOORD_1" : 5
          },
          "indices" : 0,
          "material" : 0
        }
      ],
      "name" : "Co_BPI_Mount_Fence_B_300"
    }
  ],
  "buffers" : [
    {
      "uri" : "Co_BPI_Mount_Fence_B_300.bin",
      "byteLength" : 20568
    }
  ],
  "bufferViews" : [
    {
      "buffer" : 0,
      "byteOffset" : 0,
      "byteLength" : 1080
    },
    {
      "buffer" : 0,
      "byteOffset" : 1080,
      "byteLength" : 4176
    },
    {
      "buffer" : 0,
      "byteOffset" : 5256,
      "byteLength" : 4176
    },
    {
      "buffer" : 0,
      "byteOffset" : 9432,
      "byteLength" : 5568
    },
    {
      "buffer" : 0,
      "byteOffset" : 15000,
      "byteLength" : 2784
    },
    {
      "buffer" : 0,
      "byteOffset" : 17784,
      "byteLength" : 2784
    }
  ],
  "accessors" : [
    {
      "bufferView" : 0,
      "componentType" : 5123,
      "count" : 540,
      "type" : "SCALAR"
    },
    {
      "bufferView" : 1,
      "min" : [ -0.0853767, -1.02775e-15, -4.59243e-17 ],
      "max" : [ 0.0912935, 1.0625, 4.6875 ],
      "componentType" : 5126,
      "count" : 348,
      "type" : "VEC3"
    },
    {
      "bufferView" : 2,
      "componentType" : 5126,
      "count" : 348,
      "type" : "VEC3"
    },
    {
      "bufferView" : 3,
      "componentType" : 5126,
      "count" : 348,
      "type" : "VEC4"
    },
    {
      "bufferView" : 4,
      "componentType" : 5126,
      "count" : 348,
      "type" : "VEC2"
    },
    {
      "bufferView" : 5,
      "componentType" : 5126,
      "count" : 348,
      "type" : "VEC2"
    }
  ]
}
