{
  "asset" : {
    "generator" : "UE Viewer (umodel) build 1590",
    "version" : "2.0"
  },
  "scene" : 0,
  "scenes" : [
    {
      "nodes" : [ 0 ]
    }
  ],
  "nodes" : [
    {
      "name" : "Co_BPI_Sea_Fence_pillar_A_300",
      "mesh" : 0
    }
  ],
  "materials" : [
    {
      "name" : "ObpMI_Sea_Fence_A",
      "pbrMetallicRoughness" : {
        "baseColorFactor" : [ 0.3, 0.3, 0.3, 1.0 ],
        "metallicFactor" : 0.1,
        "roughnessFactor" : 0.5
      }
    }
  ],
  "meshes" : [
    {
      "primitives" : [
        {
          "attributes" : {
            "POSITION" : 1,
            "NORMAL" : 2,
            "TANGENT" : 3,
            "TEXCOORD_0" : 4,
            "TEXCOORD_1" : 5
          },
          "indices" : 0,
          "material" : 0
        }
      ],
      "name" : "Co_BPI_Sea_Fence_pillar_A_300"
    }
  ],
  "buffers" : [
    {
      "uri" : "Co_BPI_Sea_Fence_pillar_A_300.bin",
      "byteLength" : 4980
    }
  ],
  "bufferViews" : [
    {
      "buffer" : 0,
      "byteOffset" : 0,
      "byteLength" : 276
    },
    {
      "buffer" : 0,
      "byteOffset" : 276,
      "byteLength" : 1008
    },
    {
      "buffer" : 0,
      "byteOffset" : 1284,
      "byteLength" : 1008
    },
    {
      "buffer" : 0,
      "byteOffset" : 2292,
      "byteLength" : 1344
    },
    {
      "buffer" : 0,
      "byteOffset" : 3636,
      "byteLength" : 672
    },
    {
      "buffer" : 0,
      "byteOffset" : 4308,
      "byteLength" : 672
    }
  ],
  "accessors" : [
    {
      "bufferView" : 0,
      "componentType" : 5123,
      "count" : 138,
      "type" : "SCALAR"
    },
    {
      "bufferView" : 1,
      "min" : [ -0.0625, 0, -0.0625 ],
      "max" : [ 0.6875, 4.75, 0.6875 ],
      "componentType" : 5126,
      "count" : 84,
      "type" : "VEC3"
    },
    {
      "bufferView" : 2,
      "componentType" : 5126,
      "count" : 84,
      "type" : "VEC3"
    },
    {
      "bufferView" : 3,
      "componentType" : 5126,
      "count" : 84,
      "type" : "VEC4"
    },
    {
      "bufferView" : 4,
      "componentType" : 5126,
      "count" : 84,
      "type" : "VEC2"
    },
    {
      "bufferView" : 5,
      "componentType" : 5126,
      "count" : 84,
      "type" : "VEC2"
    }
  ]
}
