{
  "asset" : {
    "generator" : "UE Viewer (umodel) build 1590",
    "version" : "2.0"
  },
  "scene" : 0,
  "scenes" : [
    {
      "nodes" : [ 0 ]
    }
  ],
  "nodes" : [
    {
      "name" : "Co_BPI_River_Fence_C_700",
      "mesh" : 0
    }
  ],
  "materials" : [
    {
      "name" : "MmeMI_River_T_Terrain_Tile_02",
      "pbrMetallicRoughness" : {
        "baseColorFactor" : [ 0.3, 0.3, 0.3, 1.0 ],
        "metallicFactor" : 0.1,
        "roughnessFactor" : 0.5
      }
    }
  ],
  "meshes" : [
    {
      "primitives" : [
        {
          "attributes" : {
            "POSITION" : 1,
            "NORMAL" : 2,
            "TANGENT" : 3,
            "TEXCOORD_0" : 4,
            "TEXCOORD_1" : 5
          },
          "indices" : 0,
          "material" : 0
        }
      ],
      "name" : "Co_BPI_River_Fence_C_700"
    }
  ],
  "buffers" : [
    {
      "uri" : "Co_BPI_River_Fence_C_700.bin",
      "byteLength" : 47868
    }
  ],
  "bufferViews" : [
    {
      "buffer" : 0,
      "byteOffset" : 0,
      "byteLength" : 2844
    },
    {
      "buffer" : 0,
      "byteOffset" : 2844,
      "byteLength" : 9648
    },
    {
      "buffer" : 0,
      "byteOffset" : 12492,
      "byteLength" : 9648
    },
    {
      "buffer" : 0,
      "byteOffset" : 22140,
      "byteLength" : 12864
    },
    {
      "buffer" : 0,
      "byteOffset" : 35004,
      "byteLength" : 6432
    },
    {
      "buffer" : 0,
      "byteOffset" : 41436,
      "byteLength" : 6432
    }
  ],
  "accessors" : [
    {
      "bufferView" : 0,
      "componentType" : 5123,
      "count" : 1422,
      "type" : "SCALAR"
    },
    {
      "bufferView" : 1,
      "min" : [ -3.12924e-07, -1.14657e-17, -0.187374 ],
      "max" : [ 0.5, 1, 9.18805 ],
      "componentType" : 5126,
      "count" : 804,
      "type" : "VEC3"
    },
    {
      "bufferView" : 2,
      "componentType" : 5126,
      "count" : 804,
      "type" : "VEC3"
    },
    {
      "bufferView" : 3,
      "componentType" : 5126,
      "count" : 804,
      "type" : "VEC4"
    },
    {
      "bufferView" : 4,
      "componentType" : 5126,
      "count" : 804,
      "type" : "VEC2"
    },
    {
      "bufferView" : 5,
      "componentType" : 5126,
      "count" : 804,
      "type" : "VEC2"
    }
  ]
}
