{
  "asset" : {
    "generator" : "UE Viewer (umodel) build 1590",
    "version" : "2.0"
  },
  "scene" : 0,
  "scenes" : [
    {
      "nodes" : [ 0 ]
    }
  ],
  "nodes" : [
    {
      "name" : "Co_BPI_River_Fence_B_400",
      "mesh" : 0
    }
  ],
  "materials" : [
    {
      "name" : "ObpMI_River_Fence_B",
      "pbrMetallicRoughness" : {
        "baseColorFactor" : [ 0.3, 0.3, 0.3, 1.0 ],
        "metallicFactor" : 0.1,
        "roughnessFactor" : 0.5
      }
    }
  ],
  "meshes" : [
    {
      "primitives" : [
        {
          "attributes" : {
            "POSITION" : 1,
            "NORMAL" : 2,
            "TANGENT" : 3,
            "TEXCOORD_0" : 4,
            "TEXCOORD_1" : 5
          },
          "indices" : 0,
          "material" : 0
        }
      ],
      "name" : "Co_BPI_River_Fence_B_400"
    }
  ],
  "buffers" : [
    {
      "uri" : "Co_BPI_River_Fence_B_400.bin",
      "byteLength" : 26668
    }
  ],
  "bufferViews" : [
    {
      "buffer" : 0,
      "byteOffset" : 0,
      "byteLength" : 1356
    },
    {
      "buffer" : 0,
      "byteOffset" : 1356,
      "byteLength" : 5424
    },
    {
      "buffer" : 0,
      "byteOffset" : 6780,
      "byteLength" : 5424
    },
    {
      "buffer" : 0,
      "byteOffset" : 12204,
      "byteLength" : 7232
    },
    {
      "buffer" : 0,
      "byteOffset" : 19436,
      "byteLength" : 3616
    },
    {
      "buffer" : 0,
      "byteOffset" : 23052,
      "byteLength" : 3616
    }
  ],
  "accessors" : [
    {
      "bufferView" : 0,
      "componentType" : 5123,
      "count" : 678,
      "type" : "SCALAR"
    },
    {
      "bufferView" : 1,
      "min" : [ -0.0625, 0, -5.74053e-17 ],
      "max" : [ 0.0625, 1, 5.35 ],
      "componentType" : 5126,
      "count" : 452,
      "type" : "VEC3"
    },
    {
      "bufferView" : 2,
      "componentType" : 5126,
      "count" : 452,
      "type" : "VEC3"
    },
    {
      "bufferView" : 3,
      "componentType" : 5126,
      "count" : 452,
      "type" : "VEC4"
    },
    {
      "bufferView" : 4,
      "componentType" : 5126,
      "count" : 452,
      "type" : "VEC2"
    },
    {
      "bufferView" : 5,
      "componentType" : 5126,
      "count" : 452,
      "type" : "VEC2"
    }
  ]
}
