{
  "asset" : {
    "generator" : "UE Viewer (umodel) build 1590",
    "version" : "2.0"
  },
  "scene" : 0,
  "scenes" : [
    {
      "nodes" : [ 0 ]
    }
  ],
  "nodes" : [
    {
      "name" : "Co_BPI_Plain_Fence_B_700",
      "mesh" : 0
    }
  ],
  "materials" : [
    {
      "name" : "ObpMI_Plain_Fence_B",
      "pbrMetallicRoughness" : {
        "baseColorFactor" : [ 0.3, 0.3, 0.3, 1.0 ],
        "metallicFactor" : 0.1,
        "roughnessFactor" : 0.5
      }
    }
  ],
  "meshes" : [
    {
      "primitives" : [
        {
          "attributes" : {
            "POSITION" : 1,
            "NORMAL" : 2,
            "TANGENT" : 3,
            "TEXCOORD_0" : 4,
            "TEXCOORD_1" : 5
          },
          "indices" : 0,
          "material" : 0
        }
      ],
      "name" : "Co_BPI_Plain_Fence_B_700"
    }
  ],
  "buffers" : [
    {
      "uri" : "Co_BPI_Plain_Fence_B_700.bin",
      "byteLength" : 48416
    }
  ],
  "bufferViews" : [
    {
      "buffer" : 0,
      "byteOffset" : 0,
      "byteLength" : 2496
    },
    {
      "buffer" : 0,
      "byteOffset" : 2496,
      "byteLength" : 9840
    },
    {
      "buffer" : 0,
      "byteOffset" : 12336,
      "byteLength" : 9840
    },
    {
      "buffer" : 0,
      "byteOffset" : 22176,
      "byteLength" : 13120
    },
    {
      "buffer" : 0,
      "byteOffset" : 35296,
      "byteLength" : 6560
    },
    {
      "buffer" : 0,
      "byteOffset" : 41856,
      "byteLength" : 6560
    }
  ],
  "accessors" : [
    {
      "bufferView" : 0,
      "componentType" : 5123,
      "count" : 1248,
      "type" : "SCALAR"
    },
    {
      "bufferView" : 1,
      "min" : [ -0.0853767, -1.02984e-15, -5.74053e-17 ],
      "max" : [ 0.166354, 1.0625, 8.3125 ],
      "componentType" : 5126,
      "count" : 820,
      "type" : "VEC3"
    },
    {
      "bufferView" : 2,
      "componentType" : 5126,
      "count" : 820,
      "type" : "VEC3"
    },
    {
      "bufferView" : 3,
      "componentType" : 5126,
      "count" : 820,
      "type" : "VEC4"
    },
    {
      "bufferView" : 4,
      "componentType" : 5126,
      "count" : 820,
      "type" : "VEC2"
    },
    {
      "bufferView" : 5,
      "componentType" : 5126,
      "count" : 820,
      "type" : "VEC2"
    }
  ]
}
