{
  "asset" : {
    "generator" : "UE Viewer (umodel) build 1590",
    "version" : "2.0"
  },
  "scene" : 0,
  "scenes" : [
    {
      "nodes" : [ 0 ]
    }
  ],
  "nodes" : [
    {
      "name" : "Co_BPI_Mount_Fence_E_600",
      "mesh" : 0
    }
  ],
  "materials" : [
    {
      "name" : "ObpMI_Mount_Fence_E",
      "pbrMetallicRoughness" : {
        "baseColorFactor" : [ 0.3, 0.3, 0.3, 1.0 ],
        "metallicFactor" : 0.1,
        "roughnessFactor" : 0.5
      }
    }
  ],
  "meshes" : [
    {
      "primitives" : [
        {
          "attributes" : {
            "POSITION" : 1,
            "NORMAL" : 2,
            "TANGENT" : 3,
            "TEXCOORD_0" : 4,
            "TEXCOORD_1" : 5
          },
          "indices" : 0,
          "material" : 0
        }
      ],
      "name" : "Co_BPI_Mount_Fence_E_600"
    }
  ],
  "buffers" : [
    {
      "uri" : "Co_BPI_Mount_Fence_E_600.bin",
      "byteLength" : 17228
    }
  ],
  "bufferViews" : [
    {
      "buffer" : 0,
      "byteOffset" : 0,
      "byteLength" : 876
    },
    {
      "buffer" : 0,
      "byteOffset" : 876,
      "byteLength" : 3504
    },
    {
      "buffer" : 0,
      "byteOffset" : 4380,
      "byteLength" : 3504
    },
    {
      "buffer" : 0,
      "byteOffset" : 7884,
      "byteLength" : 4672
    },
    {
      "buffer" : 0,
      "byteOffset" : 12556,
      "byteLength" : 2336
    },
    {
      "buffer" : 0,
      "byteOffset" : 14892,
      "byteLength" : 2336
    }
  ],
  "accessors" : [
    {
      "bufferView" : 0,
      "componentType" : 5123,
      "count" : 438,
      "type" : "SCALAR"
    },
    {
      "bufferView" : 1,
      "min" : [ -4.95911e-07, 0, -7.65515e-17 ],
      "max" : [ 0.562501, 1.25018, 7.49915 ],
      "componentType" : 5126,
      "count" : 292,
      "type" : "VEC3"
    },
    {
      "bufferView" : 2,
      "componentType" : 5126,
      "count" : 292,
      "type" : "VEC3"
    },
    {
      "bufferView" : 3,
      "componentType" : 5126,
      "count" : 292,
      "type" : "VEC4"
    },
    {
      "bufferView" : 4,
      "componentType" : 5126,
      "count" : 292,
      "type" : "VEC2"
    },
    {
      "bufferView" : 5,
      "componentType" : 5126,
      "count" : 292,
      "type" : "VEC2"
    }
  ]
}
