{
  "asset" : {
    "generator" : "UE Viewer (umodel) build 1590",
    "version" : "2.0"
  },
  "scene" : 0,
  "scenes" : [
    {
      "nodes" : [ 0 ]
    }
  ],
  "nodes" : [
    {
      "name" : "Co_BPI_Fence_Rope_A_200",
      "mesh" : 0
    }
  ],
  "materials" : [
    {
      "name" : "ObpMI_Deck_A_wind",
      "pbrMetallicRoughness" : {
        "baseColorFactor" : [ 0.3, 0.3, 0.3, 1.0 ],
        "metallicFactor" : 0.1,
        "roughnessFactor" : 0.5
      }
    }
  ],
  "meshes" : [
    {
      "primitives" : [
        {
          "attributes" : {
            "POSITION" : 1,
            "NORMAL" : 2,
            "TANGENT" : 3,
            "COLOR_0" : 4,
            "TEXCOORD_0" : 5,
            "TEXCOORD_1" : 6
          },
          "indices" : 0,
          "material" : 0
        }
      ],
      "name" : "Co_BPI_Fence_Rope_A_200"
    }
  ],
  "buffers" : [
    {
      "uri" : "Co_BPI_Fence_Rope_A_200.bin",
      "byteLength" : 73752
    }
  ],
  "bufferViews" : [
    {
      "buffer" : 0,
      "byteOffset" : 0,
      "byteLength" : 5472
    },
    {
      "buffer" : 0,
      "byteOffset" : 5472,
      "byteLength" : 13656
    },
    {
      "buffer" : 0,
      "byteOffset" : 19128,
      "byteLength" : 13656
    },
    {
      "buffer" : 0,
      "byteOffset" : 32784,
      "byteLength" : 18208
    },
    {
      "buffer" : 0,
      "byteOffset" : 50992,
      "byteLength" : 4552
    },
    {
      "buffer" : 0,
      "byteOffset" : 55544,
      "byteLength" : 9104
    },
    {
      "buffer" : 0,
      "byteOffset" : 64648,
      "byteLength" : 9104
    }
  ],
  "accessors" : [
    {
      "bufferView" : 0,
      "componentType" : 5123,
      "count" : 2736,
      "type" : "SCALAR"
    },
    {
      "bufferView" : 1,
      "min" : [ -0.12, -7.34788e-18, -0.12 ],
      "max" : [ 0.12, 1.1875, 3.1725 ],
      "componentType" : 5126,
      "count" : 1138,
      "type" : "VEC3"
    },
    {
      "bufferView" : 2,
      "componentType" : 5126,
      "count" : 1138,
      "type" : "VEC3"
    },
    {
      "bufferView" : 3,
      "componentType" : 5126,
      "count" : 1138,
      "type" : "VEC4"
    },
    {
      "bufferView" : 4,
      "normalized" : true,
      "componentType" : 5121,
      "count" : 1138,
      "type" : "VEC4"
    },
    {
      "bufferView" : 5,
      "componentType" : 5126,
      "count" : 1138,
      "type" : "VEC2"
    },
    {
      "bufferView" : 6,
      "componentType" : 5126,
      "count" : 1138,
      "type" : "VEC2"
    }
  ]
}
