{
  "asset" : {
    "generator" : "UE Viewer (umodel) build 1590",
    "version" : "2.0"
  },
  "scene" : 0,
  "scenes" : [
    {
      "nodes" : [ 0 ]
    }
  ],
  "nodes" : [
    {
      "name" : "Co_BPI_Fence_Rope_A_100",
      "mesh" : 0
    }
  ],
  "materials" : [
    {
      "name" : "ObpMI_Deck_A_wind",
      "pbrMetallicRoughness" : {
        "baseColorFactor" : [ 0.3, 0.3, 0.3, 1.0 ],
        "metallicFactor" : 0.1,
        "roughnessFactor" : 0.5
      }
    }
  ],
  "meshes" : [
    {
      "primitives" : [
        {
          "attributes" : {
            "POSITION" : 1,
            "NORMAL" : 2,
            "TANGENT" : 3,
            "COLOR_0" : 4,
            "TEXCOORD_0" : 5,
            "TEXCOORD_1" : 6
          },
          "indices" : 0,
          "material" : 0
        }
      ],
      "name" : "Co_BPI_Fence_Rope_A_100"
    }
  ],
  "buffers" : [
    {
      "uri" : "Co_BPI_Fence_Rope_A_100.bin",
      "byteLength" : 38112
    }
  ],
  "bufferViews" : [
    {
      "buffer" : 0,
      "byteOffset" : 0,
      "byteLength" : 2832
    },
    {
      "buffer" : 0,
      "byteOffset" : 2832,
      "byteLength" : 7056
    },
    {
      "buffer" : 0,
      "byteOffset" : 9888,
      "byteLength" : 7056
    },
    {
      "buffer" : 0,
      "byteOffset" : 16944,
      "byteLength" : 9408
    },
    {
      "buffer" : 0,
      "byteOffset" : 26352,
      "byteLength" : 2352
    },
    {
      "buffer" : 0,
      "byteOffset" : 28704,
      "byteLength" : 4704
    },
    {
      "buffer" : 0,
      "byteOffset" : 33408,
      "byteLength" : 4704
    }
  ],
  "accessors" : [
    {
      "bufferView" : 0,
      "componentType" : 5123,
      "count" : 1416,
      "type" : "SCALAR"
    },
    {
      "bufferView" : 1,
      "min" : [ -0.12, -7.34788e-18, -0.12 ],
      "max" : [ 0.12, 1.1875, 1.64625 ],
      "componentType" : 5126,
      "count" : 588,
      "type" : "VEC3"
    },
    {
      "bufferView" : 2,
      "componentType" : 5126,
      "count" : 588,
      "type" : "VEC3"
    },
    {
      "bufferView" : 3,
      "componentType" : 5126,
      "count" : 588,
      "type" : "VEC4"
    },
    {
      "bufferView" : 4,
      "normalized" : true,
      "componentType" : 5121,
      "count" : 588,
      "type" : "VEC4"
    },
    {
      "bufferView" : 5,
      "componentType" : 5126,
      "count" : 588,
      "type" : "VEC2"
    },
    {
      "bufferView" : 6,
      "componentType" : 5126,
      "count" : 588,
      "type" : "VEC2"
    }
  ]
}
