{
  "asset" : {
    "generator" : "UE Viewer (umodel) build 1590",
    "version" : "2.0"
  },
  "scene" : 0,
  "scenes" : [
    {
      "nodes" : [ 0 ]
    }
  ],
  "nodes" : [
    {
      "name" : "Co_BPI_Desert_Fence_B_900",
      "mesh" : 0
    }
  ],
  "materials" : [
    {
      "name" : "MmeMI_Desert_T_Terrain_Sand_01",
      "pbrMetallicRoughness" : {
        "baseColorFactor" : [ 0.3, 0.3, 0.3, 1.0 ],
        "metallicFactor" : 0.1,
        "roughnessFactor" : 0.5
      }
    }
  ],
  "meshes" : [
    {
      "primitives" : [
        {
          "attributes" : {
            "POSITION" : 1,
            "NORMAL" : 2,
            "TANGENT" : 3,
            "TEXCOORD_0" : 4,
            "TEXCOORD_1" : 5
          },
          "indices" : 0,
          "material" : 0
        }
      ],
      "name" : "Co_BPI_Desert_Fence_B_900"
    }
  ],
  "buffers" : [
    {
      "uri" : "Co_BPI_Desert_Fence_B_900.bin",
      "byteLength" : 9912
    }
  ],
  "bufferViews" : [
    {
      "buffer" : 0,
      "byteOffset" : 0,
      "byteLength" : 504
    },
    {
      "buffer" : 0,
      "byteOffset" : 504,
      "byteLength" : 2016
    },
    {
      "buffer" : 0,
      "byteOffset" : 2520,
      "byteLength" : 2016
    },
    {
      "buffer" : 0,
      "byteOffset" : 4536,
      "byteLength" : 2688
    },
    {
      "buffer" : 0,
      "byteOffset" : 7224,
      "byteLength" : 1344
    },
    {
      "buffer" : 0,
      "byteOffset" : 8568,
      "byteLength" : 1344
    }
  ],
  "accessors" : [
    {
      "bufferView" : 0,
      "componentType" : 5123,
      "count" : 252,
      "type" : "SCALAR"
    },
    {
      "bufferView" : 1,
      "min" : [ -2.38419e-07, 0, -4.59243e-17 ],
      "max" : [ 0.5, 0.75, 10.0082 ],
      "componentType" : 5126,
      "count" : 168,
      "type" : "VEC3"
    },
    {
      "bufferView" : 2,
      "componentType" : 5126,
      "count" : 168,
      "type" : "VEC3"
    },
    {
      "bufferView" : 3,
      "componentType" : 5126,
      "count" : 168,
      "type" : "VEC4"
    },
    {
      "bufferView" : 4,
      "componentType" : 5126,
      "count" : 168,
      "type" : "VEC2"
    },
    {
      "bufferView" : 5,
      "componentType" : 5126,
      "count" : 168,
      "type" : "VEC2"
    }
  ]
}
