{
  "asset" : {
    "generator" : "UE Viewer (umodel) build 1590",
    "version" : "2.0"
  },
  "scene" : 0,
  "scenes" : [
    {
      "nodes" : [ 0 ]
    }
  ],
  "nodes" : [
    {
      "name" : "Co_BPI_Sea_Fence_pillar_A_800",
      "mesh" : 0
    }
  ],
  "materials" : [
    {
      "name" : "ObpMI_Sea_Fence_A",
      "pbrMetallicRoughness" : {
        "baseColorFactor" : [ 0.3, 0.3, 0.3, 1.0 ],
        "metallicFactor" : 0.1,
        "roughnessFactor" : 0.5
      }
    }
  ],
  "meshes" : [
    {
      "primitives" : [
        {
          "attributes" : {
            "POSITION" : 1,
            "NORMAL" : 2,
            "TANGENT" : 3,
            "TEXCOORD_0" : 4,
            "TEXCOORD_1" : 5
          },
          "indices" : 0,
          "material" : 0
        }
      ],
      "name" : "Co_BPI_Sea_Fence_pillar_A_800"
    }
  ],
  "buffers" : [
    {
      "uri" : "Co_BPI_Sea_Fence_pillar_A_800.bin",
      "byteLength" : 9700
    }
  ],
  "bufferViews" : [
    {
      "buffer" : 0,
      "byteOffset" : 0,
      "byteLength" : 516
    },
    {
      "buffer" : 0,
      "byteOffset" : 516,
      "byteLength" : 1968
    },
    {
      "buffer" : 0,
      "byteOffset" : 2484,
      "byteLength" : 1968
    },
    {
      "buffer" : 0,
      "byteOffset" : 4452,
      "byteLength" : 2624
    },
    {
      "buffer" : 0,
      "byteOffset" : 7076,
      "byteLength" : 1312
    },
    {
      "buffer" : 0,
      "byteOffset" : 8388,
      "byteLength" : 1312
    }
  ],
  "accessors" : [
    {
      "bufferView" : 0,
      "componentType" : 5123,
      "count" : 258,
      "type" : "SCALAR"
    },
    {
      "bufferView" : 1,
      "min" : [ -0.0625, 0, -0.0625 ],
      "max" : [ 0.6875, 9.75, 0.6875 ],
      "componentType" : 5126,
      "count" : 164,
      "type" : "VEC3"
    },
    {
      "bufferView" : 2,
      "componentType" : 5126,
      "count" : 164,
      "type" : "VEC3"
    },
    {
      "bufferView" : 3,
      "componentType" : 5126,
      "count" : 164,
      "type" : "VEC4"
    },
    {
      "bufferView" : 4,
      "componentType" : 5126,
      "count" : 164,
      "type" : "VEC2"
    },
    {
      "bufferView" : 5,
      "componentType" : 5126,
      "count" : 164,
      "type" : "VEC2"
    }
  ]
}
