{
  "asset" : {
    "generator" : "UE Viewer (umodel) build 1590",
    "version" : "2.0"
  },
  "scene" : 0,
  "scenes" : [
    {
      "nodes" : [ 0 ]
    }
  ],
  "nodes" : [
    {
      "name" : "Co_BPI_BD_Desert_Fence_A_100",
      "mesh" : 0
    }
  ],
  "materials" : [
    {
      "name" : "MbdMI_Desert",
      "pbrMetallicRoughness" : {
        "baseColorFactor" : [ 0.3, 0.3, 0.3, 1.0 ],
        "metallicFactor" : 0.1,
        "roughnessFactor" : 0.5
      }
    }
  ],
  "meshes" : [
    {
      "primitives" : [
        {
          "attributes" : {
            "POSITION" : 1,
            "NORMAL" : 2,
            "TANGENT" : 3,
            "TEXCOORD_0" : 4,
            "TEXCOORD_1" : 5
          },
          "indices" : 0,
          "material" : 0
        }
      ],
      "name" : "Co_BPI_BD_Desert_Fence_A_100"
    }
  ],
  "buffers" : [
    {
      "uri" : "Co_BPI_BD_Desert_Fence_A_100.bin",
      "byteLength" : 13688
    }
  ],
  "bufferViews" : [
    {
      "buffer" : 0,
      "byteOffset" : 0,
      "byteLength" : 696
    },
    {
      "buffer" : 0,
      "byteOffset" : 696,
      "byteLength" : 2784
    },
    {
      "buffer" : 0,
      "byteOffset" : 3480,
      "byteLength" : 2784
    },
    {
      "buffer" : 0,
      "byteOffset" : 6264,
      "byteLength" : 3712
    },
    {
      "buffer" : 0,
      "byteOffset" : 9976,
      "byteLength" : 1856
    },
    {
      "buffer" : 0,
      "byteOffset" : 11832,
      "byteLength" : 1856
    }
  ],
  "accessors" : [
    {
      "bufferView" : 0,
      "componentType" : 5123,
      "count" : 348,
      "type" : "SCALAR"
    },
    {
      "bufferView" : 1,
      "min" : [ 0, 0.0183058, -0.125 ],
      "max" : [ 0.125, 1, 3.125 ],
      "componentType" : 5126,
      "count" : 232,
      "type" : "VEC3"
    },
    {
      "bufferView" : 2,
      "componentType" : 5126,
      "count" : 232,
      "type" : "VEC3"
    },
    {
      "bufferView" : 3,
      "componentType" : 5126,
      "count" : 232,
      "type" : "VEC4"
    },
    {
      "bufferView" : 4,
      "componentType" : 5126,
      "count" : 232,
      "type" : "VEC2"
    },
    {
      "bufferView" : 5,
      "componentType" : 5126,
      "count" : 232,
      "type" : "VEC2"
    }
  ]
}
