{
  "asset" : {
    "generator" : "UE Viewer (umodel) build 1590",
    "version" : "2.0"
  },
  "scene" : 0,
  "scenes" : [
    {
      "nodes" : [ 0 ]
    }
  ],
  "nodes" : [
    {
      "name" : "ObpMD_Plain_Fence_A_typeB",
      "mesh" : 0
    }
  ],
  "materials" : [
    {
      "name" : "ObpMI_Plain_Fence_A",
      "pbrMetallicRoughness" : {
        "baseColorFactor" : [ 0.3, 0.3, 0.3, 1.0 ],
        "metallicFactor" : 0.1,
        "roughnessFactor" : 0.5
      }
    }
  ],
  "meshes" : [
    {
      "primitives" : [
        {
          "attributes" : {
            "POSITION" : 1,
            "NORMAL" : 2,
            "TANGENT" : 3,
            "TEXCOORD_0" : 4,
            "TEXCOORD_1" : 5
          },
          "indices" : 0,
          "material" : 0
        }
      ],
      "name" : "ObpMD_Plain_Fence_A_typeB"
    }
  ],
  "buffers" : [
    {
      "uri" : "ObpMD_Plain_Fence_A_typeB.bin",
      "byteLength" : 10056
    }
  ],
  "bufferViews" : [
    {
      "buffer" : 0,
      "byteOffset" : 0,
      "byteLength" : 648
    },
    {
      "buffer" : 0,
      "byteOffset" : 648,
      "byteLength" : 2016
    },
    {
      "buffer" : 0,
      "byteOffset" : 2664,
      "byteLength" : 2016
    },
    {
      "buffer" : 0,
      "byteOffset" : 4680,
      "byteLength" : 2688
    },
    {
      "buffer" : 0,
      "byteOffset" : 7368,
      "byteLength" : 1344
    },
    {
      "buffer" : 0,
      "byteOffset" : 8712,
      "byteLength" : 1344
    }
  ],
  "accessors" : [
    {
      "bufferView" : 0,
      "componentType" : 5123,
      "count" : 324,
      "type" : "SCALAR"
    },
    {
      "bufferView" : 1,
      "min" : [ 0.0625, 0, -6.12323e-17 ],
      "max" : [ 0.5625, 1, 3 ],
      "componentType" : 5126,
      "count" : 168,
      "type" : "VEC3"
    },
    {
      "bufferView" : 2,
      "componentType" : 5126,
      "count" : 168,
      "type" : "VEC3"
    },
    {
      "bufferView" : 3,
      "componentType" : 5126,
      "count" : 168,
      "type" : "VEC4"
    },
    {
      "bufferView" : 4,
      "componentType" : 5126,
      "count" : 168,
      "type" : "VEC2"
    },
    {
      "bufferView" : 5,
      "componentType" : 5126,
      "count" : 168,
      "type" : "VEC2"
    }
  ]
}
