{
  "asset" : {
    "generator" : "UE Viewer (umodel) build 1590",
    "version" : "2.0"
  },
  "scene" : 0,
  "scenes" : [
    {
      "nodes" : [ 0 ]
    }
  ],
  "nodes" : [
    {
      "name" : "ObpMD_Snow_Fence_A_root_lp4",
      "mesh" : 0
    }
  ],
  "materials" : [
    {
      "name" : "ObpMI_Snow_Fence_A",
      "pbrMetallicRoughness" : {
        "baseColorFactor" : [ 0.3, 0.3, 0.3, 1.0 ],
        "metallicFactor" : 0.1,
        "roughnessFactor" : 0.5
      }
    }
  ],
  "meshes" : [
    {
      "primitives" : [
        {
          "attributes" : {
            "POSITION" : 1,
            "NORMAL" : 2,
            "TANGENT" : 3,
            "TEXCOORD_0" : 4,
            "TEXCOORD_1" : 5
          },
          "indices" : 0,
          "material" : 0
        }
      ],
      "name" : "ObpMD_Snow_Fence_A_root_lp4"
    }
  ],
  "buffers" : [
    {
      "uri" : "ObpMD_Snow_Fence_A_root_lp4.bin",
      "byteLength" : 3764
    }
  ],
  "bufferViews" : [
    {
      "buffer" : 0,
      "byteOffset" : 0,
      "byteLength" : 180
    },
    {
      "buffer" : 0,
      "byteOffset" : 180,
      "byteLength" : 768
    },
    {
      "buffer" : 0,
      "byteOffset" : 948,
      "byteLength" : 768
    },
    {
      "buffer" : 0,
      "byteOffset" : 1716,
      "byteLength" : 1024
    },
    {
      "buffer" : 0,
      "byteOffset" : 2740,
      "byteLength" : 512
    },
    {
      "buffer" : 0,
      "byteOffset" : 3252,
      "byteLength" : 512
    }
  ],
  "accessors" : [
    {
      "bufferView" : 0,
      "componentType" : 5123,
      "count" : 90,
      "type" : "SCALAR"
    },
    {
      "bufferView" : 1,
      "min" : [ -0.125, -7.65404e-18, -0.125 ],
      "max" : [ 0.125, 1.125, 0.25 ],
      "componentType" : 5126,
      "count" : 64,
      "type" : "VEC3"
    },
    {
      "bufferView" : 2,
      "componentType" : 5126,
      "count" : 64,
      "type" : "VEC3"
    },
    {
      "bufferView" : 3,
      "componentType" : 5126,
      "count" : 64,
      "type" : "VEC4"
    },
    {
      "bufferView" : 4,
      "componentType" : 5126,
      "count" : 64,
      "type" : "VEC2"
    },
    {
      "bufferView" : 5,
      "componentType" : 5126,
      "count" : 64,
      "type" : "VEC2"
    }
  ]
}
