{
  "asset" : {
    "generator" : "UE Viewer (umodel) build 1590",
    "version" : "2.0"
  },
  "scene" : 0,
  "scenes" : [
    {
      "nodes" : [ 0 ]
    }
  ],
  "nodes" : [
    {
      "name" : "ObpMD_Plain_Fence_B_root_lp",
      "mesh" : 0
    }
  ],
  "materials" : [
    {
      "name" : "ObpMI_Plain_Fence_B",
      "pbrMetallicRoughness" : {
        "baseColorFactor" : [ 0.3, 0.3, 0.3, 1.0 ],
        "metallicFactor" : 0.1,
        "roughnessFactor" : 0.5
      }
    }
  ],
  "meshes" : [
    {
      "primitives" : [
        {
          "attributes" : {
            "POSITION" : 1,
            "NORMAL" : 2,
            "TANGENT" : 3,
            "TEXCOORD_0" : 4,
            "TEXCOORD_1" : 5
          },
          "indices" : 0,
          "material" : 0
        }
      ],
      "name" : "ObpMD_Plain_Fence_B_root_lp"
    }
  ],
  "buffers" : [
    {
      "uri" : "ObpMD_Plain_Fence_B_root_lp.bin",
      "byteLength" : 10384
    }
  ],
  "bufferViews" : [
    {
      "buffer" : 0,
      "byteOffset" : 0,
      "byteLength" : 528
    },
    {
      "buffer" : 0,
      "byteOffset" : 528,
      "byteLength" : 2112
    },
    {
      "buffer" : 0,
      "byteOffset" : 2640,
      "byteLength" : 2112
    },
    {
      "buffer" : 0,
      "byteOffset" : 4752,
      "byteLength" : 2816
    },
    {
      "buffer" : 0,
      "byteOffset" : 7568,
      "byteLength" : 1408
    },
    {
      "buffer" : 0,
      "byteOffset" : 8976,
      "byteLength" : 1408
    }
  ],
  "accessors" : [
    {
      "bufferView" : 0,
      "componentType" : 5123,
      "count" : 264,
      "type" : "SCALAR"
    },
    {
      "bufferView" : 1,
      "min" : [ -0.0853767, -1.02984e-15, -5.74053e-17 ],
      "max" : [ 0.166354, 1.0625, 1.8125 ],
      "componentType" : 5126,
      "count" : 176,
      "type" : "VEC3"
    },
    {
      "bufferView" : 2,
      "componentType" : 5126,
      "count" : 176,
      "type" : "VEC3"
    },
    {
      "bufferView" : 3,
      "componentType" : 5126,
      "count" : 176,
      "type" : "VEC4"
    },
    {
      "bufferView" : 4,
      "componentType" : 5126,
      "count" : 176,
      "type" : "VEC2"
    },
    {
      "bufferView" : 5,
      "componentType" : 5126,
      "count" : 176,
      "type" : "VEC2"
    }
  ]
}
