{
  "asset" : {
    "generator" : "UE Viewer (umodel) build 1590",
    "version" : "2.0"
  },
  "scene" : 0,
  "scenes" : [
    {
      "nodes" : [ 0 ]
    }
  ],
  "nodes" : [
    {
      "name" : "ObpMD_Mount_Fence_E_root_lp",
      "mesh" : 0
    }
  ],
  "materials" : [
    {
      "name" : "ObpMI_Mount_Fence_E",
      "pbrMetallicRoughness" : {
        "baseColorFactor" : [ 0.3, 0.3, 0.3, 1.0 ],
        "metallicFactor" : 0.1,
        "roughnessFactor" : 0.5
      }
    }
  ],
  "meshes" : [
    {
      "primitives" : [
        {
          "attributes" : {
            "POSITION" : 1,
            "NORMAL" : 2,
            "TANGENT" : 3,
            "TEXCOORD_0" : 4,
            "TEXCOORD_1" : 5
          },
          "indices" : 0,
          "material" : 0
        }
      ],
      "name" : "ObpMD_Mount_Fence_E_root_lp"
    }
  ],
  "buffers" : [
    {
      "uri" : "ObpMD_Mount_Fence_E_root_lp.bin",
      "byteLength" : 2124
    }
  ],
  "bufferViews" : [
    {
      "buffer" : 0,
      "byteOffset" : 0,
      "byteLength" : 108
    },
    {
      "buffer" : 0,
      "byteOffset" : 108,
      "byteLength" : 432
    },
    {
      "buffer" : 0,
      "byteOffset" : 540,
      "byteLength" : 432
    },
    {
      "buffer" : 0,
      "byteOffset" : 972,
      "byteLength" : 576
    },
    {
      "buffer" : 0,
      "byteOffset" : 1548,
      "byteLength" : 288
    },
    {
      "buffer" : 0,
      "byteOffset" : 1836,
      "byteLength" : 288
    }
  ],
  "accessors" : [
    {
      "bufferView" : 0,
      "componentType" : 5123,
      "count" : 54,
      "type" : "SCALAR"
    },
    {
      "bufferView" : 1,
      "min" : [ -4.57764e-07, 9.53674e-07, -1.52588e-07 ],
      "max" : [ 0.562502, 1.24994, 0.999996 ],
      "componentType" : 5126,
      "count" : 36,
      "type" : "VEC3"
    },
    {
      "bufferView" : 2,
      "componentType" : 5126,
      "count" : 36,
      "type" : "VEC3"
    },
    {
      "bufferView" : 3,
      "componentType" : 5126,
      "count" : 36,
      "type" : "VEC4"
    },
    {
      "bufferView" : 4,
      "componentType" : 5126,
      "count" : 36,
      "type" : "VEC2"
    },
    {
      "bufferView" : 5,
      "componentType" : 5126,
      "count" : 36,
      "type" : "VEC2"
    }
  ]
}
