{
  "asset" : {
    "generator" : "UE Viewer (umodel) build 1590",
    "version" : "2.0"
  },
  "scene" : 0,
  "scenes" : [
    {
      "nodes" : [ 0 ]
    }
  ],
  "nodes" : [
    {
      "name" : "ObpMD_Forest_Fence_A_root_end",
      "mesh" : 0
    }
  ],
  "materials" : [
    {
      "name" : "ObpMI_Forest_Fence_A",
      "pbrMetallicRoughness" : {
        "baseColorFactor" : [ 0.3, 0.3, 0.3, 1.0 ],
        "metallicFactor" : 0.1,
        "roughnessFactor" : 0.5
      }
    }
  ],
  "meshes" : [
    {
      "primitives" : [
        {
          "attributes" : {
            "POSITION" : 1,
            "NORMAL" : 2,
            "TANGENT" : 3,
            "TEXCOORD_0" : 4,
            "TEXCOORD_1" : 5
          },
          "indices" : 0,
          "material" : 0
        }
      ],
      "name" : "ObpMD_Forest_Fence_A_root_end"
    }
  ],
  "buffers" : [
    {
      "uri" : "ObpMD_Forest_Fence_A_root_end.bin",
      "byteLength" : 7764
    }
  ],
  "bufferViews" : [
    {
      "buffer" : 0,
      "byteOffset" : 0,
      "byteLength" : 372
    },
    {
      "buffer" : 0,
      "byteOffset" : 372,
      "byteLength" : 1584
    },
    {
      "buffer" : 0,
      "byteOffset" : 1956,
      "byteLength" : 1584
    },
    {
      "buffer" : 0,
      "byteOffset" : 3540,
      "byteLength" : 2112
    },
    {
      "buffer" : 0,
      "byteOffset" : 5652,
      "byteLength" : 1056
    },
    {
      "buffer" : 0,
      "byteOffset" : 6708,
      "byteLength" : 1056
    }
  ],
  "accessors" : [
    {
      "bufferView" : 0,
      "componentType" : 5123,
      "count" : 186,
      "type" : "SCALAR"
    },
    {
      "bufferView" : 1,
      "min" : [ -0.1875, 0, -7.65404e-18 ],
      "max" : [ 0.1875, 1.0625, 1.125 ],
      "componentType" : 5126,
      "count" : 132,
      "type" : "VEC3"
    },
    {
      "bufferView" : 2,
      "componentType" : 5126,
      "count" : 132,
      "type" : "VEC3"
    },
    {
      "bufferView" : 3,
      "componentType" : 5126,
      "count" : 132,
      "type" : "VEC4"
    },
    {
      "bufferView" : 4,
      "componentType" : 5126,
      "count" : 132,
      "type" : "VEC2"
    },
    {
      "bufferView" : 5,
      "componentType" : 5126,
      "count" : 132,
      "type" : "VEC2"
    }
  ]
}
