{
  "asset" : {
    "generator" : "UE Viewer (umodel) build 1590",
    "version" : "2.0"
  },
  "scene" : 0,
  "scenes" : [
    {
      "nodes" : [ 0 ]
    }
  ],
  "nodes" : [
    {
      "name" : "ObpMD_Fence_Rope_Rope_s",
      "mesh" : 0
    }
  ],
  "materials" : [
    {
      "name" : "ObpMI_Deck_A_wind",
      "pbrMetallicRoughness" : {
        "baseColorFactor" : [ 0.3, 0.3, 0.3, 1.0 ],
        "metallicFactor" : 0.1,
        "roughnessFactor" : 0.5
      }
    }
  ],
  "meshes" : [
    {
      "primitives" : [
        {
          "attributes" : {
            "POSITION" : 1,
            "NORMAL" : 2,
            "TANGENT" : 3,
            "COLOR_0" : 4,
            "TEXCOORD_0" : 5,
            "TEXCOORD_1" : 6
          },
          "indices" : 0,
          "material" : 0
        }
      ],
      "name" : "ObpMD_Fence_Rope_Rope_s"
    }
  ],
  "buffers" : [
    {
      "uri" : "ObpMD_Fence_Rope_Rope_s.bin",
      "byteLength" : 27888
    }
  ],
  "bufferViews" : [
    {
      "buffer" : 0,
      "byteOffset" : 0,
      "byteLength" : 1968
    },
    {
      "buffer" : 0,
      "byteOffset" : 1968,
      "byteLength" : 5184
    },
    {
      "buffer" : 0,
      "byteOffset" : 7152,
      "byteLength" : 5184
    },
    {
      "buffer" : 0,
      "byteOffset" : 12336,
      "byteLength" : 6912
    },
    {
      "buffer" : 0,
      "byteOffset" : 19248,
      "byteLength" : 1728
    },
    {
      "buffer" : 0,
      "byteOffset" : 20976,
      "byteLength" : 3456
    },
    {
      "buffer" : 0,
      "byteOffset" : 24432,
      "byteLength" : 3456
    }
  ],
  "accessors" : [
    {
      "bufferView" : 0,
      "componentType" : 5123,
      "count" : 984,
      "type" : "SCALAR"
    },
    {
      "bufferView" : 1,
      "min" : [ -0.03125, 0.3125, 0.09375 ],
      "max" : [ 0.03125, 1.0625, 1.09375 ],
      "componentType" : 5126,
      "count" : 432,
      "type" : "VEC3"
    },
    {
      "bufferView" : 2,
      "componentType" : 5126,
      "count" : 432,
      "type" : "VEC3"
    },
    {
      "bufferView" : 3,
      "componentType" : 5126,
      "count" : 432,
      "type" : "VEC4"
    },
    {
      "bufferView" : 4,
      "normalized" : true,
      "componentType" : 5121,
      "count" : 432,
      "type" : "VEC4"
    },
    {
      "bufferView" : 5,
      "componentType" : 5126,
      "count" : 432,
      "type" : "VEC2"
    },
    {
      "bufferView" : 6,
      "componentType" : 5126,
      "count" : 432,
      "type" : "VEC2"
    }
  ]
}
