{
  "asset" : {
    "generator" : "UE Viewer (umodel) build 1590",
    "version" : "2.0"
  },
  "scene" : 0,
  "scenes" : [
    {
      "nodes" : [ 0 ]
    }
  ],
  "nodes" : [
    {
      "name" : "ObpMD_River_Fence_C_Simple",
      "mesh" : 0
    }
  ],
  "materials" : [
    {
      "name" : "MmeMI_River_T_Terrain_Tile_02",
      "pbrMetallicRoughness" : {
        "baseColorFactor" : [ 0.3, 0.3, 0.3, 1.0 ],
        "metallicFactor" : 0.1,
        "roughnessFactor" : 0.5
      }
    }
  ],
  "meshes" : [
    {
      "primitives" : [
        {
          "attributes" : {
            "POSITION" : 1,
            "NORMAL" : 2,
            "TANGENT" : 3,
            "TEXCOORD_0" : 4,
            "TEXCOORD_1" : 5
          },
          "indices" : 0,
          "material" : 0
        }
      ],
      "name" : "ObpMD_River_Fence_C_Simple"
    }
  ],
  "buffers" : [
    {
      "uri" : "ObpMD_River_Fence_C_Simple.bin",
      "byteLength" : 2832
    }
  ],
  "bufferViews" : [
    {
      "buffer" : 0,
      "byteOffset" : 0,
      "byteLength" : 144
    },
    {
      "buffer" : 0,
      "byteOffset" : 144,
      "byteLength" : 576
    },
    {
      "buffer" : 0,
      "byteOffset" : 720,
      "byteLength" : 576
    },
    {
      "buffer" : 0,
      "byteOffset" : 1296,
      "byteLength" : 768
    },
    {
      "buffer" : 0,
      "byteOffset" : 2064,
      "byteLength" : 384
    },
    {
      "buffer" : 0,
      "byteOffset" : 2448,
      "byteLength" : 384
    }
  ],
  "accessors" : [
    {
      "bufferView" : 0,
      "componentType" : 5123,
      "count" : 72,
      "type" : "SCALAR"
    },
    {
      "bufferView" : 1,
      "min" : [ -2.28882e-07, 1.53604e-20, -6.12323e-17 ],
      "max" : [ 0.5, 1, 1.00055 ],
      "componentType" : 5126,
      "count" : 48,
      "type" : "VEC3"
    },
    {
      "bufferView" : 2,
      "componentType" : 5126,
      "count" : 48,
      "type" : "VEC3"
    },
    {
      "bufferView" : 3,
      "componentType" : 5126,
      "count" : 48,
      "type" : "VEC4"
    },
    {
      "bufferView" : 4,
      "componentType" : 5126,
      "count" : 48,
      "type" : "VEC2"
    },
    {
      "bufferView" : 5,
      "componentType" : 5126,
      "count" : 48,
      "type" : "VEC2"
    }
  ]
}
