{
  "asset" : {
    "generator" : "UE Viewer (umodel) build 1590",
    "version" : "2.0"
  },
  "scene" : 0,
  "scenes" : [
    {
      "nodes" : [ 0 ]
    }
  ],
  "nodes" : [
    {
      "name" : "ObpMD_River_Fence_C_root_end",
      "mesh" : 0
    }
  ],
  "materials" : [
    {
      "name" : "MmeMI_River_T_Terrain_Tile_02",
      "pbrMetallicRoughness" : {
        "baseColorFactor" : [ 0.3, 0.3, 0.3, 1.0 ],
        "metallicFactor" : 0.1,
        "roughnessFactor" : 0.5
      }
    }
  ],
  "meshes" : [
    {
      "primitives" : [
        {
          "attributes" : {
            "POSITION" : 1,
            "NORMAL" : 2,
            "TANGENT" : 3,
            "TEXCOORD_0" : 4,
            "TEXCOORD_1" : 5
          },
          "indices" : 0,
          "material" : 0
        }
      ],
      "name" : "ObpMD_River_Fence_C_root_end"
    }
  ],
  "buffers" : [
    {
      "uri" : "ObpMD_River_Fence_C_root_end.bin",
      "byteLength" : 6420
    }
  ],
  "bufferViews" : [
    {
      "buffer" : 0,
      "byteOffset" : 0,
      "byteLength" : 372
    },
    {
      "buffer" : 0,
      "byteOffset" : 372,
      "byteLength" : 1296
    },
    {
      "buffer" : 0,
      "byteOffset" : 1668,
      "byteLength" : 1296
    },
    {
      "buffer" : 0,
      "byteOffset" : 2964,
      "byteLength" : 1728
    },
    {
      "buffer" : 0,
      "byteOffset" : 4692,
      "byteLength" : 864
    },
    {
      "buffer" : 0,
      "byteOffset" : 5556,
      "byteLength" : 864
    }
  ],
  "accessors" : [
    {
      "bufferView" : 0,
      "componentType" : 5123,
      "count" : 186,
      "type" : "SCALAR"
    },
    {
      "bufferView" : 1,
      "min" : [ -3.8743e-07, 1.53581e-20, -6.12323e-17 ],
      "max" : [ 0.5, 1, 1.18805 ],
      "componentType" : 5126,
      "count" : 108,
      "type" : "VEC3"
    },
    {
      "bufferView" : 2,
      "componentType" : 5126,
      "count" : 108,
      "type" : "VEC3"
    },
    {
      "bufferView" : 3,
      "componentType" : 5126,
      "count" : 108,
      "type" : "VEC4"
    },
    {
      "bufferView" : 4,
      "componentType" : 5126,
      "count" : 108,
      "type" : "VEC2"
    },
    {
      "bufferView" : 5,
      "componentType" : 5126,
      "count" : 108,
      "type" : "VEC2"
    }
  ]
}
