{
  "asset" : {
    "generator" : "UE Viewer (umodel) build 1590",
    "version" : "2.0"
  },
  "scene" : 0,
  "scenes" : [
    {
      "nodes" : [ 0 ]
    }
  ],
  "nodes" : [
    {
      "name" : "ObpMD_River_Fence_B_root_st",
      "mesh" : 0
    }
  ],
  "materials" : [
    {
      "name" : "ObpMI_River_Fence_B",
      "pbrMetallicRoughness" : {
        "baseColorFactor" : [ 0.3, 0.3, 0.3, 1.0 ],
        "metallicFactor" : 0.1,
        "roughnessFactor" : 0.5
      }
    }
  ],
  "meshes" : [
    {
      "primitives" : [
        {
          "attributes" : {
            "POSITION" : 1,
            "NORMAL" : 2,
            "TANGENT" : 3,
            "TEXCOORD_0" : 4,
            "TEXCOORD_1" : 5
          },
          "indices" : 0,
          "material" : 0
        }
      ],
      "name" : "ObpMD_River_Fence_B_root_st"
    }
  ],
  "buffers" : [
    {
      "uri" : "ObpMD_River_Fence_B_root_st.bin",
      "byteLength" : 5428
    }
  ],
  "bufferViews" : [
    {
      "buffer" : 0,
      "byteOffset" : 0,
      "byteLength" : 276
    },
    {
      "buffer" : 0,
      "byteOffset" : 276,
      "byteLength" : 1104
    },
    {
      "buffer" : 0,
      "byteOffset" : 1380,
      "byteLength" : 1104
    },
    {
      "buffer" : 0,
      "byteOffset" : 2484,
      "byteLength" : 1472
    },
    {
      "buffer" : 0,
      "byteOffset" : 3956,
      "byteLength" : 736
    },
    {
      "buffer" : 0,
      "byteOffset" : 4692,
      "byteLength" : 736
    }
  ],
  "accessors" : [
    {
      "bufferView" : 0,
      "componentType" : 5123,
      "count" : 138,
      "type" : "SCALAR"
    },
    {
      "bufferView" : 1,
      "min" : [ -0.0625, 0, -5.74053e-17 ],
      "max" : [ 0.0625, 1, 1 ],
      "componentType" : 5126,
      "count" : 92,
      "type" : "VEC3"
    },
    {
      "bufferView" : 2,
      "componentType" : 5126,
      "count" : 92,
      "type" : "VEC3"
    },
    {
      "bufferView" : 3,
      "componentType" : 5126,
      "count" : 92,
      "type" : "VEC4"
    },
    {
      "bufferView" : 4,
      "componentType" : 5126,
      "count" : 92,
      "type" : "VEC2"
    },
    {
      "bufferView" : 5,
      "componentType" : 5126,
      "count" : 92,
      "type" : "VEC2"
    }
  ]
}
