{
  "asset" : {
    "generator" : "UE Viewer (umodel) build 1590",
    "version" : "2.0"
  },
  "scene" : 0,
  "scenes" : [
    {
      "nodes" : [ 0 ]
    }
  ],
  "nodes" : [
    {
      "name" : "ObpMD_Mount_Fence_B_root_st",
      "mesh" : 0
    }
  ],
  "materials" : [
    {
      "name" : "ObpMI_Mount_Fence_B",
      "pbrMetallicRoughness" : {
        "baseColorFactor" : [ 0.3, 0.3, 0.3, 1.0 ],
        "metallicFactor" : 0.1,
        "roughnessFactor" : 0.5
      }
    }
  ],
  "meshes" : [
    {
      "primitives" : [
        {
          "attributes" : {
            "POSITION" : 1,
            "NORMAL" : 2,
            "TANGENT" : 3,
            "TEXCOORD_0" : 4,
            "TEXCOORD_1" : 5
          },
          "indices" : 0,
          "material" : 0
        }
      ],
      "name" : "ObpMD_Mount_Fence_B_root_st"
    }
  ],
  "buffers" : [
    {
      "uri" : "ObpMD_Mount_Fence_B_root_st.bin",
      "byteLength" : 2956
    }
  ],
  "bufferViews" : [
    {
      "buffer" : 0,
      "byteOffset" : 0,
      "byteLength" : 156
    },
    {
      "buffer" : 0,
      "byteOffset" : 156,
      "byteLength" : 600
    },
    {
      "buffer" : 0,
      "byteOffset" : 756,
      "byteLength" : 600
    },
    {
      "buffer" : 0,
      "byteOffset" : 1356,
      "byteLength" : 800
    },
    {
      "buffer" : 0,
      "byteOffset" : 2156,
      "byteLength" : 400
    },
    {
      "buffer" : 0,
      "byteOffset" : 2556,
      "byteLength" : 400
    }
  ],
  "accessors" : [
    {
      "bufferView" : 0,
      "componentType" : 5123,
      "count" : 78,
      "type" : "SCALAR"
    },
    {
      "bufferView" : 1,
      "min" : [ -0.0744685, -6.62131e-16, -4.59243e-17 ],
      "max" : [ 0.0912935, 1.0625, 0.5625 ],
      "componentType" : 5126,
      "count" : 50,
      "type" : "VEC3"
    },
    {
      "bufferView" : 2,
      "componentType" : 5126,
      "count" : 50,
      "type" : "VEC3"
    },
    {
      "bufferView" : 3,
      "componentType" : 5126,
      "count" : 50,
      "type" : "VEC4"
    },
    {
      "bufferView" : 4,
      "componentType" : 5126,
      "count" : 50,
      "type" : "VEC2"
    },
    {
      "bufferView" : 5,
      "componentType" : 5126,
      "count" : 50,
      "type" : "VEC2"
    }
  ]
}
