{
  "asset" : {
    "generator" : "UE Viewer (umodel) build 1590",
    "version" : "2.0"
  },
  "scene" : 0,
  "scenes" : [
    {
      "nodes" : [ 0 ]
    }
  ],
  "nodes" : [
    {
      "name" : "ObpMD_Forest_Fence_A_simple",
      "mesh" : 0
    }
  ],
  "materials" : [
    {
      "name" : "ObpMI_Forest_Fence_A",
      "pbrMetallicRoughness" : {
        "baseColorFactor" : [ 0.3, 0.3, 0.3, 1.0 ],
        "metallicFactor" : 0.1,
        "roughnessFactor" : 0.5
      }
    }
  ],
  "meshes" : [
    {
      "primitives" : [
        {
          "attributes" : {
            "POSITION" : 1,
            "NORMAL" : 2,
            "TANGENT" : 3,
            "TEXCOORD_0" : 4,
            "TEXCOORD_1" : 5
          },
          "indices" : 0,
          "material" : 0
        }
      ],
      "name" : "ObpMD_Forest_Fence_A_simple"
    }
  ],
  "buffers" : [
    {
      "uri" : "ObpMD_Forest_Fence_A_simple.bin",
      "byteLength" : 9168
    }
  ],
  "bufferViews" : [
    {
      "buffer" : 0,
      "byteOffset" : 0,
      "byteLength" : 432
    },
    {
      "buffer" : 0,
      "byteOffset" : 432,
      "byteLength" : 1872
    },
    {
      "buffer" : 0,
      "byteOffset" : 2304,
      "byteLength" : 1872
    },
    {
      "buffer" : 0,
      "byteOffset" : 4176,
      "byteLength" : 2496
    },
    {
      "buffer" : 0,
      "byteOffset" : 6672,
      "byteLength" : 1248
    },
    {
      "buffer" : 0,
      "byteOffset" : 7920,
      "byteLength" : 1248
    }
  ],
  "accessors" : [
    {
      "bufferView" : 0,
      "componentType" : 5123,
      "count" : 216,
      "type" : "SCALAR"
    },
    {
      "bufferView" : 1,
      "min" : [ -0.1875, -1.14811e-17, -0.1875 ],
      "max" : [ 0.1875, 1.0625, 1.1875 ],
      "componentType" : 5126,
      "count" : 156,
      "type" : "VEC3"
    },
    {
      "bufferView" : 2,
      "componentType" : 5126,
      "count" : 156,
      "type" : "VEC3"
    },
    {
      "bufferView" : 3,
      "componentType" : 5126,
      "count" : 156,
      "type" : "VEC4"
    },
    {
      "bufferView" : 4,
      "componentType" : 5126,
      "count" : 156,
      "type" : "VEC2"
    },
    {
      "bufferView" : 5,
      "componentType" : 5126,
      "count" : 156,
      "type" : "VEC2"
    }
  ]
}
