{
  "asset" : {
    "generator" : "UE Viewer (umodel) build 1590",
    "version" : "2.0"
  },
  "scene" : 0,
  "scenes" : [
    {
      "nodes" : [ 0 ]
    }
  ],
  "nodes" : [
    {
      "name" : "ObpMD_Snow_Fence_A_root_lp",
      "mesh" : 0
    }
  ],
  "materials" : [
    {
      "name" : "ObpMI_Snow_Fence_A",
      "pbrMetallicRoughness" : {
        "baseColorFactor" : [ 0.3, 0.3, 0.3, 1.0 ],
        "metallicFactor" : 0.1,
        "roughnessFactor" : 0.5
      }
    }
  ],
  "meshes" : [
    {
      "primitives" : [
        {
          "attributes" : {
            "POSITION" : 1,
            "NORMAL" : 2,
            "TANGENT" : 3,
            "TEXCOORD_0" : 4,
            "TEXCOORD_1" : 5
          },
          "indices" : 0,
          "material" : 0
        }
      ],
      "name" : "ObpMD_Snow_Fence_A_root_lp"
    }
  ],
  "buffers" : [
    {
      "uri" : "ObpMD_Snow_Fence_A_root_lp.bin",
      "byteLength" : 7516
    }
  ],
  "bufferViews" : [
    {
      "buffer" : 0,
      "byteOffset" : 0,
      "byteLength" : 348
    },
    {
      "buffer" : 0,
      "byteOffset" : 348,
      "byteLength" : 1536
    },
    {
      "buffer" : 0,
      "byteOffset" : 1884,
      "byteLength" : 1536
    },
    {
      "buffer" : 0,
      "byteOffset" : 3420,
      "byteLength" : 2048
    },
    {
      "buffer" : 0,
      "byteOffset" : 5468,
      "byteLength" : 1024
    },
    {
      "buffer" : 0,
      "byteOffset" : 6492,
      "byteLength" : 1024
    }
  ],
  "accessors" : [
    {
      "bufferView" : 0,
      "componentType" : 5123,
      "count" : 174,
      "type" : "SCALAR"
    },
    {
      "bufferView" : 1,
      "min" : [ -0.125, 3.82701e-18, -0.0625 ],
      "max" : [ 0.125, 1.25, 0.9375 ],
      "componentType" : 5126,
      "count" : 128,
      "type" : "VEC3"
    },
    {
      "bufferView" : 2,
      "componentType" : 5126,
      "count" : 128,
      "type" : "VEC3"
    },
    {
      "bufferView" : 3,
      "componentType" : 5126,
      "count" : 128,
      "type" : "VEC4"
    },
    {
      "bufferView" : 4,
      "componentType" : 5126,
      "count" : 128,
      "type" : "VEC2"
    },
    {
      "bufferView" : 5,
      "componentType" : 5126,
      "count" : 128,
      "type" : "VEC2"
    }
  ]
}
