{
  "asset" : {
    "generator" : "UE Viewer (umodel) build 1590",
    "version" : "2.0"
  },
  "scene" : 0,
  "scenes" : [
    {
      "nodes" : [ 0 ]
    }
  ],
  "nodes" : [
    {
      "name" : "ObpMD_Fence_Rope_root_end",
      "mesh" : 0
    }
  ],
  "materials" : [
    {
      "name" : "ObpMI_Deck_A",
      "pbrMetallicRoughness" : {
        "baseColorFactor" : [ 0.3, 0.3, 0.3, 1.0 ],
        "metallicFactor" : 0.1,
        "roughnessFactor" : 0.5
      }
    }
  ],
  "meshes" : [
    {
      "primitives" : [
        {
          "attributes" : {
            "POSITION" : 1,
            "NORMAL" : 2,
            "TANGENT" : 3,
            "COLOR_0" : 4,
            "TEXCOORD_0" : 5,
            "TEXCOORD_1" : 6
          },
          "indices" : 0,
          "material" : 0
        }
      ],
      "name" : "ObpMD_Fence_Rope_root_end"
    }
  ],
  "buffers" : [
    {
      "uri" : "ObpMD_Fence_Rope_root_end.bin",
      "byteLength" : 2472
    }
  ],
  "bufferViews" : [
    {
      "buffer" : 0,
      "byteOffset" : 0,
      "byteLength" : 192
    },
    {
      "buffer" : 0,
      "byteOffset" : 192,
      "byteLength" : 456
    },
    {
      "buffer" : 0,
      "byteOffset" : 648,
      "byteLength" : 456
    },
    {
      "buffer" : 0,
      "byteOffset" : 1104,
      "byteLength" : 608
    },
    {
      "buffer" : 0,
      "byteOffset" : 1712,
      "byteLength" : 152
    },
    {
      "buffer" : 0,
      "byteOffset" : 1864,
      "byteLength" : 304
    },
    {
      "buffer" : 0,
      "byteOffset" : 2168,
      "byteLength" : 304
    }
  ],
  "accessors" : [
    {
      "bufferView" : 0,
      "componentType" : 5123,
      "count" : 96,
      "type" : "SCALAR"
    },
    {
      "bufferView" : 1,
      "min" : [ -0.12, -7.34788e-18, -0.12 ],
      "max" : [ 0.12, 1.1875, 0.12 ],
      "componentType" : 5126,
      "count" : 38,
      "type" : "VEC3"
    },
    {
      "bufferView" : 2,
      "componentType" : 5126,
      "count" : 38,
      "type" : "VEC3"
    },
    {
      "bufferView" : 3,
      "componentType" : 5126,
      "count" : 38,
      "type" : "VEC4"
    },
    {
      "bufferView" : 4,
      "normalized" : true,
      "componentType" : 5121,
      "count" : 38,
      "type" : "VEC4"
    },
    {
      "bufferView" : 5,
      "componentType" : 5126,
      "count" : 38,
      "type" : "VEC2"
    },
    {
      "bufferView" : 6,
      "componentType" : 5126,
      "count" : 38,
      "type" : "VEC2"
    }
  ]
}
