{
  "asset" : {
    "generator" : "UE Viewer (umodel) build 1590",
    "version" : "2.0"
  },
  "scene" : 0,
  "scenes" : [
    {
      "nodes" : [ 0 ]
    }
  ],
  "nodes" : [
    {
      "name" : "ObpMD_Co_Fence_Plain_A_5_1",
      "mesh" : 0
    }
  ],
  "materials" : [
    {
      "name" : "ObpMI_Plain_Fence_A",
      "pbrMetallicRoughness" : {
        "baseColorFactor" : [ 0.3, 0.3, 0.3, 1.0 ],
        "metallicFactor" : 0.1,
        "roughnessFactor" : 0.5
      }
    }
  ],
  "meshes" : [
    {
      "primitives" : [
        {
          "attributes" : {
            "POSITION" : 1,
            "NORMAL" : 2,
            "TANGENT" : 3,
            "TEXCOORD_0" : 4
          },
          "indices" : 0,
          "material" : 0
        }
      ],
      "name" : "ObpMD_Co_Fence_Plain_A_5_1"
    }
  ],
  "buffers" : [
    {
      "uri" : "ObpMD_Co_Fence_Plain_A_5_1.bin",
      "byteLength" : 15696
    }
  ],
  "bufferViews" : [
    {
      "buffer" : 0,
      "byteOffset" : 0,
      "byteLength" : 1008
    },
    {
      "buffer" : 0,
      "byteOffset" : 1008,
      "byteLength" : 3672
    },
    {
      "buffer" : 0,
      "byteOffset" : 4680,
      "byteLength" : 3672
    },
    {
      "buffer" : 0,
      "byteOffset" : 8352,
      "byteLength" : 4896
    },
    {
      "buffer" : 0,
      "byteOffset" : 13248,
      "byteLength" : 2448
    }
  ],
  "accessors" : [
    {
      "bufferView" : 0,
      "componentType" : 5123,
      "count" : 504,
      "type" : "SCALAR"
    },
    {
      "bufferView" : 1,
      "min" : [ -0.25, -1.53081e-16, -2.5 ],
      "max" : [ 0.25, 1, 2.5 ],
      "componentType" : 5126,
      "count" : 306,
      "type" : "VEC3"
    },
    {
      "bufferView" : 2,
      "componentType" : 5126,
      "count" : 306,
      "type" : "VEC3"
    },
    {
      "bufferView" : 3,
      "componentType" : 5126,
      "count" : 306,
      "type" : "VEC4"
    },
    {
      "bufferView" : 4,
      "componentType" : 5126,
      "count" : 306,
      "type" : "VEC2"
    }
  ]
}
