{
  "asset" : {
    "generator" : "UE Viewer (umodel) build 1590",
    "version" : "2.0"
  },
  "scene" : 0,
  "scenes" : [
    {
      "nodes" : [ 0 ]
    }
  ],
  "nodes" : [
    {
      "name" : "ObpMD_Desert_Fence_A_root_lp",
      "mesh" : 0
    }
  ],
  "materials" : [
    {
      "name" : "ObpMI_Desert_Fence_A",
      "pbrMetallicRoughness" : {
        "baseColorFactor" : [ 0.3, 0.3, 0.3, 1.0 ],
        "metallicFactor" : 0.1,
        "roughnessFactor" : 0.5
      }
    }
  ],
  "meshes" : [
    {
      "primitives" : [
        {
          "attributes" : {
            "POSITION" : 1,
            "NORMAL" : 2,
            "TANGENT" : 3,
            "TEXCOORD_0" : 4,
            "TEXCOORD_1" : 5
          },
          "indices" : 0,
          "material" : 0
        }
      ],
      "name" : "ObpMD_Desert_Fence_A_root_lp"
    }
  ],
  "buffers" : [
    {
      "uri" : "ObpMD_Desert_Fence_A_root_lp.bin",
      "byteLength" : 7488
    }
  ],
  "bufferViews" : [
    {
      "buffer" : 0,
      "byteOffset" : 0,
      "byteLength" : 432
    },
    {
      "buffer" : 0,
      "byteOffset" : 432,
      "byteLength" : 1512
    },
    {
      "buffer" : 0,
      "byteOffset" : 1944,
      "byteLength" : 1512
    },
    {
      "buffer" : 0,
      "byteOffset" : 3456,
      "byteLength" : 2016
    },
    {
      "buffer" : 0,
      "byteOffset" : 5472,
      "byteLength" : 1008
    },
    {
      "buffer" : 0,
      "byteOffset" : 6480,
      "byteLength" : 1008
    }
  ],
  "accessors" : [
    {
      "bufferView" : 0,
      "componentType" : 5123,
      "count" : 216,
      "type" : "SCALAR"
    },
    {
      "bufferView" : 1,
      "min" : [ -0.0587308, -3.35276e-10, -6.67572e-08 ],
      "max" : [ 0.5, 1.07853, 0.875 ],
      "componentType" : 5126,
      "count" : 126,
      "type" : "VEC3"
    },
    {
      "bufferView" : 2,
      "componentType" : 5126,
      "count" : 126,
      "type" : "VEC3"
    },
    {
      "bufferView" : 3,
      "componentType" : 5126,
      "count" : 126,
      "type" : "VEC4"
    },
    {
      "bufferView" : 4,
      "componentType" : 5126,
      "count" : 126,
      "type" : "VEC2"
    },
    {
      "bufferView" : 5,
      "componentType" : 5126,
      "count" : 126,
      "type" : "VEC2"
    }
  ]
}
