{
  "asset" : {
    "generator" : "UE Viewer (umodel) build 1590",
    "version" : "2.0"
  },
  "scene" : 0,
  "scenes" : [
    {
      "nodes" : [ 0 ]
    }
  ],
  "nodes" : [
    {
      "name" : "ObpMD_Desert_Fence_A_root_st",
      "mesh" : 0
    }
  ],
  "materials" : [
    {
      "name" : "ObpMI_Desert_Fence_A",
      "pbrMetallicRoughness" : {
        "baseColorFactor" : [ 0.3, 0.3, 0.3, 1.0 ],
        "metallicFactor" : 0.1,
        "roughnessFactor" : 0.5
      }
    }
  ],
  "meshes" : [
    {
      "primitives" : [
        {
          "attributes" : {
            "POSITION" : 1,
            "NORMAL" : 2,
            "TANGENT" : 3,
            "TEXCOORD_0" : 4,
            "TEXCOORD_1" : 5
          },
          "indices" : 0,
          "material" : 0
        }
      ],
      "name" : "ObpMD_Desert_Fence_A_root_st"
    }
  ],
  "buffers" : [
    {
      "uri" : "ObpMD_Desert_Fence_A_root_st.bin",
      "byteLength" : 12144
    }
  ],
  "bufferViews" : [
    {
      "buffer" : 0,
      "byteOffset" : 0,
      "byteLength" : 720
    },
    {
      "buffer" : 0,
      "byteOffset" : 720,
      "byteLength" : 2448
    },
    {
      "buffer" : 0,
      "byteOffset" : 3168,
      "byteLength" : 2448
    },
    {
      "buffer" : 0,
      "byteOffset" : 5616,
      "byteLength" : 3264
    },
    {
      "buffer" : 0,
      "byteOffset" : 8880,
      "byteLength" : 1632
    },
    {
      "buffer" : 0,
      "byteOffset" : 10512,
      "byteLength" : 1632
    }
  ],
  "accessors" : [
    {
      "bufferView" : 0,
      "componentType" : 5123,
      "count" : 360,
      "type" : "SCALAR"
    },
    {
      "bufferView" : 1,
      "min" : [ -0.0587308, -3.35276e-10, -0.15625 ],
      "max" : [ 0.5, 1.07853, 0.875 ],
      "componentType" : 5126,
      "count" : 204,
      "type" : "VEC3"
    },
    {
      "bufferView" : 2,
      "componentType" : 5126,
      "count" : 204,
      "type" : "VEC3"
    },
    {
      "bufferView" : 3,
      "componentType" : 5126,
      "count" : 204,
      "type" : "VEC4"
    },
    {
      "bufferView" : 4,
      "componentType" : 5126,
      "count" : 204,
      "type" : "VEC2"
    },
    {
      "bufferView" : 5,
      "componentType" : 5126,
      "count" : 204,
      "type" : "VEC2"
    }
  ]
}
