{
  "asset" : {
    "generator" : "UE Viewer (umodel) build 1590",
    "version" : "2.0"
  },
  "scene" : 0,
  "scenes" : [
    {
      "nodes" : [ 0 ]
    }
  ],
  "nodes" : [
    {
      "name" : "ObpMD_River_Fence_C_root_lp",
      "mesh" : 0
    }
  ],
  "materials" : [
    {
      "name" : "MmeMI_River_T_Terrain_Tile_02",
      "pbrMetallicRoughness" : {
        "baseColorFactor" : [ 0.3, 0.3, 0.3, 1.0 ],
        "metallicFactor" : 0.1,
        "roughnessFactor" : 0.5
      }
    }
  ],
  "meshes" : [
    {
      "primitives" : [
        {
          "attributes" : {
            "POSITION" : 1,
            "NORMAL" : 2,
            "TANGENT" : 3,
            "TEXCOORD_0" : 4,
            "TEXCOORD_1" : 5
          },
          "indices" : 0,
          "material" : 0
        }
      ],
      "name" : "ObpMD_River_Fence_C_root_lp"
    }
  ],
  "buffers" : [
    {
      "uri" : "ObpMD_River_Fence_C_root_lp.bin",
      "byteLength" : 5004
    }
  ],
  "bufferViews" : [
    {
      "buffer" : 0,
      "byteOffset" : 0,
      "byteLength" : 300
    },
    {
      "buffer" : 0,
      "byteOffset" : 300,
      "byteLength" : 1008
    },
    {
      "buffer" : 0,
      "byteOffset" : 1308,
      "byteLength" : 1008
    },
    {
      "buffer" : 0,
      "byteOffset" : 2316,
      "byteLength" : 1344
    },
    {
      "buffer" : 0,
      "byteOffset" : 3660,
      "byteLength" : 672
    },
    {
      "buffer" : 0,
      "byteOffset" : 4332,
      "byteLength" : 672
    }
  ],
  "accessors" : [
    {
      "bufferView" : 0,
      "componentType" : 5123,
      "count" : 150,
      "type" : "SCALAR"
    },
    {
      "bufferView" : 1,
      "min" : [ -4.76837e-07, 1.53581e-20, -6.12323e-17 ],
      "max" : [ 0.5, 1, 1.00085 ],
      "componentType" : 5126,
      "count" : 84,
      "type" : "VEC3"
    },
    {
      "bufferView" : 2,
      "componentType" : 5126,
      "count" : 84,
      "type" : "VEC3"
    },
    {
      "bufferView" : 3,
      "componentType" : 5126,
      "count" : 84,
      "type" : "VEC4"
    },
    {
      "bufferView" : 4,
      "componentType" : 5126,
      "count" : 84,
      "type" : "VEC2"
    },
    {
      "bufferView" : 5,
      "componentType" : 5126,
      "count" : 84,
      "type" : "VEC2"
    }
  ]
}
