{
  "asset" : {
    "generator" : "UE Viewer (umodel) build 1590",
    "version" : "2.0"
  },
  "scene" : 0,
  "scenes" : [
    {
      "nodes" : [ 0 ]
    }
  ],
  "nodes" : [
    {
      "name" : "ObpMD_Fence_Rope_root_st",
      "mesh" : 0
    }
  ],
  "materials" : [
    {
      "name" : "ObpMI_Deck_A_wind",
      "pbrMetallicRoughness" : {
        "baseColorFactor" : [ 0.3, 0.3, 0.3, 1.0 ],
        "metallicFactor" : 0.1,
        "roughnessFactor" : 0.5
      }
    }
  ],
  "meshes" : [
    {
      "primitives" : [
        {
          "attributes" : {
            "POSITION" : 1,
            "NORMAL" : 2,
            "TANGENT" : 3,
            "COLOR_0" : 4,
            "TEXCOORD_0" : 5,
            "TEXCOORD_1" : 6
          },
          "indices" : 0,
          "material" : 0
        }
      ],
      "name" : "ObpMD_Fence_Rope_root_st"
    }
  ],
  "buffers" : [
    {
      "uri" : "ObpMD_Fence_Rope_root_st.bin",
      "byteLength" : 35640
    }
  ],
  "bufferViews" : [
    {
      "buffer" : 0,
      "byteOffset" : 0,
      "byteLength" : 2640
    },
    {
      "buffer" : 0,
      "byteOffset" : 2640,
      "byteLength" : 6600
    },
    {
      "buffer" : 0,
      "byteOffset" : 9240,
      "byteLength" : 6600
    },
    {
      "buffer" : 0,
      "byteOffset" : 15840,
      "byteLength" : 8800
    },
    {
      "buffer" : 0,
      "byteOffset" : 24640,
      "byteLength" : 2200
    },
    {
      "buffer" : 0,
      "byteOffset" : 26840,
      "byteLength" : 4400
    },
    {
      "buffer" : 0,
      "byteOffset" : 31240,
      "byteLength" : 4400
    }
  ],
  "accessors" : [
    {
      "bufferView" : 0,
      "componentType" : 5123,
      "count" : 1320,
      "type" : "SCALAR"
    },
    {
      "bufferView" : 1,
      "min" : [ -0.12, -7.34788e-18, -0.12 ],
      "max" : [ 0.12, 1.1875, 1.40625 ],
      "componentType" : 5126,
      "count" : 550,
      "type" : "VEC3"
    },
    {
      "bufferView" : 2,
      "componentType" : 5126,
      "count" : 550,
      "type" : "VEC3"
    },
    {
      "bufferView" : 3,
      "componentType" : 5126,
      "count" : 550,
      "type" : "VEC4"
    },
    {
      "bufferView" : 4,
      "normalized" : true,
      "componentType" : 5121,
      "count" : 550,
      "type" : "VEC4"
    },
    {
      "bufferView" : 5,
      "componentType" : 5126,
      "count" : 550,
      "type" : "VEC2"
    },
    {
      "bufferView" : 6,
      "componentType" : 5126,
      "count" : 550,
      "type" : "VEC2"
    }
  ]
}
