{
  "asset" : {
    "generator" : "UE Viewer (umodel) build 1590",
    "version" : "2.0"
  },
  "scene" : 0,
  "scenes" : [
    {
      "nodes" : [ 0 ]
    }
  ],
  "nodes" : [
    {
      "name" : "ObpMD_Mount_Fence_A_root_st",
      "mesh" : 0
    }
  ],
  "materials" : [
    {
      "name" : "ObpMI_Mount_Fence_A",
      "pbrMetallicRoughness" : {
        "baseColorFactor" : [ 0.3, 0.3, 0.3, 1.0 ],
        "metallicFactor" : 0.1,
        "roughnessFactor" : 0.5
      }
    }
  ],
  "meshes" : [
    {
      "primitives" : [
        {
          "attributes" : {
            "POSITION" : 1,
            "NORMAL" : 2,
            "TANGENT" : 3,
            "TEXCOORD_0" : 4,
            "TEXCOORD_1" : 5
          },
          "indices" : 0,
          "material" : 0
        }
      ],
      "name" : "ObpMD_Mount_Fence_A_root_st"
    }
  ],
  "buffers" : [
    {
      "uri" : "ObpMD_Mount_Fence_A_root_st.bin",
      "byteLength" : 4136
    }
  ],
  "bufferViews" : [
    {
      "buffer" : 0,
      "byteOffset" : 0,
      "byteLength" : 216
    },
    {
      "buffer" : 0,
      "byteOffset" : 216,
      "byteLength" : 840
    },
    {
      "buffer" : 0,
      "byteOffset" : 1056,
      "byteLength" : 840
    },
    {
      "buffer" : 0,
      "byteOffset" : 1896,
      "byteLength" : 1120
    },
    {
      "buffer" : 0,
      "byteOffset" : 3016,
      "byteLength" : 560
    },
    {
      "buffer" : 0,
      "byteOffset" : 3576,
      "byteLength" : 560
    }
  ],
  "accessors" : [
    {
      "bufferView" : 0,
      "componentType" : 5123,
      "count" : 108,
      "type" : "SCALAR"
    },
    {
      "bufferView" : 1,
      "min" : [ -0.170753, -6.62131e-16, -5.49791e-17 ],
      "max" : [ 0.0912935, 1.0625, 0.5625 ],
      "componentType" : 5126,
      "count" : 70,
      "type" : "VEC3"
    },
    {
      "bufferView" : 2,
      "componentType" : 5126,
      "count" : 70,
      "type" : "VEC3"
    },
    {
      "bufferView" : 3,
      "componentType" : 5126,
      "count" : 70,
      "type" : "VEC4"
    },
    {
      "bufferView" : 4,
      "componentType" : 5126,
      "count" : 70,
      "type" : "VEC2"
    },
    {
      "bufferView" : 5,
      "componentType" : 5126,
      "count" : 70,
      "type" : "VEC2"
    }
  ]
}
