{
  "asset" : {
    "generator" : "UE Viewer (umodel) build 1590",
    "version" : "2.0"
  },
  "scene" : 0,
  "scenes" : [
    {
      "nodes" : [ 0 ]
    }
  ],
  "nodes" : [
    {
      "name" : "ObpMD_Co_Pillar_Plain_A_8_1",
      "mesh" : 0
    }
  ],
  "materials" : [
    {
      "name" : "ObpMI_Plain_Fence_A",
      "pbrMetallicRoughness" : {
        "baseColorFactor" : [ 0.3, 0.3, 0.3, 1.0 ],
        "metallicFactor" : 0.1,
        "roughnessFactor" : 0.5
      }
    }
  ],
  "meshes" : [
    {
      "primitives" : [
        {
          "attributes" : {
            "POSITION" : 1,
            "NORMAL" : 2,
            "TANGENT" : 3,
            "TEXCOORD_0" : 4
          },
          "indices" : 0,
          "material" : 0
        }
      ],
      "name" : "ObpMD_Co_Pillar_Plain_A_8_1"
    }
  ],
  "buffers" : [
    {
      "uri" : "ObpMD_Co_Pillar_Plain_A_8_1.bin",
      "byteLength" : 9324
    }
  ],
  "bufferViews" : [
    {
      "buffer" : 0,
      "byteOffset" : 0,
      "byteLength" : 588
    },
    {
      "buffer" : 0,
      "byteOffset" : 588,
      "byteLength" : 2184
    },
    {
      "buffer" : 0,
      "byteOffset" : 2772,
      "byteLength" : 2184
    },
    {
      "buffer" : 0,
      "byteOffset" : 4956,
      "byteLength" : 2912
    },
    {
      "buffer" : 0,
      "byteOffset" : 7868,
      "byteLength" : 1456
    }
  ],
  "accessors" : [
    {
      "bufferView" : 0,
      "componentType" : 5123,
      "count" : 294,
      "type" : "SCALAR"
    },
    {
      "bufferView" : 1,
      "min" : [ -0.375, -1.91351e-17, -0.375 ],
      "max" : [ 0.375, 9.125, 0.375 ],
      "componentType" : 5126,
      "count" : 182,
      "type" : "VEC3"
    },
    {
      "bufferView" : 2,
      "componentType" : 5126,
      "count" : 182,
      "type" : "VEC3"
    },
    {
      "bufferView" : 3,
      "componentType" : 5126,
      "count" : 182,
      "type" : "VEC4"
    },
    {
      "bufferView" : 4,
      "componentType" : 5126,
      "count" : 182,
      "type" : "VEC2"
    }
  ]
}
