{
  "asset" : {
    "generator" : "UE Viewer (umodel) build 1590",
    "version" : "2.0"
  },
  "scene" : 0,
  "scenes" : [
    {
      "nodes" : [ 0 ]
    }
  ],
  "nodes" : [
    {
      "name" : "ObpMD_Snow_Fence_A_root_lp3",
      "mesh" : 0
    }
  ],
  "materials" : [
    {
      "name" : "ObpMI_Snow_Fence_A",
      "pbrMetallicRoughness" : {
        "baseColorFactor" : [ 0.3, 0.3, 0.3, 1.0 ],
        "metallicFactor" : 0.1,
        "roughnessFactor" : 0.5
      }
    }
  ],
  "meshes" : [
    {
      "primitives" : [
        {
          "attributes" : {
            "POSITION" : 1,
            "NORMAL" : 2,
            "TANGENT" : 3,
            "TEXCOORD_0" : 4,
            "TEXCOORD_1" : 5
          },
          "indices" : 0,
          "material" : 0
        }
      ],
      "name" : "ObpMD_Snow_Fence_A_root_lp3"
    }
  ],
  "buffers" : [
    {
      "uri" : "ObpMD_Snow_Fence_A_root_lp3.bin",
      "byteLength" : 5640
    }
  ],
  "bufferViews" : [
    {
      "buffer" : 0,
      "byteOffset" : 0,
      "byteLength" : 264
    },
    {
      "buffer" : 0,
      "byteOffset" : 264,
      "byteLength" : 1152
    },
    {
      "buffer" : 0,
      "byteOffset" : 1416,
      "byteLength" : 1152
    },
    {
      "buffer" : 0,
      "byteOffset" : 2568,
      "byteLength" : 1536
    },
    {
      "buffer" : 0,
      "byteOffset" : 4104,
      "byteLength" : 768
    },
    {
      "buffer" : 0,
      "byteOffset" : 4872,
      "byteLength" : 768
    }
  ],
  "accessors" : [
    {
      "bufferView" : 0,
      "componentType" : 5123,
      "count" : 132,
      "type" : "SCALAR"
    },
    {
      "bufferView" : 1,
      "min" : [ -0.125, 3.82702e-18, -0.0625 ],
      "max" : [ 0.125, 1.25, 0.75 ],
      "componentType" : 5126,
      "count" : 96,
      "type" : "VEC3"
    },
    {
      "bufferView" : 2,
      "componentType" : 5126,
      "count" : 96,
      "type" : "VEC3"
    },
    {
      "bufferView" : 3,
      "componentType" : 5126,
      "count" : 96,
      "type" : "VEC4"
    },
    {
      "bufferView" : 4,
      "componentType" : 5126,
      "count" : 96,
      "type" : "VEC2"
    },
    {
      "bufferView" : 5,
      "componentType" : 5126,
      "count" : 96,
      "type" : "VEC2"
    }
  ]
}
