{
  "asset" : {
    "generator" : "UE Viewer (umodel) build 1590",
    "version" : "2.0"
  },
  "scene" : 0,
  "scenes" : [
    {
      "nodes" : [ 0 ]
    }
  ],
  "nodes" : [
    {
      "name" : "Co_BPI_Com_Slope_B_8_6_1",
      "mesh" : 0
    }
  ],
  "materials" : [
    {
      "name" : "MmeMI_Mount_F_Terrain_Rock_01",
      "pbrMetallicRoughness" : {
        "baseColorFactor" : [ 0.3, 0.3, 0.3, 1.0 ],
        "metallicFactor" : 0.1,
        "roughnessFactor" : 0.5
      }
    }
  ],
  "meshes" : [
    {
      "primitives" : [
        {
          "attributes" : {
            "POSITION" : 1,
            "NORMAL" : 2,
            "TANGENT" : 3,
            "TEXCOORD_0" : 4,
            "TEXCOORD_1" : 5,
            "TEXCOORD_2" : 6
          },
          "indices" : 0,
          "material" : 0
        }
      ],
      "name" : "Co_BPI_Com_Slope_B_8_6_1"
    }
  ],
  "buffers" : [
    {
      "uri" : "Co_BPI_Com_Slope_B_8_6_1.bin",
      "byteLength" : 42164
    }
  ],
  "bufferViews" : [
    {
      "buffer" : 0,
      "byteOffset" : 0,
      "byteLength" : 2036
    },
    {
      "buffer" : 0,
      "byteOffset" : 2036,
      "byteLength" : 7524
    },
    {
      "buffer" : 0,
      "byteOffset" : 9560,
      "byteLength" : 7524
    },
    {
      "buffer" : 0,
      "byteOffset" : 17084,
      "byteLength" : 10032
    },
    {
      "buffer" : 0,
      "byteOffset" : 27116,
      "byteLength" : 5016
    },
    {
      "buffer" : 0,
      "byteOffset" : 32132,
      "byteLength" : 5016
    },
    {
      "buffer" : 0,
      "byteOffset" : 37148,
      "byteLength" : 5016
    }
  ],
  "accessors" : [
    {
      "bufferView" : 0,
      "componentType" : 5123,
      "count" : 1017,
      "type" : "SCALAR"
    },
    {
      "bufferView" : 1,
      "min" : [ -4.5, -2, -3.125 ],
      "max" : [ 4.5, 2, 3.125 ],
      "componentType" : 5126,
      "count" : 627,
      "type" : "VEC3"
    },
    {
      "bufferView" : 2,
      "componentType" : 5126,
      "count" : 627,
      "type" : "VEC3"
    },
    {
      "bufferView" : 3,
      "componentType" : 5126,
      "count" : 627,
      "type" : "VEC4"
    },
    {
      "bufferView" : 4,
      "componentType" : 5126,
      "count" : 627,
      "type" : "VEC2"
    },
    {
      "bufferView" : 5,
      "componentType" : 5126,
      "count" : 627,
      "type" : "VEC2"
    },
    {
      "bufferView" : 6,
      "componentType" : 5126,
      "count" : 627,
      "type" : "VEC2"
    }
  ]
}
