{
  "asset" : {
    "generator" : "UE Viewer (umodel) build 1590",
    "version" : "2.0"
  },
  "scene" : 0,
  "scenes" : [
    {
      "nodes" : [ 0 ]
    }
  ],
  "nodes" : [
    {
      "name" : "Co_BPI_Com_Slope_C_6_3_1",
      "mesh" : 0
    }
  ],
  "materials" : [
    {
      "name" : "MmeMI_Mount_F_Terrain_Rock_01",
      "pbrMetallicRoughness" : {
        "baseColorFactor" : [ 0.3, 0.3, 0.3, 1.0 ],
        "metallicFactor" : 0.1,
        "roughnessFactor" : 0.5
      }
    }
  ],
  "meshes" : [
    {
      "primitives" : [
        {
          "attributes" : {
            "POSITION" : 1,
            "NORMAL" : 2,
            "TANGENT" : 3,
            "TEXCOORD_0" : 4,
            "TEXCOORD_1" : 5,
            "TEXCOORD_2" : 6
          },
          "indices" : 0,
          "material" : 0
        }
      ],
      "name" : "Co_BPI_Com_Slope_C_6_3_1"
    }
  ],
  "buffers" : [
    {
      "uri" : "Co_BPI_Com_Slope_C_6_3_1.bin",
      "byteLength" : 17412
    }
  ],
  "bufferViews" : [
    {
      "buffer" : 0,
      "byteOffset" : 0,
      "byteLength" : 900
    },
    {
      "buffer" : 0,
      "byteOffset" : 900,
      "byteLength" : 3096
    },
    {
      "buffer" : 0,
      "byteOffset" : 3996,
      "byteLength" : 3096
    },
    {
      "buffer" : 0,
      "byteOffset" : 7092,
      "byteLength" : 4128
    },
    {
      "buffer" : 0,
      "byteOffset" : 11220,
      "byteLength" : 2064
    },
    {
      "buffer" : 0,
      "byteOffset" : 13284,
      "byteLength" : 2064
    },
    {
      "buffer" : 0,
      "byteOffset" : 15348,
      "byteLength" : 2064
    }
  ],
  "accessors" : [
    {
      "bufferView" : 0,
      "componentType" : 5123,
      "count" : 450,
      "type" : "SCALAR"
    },
    {
      "bufferView" : 1,
      "min" : [ -1.5, -1.25, -1.625 ],
      "max" : [ 1.5, 1.25, 1.625 ],
      "componentType" : 5126,
      "count" : 258,
      "type" : "VEC3"
    },
    {
      "bufferView" : 2,
      "componentType" : 5126,
      "count" : 258,
      "type" : "VEC3"
    },
    {
      "bufferView" : 3,
      "componentType" : 5126,
      "count" : 258,
      "type" : "VEC4"
    },
    {
      "bufferView" : 4,
      "componentType" : 5126,
      "count" : 258,
      "type" : "VEC2"
    },
    {
      "bufferView" : 5,
      "componentType" : 5126,
      "count" : 258,
      "type" : "VEC2"
    },
    {
      "bufferView" : 6,
      "componentType" : 5126,
      "count" : 258,
      "type" : "VEC2"
    }
  ]
}
