{
  "asset" : {
    "generator" : "UE Viewer (umodel) build 1590",
    "version" : "2.0"
  },
  "scene" : 0,
  "scenes" : [
    {
      "nodes" : [ 0 ]
    }
  ],
  "nodes" : [
    {
      "name" : "Co_BPI_Com_Slope_B_2_7_1",
      "mesh" : 0
    }
  ],
  "materials" : [
    {
      "name" : "MmeMI_Mount_F_Terrain_Rock_01",
      "pbrMetallicRoughness" : {
        "baseColorFactor" : [ 0.3, 0.3, 0.3, 1.0 ],
        "metallicFactor" : 0.1,
        "roughnessFactor" : 0.5
      }
    }
  ],
  "meshes" : [
    {
      "primitives" : [
        {
          "attributes" : {
            "POSITION" : 1,
            "NORMAL" : 2,
            "TANGENT" : 3,
            "TEXCOORD_0" : 4,
            "TEXCOORD_1" : 5
          },
          "indices" : 0,
          "material" : 0
        }
      ],
      "name" : "Co_BPI_Com_Slope_B_2_7_1"
    }
  ],
  "buffers" : [
    {
      "uri" : "Co_BPI_Com_Slope_B_2_7_1.bin",
      "byteLength" : 8308
    }
  ],
  "bufferViews" : [
    {
      "buffer" : 0,
      "byteOffset" : 0,
      "byteLength" : 468
    },
    {
      "buffer" : 0,
      "byteOffset" : 468,
      "byteLength" : 1680
    },
    {
      "buffer" : 0,
      "byteOffset" : 2148,
      "byteLength" : 1680
    },
    {
      "buffer" : 0,
      "byteOffset" : 3828,
      "byteLength" : 2240
    },
    {
      "buffer" : 0,
      "byteOffset" : 6068,
      "byteLength" : 1120
    },
    {
      "buffer" : 0,
      "byteOffset" : 7188,
      "byteLength" : 1120
    }
  ],
  "accessors" : [
    {
      "bufferView" : 0,
      "componentType" : 5123,
      "count" : 234,
      "type" : "SCALAR"
    },
    {
      "bufferView" : 1,
      "min" : [ -1.00004, -1, -3.625 ],
      "max" : [ 1.99996, 1.77636e-16, 3.625 ],
      "componentType" : 5126,
      "count" : 140,
      "type" : "VEC3"
    },
    {
      "bufferView" : 2,
      "componentType" : 5126,
      "count" : 140,
      "type" : "VEC3"
    },
    {
      "bufferView" : 3,
      "componentType" : 5126,
      "count" : 140,
      "type" : "VEC4"
    },
    {
      "bufferView" : 4,
      "componentType" : 5126,
      "count" : 140,
      "type" : "VEC2"
    },
    {
      "bufferView" : 5,
      "componentType" : 5126,
      "count" : 140,
      "type" : "VEC2"
    }
  ]
}
