{
  "asset" : {
    "generator" : "UE Viewer (umodel) build 1590",
    "version" : "2.0"
  },
  "scene" : 0,
  "scenes" : [
    {
      "nodes" : [ 0 ]
    }
  ],
  "nodes" : [
    {
      "name" : "Co_BPI_Com_Slope_A_18_7_1",
      "mesh" : 0
    }
  ],
  "materials" : [
    {
      "name" : "MmeMI_Mount_F_Terrain_Rock_01",
      "pbrMetallicRoughness" : {
        "baseColorFactor" : [ 0.3, 0.3, 0.3, 1.0 ],
        "metallicFactor" : 0.1,
        "roughnessFactor" : 0.5
      }
    }
  ],
  "meshes" : [
    {
      "primitives" : [
        {
          "attributes" : {
            "POSITION" : 1,
            "NORMAL" : 2,
            "TANGENT" : 3,
            "TEXCOORD_0" : 4,
            "TEXCOORD_1" : 5,
            "TEXCOORD_2" : 6
          },
          "indices" : 0,
          "material" : 0
        }
      ],
      "name" : "Co_BPI_Com_Slope_A_18_7_1"
    }
  ],
  "buffers" : [
    {
      "uri" : "Co_BPI_Com_Slope_A_18_7_1.bin",
      "byteLength" : 120320
    }
  ],
  "bufferViews" : [
    {
      "buffer" : 0,
      "byteOffset" : 0,
      "byteLength" : 5696
    },
    {
      "buffer" : 0,
      "byteOffset" : 5696,
      "byteLength" : 21492
    },
    {
      "buffer" : 0,
      "byteOffset" : 27188,
      "byteLength" : 21492
    },
    {
      "buffer" : 0,
      "byteOffset" : 48680,
      "byteLength" : 28656
    },
    {
      "buffer" : 0,
      "byteOffset" : 77336,
      "byteLength" : 14328
    },
    {
      "buffer" : 0,
      "byteOffset" : 91664,
      "byteLength" : 14328
    },
    {
      "buffer" : 0,
      "byteOffset" : 105992,
      "byteLength" : 14328
    }
  ],
  "accessors" : [
    {
      "bufferView" : 0,
      "componentType" : 5123,
      "count" : 2847,
      "type" : "SCALAR"
    },
    {
      "bufferView" : 1,
      "min" : [ -2, -1.5, -3.62499 ],
      "max" : [ 15, 2.5, 3.62501 ],
      "componentType" : 5126,
      "count" : 1791,
      "type" : "VEC3"
    },
    {
      "bufferView" : 2,
      "componentType" : 5126,
      "count" : 1791,
      "type" : "VEC3"
    },
    {
      "bufferView" : 3,
      "componentType" : 5126,
      "count" : 1791,
      "type" : "VEC4"
    },
    {
      "bufferView" : 4,
      "componentType" : 5126,
      "count" : 1791,
      "type" : "VEC2"
    },
    {
      "bufferView" : 5,
      "componentType" : 5126,
      "count" : 1791,
      "type" : "VEC2"
    },
    {
      "bufferView" : 6,
      "componentType" : 5126,
      "count" : 1791,
      "type" : "VEC2"
    }
  ]
}
