{
  "asset" : {
    "generator" : "UE Viewer (umodel) build 1590",
    "version" : "2.0"
  },
  "scene" : 0,
  "scenes" : [
    {
      "nodes" : [ 0 ]
    }
  ],
  "nodes" : [
    {
      "name" : "Co_BPI_Com_Slope_A_14_5_1",
      "mesh" : 0
    }
  ],
  "materials" : [
    {
      "name" : "MmeMI_Mount_F_Terrain_Rock_01",
      "pbrMetallicRoughness" : {
        "baseColorFactor" : [ 0.3, 0.3, 0.3, 1.0 ],
        "metallicFactor" : 0.1,
        "roughnessFactor" : 0.5
      }
    }
  ],
  "meshes" : [
    {
      "primitives" : [
        {
          "attributes" : {
            "POSITION" : 1,
            "NORMAL" : 2,
            "TANGENT" : 3,
            "TEXCOORD_0" : 4,
            "TEXCOORD_1" : 5,
            "TEXCOORD_2" : 6
          },
          "indices" : 0,
          "material" : 0
        }
      ],
      "name" : "Co_BPI_Com_Slope_A_14_5_1"
    }
  ],
  "buffers" : [
    {
      "uri" : "Co_BPI_Com_Slope_A_14_5_1.bin",
      "byteLength" : 89928
    }
  ],
  "bufferViews" : [
    {
      "buffer" : 0,
      "byteOffset" : 0,
      "byteLength" : 4296
    },
    {
      "buffer" : 0,
      "byteOffset" : 4296,
      "byteLength" : 16056
    },
    {
      "buffer" : 0,
      "byteOffset" : 20352,
      "byteLength" : 16056
    },
    {
      "buffer" : 0,
      "byteOffset" : 36408,
      "byteLength" : 21408
    },
    {
      "buffer" : 0,
      "byteOffset" : 57816,
      "byteLength" : 10704
    },
    {
      "buffer" : 0,
      "byteOffset" : 68520,
      "byteLength" : 10704
    },
    {
      "buffer" : 0,
      "byteOffset" : 79224,
      "byteLength" : 10704
    }
  ],
  "accessors" : [
    {
      "bufferView" : 0,
      "componentType" : 5123,
      "count" : 2148,
      "type" : "SCALAR"
    },
    {
      "bufferView" : 1,
      "min" : [ -7.5, -1.75, -2.625 ],
      "max" : [ 7.5, 1.75, 2.625 ],
      "componentType" : 5126,
      "count" : 1338,
      "type" : "VEC3"
    },
    {
      "bufferView" : 2,
      "componentType" : 5126,
      "count" : 1338,
      "type" : "VEC3"
    },
    {
      "bufferView" : 3,
      "componentType" : 5126,
      "count" : 1338,
      "type" : "VEC4"
    },
    {
      "bufferView" : 4,
      "componentType" : 5126,
      "count" : 1338,
      "type" : "VEC2"
    },
    {
      "bufferView" : 5,
      "componentType" : 5126,
      "count" : 1338,
      "type" : "VEC2"
    },
    {
      "bufferView" : 6,
      "componentType" : 5126,
      "count" : 1338,
      "type" : "VEC2"
    }
  ]
}
