{
  "asset" : {
    "generator" : "UE Viewer (umodel) build 1590",
    "version" : "2.0"
  },
  "scene" : 0,
  "scenes" : [
    {
      "nodes" : [ 0 ]
    }
  ],
  "nodes" : [
    {
      "name" : "Co_BPI_Com_Slope_A_8_4_1",
      "mesh" : 0
    }
  ],
  "materials" : [
    {
      "name" : "MmeMI_Mount_F_Terrain_Rock_01",
      "pbrMetallicRoughness" : {
        "baseColorFactor" : [ 0.3, 0.3, 0.3, 1.0 ],
        "metallicFactor" : 0.1,
        "roughnessFactor" : 0.5
      }
    }
  ],
  "meshes" : [
    {
      "primitives" : [
        {
          "attributes" : {
            "POSITION" : 1,
            "NORMAL" : 2,
            "TANGENT" : 3,
            "TEXCOORD_0" : 4,
            "TEXCOORD_1" : 5,
            "TEXCOORD_2" : 6
          },
          "indices" : 0,
          "material" : 0
        }
      ],
      "name" : "Co_BPI_Com_Slope_A_8_4_1"
    }
  ],
  "buffers" : [
    {
      "uri" : "Co_BPI_Com_Slope_A_8_4_1.bin",
      "byteLength" : 36616
    }
  ],
  "bufferViews" : [
    {
      "buffer" : 0,
      "byteOffset" : 0,
      "byteLength" : 1800
    },
    {
      "buffer" : 0,
      "byteOffset" : 1800,
      "byteLength" : 6528
    },
    {
      "buffer" : 0,
      "byteOffset" : 8328,
      "byteLength" : 6528
    },
    {
      "buffer" : 0,
      "byteOffset" : 14856,
      "byteLength" : 8704
    },
    {
      "buffer" : 0,
      "byteOffset" : 23560,
      "byteLength" : 4352
    },
    {
      "buffer" : 0,
      "byteOffset" : 27912,
      "byteLength" : 4352
    },
    {
      "buffer" : 0,
      "byteOffset" : 32264,
      "byteLength" : 4352
    }
  ],
  "accessors" : [
    {
      "bufferView" : 0,
      "componentType" : 5123,
      "count" : 900,
      "type" : "SCALAR"
    },
    {
      "bufferView" : 1,
      "min" : [ -4.5, -1, -2.125 ],
      "max" : [ 4.5, 1, 2.125 ],
      "componentType" : 5126,
      "count" : 544,
      "type" : "VEC3"
    },
    {
      "bufferView" : 2,
      "componentType" : 5126,
      "count" : 544,
      "type" : "VEC3"
    },
    {
      "bufferView" : 3,
      "componentType" : 5126,
      "count" : 544,
      "type" : "VEC4"
    },
    {
      "bufferView" : 4,
      "componentType" : 5126,
      "count" : 544,
      "type" : "VEC2"
    },
    {
      "bufferView" : 5,
      "componentType" : 5126,
      "count" : 544,
      "type" : "VEC2"
    },
    {
      "bufferView" : 6,
      "componentType" : 5126,
      "count" : 544,
      "type" : "VEC2"
    }
  ]
}
