{
  "asset" : {
    "generator" : "UE Viewer (umodel) build 1590",
    "version" : "2.0"
  },
  "scene" : 0,
  "scenes" : [
    {
      "nodes" : [ 0 ]
    }
  ],
  "nodes" : [
    {
      "name" : "Co_BPI_Com_Slope_B_2_6_1",
      "mesh" : 0
    }
  ],
  "materials" : [
    {
      "name" : "MmeMI_Mount_F_Terrain_Rock_01",
      "pbrMetallicRoughness" : {
        "baseColorFactor" : [ 0.3, 0.3, 0.3, 1.0 ],
        "metallicFactor" : 0.1,
        "roughnessFactor" : 0.5
      }
    }
  ],
  "meshes" : [
    {
      "primitives" : [
        {
          "attributes" : {
            "POSITION" : 1,
            "NORMAL" : 2,
            "TANGENT" : 3,
            "TEXCOORD_0" : 4,
            "TEXCOORD_1" : 5
          },
          "indices" : 0,
          "material" : 0
        }
      ],
      "name" : "Co_BPI_Com_Slope_B_2_6_1"
    }
  ],
  "buffers" : [
    {
      "uri" : "Co_BPI_Com_Slope_B_2_6_1.bin",
      "byteLength" : 7600
    }
  ],
  "bufferViews" : [
    {
      "buffer" : 0,
      "byteOffset" : 0,
      "byteLength" : 432
    },
    {
      "buffer" : 0,
      "byteOffset" : 432,
      "byteLength" : 1536
    },
    {
      "buffer" : 0,
      "byteOffset" : 1968,
      "byteLength" : 1536
    },
    {
      "buffer" : 0,
      "byteOffset" : 3504,
      "byteLength" : 2048
    },
    {
      "buffer" : 0,
      "byteOffset" : 5552,
      "byteLength" : 1024
    },
    {
      "buffer" : 0,
      "byteOffset" : 6576,
      "byteLength" : 1024
    }
  ],
  "accessors" : [
    {
      "bufferView" : 0,
      "componentType" : 5123,
      "count" : 216,
      "type" : "SCALAR"
    },
    {
      "bufferView" : 1,
      "min" : [ -1.00004, -1, -3.125 ],
      "max" : [ 1.99996, -1.42109e-16, 3.125 ],
      "componentType" : 5126,
      "count" : 128,
      "type" : "VEC3"
    },
    {
      "bufferView" : 2,
      "componentType" : 5126,
      "count" : 128,
      "type" : "VEC3"
    },
    {
      "bufferView" : 3,
      "componentType" : 5126,
      "count" : 128,
      "type" : "VEC4"
    },
    {
      "bufferView" : 4,
      "componentType" : 5126,
      "count" : 128,
      "type" : "VEC2"
    },
    {
      "bufferView" : 5,
      "componentType" : 5126,
      "count" : 128,
      "type" : "VEC2"
    }
  ]
}
