{
  "asset" : {
    "generator" : "UE Viewer (umodel) build 1590",
    "version" : "2.0"
  },
  "scene" : 0,
  "scenes" : [
    {
      "nodes" : [ 0 ]
    }
  ],
  "nodes" : [
    {
      "name" : "Co_BPI_Com_Slope_C_6_6_1",
      "mesh" : 0
    }
  ],
  "materials" : [
    {
      "name" : "MmeMI_Mount_F_Terrain_Rock_01",
      "pbrMetallicRoughness" : {
        "baseColorFactor" : [ 0.3, 0.3, 0.3, 1.0 ],
        "metallicFactor" : 0.1,
        "roughnessFactor" : 0.5
      }
    }
  ],
  "meshes" : [
    {
      "primitives" : [
        {
          "attributes" : {
            "POSITION" : 1,
            "NORMAL" : 2,
            "TANGENT" : 3,
            "TEXCOORD_0" : 4,
            "TEXCOORD_1" : 5,
            "TEXCOORD_2" : 6
          },
          "indices" : 0,
          "material" : 0
        }
      ],
      "name" : "Co_BPI_Com_Slope_C_6_6_1"
    }
  ],
  "buffers" : [
    {
      "uri" : "Co_BPI_Com_Slope_C_6_6_1.bin",
      "byteLength" : 28144
    }
  ],
  "bufferViews" : [
    {
      "buffer" : 0,
      "byteOffset" : 0,
      "byteLength" : 1392
    },
    {
      "buffer" : 0,
      "byteOffset" : 1392,
      "byteLength" : 5016
    },
    {
      "buffer" : 0,
      "byteOffset" : 6408,
      "byteLength" : 5016
    },
    {
      "buffer" : 0,
      "byteOffset" : 11424,
      "byteLength" : 6688
    },
    {
      "buffer" : 0,
      "byteOffset" : 18112,
      "byteLength" : 3344
    },
    {
      "buffer" : 0,
      "byteOffset" : 21456,
      "byteLength" : 3344
    },
    {
      "buffer" : 0,
      "byteOffset" : 24800,
      "byteLength" : 3344
    }
  ],
  "accessors" : [
    {
      "bufferView" : 0,
      "componentType" : 5123,
      "count" : 696,
      "type" : "SCALAR"
    },
    {
      "bufferView" : 1,
      "min" : [ -1.75, -1.5, -3.125 ],
      "max" : [ 1.75, 1.5, 3.125 ],
      "componentType" : 5126,
      "count" : 418,
      "type" : "VEC3"
    },
    {
      "bufferView" : 2,
      "componentType" : 5126,
      "count" : 418,
      "type" : "VEC3"
    },
    {
      "bufferView" : 3,
      "componentType" : 5126,
      "count" : 418,
      "type" : "VEC4"
    },
    {
      "bufferView" : 4,
      "componentType" : 5126,
      "count" : 418,
      "type" : "VEC2"
    },
    {
      "bufferView" : 5,
      "componentType" : 5126,
      "count" : 418,
      "type" : "VEC2"
    },
    {
      "bufferView" : 6,
      "componentType" : 5126,
      "count" : 418,
      "type" : "VEC2"
    }
  ]
}
