{
  "asset" : {
    "generator" : "UE Viewer (umodel) build 1590",
    "version" : "2.0"
  },
  "scene" : 0,
  "scenes" : [
    {
      "nodes" : [ 0 ]
    }
  ],
  "nodes" : [
    {
      "name" : "Co_BPI_Com_Slope_A_7_5_1",
      "mesh" : 0
    }
  ],
  "materials" : [
    {
      "name" : "MmeMI_Mount_F_Terrain_Rock_01",
      "pbrMetallicRoughness" : {
        "baseColorFactor" : [ 0.3, 0.3, 0.3, 1.0 ],
        "metallicFactor" : 0.1,
        "roughnessFactor" : 0.5
      }
    }
  ],
  "meshes" : [
    {
      "primitives" : [
        {
          "attributes" : {
            "POSITION" : 1,
            "NORMAL" : 2,
            "TANGENT" : 3,
            "TEXCOORD_0" : 4,
            "TEXCOORD_1" : 5,
            "TEXCOORD_2" : 6
          },
          "indices" : 0,
          "material" : 0
        }
      ],
      "name" : "Co_BPI_Com_Slope_A_7_5_1"
    }
  ],
  "buffers" : [
    {
      "uri" : "Co_BPI_Com_Slope_A_7_5_1.bin",
      "byteLength" : 32700
    }
  ],
  "bufferViews" : [
    {
      "buffer" : 0,
      "byteOffset" : 0,
      "byteLength" : 1596
    },
    {
      "buffer" : 0,
      "byteOffset" : 1596,
      "byteLength" : 5832
    },
    {
      "buffer" : 0,
      "byteOffset" : 7428,
      "byteLength" : 5832
    },
    {
      "buffer" : 0,
      "byteOffset" : 13260,
      "byteLength" : 7776
    },
    {
      "buffer" : 0,
      "byteOffset" : 21036,
      "byteLength" : 3888
    },
    {
      "buffer" : 0,
      "byteOffset" : 24924,
      "byteLength" : 3888
    },
    {
      "buffer" : 0,
      "byteOffset" : 28812,
      "byteLength" : 3888
    }
  ],
  "accessors" : [
    {
      "bufferView" : 0,
      "componentType" : 5123,
      "count" : 798,
      "type" : "SCALAR"
    },
    {
      "bufferView" : 1,
      "min" : [ -4, -0.875, -2.625 ],
      "max" : [ 4, 0.875, 2.625 ],
      "componentType" : 5126,
      "count" : 486,
      "type" : "VEC3"
    },
    {
      "bufferView" : 2,
      "componentType" : 5126,
      "count" : 486,
      "type" : "VEC3"
    },
    {
      "bufferView" : 3,
      "componentType" : 5126,
      "count" : 486,
      "type" : "VEC4"
    },
    {
      "bufferView" : 4,
      "componentType" : 5126,
      "count" : 486,
      "type" : "VEC2"
    },
    {
      "bufferView" : 5,
      "componentType" : 5126,
      "count" : 486,
      "type" : "VEC2"
    },
    {
      "bufferView" : 6,
      "componentType" : 5126,
      "count" : 486,
      "type" : "VEC2"
    }
  ]
}
