{
  "asset" : {
    "generator" : "UE Viewer (umodel) build 1590",
    "version" : "2.0"
  },
  "scene" : 0,
  "scenes" : [
    {
      "nodes" : [ 0 ]
    }
  ],
  "nodes" : [
    {
      "name" : "Co_BPI_Com_Slope_B_7_7_1",
      "mesh" : 0
    }
  ],
  "materials" : [
    {
      "name" : "MmeMI_Mount_F_Terrain_Rock_01",
      "pbrMetallicRoughness" : {
        "baseColorFactor" : [ 0.3, 0.3, 0.3, 1.0 ],
        "metallicFactor" : 0.1,
        "roughnessFactor" : 0.5
      }
    }
  ],
  "meshes" : [
    {
      "primitives" : [
        {
          "attributes" : {
            "POSITION" : 1,
            "NORMAL" : 2,
            "TANGENT" : 3,
            "TEXCOORD_0" : 4,
            "TEXCOORD_1" : 5,
            "TEXCOORD_2" : 6
          },
          "indices" : 0,
          "material" : 0
        }
      ],
      "name" : "Co_BPI_Com_Slope_B_7_7_1"
    }
  ],
  "buffers" : [
    {
      "uri" : "Co_BPI_Com_Slope_B_7_7_1.bin",
      "byteLength" : 44108
    }
  ],
  "bufferViews" : [
    {
      "buffer" : 0,
      "byteOffset" : 0,
      "byteLength" : 2124
    },
    {
      "buffer" : 0,
      "byteOffset" : 2124,
      "byteLength" : 7872
    },
    {
      "buffer" : 0,
      "byteOffset" : 9996,
      "byteLength" : 7872
    },
    {
      "buffer" : 0,
      "byteOffset" : 17868,
      "byteLength" : 10496
    },
    {
      "buffer" : 0,
      "byteOffset" : 28364,
      "byteLength" : 5248
    },
    {
      "buffer" : 0,
      "byteOffset" : 33612,
      "byteLength" : 5248
    },
    {
      "buffer" : 0,
      "byteOffset" : 38860,
      "byteLength" : 5248
    }
  ],
  "accessors" : [
    {
      "bufferView" : 0,
      "componentType" : 5123,
      "count" : 1062,
      "type" : "SCALAR"
    },
    {
      "bufferView" : 1,
      "min" : [ -4.5, -2, -3.625 ],
      "max" : [ 4.5, 2, 3.625 ],
      "componentType" : 5126,
      "count" : 656,
      "type" : "VEC3"
    },
    {
      "bufferView" : 2,
      "componentType" : 5126,
      "count" : 656,
      "type" : "VEC3"
    },
    {
      "bufferView" : 3,
      "componentType" : 5126,
      "count" : 656,
      "type" : "VEC4"
    },
    {
      "bufferView" : 4,
      "componentType" : 5126,
      "count" : 656,
      "type" : "VEC2"
    },
    {
      "bufferView" : 5,
      "componentType" : 5126,
      "count" : 656,
      "type" : "VEC2"
    },
    {
      "bufferView" : 6,
      "componentType" : 5126,
      "count" : 656,
      "type" : "VEC2"
    }
  ]
}
