{
  "asset" : {
    "generator" : "UE Viewer (umodel) build 1590",
    "version" : "2.0"
  },
  "scene" : 0,
  "scenes" : [
    {
      "nodes" : [ 0 ]
    }
  ],
  "nodes" : [
    {
      "name" : "Co_BPI_Com_Slope_C_4_4_1",
      "mesh" : 0
    }
  ],
  "materials" : [
    {
      "name" : "MmeMI_Mount_F_Terrain_Rock_01",
      "pbrMetallicRoughness" : {
        "baseColorFactor" : [ 0.3, 0.3, 0.3, 1.0 ],
        "metallicFactor" : 0.1,
        "roughnessFactor" : 0.5
      }
    }
  ],
  "meshes" : [
    {
      "primitives" : [
        {
          "attributes" : {
            "POSITION" : 1,
            "NORMAL" : 2,
            "TANGENT" : 3,
            "TEXCOORD_0" : 4,
            "TEXCOORD_1" : 5,
            "TEXCOORD_2" : 6
          },
          "indices" : 0,
          "material" : 0
        }
      ],
      "name" : "Co_BPI_Com_Slope_C_4_4_1"
    }
  ],
  "buffers" : [
    {
      "uri" : "Co_BPI_Com_Slope_C_4_4_1.bin",
      "byteLength" : 14440
    }
  ],
  "bufferViews" : [
    {
      "buffer" : 0,
      "byteOffset" : 0,
      "byteLength" : 744
    },
    {
      "buffer" : 0,
      "byteOffset" : 744,
      "byteLength" : 2568
    },
    {
      "buffer" : 0,
      "byteOffset" : 3312,
      "byteLength" : 2568
    },
    {
      "buffer" : 0,
      "byteOffset" : 5880,
      "byteLength" : 3424
    },
    {
      "buffer" : 0,
      "byteOffset" : 9304,
      "byteLength" : 1712
    },
    {
      "buffer" : 0,
      "byteOffset" : 11016,
      "byteLength" : 1712
    },
    {
      "buffer" : 0,
      "byteOffset" : 12728,
      "byteLength" : 1712
    }
  ],
  "accessors" : [
    {
      "bufferView" : 0,
      "componentType" : 5123,
      "count" : 372,
      "type" : "SCALAR"
    },
    {
      "bufferView" : 1,
      "min" : [ -1.25, -1, -2.125 ],
      "max" : [ 1.25, 1, 2.125 ],
      "componentType" : 5126,
      "count" : 214,
      "type" : "VEC3"
    },
    {
      "bufferView" : 2,
      "componentType" : 5126,
      "count" : 214,
      "type" : "VEC3"
    },
    {
      "bufferView" : 3,
      "componentType" : 5126,
      "count" : 214,
      "type" : "VEC4"
    },
    {
      "bufferView" : 4,
      "componentType" : 5126,
      "count" : 214,
      "type" : "VEC2"
    },
    {
      "bufferView" : 5,
      "componentType" : 5126,
      "count" : 214,
      "type" : "VEC2"
    },
    {
      "bufferView" : 6,
      "componentType" : 5126,
      "count" : 214,
      "type" : "VEC2"
    }
  ]
}
