{
  "asset" : {
    "generator" : "UE Viewer (umodel) build 1590",
    "version" : "2.0"
  },
  "scene" : 0,
  "scenes" : [
    {
      "nodes" : [ 0 ]
    }
  ],
  "nodes" : [
    {
      "name" : "Co_BPI_Com_Slope_B_8_7_1",
      "mesh" : 0
    }
  ],
  "materials" : [
    {
      "name" : "MmeMI_Mount_F_Terrain_Rock_01",
      "pbrMetallicRoughness" : {
        "baseColorFactor" : [ 0.3, 0.3, 0.3, 1.0 ],
        "metallicFactor" : 0.1,
        "roughnessFactor" : 0.5
      }
    }
  ],
  "meshes" : [
    {
      "primitives" : [
        {
          "attributes" : {
            "POSITION" : 1,
            "NORMAL" : 2,
            "TANGENT" : 3,
            "TEXCOORD_0" : 4,
            "TEXCOORD_1" : 5,
            "TEXCOORD_2" : 6
          },
          "indices" : 0,
          "material" : 0
        }
      ],
      "name" : "Co_BPI_Com_Slope_B_8_7_1"
    }
  ],
  "buffers" : [
    {
      "uri" : "Co_BPI_Com_Slope_B_8_7_1.bin",
      "byteLength" : 52232
    }
  ],
  "bufferViews" : [
    {
      "buffer" : 0,
      "byteOffset" : 0,
      "byteLength" : 2504
    },
    {
      "buffer" : 0,
      "byteOffset" : 2504,
      "byteLength" : 9324
    },
    {
      "buffer" : 0,
      "byteOffset" : 11828,
      "byteLength" : 9324
    },
    {
      "buffer" : 0,
      "byteOffset" : 21152,
      "byteLength" : 12432
    },
    {
      "buffer" : 0,
      "byteOffset" : 33584,
      "byteLength" : 6216
    },
    {
      "buffer" : 0,
      "byteOffset" : 39800,
      "byteLength" : 6216
    },
    {
      "buffer" : 0,
      "byteOffset" : 46016,
      "byteLength" : 6216
    }
  ],
  "accessors" : [
    {
      "bufferView" : 0,
      "componentType" : 5123,
      "count" : 1251,
      "type" : "SCALAR"
    },
    {
      "bufferView" : 1,
      "min" : [ -5, -2.25, -3.625 ],
      "max" : [ 5, 2.25, 3.625 ],
      "componentType" : 5126,
      "count" : 777,
      "type" : "VEC3"
    },
    {
      "bufferView" : 2,
      "componentType" : 5126,
      "count" : 777,
      "type" : "VEC3"
    },
    {
      "bufferView" : 3,
      "componentType" : 5126,
      "count" : 777,
      "type" : "VEC4"
    },
    {
      "bufferView" : 4,
      "componentType" : 5126,
      "count" : 777,
      "type" : "VEC2"
    },
    {
      "bufferView" : 5,
      "componentType" : 5126,
      "count" : 777,
      "type" : "VEC2"
    },
    {
      "bufferView" : 6,
      "componentType" : 5126,
      "count" : 777,
      "type" : "VEC2"
    }
  ]
}
