{
  "asset" : {
    "generator" : "UE Viewer (umodel) build 1590",
    "version" : "2.0"
  },
  "scene" : 0,
  "scenes" : [
    {
      "nodes" : [ 0 ]
    }
  ],
  "nodes" : [
    {
      "name" : "Co_BPI_Com_Slope_B_11_5_1",
      "mesh" : 0
    }
  ],
  "materials" : [
    {
      "name" : "MmeMI_Mount_F_Terrain_Rock_01",
      "pbrMetallicRoughness" : {
        "baseColorFactor" : [ 0.3, 0.3, 0.3, 1.0 ],
        "metallicFactor" : 0.1,
        "roughnessFactor" : 0.5
      }
    }
  ],
  "meshes" : [
    {
      "primitives" : [
        {
          "attributes" : {
            "POSITION" : 1,
            "NORMAL" : 2,
            "TANGENT" : 3,
            "TEXCOORD_0" : 4,
            "TEXCOORD_1" : 5,
            "TEXCOORD_2" : 6
          },
          "indices" : 0,
          "material" : 0
        }
      ],
      "name" : "Co_BPI_Com_Slope_B_11_5_1"
    }
  ],
  "buffers" : [
    {
      "uri" : "Co_BPI_Com_Slope_B_11_5_1.bin",
      "byteLength" : 58516
    }
  ],
  "bufferViews" : [
    {
      "buffer" : 0,
      "byteOffset" : 0,
      "byteLength" : 2964
    },
    {
      "buffer" : 0,
      "byteOffset" : 2964,
      "byteLength" : 10416
    },
    {
      "buffer" : 0,
      "byteOffset" : 13380,
      "byteLength" : 10416
    },
    {
      "buffer" : 0,
      "byteOffset" : 23796,
      "byteLength" : 13888
    },
    {
      "buffer" : 0,
      "byteOffset" : 37684,
      "byteLength" : 6944
    },
    {
      "buffer" : 0,
      "byteOffset" : 44628,
      "byteLength" : 6944
    },
    {
      "buffer" : 0,
      "byteOffset" : 51572,
      "byteLength" : 6944
    }
  ],
  "accessors" : [
    {
      "bufferView" : 0,
      "componentType" : 5123,
      "count" : 1482,
      "type" : "SCALAR"
    },
    {
      "bufferView" : 1,
      "min" : [ -6, -2.75, -2.625 ],
      "max" : [ 6, 2.75, 2.625 ],
      "componentType" : 5126,
      "count" : 868,
      "type" : "VEC3"
    },
    {
      "bufferView" : 2,
      "componentType" : 5126,
      "count" : 868,
      "type" : "VEC3"
    },
    {
      "bufferView" : 3,
      "componentType" : 5126,
      "count" : 868,
      "type" : "VEC4"
    },
    {
      "bufferView" : 4,
      "componentType" : 5126,
      "count" : 868,
      "type" : "VEC2"
    },
    {
      "bufferView" : 5,
      "componentType" : 5126,
      "count" : 868,
      "type" : "VEC2"
    },
    {
      "bufferView" : 6,
      "componentType" : 5126,
      "count" : 868,
      "type" : "VEC2"
    }
  ]
}
