{
  "asset" : {
    "generator" : "UE Viewer (umodel) build 1590",
    "version" : "2.0"
  },
  "scene" : 0,
  "scenes" : [
    {
      "nodes" : [ 0 ]
    }
  ],
  "nodes" : [
    {
      "name" : "Co_BPI_Com_Slope_A_12_5_1",
      "mesh" : 0
    }
  ],
  "materials" : [
    {
      "name" : "MmeMI_Mount_F_Terrain_Rock_01",
      "pbrMetallicRoughness" : {
        "baseColorFactor" : [ 0.3, 0.3, 0.3, 1.0 ],
        "metallicFactor" : 0.1,
        "roughnessFactor" : 0.5
      }
    }
  ],
  "meshes" : [
    {
      "primitives" : [
        {
          "attributes" : {
            "POSITION" : 1,
            "NORMAL" : 2,
            "TANGENT" : 3,
            "TEXCOORD_0" : 4,
            "TEXCOORD_1" : 5,
            "TEXCOORD_2" : 6
          },
          "indices" : 0,
          "material" : 0
        }
      ],
      "name" : "Co_BPI_Com_Slope_A_12_5_1"
    }
  ],
  "buffers" : [
    {
      "uri" : "Co_BPI_Com_Slope_A_12_5_1.bin",
      "byteLength" : 70468
    }
  ],
  "bufferViews" : [
    {
      "buffer" : 0,
      "byteOffset" : 0,
      "byteLength" : 3396
    },
    {
      "buffer" : 0,
      "byteOffset" : 3396,
      "byteLength" : 12576
    },
    {
      "buffer" : 0,
      "byteOffset" : 15972,
      "byteLength" : 12576
    },
    {
      "buffer" : 0,
      "byteOffset" : 28548,
      "byteLength" : 16768
    },
    {
      "buffer" : 0,
      "byteOffset" : 45316,
      "byteLength" : 8384
    },
    {
      "buffer" : 0,
      "byteOffset" : 53700,
      "byteLength" : 8384
    },
    {
      "buffer" : 0,
      "byteOffset" : 62084,
      "byteLength" : 8384
    }
  ],
  "accessors" : [
    {
      "bufferView" : 0,
      "componentType" : 5123,
      "count" : 1698,
      "type" : "SCALAR"
    },
    {
      "bufferView" : 1,
      "min" : [ -6.5, -1.5, -2.62501 ],
      "max" : [ 6.5, 1.5, 2.62501 ],
      "componentType" : 5126,
      "count" : 1048,
      "type" : "VEC3"
    },
    {
      "bufferView" : 2,
      "componentType" : 5126,
      "count" : 1048,
      "type" : "VEC3"
    },
    {
      "bufferView" : 3,
      "componentType" : 5126,
      "count" : 1048,
      "type" : "VEC4"
    },
    {
      "bufferView" : 4,
      "componentType" : 5126,
      "count" : 1048,
      "type" : "VEC2"
    },
    {
      "bufferView" : 5,
      "componentType" : 5126,
      "count" : 1048,
      "type" : "VEC2"
    },
    {
      "bufferView" : 6,
      "componentType" : 5126,
      "count" : 1048,
      "type" : "VEC2"
    }
  ]
}
