{
  "asset" : {
    "generator" : "UE Viewer (umodel) build 1590",
    "version" : "2.0"
  },
  "scene" : 0,
  "scenes" : [
    {
      "nodes" : [ 0 ]
    }
  ],
  "nodes" : [
    {
      "name" : "Co_BPI_Com_Slope_B_10_3_1",
      "mesh" : 0
    }
  ],
  "materials" : [
    {
      "name" : "MmeMI_Mount_F_Terrain_Rock_01",
      "pbrMetallicRoughness" : {
        "baseColorFactor" : [ 0.3, 0.3, 0.3, 1.0 ],
        "metallicFactor" : 0.1,
        "roughnessFactor" : 0.5
      }
    }
  ],
  "meshes" : [
    {
      "primitives" : [
        {
          "attributes" : {
            "POSITION" : 1,
            "NORMAL" : 2,
            "TANGENT" : 3,
            "TEXCOORD_0" : 4,
            "TEXCOORD_1" : 5,
            "TEXCOORD_2" : 6
          },
          "indices" : 0,
          "material" : 0
        }
      ],
      "name" : "Co_BPI_Com_Slope_B_10_3_1"
    }
  ],
  "buffers" : [
    {
      "uri" : "Co_BPI_Com_Slope_B_10_3_1.bin",
      "byteLength" : 56032
    }
  ],
  "bufferViews" : [
    {
      "buffer" : 0,
      "byteOffset" : 0,
      "byteLength" : 2720
    },
    {
      "buffer" : 0,
      "byteOffset" : 2720,
      "byteLength" : 9996
    },
    {
      "buffer" : 0,
      "byteOffset" : 12716,
      "byteLength" : 9996
    },
    {
      "buffer" : 0,
      "byteOffset" : 22712,
      "byteLength" : 13328
    },
    {
      "buffer" : 0,
      "byteOffset" : 36040,
      "byteLength" : 6664
    },
    {
      "buffer" : 0,
      "byteOffset" : 42704,
      "byteLength" : 6664
    },
    {
      "buffer" : 0,
      "byteOffset" : 49368,
      "byteLength" : 6664
    }
  ],
  "accessors" : [
    {
      "bufferView" : 0,
      "componentType" : 5123,
      "count" : 1359,
      "type" : "SCALAR"
    },
    {
      "bufferView" : 1,
      "min" : [ -6, -2.75, -1.625 ],
      "max" : [ 6, 2.75, 1.625 ],
      "componentType" : 5126,
      "count" : 833,
      "type" : "VEC3"
    },
    {
      "bufferView" : 2,
      "componentType" : 5126,
      "count" : 833,
      "type" : "VEC3"
    },
    {
      "bufferView" : 3,
      "componentType" : 5126,
      "count" : 833,
      "type" : "VEC4"
    },
    {
      "bufferView" : 4,
      "componentType" : 5126,
      "count" : 833,
      "type" : "VEC2"
    },
    {
      "bufferView" : 5,
      "componentType" : 5126,
      "count" : 833,
      "type" : "VEC2"
    },
    {
      "bufferView" : 6,
      "componentType" : 5126,
      "count" : 833,
      "type" : "VEC2"
    }
  ]
}
