{
  "asset" : {
    "generator" : "UE Viewer (umodel) build 1590",
    "version" : "2.0"
  },
  "scene" : 0,
  "scenes" : [
    {
      "nodes" : [ 0 ]
    }
  ],
  "nodes" : [
    {
      "name" : "Co_BPI_Com_Slope_B_4_5_1",
      "mesh" : 0
    }
  ],
  "materials" : [
    {
      "name" : "MmeMI_Mount_F_Terrain_Rock_01",
      "pbrMetallicRoughness" : {
        "baseColorFactor" : [ 0.3, 0.3, 0.3, 1.0 ],
        "metallicFactor" : 0.1,
        "roughnessFactor" : 0.5
      }
    }
  ],
  "meshes" : [
    {
      "primitives" : [
        {
          "attributes" : {
            "POSITION" : 1,
            "NORMAL" : 2,
            "TANGENT" : 3,
            "TEXCOORD_0" : 4,
            "TEXCOORD_1" : 5
          },
          "indices" : 0,
          "material" : 0
        }
      ],
      "name" : "Co_BPI_Com_Slope_B_4_5_1"
    }
  ],
  "buffers" : [
    {
      "uri" : "Co_BPI_Com_Slope_B_4_5_1.bin",
      "byteLength" : 14020
    }
  ],
  "bufferViews" : [
    {
      "buffer" : 0,
      "byteOffset" : 0,
      "byteLength" : 804
    },
    {
      "buffer" : 0,
      "byteOffset" : 804,
      "byteLength" : 2832
    },
    {
      "buffer" : 0,
      "byteOffset" : 3636,
      "byteLength" : 2832
    },
    {
      "buffer" : 0,
      "byteOffset" : 6468,
      "byteLength" : 3776
    },
    {
      "buffer" : 0,
      "byteOffset" : 10244,
      "byteLength" : 1888
    },
    {
      "buffer" : 0,
      "byteOffset" : 12132,
      "byteLength" : 1888
    }
  ],
  "accessors" : [
    {
      "bufferView" : 0,
      "componentType" : 5123,
      "count" : 402,
      "type" : "SCALAR"
    },
    {
      "bufferView" : 1,
      "min" : [ -2.00004, -1, -2.625 ],
      "max" : [ 2.99996, 1, 2.625 ],
      "componentType" : 5126,
      "count" : 236,
      "type" : "VEC3"
    },
    {
      "bufferView" : 2,
      "componentType" : 5126,
      "count" : 236,
      "type" : "VEC3"
    },
    {
      "bufferView" : 3,
      "componentType" : 5126,
      "count" : 236,
      "type" : "VEC4"
    },
    {
      "bufferView" : 4,
      "componentType" : 5126,
      "count" : 236,
      "type" : "VEC2"
    },
    {
      "bufferView" : 5,
      "componentType" : 5126,
      "count" : 236,
      "type" : "VEC2"
    }
  ]
}
