{
  "asset" : {
    "generator" : "UE Viewer (umodel) build 1590",
    "version" : "2.0"
  },
  "scene" : 0,
  "scenes" : [
    {
      "nodes" : [ 0 ]
    }
  ],
  "nodes" : [
    {
      "name" : "Co_BPI_Com_Slope_A_12_6_1",
      "mesh" : 0
    }
  ],
  "materials" : [
    {
      "name" : "MmeMI_Mount_F_Terrain_Rock_01",
      "pbrMetallicRoughness" : {
        "baseColorFactor" : [ 0.3, 0.3, 0.3, 1.0 ],
        "metallicFactor" : 0.1,
        "roughnessFactor" : 0.5
      }
    }
  ],
  "meshes" : [
    {
      "primitives" : [
        {
          "attributes" : {
            "POSITION" : 1,
            "NORMAL" : 2,
            "TANGENT" : 3,
            "TEXCOORD_0" : 4,
            "TEXCOORD_1" : 5,
            "TEXCOORD_2" : 6
          },
          "indices" : 0,
          "material" : 0
        }
      ],
      "name" : "Co_BPI_Com_Slope_A_12_6_1"
    }
  ],
  "buffers" : [
    {
      "uri" : "Co_BPI_Com_Slope_A_12_6_1.bin",
      "byteLength" : 73952
    }
  ],
  "bufferViews" : [
    {
      "buffer" : 0,
      "byteOffset" : 0,
      "byteLength" : 3552
    },
    {
      "buffer" : 0,
      "byteOffset" : 3552,
      "byteLength" : 13200
    },
    {
      "buffer" : 0,
      "byteOffset" : 16752,
      "byteLength" : 13200
    },
    {
      "buffer" : 0,
      "byteOffset" : 29952,
      "byteLength" : 17600
    },
    {
      "buffer" : 0,
      "byteOffset" : 47552,
      "byteLength" : 8800
    },
    {
      "buffer" : 0,
      "byteOffset" : 56352,
      "byteLength" : 8800
    },
    {
      "buffer" : 0,
      "byteOffset" : 65152,
      "byteLength" : 8800
    }
  ],
  "accessors" : [
    {
      "bufferView" : 0,
      "componentType" : 5123,
      "count" : 1776,
      "type" : "SCALAR"
    },
    {
      "bufferView" : 1,
      "min" : [ -6.5, -1.5, -3.12501 ],
      "max" : [ 6.5, 1.5, 3.12501 ],
      "componentType" : 5126,
      "count" : 1100,
      "type" : "VEC3"
    },
    {
      "bufferView" : 2,
      "componentType" : 5126,
      "count" : 1100,
      "type" : "VEC3"
    },
    {
      "bufferView" : 3,
      "componentType" : 5126,
      "count" : 1100,
      "type" : "VEC4"
    },
    {
      "bufferView" : 4,
      "componentType" : 5126,
      "count" : 1100,
      "type" : "VEC2"
    },
    {
      "bufferView" : 5,
      "componentType" : 5126,
      "count" : 1100,
      "type" : "VEC2"
    },
    {
      "bufferView" : 6,
      "componentType" : 5126,
      "count" : 1100,
      "type" : "VEC2"
    }
  ]
}
