{
  "asset" : {
    "generator" : "UE Viewer (umodel) build 1590",
    "version" : "2.0"
  },
  "scene" : 0,
  "scenes" : [
    {
      "nodes" : [ 0 ]
    }
  ],
  "nodes" : [
    {
      "name" : "Co_BPI_Com_Slope_A_12_8_1",
      "mesh" : 0
    }
  ],
  "materials" : [
    {
      "name" : "MmeMI_Mount_F_Terrain_Rock_01",
      "pbrMetallicRoughness" : {
        "baseColorFactor" : [ 0.3, 0.3, 0.3, 1.0 ],
        "metallicFactor" : 0.1,
        "roughnessFactor" : 0.5
      }
    }
  ],
  "meshes" : [
    {
      "primitives" : [
        {
          "attributes" : {
            "POSITION" : 1,
            "NORMAL" : 2,
            "TANGENT" : 3,
            "TEXCOORD_0" : 4,
            "TEXCOORD_1" : 5,
            "TEXCOORD_2" : 6
          },
          "indices" : 0,
          "material" : 0
        }
      ],
      "name" : "Co_BPI_Com_Slope_A_12_8_1"
    }
  ],
  "buffers" : [
    {
      "uri" : "Co_BPI_Com_Slope_A_12_8_1.bin",
      "byteLength" : 77080
    }
  ],
  "bufferViews" : [
    {
      "buffer" : 0,
      "byteOffset" : 0,
      "byteLength" : 3864
    },
    {
      "buffer" : 0,
      "byteOffset" : 3864,
      "byteLength" : 13728
    },
    {
      "buffer" : 0,
      "byteOffset" : 17592,
      "byteLength" : 13728
    },
    {
      "buffer" : 0,
      "byteOffset" : 31320,
      "byteLength" : 18304
    },
    {
      "buffer" : 0,
      "byteOffset" : 49624,
      "byteLength" : 9152
    },
    {
      "buffer" : 0,
      "byteOffset" : 58776,
      "byteLength" : 9152
    },
    {
      "buffer" : 0,
      "byteOffset" : 67928,
      "byteLength" : 9152
    }
  ],
  "accessors" : [
    {
      "bufferView" : 0,
      "componentType" : 5123,
      "count" : 1932,
      "type" : "SCALAR"
    },
    {
      "bufferView" : 1,
      "min" : [ -6.5, -1.5, -4.12501 ],
      "max" : [ 6.5, 1.5, 4.12501 ],
      "componentType" : 5126,
      "count" : 1144,
      "type" : "VEC3"
    },
    {
      "bufferView" : 2,
      "componentType" : 5126,
      "count" : 1144,
      "type" : "VEC3"
    },
    {
      "bufferView" : 3,
      "componentType" : 5126,
      "count" : 1144,
      "type" : "VEC4"
    },
    {
      "bufferView" : 4,
      "componentType" : 5126,
      "count" : 1144,
      "type" : "VEC2"
    },
    {
      "bufferView" : 5,
      "componentType" : 5126,
      "count" : 1144,
      "type" : "VEC2"
    },
    {
      "bufferView" : 6,
      "componentType" : 5126,
      "count" : 1144,
      "type" : "VEC2"
    }
  ]
}
