{
  "asset" : {
    "generator" : "UE Viewer (umodel) build 1590",
    "version" : "2.0"
  },
  "scene" : 0,
  "scenes" : [
    {
      "nodes" : [ 0 ]
    }
  ],
  "nodes" : [
    {
      "name" : "ObpMD_Com_Slope_B_btm_end",
      "mesh" : 0
    }
  ],
  "materials" : [
    {
      "name" : "MmeMI_Mount_F_Terrain_Rock_01",
      "pbrMetallicRoughness" : {
        "baseColorFactor" : [ 0.3, 0.3, 0.3, 1.0 ],
        "metallicFactor" : 0.1,
        "roughnessFactor" : 0.5
      }
    }
  ],
  "meshes" : [
    {
      "primitives" : [
        {
          "attributes" : {
            "POSITION" : 1,
            "NORMAL" : 2,
            "TANGENT" : 3,
            "TEXCOORD_0" : 4,
            "TEXCOORD_1" : 5
          },
          "indices" : 0,
          "material" : 0
        }
      ],
      "name" : "ObpMD_Com_Slope_B_btm_end"
    }
  ],
  "buffers" : [
    {
      "uri" : "ObpMD_Com_Slope_B_btm_end.bin",
      "byteLength" : 1740
    }
  ],
  "bufferViews" : [
    {
      "buffer" : 0,
      "byteOffset" : 0,
      "byteLength" : 116
    },
    {
      "buffer" : 0,
      "byteOffset" : 116,
      "byteLength" : 348
    },
    {
      "buffer" : 0,
      "byteOffset" : 464,
      "byteLength" : 348
    },
    {
      "buffer" : 0,
      "byteOffset" : 812,
      "byteLength" : 464
    },
    {
      "buffer" : 0,
      "byteOffset" : 1276,
      "byteLength" : 232
    },
    {
      "buffer" : 0,
      "byteOffset" : 1508,
      "byteLength" : 232
    }
  ],
  "accessors" : [
    {
      "bufferView" : 0,
      "componentType" : 5123,
      "count" : 57,
      "type" : "SCALAR"
    },
    {
      "bufferView" : 1,
      "min" : [ -2, 0, -6.12323e-17 ],
      "max" : [ 0, 1, 1.125 ],
      "componentType" : 5126,
      "count" : 29,
      "type" : "VEC3"
    },
    {
      "bufferView" : 2,
      "componentType" : 5126,
      "count" : 29,
      "type" : "VEC3"
    },
    {
      "bufferView" : 3,
      "componentType" : 5126,
      "count" : 29,
      "type" : "VEC4"
    },
    {
      "bufferView" : 4,
      "componentType" : 5126,
      "count" : 29,
      "type" : "VEC2"
    },
    {
      "bufferView" : 5,
      "componentType" : 5126,
      "count" : 29,
      "type" : "VEC2"
    }
  ]
}
