{
  "asset" : {
    "generator" : "UE Viewer (umodel) build 1590",
    "version" : "2.0"
  },
  "scene" : 0,
  "scenes" : [
    {
      "nodes" : [ 0 ]
    }
  ],
  "nodes" : [
    {
      "name" : "MbdMD_T_Mount_M_A_Pub",
      "mesh" : 0
    }
  ],
  "materials" : [
    {
      "name" : "MbdMI_Mount",
      "pbrMetallicRoughness" : {
        "baseColorFactor" : [ 0.3, 0.3, 0.3, 1.0 ],
        "metallicFactor" : 0.1,
        "roughnessFactor" : 0.5
      }
    }
  ],
  "meshes" : [
    {
      "primitives" : [
        {
          "attributes" : {
            "POSITION" : 1,
            "NORMAL" : 2,
            "TANGENT" : 3,
            "TEXCOORD_0" : 4
          },
          "indices" : 0,
          "material" : 0
        }
      ],
      "name" : "MbdMD_T_Mount_M_A_Pub"
    }
  ],
  "buffers" : [
    {
      "uri" : "MbdMD_T_Mount_M_A_Pub.bin",
      "byteLength" : 123620
    }
  ],
  "bufferViews" : [
    {
      "buffer" : 0,
      "byteOffset" : 0,
      "byteLength" : 8180
    },
    {
      "buffer" : 0,
      "byteOffset" : 8180,
      "byteLength" : 28860
    },
    {
      "buffer" : 0,
      "byteOffset" : 37040,
      "byteLength" : 28860
    },
    {
      "buffer" : 0,
      "byteOffset" : 65900,
      "byteLength" : 38480
    },
    {
      "buffer" : 0,
      "byteOffset" : 104380,
      "byteLength" : 19240
    }
  ],
  "accessors" : [
    {
      "bufferView" : 0,
      "componentType" : 5123,
      "count" : 4089,
      "type" : "SCALAR"
    },
    {
      "bufferView" : 1,
      "min" : [ -3.28125, -2.14309e-16, -3.8125 ],
      "max" : [ 3.28125, 7.125, 3.8125 ],
      "componentType" : 5126,
      "count" : 2405,
      "type" : "VEC3"
    },
    {
      "bufferView" : 2,
      "componentType" : 5126,
      "count" : 2405,
      "type" : "VEC3"
    },
    {
      "bufferView" : 3,
      "componentType" : 5126,
      "count" : 2405,
      "type" : "VEC4"
    },
    {
      "bufferView" : 4,
      "componentType" : 5126,
      "count" : 2405,
      "type" : "VEC2"
    }
  ]
}
