{
  "asset" : {
    "generator" : "UE Viewer (umodel) build 1590",
    "version" : "2.0"
  },
  "scene" : 0,
  "scenes" : [
    {
      "nodes" : [ 0 ]
    }
  ],
  "nodes" : [
    {
      "name" : "MbdMD_Co_T_Mount_L_A_Build_01",
      "mesh" : 0
    }
  ],
  "materials" : [
    {
      "name" : "MbdMI_Mount",
      "pbrMetallicRoughness" : {
        "baseColorFactor" : [ 0.3, 0.3, 0.3, 1.0 ],
        "metallicFactor" : 0.1,
        "roughnessFactor" : 0.5
      }
    }
  ],
  "meshes" : [
    {
      "primitives" : [
        {
          "attributes" : {
            "POSITION" : 1,
            "NORMAL" : 2,
            "TANGENT" : 3,
            "TEXCOORD_0" : 4,
            "TEXCOORD_1" : 5,
            "TEXCOORD_2" : 6,
            "TEXCOORD_3" : 7
          },
          "indices" : 0,
          "material" : 0
        }
      ],
      "name" : "MbdMD_Co_T_Mount_L_A_Build_01"
    }
  ],
  "buffers" : [
    {
      "uri" : "MbdMD_Co_T_Mount_L_A_Build_01.bin",
      "byteLength" : 263952
    }
  ],
  "bufferViews" : [
    {
      "buffer" : 0,
      "byteOffset" : 0,
      "byteLength" : 11376
    },
    {
      "buffer" : 0,
      "byteOffset" : 11376,
      "byteLength" : 42096
    },
    {
      "buffer" : 0,
      "byteOffset" : 53472,
      "byteLength" : 42096
    },
    {
      "buffer" : 0,
      "byteOffset" : 95568,
      "byteLength" : 56128
    },
    {
      "buffer" : 0,
      "byteOffset" : 151696,
      "byteLength" : 28064
    },
    {
      "buffer" : 0,
      "byteOffset" : 179760,
      "byteLength" : 28064
    },
    {
      "buffer" : 0,
      "byteOffset" : 207824,
      "byteLength" : 28064
    },
    {
      "buffer" : 0,
      "byteOffset" : 235888,
      "byteLength" : 28064
    }
  ],
  "accessors" : [
    {
      "bufferView" : 0,
      "componentType" : 5123,
      "count" : 5688,
      "type" : "SCALAR"
    },
    {
      "bufferView" : 1,
      "min" : [ -2.83832, -2.14317e-16, -3.8125 ],
      "max" : [ 2.83832, 8.125, 3.8125 ],
      "componentType" : 5126,
      "count" : 3508,
      "type" : "VEC3"
    },
    {
      "bufferView" : 2,
      "componentType" : 5126,
      "count" : 3508,
      "type" : "VEC3"
    },
    {
      "bufferView" : 3,
      "componentType" : 5126,
      "count" : 3508,
      "type" : "VEC4"
    },
    {
      "bufferView" : 4,
      "componentType" : 5126,
      "count" : 3508,
      "type" : "VEC2"
    },
    {
      "bufferView" : 5,
      "componentType" : 5126,
      "count" : 3508,
      "type" : "VEC2"
    },
    {
      "bufferView" : 6,
      "componentType" : 5126,
      "count" : 3508,
      "type" : "VEC2"
    },
    {
      "bufferView" : 7,
      "componentType" : 5126,
      "count" : 3508,
      "type" : "VEC2"
    }
  ]
}
