{
  "asset" : {
    "generator" : "UE Viewer (umodel) build 1590",
    "version" : "2.0"
  },
  "scene" : 0,
  "scenes" : [
    {
      "nodes" : [ 0 ]
    }
  ],
  "nodes" : [
    {
      "name" : "MbdMD_Mount_add_Chimney_01",
      "mesh" : 0
    }
  ],
  "materials" : [
    {
      "name" : "MbdMI_Mount",
      "pbrMetallicRoughness" : {
        "baseColorFactor" : [ 0.3, 0.3, 0.3, 1.0 ],
        "metallicFactor" : 0.1,
        "roughnessFactor" : 0.5
      }
    }
  ],
  "meshes" : [
    {
      "primitives" : [
        {
          "attributes" : {
            "POSITION" : 1,
            "NORMAL" : 2,
            "TANGENT" : 3,
            "TEXCOORD_0" : 4,
            "TEXCOORD_1" : 5
          },
          "indices" : 0,
          "material" : 0
        }
      ],
      "name" : "MbdMD_Mount_add_Chimney_01"
    }
  ],
  "buffers" : [
    {
      "uri" : "MbdMD_Mount_add_Chimney_01.bin",
      "byteLength" : 11500
    }
  ],
  "bufferViews" : [
    {
      "buffer" : 0,
      "byteOffset" : 0,
      "byteLength" : 636
    },
    {
      "buffer" : 0,
      "byteOffset" : 636,
      "byteLength" : 2328
    },
    {
      "buffer" : 0,
      "byteOffset" : 2964,
      "byteLength" : 2328
    },
    {
      "buffer" : 0,
      "byteOffset" : 5292,
      "byteLength" : 3104
    },
    {
      "buffer" : 0,
      "byteOffset" : 8396,
      "byteLength" : 1552
    },
    {
      "buffer" : 0,
      "byteOffset" : 9948,
      "byteLength" : 1552
    }
  ],
  "accessors" : [
    {
      "bufferView" : 0,
      "componentType" : 5123,
      "count" : 318,
      "type" : "SCALAR"
    },
    {
      "bufferView" : 1,
      "min" : [ -0.375, -1, -0.5 ],
      "max" : [ 0.375, 2.625, 0.5 ],
      "componentType" : 5126,
      "count" : 194,
      "type" : "VEC3"
    },
    {
      "bufferView" : 2,
      "componentType" : 5126,
      "count" : 194,
      "type" : "VEC3"
    },
    {
      "bufferView" : 3,
      "componentType" : 5126,
      "count" : 194,
      "type" : "VEC4"
    },
    {
      "bufferView" : 4,
      "componentType" : 5126,
      "count" : 194,
      "type" : "VEC2"
    },
    {
      "bufferView" : 5,
      "componentType" : 5126,
      "count" : 194,
      "type" : "VEC2"
    }
  ]
}
