{
  "asset" : {
    "generator" : "UE Viewer (umodel) build 1590",
    "version" : "2.0"
  },
  "scene" : 0,
  "scenes" : [
    {
      "nodes" : [ 0 ]
    }
  ],
  "nodes" : [
    {
      "name" : "MbdMD_T_Mount_L_B_Build_03",
      "mesh" : 0
    }
  ],
  "materials" : [
    {
      "name" : "MbdMI_Mount",
      "pbrMetallicRoughness" : {
        "baseColorFactor" : [ 0.3, 0.3, 0.3, 1.0 ],
        "metallicFactor" : 0.1,
        "roughnessFactor" : 0.5
      }
    }
  ],
  "meshes" : [
    {
      "primitives" : [
        {
          "attributes" : {
            "POSITION" : 1,
            "NORMAL" : 2,
            "TANGENT" : 3,
            "TEXCOORD_0" : 4
          },
          "indices" : 0,
          "material" : 0
        }
      ],
      "name" : "MbdMD_T_Mount_L_B_Build_03"
    }
  ],
  "buffers" : [
    {
      "uri" : "MbdMD_T_Mount_L_B_Build_03.bin",
      "byteLength" : 117480
    }
  ],
  "bufferViews" : [
    {
      "buffer" : 0,
      "byteOffset" : 0,
      "byteLength" : 7656
    },
    {
      "buffer" : 0,
      "byteOffset" : 7656,
      "byteLength" : 27456
    },
    {
      "buffer" : 0,
      "byteOffset" : 35112,
      "byteLength" : 27456
    },
    {
      "buffer" : 0,
      "byteOffset" : 62568,
      "byteLength" : 36608
    },
    {
      "buffer" : 0,
      "byteOffset" : 99176,
      "byteLength" : 18304
    }
  ],
  "accessors" : [
    {
      "bufferView" : 0,
      "componentType" : 5123,
      "count" : 3828,
      "type" : "SCALAR"
    },
    {
      "bufferView" : 1,
      "min" : [ -2.71289, -1.0333e-16, -2.8125 ],
      "max" : [ 2.71289, 8.3125, 2.8125 ],
      "componentType" : 5126,
      "count" : 2288,
      "type" : "VEC3"
    },
    {
      "bufferView" : 2,
      "componentType" : 5126,
      "count" : 2288,
      "type" : "VEC3"
    },
    {
      "bufferView" : 3,
      "componentType" : 5126,
      "count" : 2288,
      "type" : "VEC4"
    },
    {
      "bufferView" : 4,
      "componentType" : 5126,
      "count" : 2288,
      "type" : "VEC2"
    }
  ]
}
