{
  "asset" : {
    "generator" : "UE Viewer (umodel) build 1590",
    "version" : "2.0"
  },
  "scene" : 0,
  "scenes" : [
    {
      "nodes" : [ 0 ]
    }
  ],
  "nodes" : [
    {
      "name" : "MbdMD_Mount_add_Verandah_02",
      "mesh" : 0
    }
  ],
  "materials" : [
    {
      "name" : "MbdMI_Mount",
      "pbrMetallicRoughness" : {
        "baseColorFactor" : [ 0.3, 0.3, 0.3, 1.0 ],
        "metallicFactor" : 0.1,
        "roughnessFactor" : 0.5
      }
    }
  ],
  "meshes" : [
    {
      "primitives" : [
        {
          "attributes" : {
            "POSITION" : 1,
            "NORMAL" : 2,
            "TANGENT" : 3,
            "TEXCOORD_0" : 4,
            "TEXCOORD_1" : 5
          },
          "indices" : 0,
          "material" : 0
        }
      ],
      "name" : "MbdMD_Mount_add_Verandah_02"
    }
  ],
  "buffers" : [
    {
      "uri" : "MbdMD_Mount_add_Verandah_02.bin",
      "byteLength" : 33804
    }
  ],
  "bufferViews" : [
    {
      "buffer" : 0,
      "byteOffset" : 0,
      "byteLength" : 1884
    },
    {
      "buffer" : 0,
      "byteOffset" : 1884,
      "byteLength" : 6840
    },
    {
      "buffer" : 0,
      "byteOffset" : 8724,
      "byteLength" : 6840
    },
    {
      "buffer" : 0,
      "byteOffset" : 15564,
      "byteLength" : 9120
    },
    {
      "buffer" : 0,
      "byteOffset" : 24684,
      "byteLength" : 4560
    },
    {
      "buffer" : 0,
      "byteOffset" : 29244,
      "byteLength" : 4560
    }
  ],
  "accessors" : [
    {
      "bufferView" : 0,
      "componentType" : 5123,
      "count" : 942,
      "type" : "SCALAR"
    },
    {
      "bufferView" : 1,
      "min" : [ -1.14449, 1.8125, -1.8125 ],
      "max" : [ 0.0466764, 4.2565, 1.8125 ],
      "componentType" : 5126,
      "count" : 570,
      "type" : "VEC3"
    },
    {
      "bufferView" : 2,
      "componentType" : 5126,
      "count" : 570,
      "type" : "VEC3"
    },
    {
      "bufferView" : 3,
      "componentType" : 5126,
      "count" : 570,
      "type" : "VEC4"
    },
    {
      "bufferView" : 4,
      "componentType" : 5126,
      "count" : 570,
      "type" : "VEC2"
    },
    {
      "bufferView" : 5,
      "componentType" : 5126,
      "count" : 570,
      "type" : "VEC2"
    }
  ]
}
