{
  "asset" : {
    "generator" : "UE Viewer (umodel) build 1590",
    "version" : "2.0"
  },
  "scene" : 0,
  "scenes" : [
    {
      "nodes" : [ 0 ]
    }
  ],
  "nodes" : [
    {
      "name" : "MbdMD_T_Mount_M_A_Inn",
      "mesh" : 0
    }
  ],
  "materials" : [
    {
      "name" : "MbdMI_Mount",
      "pbrMetallicRoughness" : {
        "baseColorFactor" : [ 0.3, 0.3, 0.3, 1.0 ],
        "metallicFactor" : 0.1,
        "roughnessFactor" : 0.5
      }
    }
  ],
  "meshes" : [
    {
      "primitives" : [
        {
          "attributes" : {
            "POSITION" : 1,
            "NORMAL" : 2,
            "TANGENT" : 3,
            "TEXCOORD_0" : 4
          },
          "indices" : 0,
          "material" : 0
        }
      ],
      "name" : "MbdMD_T_Mount_M_A_Inn"
    }
  ],
  "buffers" : [
    {
      "uri" : "MbdMD_T_Mount_M_A_Inn.bin",
      "byteLength" : 84812
    }
  ],
  "bufferViews" : [
    {
      "buffer" : 0,
      "byteOffset" : 0,
      "byteLength" : 5756
    },
    {
      "buffer" : 0,
      "byteOffset" : 5756,
      "byteLength" : 19764
    },
    {
      "buffer" : 0,
      "byteOffset" : 25520,
      "byteLength" : 19764
    },
    {
      "buffer" : 0,
      "byteOffset" : 45284,
      "byteLength" : 26352
    },
    {
      "buffer" : 0,
      "byteOffset" : 71636,
      "byteLength" : 13176
    }
  ],
  "accessors" : [
    {
      "bufferView" : 0,
      "componentType" : 5123,
      "count" : 2877,
      "type" : "SCALAR"
    },
    {
      "bufferView" : 1,
      "min" : [ -2.7285, -1.83696e-16, -3.28125 ],
      "max" : [ 2.7285, 8.125, 3.28125 ],
      "componentType" : 5126,
      "count" : 1647,
      "type" : "VEC3"
    },
    {
      "bufferView" : 2,
      "componentType" : 5126,
      "count" : 1647,
      "type" : "VEC3"
    },
    {
      "bufferView" : 3,
      "componentType" : 5126,
      "count" : 1647,
      "type" : "VEC4"
    },
    {
      "bufferView" : 4,
      "componentType" : 5126,
      "count" : 1647,
      "type" : "VEC2"
    }
  ]
}
