{
  "asset" : {
    "generator" : "UE Viewer (umodel) build 1590",
    "version" : "2.0"
  },
  "scene" : 0,
  "scenes" : [
    {
      "nodes" : [ 0 ]
    }
  ],
  "nodes" : [
    {
      "name" : "MbdMD_T_Mount_M_A_House_B",
      "mesh" : 0
    }
  ],
  "materials" : [
    {
      "name" : "MbdMI_Mount",
      "pbrMetallicRoughness" : {
        "baseColorFactor" : [ 0.3, 0.3, 0.3, 1.0 ],
        "metallicFactor" : 0.1,
        "roughnessFactor" : 0.5
      }
    }
  ],
  "meshes" : [
    {
      "primitives" : [
        {
          "attributes" : {
            "POSITION" : 1,
            "NORMAL" : 2,
            "TANGENT" : 3,
            "TEXCOORD_0" : 4
          },
          "indices" : 0,
          "material" : 0
        }
      ],
      "name" : "MbdMD_T_Mount_M_A_House_B"
    }
  ],
  "buffers" : [
    {
      "uri" : "MbdMD_T_Mount_M_A_House_B.bin",
      "byteLength" : 52916
    }
  ],
  "bufferViews" : [
    {
      "buffer" : 0,
      "byteOffset" : 0,
      "byteLength" : 3620
    },
    {
      "buffer" : 0,
      "byteOffset" : 3620,
      "byteLength" : 12324
    },
    {
      "buffer" : 0,
      "byteOffset" : 15944,
      "byteLength" : 12324
    },
    {
      "buffer" : 0,
      "byteOffset" : 28268,
      "byteLength" : 16432
    },
    {
      "buffer" : 0,
      "byteOffset" : 44700,
      "byteLength" : 8216
    }
  ],
  "accessors" : [
    {
      "bufferView" : 0,
      "componentType" : 5123,
      "count" : 1809,
      "type" : "SCALAR"
    },
    {
      "bufferView" : 1,
      "min" : [ -2.31248, -1.22467e-16, -2.28125 ],
      "max" : [ 2.31248, 6.75, 2.28125 ],
      "componentType" : 5126,
      "count" : 1027,
      "type" : "VEC3"
    },
    {
      "bufferView" : 2,
      "componentType" : 5126,
      "count" : 1027,
      "type" : "VEC3"
    },
    {
      "bufferView" : 3,
      "componentType" : 5126,
      "count" : 1027,
      "type" : "VEC4"
    },
    {
      "bufferView" : 4,
      "componentType" : 5126,
      "count" : 1027,
      "type" : "VEC2"
    }
  ]
}
