{
  "asset" : {
    "generator" : "UE Viewer (umodel) build 1590",
    "version" : "2.0"
  },
  "scene" : 0,
  "scenes" : [
    {
      "nodes" : [ 0 ]
    }
  ],
  "nodes" : [
    {
      "name" : "MbdMD_T_Mount_L_C_House_B",
      "mesh" : 0
    }
  ],
  "materials" : [
    {
      "name" : "MbdMI_Mount",
      "pbrMetallicRoughness" : {
        "baseColorFactor" : [ 0.3, 0.3, 0.3, 1.0 ],
        "metallicFactor" : 0.1,
        "roughnessFactor" : 0.5
      }
    }
  ],
  "meshes" : [
    {
      "primitives" : [
        {
          "attributes" : {
            "POSITION" : 1,
            "NORMAL" : 2,
            "TANGENT" : 3,
            "TEXCOORD_0" : 4
          },
          "indices" : 0,
          "material" : 0
        }
      ],
      "name" : "MbdMD_T_Mount_L_C_House_B"
    }
  ],
  "buffers" : [
    {
      "uri" : "MbdMD_T_Mount_L_C_House_B.bin",
      "byteLength" : 67976
    }
  ],
  "bufferViews" : [
    {
      "buffer" : 0,
      "byteOffset" : 0,
      "byteLength" : 4568
    },
    {
      "buffer" : 0,
      "byteOffset" : 4568,
      "byteLength" : 15852
    },
    {
      "buffer" : 0,
      "byteOffset" : 20420,
      "byteLength" : 15852
    },
    {
      "buffer" : 0,
      "byteOffset" : 36272,
      "byteLength" : 21136
    },
    {
      "buffer" : 0,
      "byteOffset" : 57408,
      "byteLength" : 10568
    }
  ],
  "accessors" : [
    {
      "bufferView" : 0,
      "componentType" : 5123,
      "count" : 2283,
      "type" : "SCALAR"
    },
    {
      "bufferView" : 1,
      "min" : [ -2.8125, -1.82738e-16, -3.29688 ],
      "max" : [ 2.8125, 5.625, 3.29688 ],
      "componentType" : 5126,
      "count" : 1321,
      "type" : "VEC3"
    },
    {
      "bufferView" : 2,
      "componentType" : 5126,
      "count" : 1321,
      "type" : "VEC3"
    },
    {
      "bufferView" : 3,
      "componentType" : 5126,
      "count" : 1321,
      "type" : "VEC4"
    },
    {
      "bufferView" : 4,
      "componentType" : 5126,
      "count" : 1321,
      "type" : "VEC2"
    }
  ]
}
