{
  "asset" : {
    "generator" : "UE Viewer (umodel) build 1590",
    "version" : "2.0"
  },
  "scene" : 0,
  "scenes" : [
    {
      "nodes" : [ 0 ]
    }
  ],
  "nodes" : [
    {
      "name" : "MbdMD_Co_T_Mount_L_A_House_B",
      "mesh" : 0
    }
  ],
  "materials" : [
    {
      "name" : "MbdMI_Mount",
      "pbrMetallicRoughness" : {
        "baseColorFactor" : [ 0.3, 0.3, 0.3, 1.0 ],
        "metallicFactor" : 0.1,
        "roughnessFactor" : 0.5
      }
    }
  ],
  "meshes" : [
    {
      "primitives" : [
        {
          "attributes" : {
            "POSITION" : 1,
            "NORMAL" : 2,
            "TANGENT" : 3,
            "TEXCOORD_0" : 4,
            "TEXCOORD_1" : 5,
            "TEXCOORD_2" : 6,
            "TEXCOORD_3" : 7
          },
          "indices" : 0,
          "material" : 0
        }
      ],
      "name" : "MbdMD_Co_T_Mount_L_A_House_B"
    }
  ],
  "buffers" : [
    {
      "uri" : "MbdMD_Co_T_Mount_L_A_House_B.bin",
      "byteLength" : 168216
    }
  ],
  "bufferViews" : [
    {
      "buffer" : 0,
      "byteOffset" : 0,
      "byteLength" : 7152
    },
    {
      "buffer" : 0,
      "byteOffset" : 7152,
      "byteLength" : 26844
    },
    {
      "buffer" : 0,
      "byteOffset" : 33996,
      "byteLength" : 26844
    },
    {
      "buffer" : 0,
      "byteOffset" : 60840,
      "byteLength" : 35792
    },
    {
      "buffer" : 0,
      "byteOffset" : 96632,
      "byteLength" : 17896
    },
    {
      "buffer" : 0,
      "byteOffset" : 114528,
      "byteLength" : 17896
    },
    {
      "buffer" : 0,
      "byteOffset" : 132424,
      "byteLength" : 17896
    },
    {
      "buffer" : 0,
      "byteOffset" : 150320,
      "byteLength" : 17896
    }
  ],
  "accessors" : [
    {
      "bufferView" : 0,
      "componentType" : 5123,
      "count" : 3576,
      "type" : "SCALAR"
    },
    {
      "bufferView" : 1,
      "min" : [ -3.28125, -1.83697e-16, -3.3125 ],
      "max" : [ 3.28125, 6.625, 3.3125 ],
      "componentType" : 5126,
      "count" : 2237,
      "type" : "VEC3"
    },
    {
      "bufferView" : 2,
      "componentType" : 5126,
      "count" : 2237,
      "type" : "VEC3"
    },
    {
      "bufferView" : 3,
      "componentType" : 5126,
      "count" : 2237,
      "type" : "VEC4"
    },
    {
      "bufferView" : 4,
      "componentType" : 5126,
      "count" : 2237,
      "type" : "VEC2"
    },
    {
      "bufferView" : 5,
      "componentType" : 5126,
      "count" : 2237,
      "type" : "VEC2"
    },
    {
      "bufferView" : 6,
      "componentType" : 5126,
      "count" : 2237,
      "type" : "VEC2"
    },
    {
      "bufferView" : 7,
      "componentType" : 5126,
      "count" : 2237,
      "type" : "VEC2"
    }
  ]
}
