{
  "asset" : {
    "generator" : "UE Viewer (umodel) build 1590",
    "version" : "2.0"
  },
  "scene" : 0,
  "scenes" : [
    {
      "nodes" : [ 0 ]
    }
  ],
  "nodes" : [
    {
      "name" : "MbdMD_Co_T_Mount_L_A_Inn",
      "mesh" : 0
    }
  ],
  "materials" : [
    {
      "name" : "MbdMI_Mount",
      "pbrMetallicRoughness" : {
        "baseColorFactor" : [ 0.3, 0.3, 0.3, 1.0 ],
        "metallicFactor" : 0.1,
        "roughnessFactor" : 0.5
      }
    }
  ],
  "meshes" : [
    {
      "primitives" : [
        {
          "attributes" : {
            "POSITION" : 1,
            "NORMAL" : 2,
            "TANGENT" : 3,
            "TEXCOORD_0" : 4,
            "TEXCOORD_1" : 5,
            "TEXCOORD_2" : 6,
            "TEXCOORD_3" : 7
          },
          "indices" : 0,
          "material" : 0
        }
      ],
      "name" : "MbdMD_Co_T_Mount_L_A_Inn"
    }
  ],
  "buffers" : [
    {
      "uri" : "MbdMD_Co_T_Mount_L_A_Inn.bin",
      "byteLength" : 155180
    }
  ],
  "bufferViews" : [
    {
      "buffer" : 0,
      "byteOffset" : 0,
      "byteLength" : 6500
    },
    {
      "buffer" : 0,
      "byteOffset" : 6500,
      "byteLength" : 24780
    },
    {
      "buffer" : 0,
      "byteOffset" : 31280,
      "byteLength" : 24780
    },
    {
      "buffer" : 0,
      "byteOffset" : 56060,
      "byteLength" : 33040
    },
    {
      "buffer" : 0,
      "byteOffset" : 89100,
      "byteLength" : 16520
    },
    {
      "buffer" : 0,
      "byteOffset" : 105620,
      "byteLength" : 16520
    },
    {
      "buffer" : 0,
      "byteOffset" : 122140,
      "byteLength" : 16520
    },
    {
      "buffer" : 0,
      "byteOffset" : 138660,
      "byteLength" : 16520
    }
  ],
  "accessors" : [
    {
      "bufferView" : 0,
      "componentType" : 5123,
      "count" : 3249,
      "type" : "SCALAR"
    },
    {
      "bufferView" : 1,
      "min" : [ -3.3125, -2.61193e-16, -4.54688 ],
      "max" : [ 3.3125, 6.975, 4.54688 ],
      "componentType" : 5126,
      "count" : 2065,
      "type" : "VEC3"
    },
    {
      "bufferView" : 2,
      "componentType" : 5126,
      "count" : 2065,
      "type" : "VEC3"
    },
    {
      "bufferView" : 3,
      "componentType" : 5126,
      "count" : 2065,
      "type" : "VEC4"
    },
    {
      "bufferView" : 4,
      "componentType" : 5126,
      "count" : 2065,
      "type" : "VEC2"
    },
    {
      "bufferView" : 5,
      "componentType" : 5126,
      "count" : 2065,
      "type" : "VEC2"
    },
    {
      "bufferView" : 6,
      "componentType" : 5126,
      "count" : 2065,
      "type" : "VEC2"
    },
    {
      "bufferView" : 7,
      "componentType" : 5126,
      "count" : 2065,
      "type" : "VEC2"
    }
  ]
}
