{
  "asset" : {
    "generator" : "UE Viewer (umodel) build 1590",
    "version" : "2.0"
  },
  "scene" : 0,
  "scenes" : [
    {
      "nodes" : [ 0 ]
    }
  ],
  "nodes" : [
    {
      "name" : "MbdMD_T_Mount_L_C_Build_06",
      "mesh" : 0
    }
  ],
  "materials" : [
    {
      "name" : "MbdMI_Mount",
      "pbrMetallicRoughness" : {
        "baseColorFactor" : [ 0.3, 0.3, 0.3, 1.0 ],
        "metallicFactor" : 0.1,
        "roughnessFactor" : 0.5
      }
    }
  ],
  "meshes" : [
    {
      "primitives" : [
        {
          "attributes" : {
            "POSITION" : 1,
            "NORMAL" : 2,
            "TANGENT" : 3,
            "TEXCOORD_0" : 4
          },
          "indices" : 0,
          "material" : 0
        }
      ],
      "name" : "MbdMD_T_Mount_L_C_Build_06"
    }
  ],
  "buffers" : [
    {
      "uri" : "MbdMD_T_Mount_L_C_Build_06.bin",
      "byteLength" : 161436
    }
  ],
  "bufferViews" : [
    {
      "buffer" : 0,
      "byteOffset" : 0,
      "byteLength" : 10716
    },
    {
      "buffer" : 0,
      "byteOffset" : 10716,
      "byteLength" : 37680
    },
    {
      "buffer" : 0,
      "byteOffset" : 48396,
      "byteLength" : 37680
    },
    {
      "buffer" : 0,
      "byteOffset" : 86076,
      "byteLength" : 50240
    },
    {
      "buffer" : 0,
      "byteOffset" : 136316,
      "byteLength" : 25120
    }
  ],
  "accessors" : [
    {
      "bufferView" : 0,
      "componentType" : 5123,
      "count" : 5358,
      "type" : "SCALAR"
    },
    {
      "bufferView" : 1,
      "min" : [ -2.83826, -2.15269e-16, -3.79686 ],
      "max" : [ 2.83826, 8.125, 3.79686 ],
      "componentType" : 5126,
      "count" : 3140,
      "type" : "VEC3"
    },
    {
      "bufferView" : 2,
      "componentType" : 5126,
      "count" : 3140,
      "type" : "VEC3"
    },
    {
      "bufferView" : 3,
      "componentType" : 5126,
      "count" : 3140,
      "type" : "VEC4"
    },
    {
      "bufferView" : 4,
      "componentType" : 5126,
      "count" : 3140,
      "type" : "VEC2"
    }
  ]
}
