{
  "asset" : {
    "generator" : "UE Viewer (umodel) build 1590",
    "version" : "2.0"
  },
  "scene" : 0,
  "scenes" : [
    {
      "nodes" : [ 0 ]
    }
  ],
  "nodes" : [
    {
      "name" : "MbdMD_T_Mount_L_C_ItemShop",
      "mesh" : 0
    }
  ],
  "materials" : [
    {
      "name" : "MbdMI_Mount",
      "pbrMetallicRoughness" : {
        "baseColorFactor" : [ 0.3, 0.3, 0.3, 1.0 ],
        "metallicFactor" : 0.1,
        "roughnessFactor" : 0.5
      }
    }
  ],
  "meshes" : [
    {
      "primitives" : [
        {
          "attributes" : {
            "POSITION" : 1,
            "NORMAL" : 2,
            "TANGENT" : 3,
            "TEXCOORD_0" : 4
          },
          "indices" : 0,
          "material" : 0
        }
      ],
      "name" : "MbdMD_T_Mount_L_C_ItemShop"
    }
  ],
  "buffers" : [
    {
      "uri" : "MbdMD_T_Mount_L_C_ItemShop.bin",
      "byteLength" : 89496
    }
  ],
  "bufferViews" : [
    {
      "buffer" : 0,
      "byteOffset" : 0,
      "byteLength" : 5880
    },
    {
      "buffer" : 0,
      "byteOffset" : 5880,
      "byteLength" : 20904
    },
    {
      "buffer" : 0,
      "byteOffset" : 26784,
      "byteLength" : 20904
    },
    {
      "buffer" : 0,
      "byteOffset" : 47688,
      "byteLength" : 27872
    },
    {
      "buffer" : 0,
      "byteOffset" : 75560,
      "byteLength" : 13936
    }
  ],
  "accessors" : [
    {
      "bufferView" : 0,
      "componentType" : 5123,
      "count" : 2940,
      "type" : "SCALAR"
    },
    {
      "bufferView" : 1,
      "min" : [ -2.45898, -1.22465e-16, -2.28125 ],
      "max" : [ 2.45898, 8.125, 2.28125 ],
      "componentType" : 5126,
      "count" : 1742,
      "type" : "VEC3"
    },
    {
      "bufferView" : 2,
      "componentType" : 5126,
      "count" : 1742,
      "type" : "VEC3"
    },
    {
      "bufferView" : 3,
      "componentType" : 5126,
      "count" : 1742,
      "type" : "VEC4"
    },
    {
      "bufferView" : 4,
      "componentType" : 5126,
      "count" : 1742,
      "type" : "VEC2"
    }
  ]
}
