{
  "asset" : {
    "generator" : "UE Viewer (umodel) build 1590",
    "version" : "2.0"
  },
  "scene" : 0,
  "scenes" : [
    {
      "nodes" : [ 0 ]
    }
  ],
  "nodes" : [
    {
      "name" : "MbdMD_T_Mount_L_B_House_B",
      "mesh" : 0
    }
  ],
  "materials" : [
    {
      "name" : "MbdMI_Mount",
      "pbrMetallicRoughness" : {
        "baseColorFactor" : [ 0.3, 0.3, 0.3, 1.0 ],
        "metallicFactor" : 0.1,
        "roughnessFactor" : 0.5
      }
    }
  ],
  "meshes" : [
    {
      "primitives" : [
        {
          "attributes" : {
            "POSITION" : 1,
            "NORMAL" : 2,
            "TANGENT" : 3,
            "TEXCOORD_0" : 4
          },
          "indices" : 0,
          "material" : 0
        }
      ],
      "name" : "MbdMD_T_Mount_L_B_House_B"
    }
  ],
  "buffers" : [
    {
      "uri" : "MbdMD_T_Mount_L_B_House_B.bin",
      "byteLength" : 88680
    }
  ],
  "bufferViews" : [
    {
      "buffer" : 0,
      "byteOffset" : 0,
      "byteLength" : 5928
    },
    {
      "buffer" : 0,
      "byteOffset" : 5928,
      "byteLength" : 20688
    },
    {
      "buffer" : 0,
      "byteOffset" : 26616,
      "byteLength" : 20688
    },
    {
      "buffer" : 0,
      "byteOffset" : 47304,
      "byteLength" : 27584
    },
    {
      "buffer" : 0,
      "byteOffset" : 74888,
      "byteLength" : 13792
    }
  ],
  "accessors" : [
    {
      "bufferView" : 0,
      "componentType" : 5123,
      "count" : 2964,
      "type" : "SCALAR"
    },
    {
      "bufferView" : 1,
      "min" : [ -2.72852, -1.22465e-16, -2.28125 ],
      "max" : [ 2.72852, 7.125, 2.28125 ],
      "componentType" : 5126,
      "count" : 1724,
      "type" : "VEC3"
    },
    {
      "bufferView" : 2,
      "componentType" : 5126,
      "count" : 1724,
      "type" : "VEC3"
    },
    {
      "bufferView" : 3,
      "componentType" : 5126,
      "count" : 1724,
      "type" : "VEC4"
    },
    {
      "bufferView" : 4,
      "componentType" : 5126,
      "count" : 1724,
      "type" : "VEC2"
    }
  ]
}
