{
  "asset" : {
    "generator" : "UE Viewer (umodel) build 1590",
    "version" : "2.0"
  },
  "scene" : 0,
  "scenes" : [
    {
      "nodes" : [ 0 ]
    }
  ],
  "nodes" : [
    {
      "name" : "MbdMD_Forest_add_Roof_2B",
      "mesh" : 0
    }
  ],
  "materials" : [
    {
      "name" : "MbdMI_Forest",
      "pbrMetallicRoughness" : {
        "baseColorFactor" : [ 0.3, 0.3, 0.3, 1.0 ],
        "metallicFactor" : 0.1,
        "roughnessFactor" : 0.5
      }
    }
  ],
  "meshes" : [
    {
      "primitives" : [
        {
          "attributes" : {
            "POSITION" : 1,
            "NORMAL" : 2,
            "TANGENT" : 3,
            "TEXCOORD_0" : 4,
            "TEXCOORD_1" : 5
          },
          "indices" : 0,
          "material" : 0
        }
      ],
      "name" : "MbdMD_Forest_add_Roof_2B"
    }
  ],
  "buffers" : [
    {
      "uri" : "MbdMD_Forest_add_Roof_2B.bin",
      "byteLength" : 112344
    }
  ],
  "bufferViews" : [
    {
      "buffer" : 0,
      "byteOffset" : 0,
      "byteLength" : 10256
    },
    {
      "buffer" : 0,
      "byteOffset" : 10256,
      "byteLength" : 21876
    },
    {
      "buffer" : 0,
      "byteOffset" : 32132,
      "byteLength" : 21876
    },
    {
      "buffer" : 0,
      "byteOffset" : 54008,
      "byteLength" : 29168
    },
    {
      "buffer" : 0,
      "byteOffset" : 83176,
      "byteLength" : 14584
    },
    {
      "buffer" : 0,
      "byteOffset" : 97760,
      "byteLength" : 14584
    }
  ],
  "accessors" : [
    {
      "bufferView" : 0,
      "componentType" : 5123,
      "count" : 5127,
      "type" : "SCALAR"
    },
    {
      "bufferView" : 1,
      "min" : [ -0.96875, 1.125, -1.96938 ],
      "max" : [ 3.0625, 4.3125, 1.96938 ],
      "componentType" : 5126,
      "count" : 1823,
      "type" : "VEC3"
    },
    {
      "bufferView" : 2,
      "componentType" : 5126,
      "count" : 1823,
      "type" : "VEC3"
    },
    {
      "bufferView" : 3,
      "componentType" : 5126,
      "count" : 1823,
      "type" : "VEC4"
    },
    {
      "bufferView" : 4,
      "componentType" : 5126,
      "count" : 1823,
      "type" : "VEC2"
    },
    {
      "bufferView" : 5,
      "componentType" : 5126,
      "count" : 1823,
      "type" : "VEC2"
    }
  ]
}
