{
  "asset" : {
    "generator" : "UE Viewer (umodel) build 1590",
    "version" : "2.0"
  },
  "scene" : 0,
  "scenes" : [
    {
      "nodes" : [ 0 ]
    }
  ],
  "nodes" : [
    {
      "name" : "MbdMD_T_Forest_M_A_GeneralShop",
      "mesh" : 0
    }
  ],
  "materials" : [
    {
      "name" : "MbdMI_Forest",
      "pbrMetallicRoughness" : {
        "baseColorFactor" : [ 0.3, 0.3, 0.3, 1.0 ],
        "metallicFactor" : 0.1,
        "roughnessFactor" : 0.5
      }
    }
  ],
  "meshes" : [
    {
      "primitives" : [
        {
          "attributes" : {
            "POSITION" : 1,
            "NORMAL" : 2,
            "TANGENT" : 3,
            "TEXCOORD_0" : 4,
            "TEXCOORD_1" : 5
          },
          "indices" : 0,
          "material" : 0
        }
      ],
      "name" : "MbdMD_T_Forest_M_A_GeneralShop"
    }
  ],
  "buffers" : [
    {
      "uri" : "MbdMD_T_Forest_M_A_GeneralShop.bin",
      "byteLength" : 637716
    }
  ],
  "bufferViews" : [
    {
      "buffer" : 0,
      "byteOffset" : 0,
      "byteLength" : 45180
    },
    {
      "buffer" : 0,
      "byteOffset" : 45180,
      "byteLength" : 126972
    },
    {
      "buffer" : 0,
      "byteOffset" : 172152,
      "byteLength" : 126972
    },
    {
      "buffer" : 0,
      "byteOffset" : 299124,
      "byteLength" : 169296
    },
    {
      "buffer" : 0,
      "byteOffset" : 468420,
      "byteLength" : 84648
    },
    {
      "buffer" : 0,
      "byteOffset" : 553068,
      "byteLength" : 84648
    }
  ],
  "accessors" : [
    {
      "bufferView" : 0,
      "componentType" : 5123,
      "count" : 22590,
      "type" : "SCALAR"
    },
    {
      "bufferView" : 1,
      "min" : [ -2.68747, -9.84234e-17, -3.3741 ],
      "max" : [ 2.68747, 6.00037, 3.3741 ],
      "componentType" : 5126,
      "count" : 10581,
      "type" : "VEC3"
    },
    {
      "bufferView" : 2,
      "componentType" : 5126,
      "count" : 10581,
      "type" : "VEC3"
    },
    {
      "bufferView" : 3,
      "componentType" : 5126,
      "count" : 10581,
      "type" : "VEC4"
    },
    {
      "bufferView" : 4,
      "componentType" : 5126,
      "count" : 10581,
      "type" : "VEC2"
    },
    {
      "bufferView" : 5,
      "componentType" : 5126,
      "count" : 10581,
      "type" : "VEC2"
    }
  ]
}
