{
  "asset" : {
    "generator" : "UE Viewer (umodel) build 1590",
    "version" : "2.0"
  },
  "scene" : 0,
  "scenes" : [
    {
      "nodes" : [ 0 ]
    }
  ],
  "nodes" : [
    {
      "name" : "MbdMD_T_Forest_L_A_Build_03",
      "mesh" : 0
    }
  ],
  "materials" : [
    {
      "name" : "MbdMI_Forest_L",
      "pbrMetallicRoughness" : {
        "baseColorFactor" : [ 0.3, 0.3, 0.3, 1.0 ],
        "metallicFactor" : 0.1,
        "roughnessFactor" : 0.5
      }
    }
  ],
  "meshes" : [
    {
      "primitives" : [
        {
          "attributes" : {
            "POSITION" : 1,
            "NORMAL" : 2,
            "TANGENT" : 3,
            "TEXCOORD_0" : 4,
            "TEXCOORD_1" : 5,
            "TEXCOORD_2" : 6
          },
          "indices" : 0,
          "material" : 0
        }
      ],
      "name" : "MbdMD_T_Forest_L_A_Build_03"
    }
  ],
  "buffers" : [
    {
      "uri" : "MbdMD_T_Forest_L_A_Build_03.bin",
      "byteLength" : 57736
    }
  ],
  "bufferViews" : [
    {
      "buffer" : 0,
      "byteOffset" : 0,
      "byteLength" : 3144
    },
    {
      "buffer" : 0,
      "byteOffset" : 3144,
      "byteLength" : 10236
    },
    {
      "buffer" : 0,
      "byteOffset" : 13380,
      "byteLength" : 10236
    },
    {
      "buffer" : 0,
      "byteOffset" : 23616,
      "byteLength" : 13648
    },
    {
      "buffer" : 0,
      "byteOffset" : 37264,
      "byteLength" : 6824
    },
    {
      "buffer" : 0,
      "byteOffset" : 44088,
      "byteLength" : 6824
    },
    {
      "buffer" : 0,
      "byteOffset" : 50912,
      "byteLength" : 6824
    }
  ],
  "accessors" : [
    {
      "bufferView" : 0,
      "componentType" : 5123,
      "count" : 1572,
      "type" : "SCALAR"
    },
    {
      "bufferView" : 1,
      "min" : [ -2.31918, -1.22464e-16, -2.25 ],
      "max" : [ 2.31918, 5.625, 2.25 ],
      "componentType" : 5126,
      "count" : 853,
      "type" : "VEC3"
    },
    {
      "bufferView" : 2,
      "componentType" : 5126,
      "count" : 853,
      "type" : "VEC3"
    },
    {
      "bufferView" : 3,
      "componentType" : 5126,
      "count" : 853,
      "type" : "VEC4"
    },
    {
      "bufferView" : 4,
      "componentType" : 5126,
      "count" : 853,
      "type" : "VEC2"
    },
    {
      "bufferView" : 5,
      "componentType" : 5126,
      "count" : 853,
      "type" : "VEC2"
    },
    {
      "bufferView" : 6,
      "componentType" : 5126,
      "count" : 853,
      "type" : "VEC2"
    }
  ]
}
