{
  "asset" : {
    "generator" : "UE Viewer (umodel) build 1590",
    "version" : "2.0"
  },
  "scene" : 0,
  "scenes" : [
    {
      "nodes" : [ 0 ]
    }
  ],
  "nodes" : [
    {
      "name" : "MbdMD_Co_T_Forest_L_B_Build_01",
      "mesh" : 0
    }
  ],
  "materials" : [
    {
      "name" : "MbdMI_Forest_L",
      "pbrMetallicRoughness" : {
        "baseColorFactor" : [ 0.3, 0.3, 0.3, 1.0 ],
        "metallicFactor" : 0.1,
        "roughnessFactor" : 0.5
      }
    }
  ],
  "meshes" : [
    {
      "primitives" : [
        {
          "attributes" : {
            "POSITION" : 1,
            "NORMAL" : 2,
            "TANGENT" : 3,
            "TEXCOORD_0" : 4,
            "TEXCOORD_1" : 5,
            "TEXCOORD_2" : 6
          },
          "indices" : 0,
          "material" : 0
        }
      ],
      "name" : "MbdMD_Co_T_Forest_L_B_Build_01"
    }
  ],
  "buffers" : [
    {
      "uri" : "MbdMD_Co_T_Forest_L_B_Build_01.bin",
      "byteLength" : 123744
    }
  ],
  "bufferViews" : [
    {
      "buffer" : 0,
      "byteOffset" : 0,
      "byteLength" : 6624
    },
    {
      "buffer" : 0,
      "byteOffset" : 6624,
      "byteLength" : 21960
    },
    {
      "buffer" : 0,
      "byteOffset" : 28584,
      "byteLength" : 21960
    },
    {
      "buffer" : 0,
      "byteOffset" : 50544,
      "byteLength" : 29280
    },
    {
      "buffer" : 0,
      "byteOffset" : 79824,
      "byteLength" : 14640
    },
    {
      "buffer" : 0,
      "byteOffset" : 94464,
      "byteLength" : 14640
    },
    {
      "buffer" : 0,
      "byteOffset" : 109104,
      "byteLength" : 14640
    }
  ],
  "accessors" : [
    {
      "bufferView" : 0,
      "componentType" : 5123,
      "count" : 3312,
      "type" : "SCALAR"
    },
    {
      "bufferView" : 1,
      "min" : [ -3.3125, -1.85607e-16, -3.28125 ],
      "max" : [ 3.3125, 5.625, 3.28125 ],
      "componentType" : 5126,
      "count" : 1830,
      "type" : "VEC3"
    },
    {
      "bufferView" : 2,
      "componentType" : 5126,
      "count" : 1830,
      "type" : "VEC3"
    },
    {
      "bufferView" : 3,
      "componentType" : 5126,
      "count" : 1830,
      "type" : "VEC4"
    },
    {
      "bufferView" : 4,
      "componentType" : 5126,
      "count" : 1830,
      "type" : "VEC2"
    },
    {
      "bufferView" : 5,
      "componentType" : 5126,
      "count" : 1830,
      "type" : "VEC2"
    },
    {
      "bufferView" : 6,
      "componentType" : 5126,
      "count" : 1830,
      "type" : "VEC2"
    }
  ]
}
