{
  "asset" : {
    "generator" : "UE Viewer (umodel) build 1590",
    "version" : "2.0"
  },
  "scene" : 0,
  "scenes" : [
    {
      "nodes" : [ 0 ]
    }
  ],
  "nodes" : [
    {
      "name" : "MbdMD_T_Forest_M_A_Inn",
      "mesh" : 0
    }
  ],
  "materials" : [
    {
      "name" : "MbdMI_Forest",
      "pbrMetallicRoughness" : {
        "baseColorFactor" : [ 0.3, 0.3, 0.3, 1.0 ],
        "metallicFactor" : 0.1,
        "roughnessFactor" : 0.5
      }
    }
  ],
  "meshes" : [
    {
      "primitives" : [
        {
          "attributes" : {
            "POSITION" : 1,
            "NORMAL" : 2,
            "TANGENT" : 3,
            "TEXCOORD_0" : 4,
            "TEXCOORD_1" : 5
          },
          "indices" : 0,
          "material" : 0
        }
      ],
      "name" : "MbdMD_T_Forest_M_A_Inn"
    }
  ],
  "buffers" : [
    {
      "uri" : "MbdMD_T_Forest_M_A_Inn.bin",
      "byteLength" : 1069888
    }
  ],
  "bufferViews" : [
    {
      "buffer" : 0,
      "byteOffset" : 0,
      "byteLength" : 68832
    },
    {
      "buffer" : 0,
      "byteOffset" : 68832,
      "byteLength" : 214512
    },
    {
      "buffer" : 0,
      "byteOffset" : 283344,
      "byteLength" : 214512
    },
    {
      "buffer" : 0,
      "byteOffset" : 497856,
      "byteLength" : 286016
    },
    {
      "buffer" : 0,
      "byteOffset" : 783872,
      "byteLength" : 143008
    },
    {
      "buffer" : 0,
      "byteOffset" : 926880,
      "byteLength" : 143008
    }
  ],
  "accessors" : [
    {
      "bufferView" : 0,
      "componentType" : 5123,
      "count" : 34416,
      "type" : "SCALAR"
    },
    {
      "bufferView" : 1,
      "min" : [ -3.18753, -1.29046e-16, -3.87408 ],
      "max" : [ 3.18753, 8.48792, 3.87408 ],
      "componentType" : 5126,
      "count" : 17876,
      "type" : "VEC3"
    },
    {
      "bufferView" : 2,
      "componentType" : 5126,
      "count" : 17876,
      "type" : "VEC3"
    },
    {
      "bufferView" : 3,
      "componentType" : 5126,
      "count" : 17876,
      "type" : "VEC4"
    },
    {
      "bufferView" : 4,
      "componentType" : 5126,
      "count" : 17876,
      "type" : "VEC2"
    },
    {
      "bufferView" : 5,
      "componentType" : 5126,
      "count" : 17876,
      "type" : "VEC2"
    }
  ]
}
