{
  "asset" : {
    "generator" : "UE Viewer (umodel) build 1590",
    "version" : "2.0"
  },
  "scene" : 0,
  "scenes" : [
    {
      "nodes" : [ 0 ]
    }
  ],
  "nodes" : [
    {
      "name" : "MbdMD_T_Forest_S_House_A",
      "mesh" : 0
    }
  ],
  "materials" : [
    {
      "name" : "MbdMI_Forest",
      "pbrMetallicRoughness" : {
        "baseColorFactor" : [ 0.3, 0.3, 0.3, 1.0 ],
        "metallicFactor" : 0.1,
        "roughnessFactor" : 0.5
      }
    }
  ],
  "meshes" : [
    {
      "primitives" : [
        {
          "attributes" : {
            "POSITION" : 1,
            "NORMAL" : 2,
            "TANGENT" : 3,
            "TEXCOORD_0" : 4,
            "TEXCOORD_1" : 5,
            "TEXCOORD_2" : 6
          },
          "indices" : 0,
          "material" : 0
        }
      ],
      "name" : "MbdMD_T_Forest_S_House_A"
    }
  ],
  "buffers" : [
    {
      "uri" : "MbdMD_T_Forest_S_House_A.bin",
      "byteLength" : 803100
    }
  ],
  "bufferViews" : [
    {
      "buffer" : 0,
      "byteOffset" : 0,
      "byteLength" : 49500
    },
    {
      "buffer" : 0,
      "byteOffset" : 49500,
      "byteLength" : 141300
    },
    {
      "buffer" : 0,
      "byteOffset" : 190800,
      "byteLength" : 141300
    },
    {
      "buffer" : 0,
      "byteOffset" : 332100,
      "byteLength" : 188400
    },
    {
      "buffer" : 0,
      "byteOffset" : 520500,
      "byteLength" : 94200
    },
    {
      "buffer" : 0,
      "byteOffset" : 614700,
      "byteLength" : 94200
    },
    {
      "buffer" : 0,
      "byteOffset" : 708900,
      "byteLength" : 94200
    }
  ],
  "accessors" : [
    {
      "bufferView" : 0,
      "componentType" : 5123,
      "count" : 24750,
      "type" : "SCALAR"
    },
    {
      "bufferView" : 1,
      "min" : [ -3.1875, 1.15885e-16, -3.87409 ],
      "max" : [ 3.1875, 6.75034, 3.87409 ],
      "componentType" : 5126,
      "count" : 11775,
      "type" : "VEC3"
    },
    {
      "bufferView" : 2,
      "componentType" : 5126,
      "count" : 11775,
      "type" : "VEC3"
    },
    {
      "bufferView" : 3,
      "componentType" : 5126,
      "count" : 11775,
      "type" : "VEC4"
    },
    {
      "bufferView" : 4,
      "componentType" : 5126,
      "count" : 11775,
      "type" : "VEC2"
    },
    {
      "bufferView" : 5,
      "componentType" : 5126,
      "count" : 11775,
      "type" : "VEC2"
    },
    {
      "bufferView" : 6,
      "componentType" : 5126,
      "count" : 11775,
      "type" : "VEC2"
    }
  ]
}
