{
  "asset" : {
    "generator" : "UE Viewer (umodel) build 1590",
    "version" : "2.0"
  },
  "scene" : 0,
  "scenes" : [
    {
      "nodes" : [ 0 ]
    }
  ],
  "nodes" : [
    {
      "name" : "MbdMD_T_Forest_L_A_Build_05",
      "mesh" : 0
    }
  ],
  "materials" : [
    {
      "name" : "MbdMI_Forest_L",
      "pbrMetallicRoughness" : {
        "baseColorFactor" : [ 0.3, 0.3, 0.3, 1.0 ],
        "metallicFactor" : 0.1,
        "roughnessFactor" : 0.5
      }
    }
  ],
  "meshes" : [
    {
      "primitives" : [
        {
          "attributes" : {
            "POSITION" : 1,
            "NORMAL" : 2,
            "TANGENT" : 3,
            "TEXCOORD_0" : 4,
            "TEXCOORD_1" : 5,
            "TEXCOORD_2" : 6
          },
          "indices" : 0,
          "material" : 0
        }
      ],
      "name" : "MbdMD_T_Forest_L_A_Build_05"
    }
  ],
  "buffers" : [
    {
      "uri" : "MbdMD_T_Forest_L_A_Build_05.bin",
      "byteLength" : 80832
    }
  ],
  "bufferViews" : [
    {
      "buffer" : 0,
      "byteOffset" : 0,
      "byteLength" : 4224
    },
    {
      "buffer" : 0,
      "byteOffset" : 4224,
      "byteLength" : 14364
    },
    {
      "buffer" : 0,
      "byteOffset" : 18588,
      "byteLength" : 14364
    },
    {
      "buffer" : 0,
      "byteOffset" : 32952,
      "byteLength" : 19152
    },
    {
      "buffer" : 0,
      "byteOffset" : 52104,
      "byteLength" : 9576
    },
    {
      "buffer" : 0,
      "byteOffset" : 61680,
      "byteLength" : 9576
    },
    {
      "buffer" : 0,
      "byteOffset" : 71256,
      "byteLength" : 9576
    }
  ],
  "accessors" : [
    {
      "bufferView" : 0,
      "componentType" : 5123,
      "count" : 2112,
      "type" : "SCALAR"
    },
    {
      "bufferView" : 1,
      "min" : [ -2.08124, -1.10217e-16, -2.02499 ],
      "max" : [ 2.08124, 5.6925, 2.02499 ],
      "componentType" : 5126,
      "count" : 1197,
      "type" : "VEC3"
    },
    {
      "bufferView" : 2,
      "componentType" : 5126,
      "count" : 1197,
      "type" : "VEC3"
    },
    {
      "bufferView" : 3,
      "componentType" : 5126,
      "count" : 1197,
      "type" : "VEC4"
    },
    {
      "bufferView" : 4,
      "componentType" : 5126,
      "count" : 1197,
      "type" : "VEC2"
    },
    {
      "bufferView" : 5,
      "componentType" : 5126,
      "count" : 1197,
      "type" : "VEC2"
    },
    {
      "bufferView" : 6,
      "componentType" : 5126,
      "count" : 1197,
      "type" : "VEC2"
    }
  ]
}
