{
  "asset" : {
    "generator" : "UE Viewer (umodel) build 1590",
    "version" : "2.0"
  },
  "scene" : 0,
  "scenes" : [
    {
      "nodes" : [ 0 ]
    }
  ],
  "nodes" : [
    {
      "name" : "MbdMD_T_Forest_S_GeneralShop",
      "mesh" : 0
    }
  ],
  "materials" : [
    {
      "name" : "MbdMI_Forest",
      "pbrMetallicRoughness" : {
        "baseColorFactor" : [ 0.3, 0.3, 0.3, 1.0 ],
        "metallicFactor" : 0.1,
        "roughnessFactor" : 0.5
      }
    }
  ],
  "meshes" : [
    {
      "primitives" : [
        {
          "attributes" : {
            "POSITION" : 1,
            "NORMAL" : 2,
            "TANGENT" : 3,
            "TEXCOORD_0" : 4,
            "TEXCOORD_1" : 5,
            "TEXCOORD_2" : 6
          },
          "indices" : 0,
          "material" : 0
        }
      ],
      "name" : "MbdMD_T_Forest_S_GeneralShop"
    }
  ],
  "buffers" : [
    {
      "uri" : "MbdMD_T_Forest_S_GeneralShop.bin",
      "byteLength" : 679100
    }
  ],
  "bufferViews" : [
    {
      "buffer" : 0,
      "byteOffset" : 0,
      "byteLength" : 41340
    },
    {
      "buffer" : 0,
      "byteOffset" : 41340,
      "byteLength" : 119580
    },
    {
      "buffer" : 0,
      "byteOffset" : 160920,
      "byteLength" : 119580
    },
    {
      "buffer" : 0,
      "byteOffset" : 280500,
      "byteLength" : 159440
    },
    {
      "buffer" : 0,
      "byteOffset" : 439940,
      "byteLength" : 79720
    },
    {
      "buffer" : 0,
      "byteOffset" : 519660,
      "byteLength" : 79720
    },
    {
      "buffer" : 0,
      "byteOffset" : 599380,
      "byteLength" : 79720
    }
  ],
  "accessors" : [
    {
      "bufferView" : 0,
      "componentType" : 5123,
      "count" : 20670,
      "type" : "SCALAR"
    },
    {
      "bufferView" : 1,
      "min" : [ -2.6875, 8.52685e-17, -3.37409 ],
      "max" : [ 2.6875, 6.00034, 3.37409 ],
      "componentType" : 5126,
      "count" : 9965,
      "type" : "VEC3"
    },
    {
      "bufferView" : 2,
      "componentType" : 5126,
      "count" : 9965,
      "type" : "VEC3"
    },
    {
      "bufferView" : 3,
      "componentType" : 5126,
      "count" : 9965,
      "type" : "VEC4"
    },
    {
      "bufferView" : 4,
      "componentType" : 5126,
      "count" : 9965,
      "type" : "VEC2"
    },
    {
      "bufferView" : 5,
      "componentType" : 5126,
      "count" : 9965,
      "type" : "VEC2"
    },
    {
      "bufferView" : 6,
      "componentType" : 5126,
      "count" : 9965,
      "type" : "VEC2"
    }
  ]
}
