{
  "asset" : {
    "generator" : "UE Viewer (umodel) build 1590",
    "version" : "2.0"
  },
  "scene" : 0,
  "scenes" : [
    {
      "nodes" : [ 0 ]
    }
  ],
  "nodes" : [
    {
      "name" : "MbdMD_Forest_A_rfeave_st",
      "mesh" : 0
    }
  ],
  "materials" : [
    {
      "name" : "MbdMI_Forest",
      "pbrMetallicRoughness" : {
        "baseColorFactor" : [ 0.3, 0.3, 0.3, 1.0 ],
        "metallicFactor" : 0.1,
        "roughnessFactor" : 0.5
      }
    }
  ],
  "meshes" : [
    {
      "primitives" : [
        {
          "attributes" : {
            "POSITION" : 1,
            "NORMAL" : 2,
            "TANGENT" : 3,
            "TEXCOORD_0" : 4,
            "TEXCOORD_1" : 5
          },
          "indices" : 0,
          "material" : 0
        }
      ],
      "name" : "MbdMD_Forest_A_rfeave_st"
    }
  ],
  "buffers" : [
    {
      "uri" : "MbdMD_Forest_A_rfeave_st.bin",
      "byteLength" : 35320
    }
  ],
  "bufferViews" : [
    {
      "buffer" : 0,
      "byteOffset" : 0,
      "byteLength" : 3792
    },
    {
      "buffer" : 0,
      "byteOffset" : 3792,
      "byteLength" : 6756
    },
    {
      "buffer" : 0,
      "byteOffset" : 10548,
      "byteLength" : 6756
    },
    {
      "buffer" : 0,
      "byteOffset" : 17304,
      "byteLength" : 9008
    },
    {
      "buffer" : 0,
      "byteOffset" : 26312,
      "byteLength" : 4504
    },
    {
      "buffer" : 0,
      "byteOffset" : 30816,
      "byteLength" : 4504
    }
  ],
  "accessors" : [
    {
      "bufferView" : 0,
      "componentType" : 5123,
      "count" : 1896,
      "type" : "SCALAR"
    },
    {
      "bufferView" : 1,
      "min" : [ -0.5, 0.851309, -1.22465e-16 ],
      "max" : [ 1, 2, 0.742681 ],
      "componentType" : 5126,
      "count" : 563,
      "type" : "VEC3"
    },
    {
      "bufferView" : 2,
      "componentType" : 5126,
      "count" : 563,
      "type" : "VEC3"
    },
    {
      "bufferView" : 3,
      "componentType" : 5126,
      "count" : 563,
      "type" : "VEC4"
    },
    {
      "bufferView" : 4,
      "componentType" : 5126,
      "count" : 563,
      "type" : "VEC2"
    },
    {
      "bufferView" : 5,
      "componentType" : 5126,
      "count" : 563,
      "type" : "VEC2"
    }
  ]
}
