{
  "asset" : {
    "generator" : "UE Viewer (umodel) build 1590",
    "version" : "2.0"
  },
  "scene" : 0,
  "scenes" : [
    {
      "nodes" : [ 0 ]
    }
  ],
  "nodes" : [
    {
      "name" : "MbdMD_Co_T_Forest_L_B_Build_02",
      "mesh" : 0
    }
  ],
  "materials" : [
    {
      "name" : "MbdMI_Forest_L",
      "pbrMetallicRoughness" : {
        "baseColorFactor" : [ 0.3, 0.3, 0.3, 1.0 ],
        "metallicFactor" : 0.1,
        "roughnessFactor" : 0.5
      }
    }
  ],
  "meshes" : [
    {
      "primitives" : [
        {
          "attributes" : {
            "POSITION" : 1,
            "NORMAL" : 2,
            "TANGENT" : 3,
            "TEXCOORD_0" : 4,
            "TEXCOORD_1" : 5,
            "TEXCOORD_2" : 6
          },
          "indices" : 0,
          "material" : 0
        }
      ],
      "name" : "MbdMD_Co_T_Forest_L_B_Build_02"
    }
  ],
  "buffers" : [
    {
      "uri" : "MbdMD_Co_T_Forest_L_B_Build_02.bin",
      "byteLength" : 56636
    }
  ],
  "bufferViews" : [
    {
      "buffer" : 0,
      "byteOffset" : 0,
      "byteLength" : 3132
    },
    {
      "buffer" : 0,
      "byteOffset" : 3132,
      "byteLength" : 10032
    },
    {
      "buffer" : 0,
      "byteOffset" : 13164,
      "byteLength" : 10032
    },
    {
      "buffer" : 0,
      "byteOffset" : 23196,
      "byteLength" : 13376
    },
    {
      "buffer" : 0,
      "byteOffset" : 36572,
      "byteLength" : 6688
    },
    {
      "buffer" : 0,
      "byteOffset" : 43260,
      "byteLength" : 6688
    },
    {
      "buffer" : 0,
      "byteOffset" : 49948,
      "byteLength" : 6688
    }
  ],
  "accessors" : [
    {
      "bufferView" : 0,
      "componentType" : 5123,
      "count" : 1566,
      "type" : "SCALAR"
    },
    {
      "bufferView" : 1,
      "min" : [ -2.3125, -1.22461e-16, -2.25 ],
      "max" : [ 2.3125, 5.625, 2.25 ],
      "componentType" : 5126,
      "count" : 836,
      "type" : "VEC3"
    },
    {
      "bufferView" : 2,
      "componentType" : 5126,
      "count" : 836,
      "type" : "VEC3"
    },
    {
      "bufferView" : 3,
      "componentType" : 5126,
      "count" : 836,
      "type" : "VEC4"
    },
    {
      "bufferView" : 4,
      "componentType" : 5126,
      "count" : 836,
      "type" : "VEC2"
    },
    {
      "bufferView" : 5,
      "componentType" : 5126,
      "count" : 836,
      "type" : "VEC2"
    },
    {
      "bufferView" : 6,
      "componentType" : 5126,
      "count" : 836,
      "type" : "VEC2"
    }
  ]
}
