{
  "asset" : {
    "generator" : "UE Viewer (umodel) build 1590",
    "version" : "2.0"
  },
  "scene" : 0,
  "scenes" : [
    {
      "nodes" : [ 0 ]
    }
  ],
  "nodes" : [
    {
      "name" : "MbdMD_Co_T_Forest_L_B_Build_04",
      "mesh" : 0
    }
  ],
  "materials" : [
    {
      "name" : "MbdMI_Forest_L",
      "pbrMetallicRoughness" : {
        "baseColorFactor" : [ 0.3, 0.3, 0.3, 1.0 ],
        "metallicFactor" : 0.1,
        "roughnessFactor" : 0.5
      }
    }
  ],
  "meshes" : [
    {
      "primitives" : [
        {
          "attributes" : {
            "POSITION" : 1,
            "NORMAL" : 2,
            "TANGENT" : 3,
            "TEXCOORD_0" : 4,
            "TEXCOORD_1" : 5,
            "TEXCOORD_2" : 6
          },
          "indices" : 0,
          "material" : 0
        }
      ],
      "name" : "MbdMD_Co_T_Forest_L_B_Build_04"
    }
  ],
  "buffers" : [
    {
      "uri" : "MbdMD_Co_T_Forest_L_B_Build_04.bin",
      "byteLength" : 127188
    }
  ],
  "bufferViews" : [
    {
      "buffer" : 0,
      "byteOffset" : 0,
      "byteLength" : 6740
    },
    {
      "buffer" : 0,
      "byteOffset" : 6740,
      "byteLength" : 22584
    },
    {
      "buffer" : 0,
      "byteOffset" : 29324,
      "byteLength" : 22584
    },
    {
      "buffer" : 0,
      "byteOffset" : 51908,
      "byteLength" : 30112
    },
    {
      "buffer" : 0,
      "byteOffset" : 82020,
      "byteLength" : 15056
    },
    {
      "buffer" : 0,
      "byteOffset" : 97076,
      "byteLength" : 15056
    },
    {
      "buffer" : 0,
      "byteOffset" : 112132,
      "byteLength" : 15056
    }
  ],
  "accessors" : [
    {
      "bufferView" : 0,
      "componentType" : 5123,
      "count" : 3369,
      "type" : "SCALAR"
    },
    {
      "bufferView" : 1,
      "min" : [ -2.81247, -2.124e-16, -3.78125 ],
      "max" : [ 2.81247, 5.125, 3.78125 ],
      "componentType" : 5126,
      "count" : 1882,
      "type" : "VEC3"
    },
    {
      "bufferView" : 2,
      "componentType" : 5126,
      "count" : 1882,
      "type" : "VEC3"
    },
    {
      "bufferView" : 3,
      "componentType" : 5126,
      "count" : 1882,
      "type" : "VEC4"
    },
    {
      "bufferView" : 4,
      "componentType" : 5126,
      "count" : 1882,
      "type" : "VEC2"
    },
    {
      "bufferView" : 5,
      "componentType" : 5126,
      "count" : 1882,
      "type" : "VEC2"
    },
    {
      "bufferView" : 6,
      "componentType" : 5126,
      "count" : 1882,
      "type" : "VEC2"
    }
  ]
}
