{
  "asset" : {
    "generator" : "UE Viewer (umodel) build 1590",
    "version" : "2.0"
  },
  "scene" : 0,
  "scenes" : [
    {
      "nodes" : [ 0 ]
    }
  ],
  "nodes" : [
    {
      "name" : "MbdMD_Forest_A_wlgrnd_ps_SE",
      "mesh" : 0
    }
  ],
  "materials" : [
    {
      "name" : "MbdMI_Forest",
      "pbrMetallicRoughness" : {
        "baseColorFactor" : [ 0.3, 0.3, 0.3, 1.0 ],
        "metallicFactor" : 0.1,
        "roughnessFactor" : 0.5
      }
    }
  ],
  "meshes" : [
    {
      "primitives" : [
        {
          "attributes" : {
            "POSITION" : 1,
            "NORMAL" : 2,
            "TANGENT" : 3,
            "TEXCOORD_0" : 4,
            "TEXCOORD_1" : 5
          },
          "indices" : 0,
          "material" : 0
        }
      ],
      "name" : "MbdMD_Forest_A_wlgrnd_ps_SE"
    }
  ],
  "buffers" : [
    {
      "uri" : "MbdMD_Forest_A_wlgrnd_ps_SE.bin",
      "byteLength" : 70932
    }
  ],
  "bufferViews" : [
    {
      "buffer" : 0,
      "byteOffset" : 0,
      "byteLength" : 3396
    },
    {
      "buffer" : 0,
      "byteOffset" : 3396,
      "byteLength" : 14472
    },
    {
      "buffer" : 0,
      "byteOffset" : 17868,
      "byteLength" : 14472
    },
    {
      "buffer" : 0,
      "byteOffset" : 32340,
      "byteLength" : 19296
    },
    {
      "buffer" : 0,
      "byteOffset" : 51636,
      "byteLength" : 9648
    },
    {
      "buffer" : 0,
      "byteOffset" : 61284,
      "byteLength" : 9648
    }
  ],
  "accessors" : [
    {
      "bufferView" : 0,
      "componentType" : 5123,
      "count" : 1698,
      "type" : "SCALAR"
    },
    {
      "bufferView" : 1,
      "min" : [ -1.1875, -0.000330091, -1 ],
      "max" : [ 1, 2.18783, 0.9375 ],
      "componentType" : 5126,
      "count" : 1206,
      "type" : "VEC3"
    },
    {
      "bufferView" : 2,
      "componentType" : 5126,
      "count" : 1206,
      "type" : "VEC3"
    },
    {
      "bufferView" : 3,
      "componentType" : 5126,
      "count" : 1206,
      "type" : "VEC4"
    },
    {
      "bufferView" : 4,
      "componentType" : 5126,
      "count" : 1206,
      "type" : "VEC2"
    },
    {
      "bufferView" : 5,
      "componentType" : 5126,
      "count" : 1206,
      "type" : "VEC2"
    }
  ]
}
