{
  "asset" : {
    "generator" : "UE Viewer (umodel) build 1590",
    "version" : "2.0"
  },
  "scene" : 0,
  "scenes" : [
    {
      "nodes" : [ 0 ]
    }
  ],
  "nodes" : [
    {
      "name" : "MbdMD_T_Forest_S_Inn",
      "mesh" : 0
    }
  ],
  "materials" : [
    {
      "name" : "MbdMI_Forest",
      "pbrMetallicRoughness" : {
        "baseColorFactor" : [ 0.3, 0.3, 0.3, 1.0 ],
        "metallicFactor" : 0.1,
        "roughnessFactor" : 0.5
      }
    }
  ],
  "meshes" : [
    {
      "primitives" : [
        {
          "attributes" : {
            "POSITION" : 1,
            "NORMAL" : 2,
            "TANGENT" : 3,
            "TEXCOORD_0" : 4,
            "TEXCOORD_1" : 5,
            "TEXCOORD_2" : 6
          },
          "indices" : 0,
          "material" : 0
        }
      ],
      "name" : "MbdMD_T_Forest_S_Inn"
    }
  ],
  "buffers" : [
    {
      "uri" : "MbdMD_T_Forest_S_Inn.bin",
      "byteLength" : 1327808
    }
  ],
  "bufferViews" : [
    {
      "buffer" : 0,
      "byteOffset" : 0,
      "byteLength" : 79232
    },
    {
      "buffer" : 0,
      "byteOffset" : 79232,
      "byteLength" : 234108
    },
    {
      "buffer" : 0,
      "byteOffset" : 313340,
      "byteLength" : 234108
    },
    {
      "buffer" : 0,
      "byteOffset" : 547448,
      "byteLength" : 312144
    },
    {
      "buffer" : 0,
      "byteOffset" : 859592,
      "byteLength" : 156072
    },
    {
      "buffer" : 0,
      "byteOffset" : 1015664,
      "byteLength" : 156072
    },
    {
      "buffer" : 0,
      "byteOffset" : 1171736,
      "byteLength" : 156072
    }
  ],
  "accessors" : [
    {
      "bufferView" : 0,
      "componentType" : 5123,
      "count" : 39615,
      "type" : "SCALAR"
    },
    {
      "bufferView" : 1,
      "min" : [ -4.53079, -6.78128e-17, -3.18752 ],
      "max" : [ 4.53079, 7.50037, 3.18752 ],
      "componentType" : 5126,
      "count" : 19509,
      "type" : "VEC3"
    },
    {
      "bufferView" : 2,
      "componentType" : 5126,
      "count" : 19509,
      "type" : "VEC3"
    },
    {
      "bufferView" : 3,
      "componentType" : 5126,
      "count" : 19509,
      "type" : "VEC4"
    },
    {
      "bufferView" : 4,
      "componentType" : 5126,
      "count" : 19509,
      "type" : "VEC2"
    },
    {
      "bufferView" : 5,
      "componentType" : 5126,
      "count" : 19509,
      "type" : "VEC2"
    },
    {
      "bufferView" : 6,
      "componentType" : 5126,
      "count" : 19509,
      "type" : "VEC2"
    }
  ]
}
