{
  "asset" : {
    "generator" : "UE Viewer (umodel) build 1590",
    "version" : "2.0"
  },
  "scene" : 0,
  "scenes" : [
    {
      "nodes" : [ 0 ]
    }
  ],
  "nodes" : [
    {
      "name" : "MbdMD_T_Forest_M_A_House_A",
      "mesh" : 0
    }
  ],
  "materials" : [
    {
      "name" : "MbdMI_Forest",
      "pbrMetallicRoughness" : {
        "baseColorFactor" : [ 0.3, 0.3, 0.3, 1.0 ],
        "metallicFactor" : 0.1,
        "roughnessFactor" : 0.5
      }
    }
  ],
  "meshes" : [
    {
      "primitives" : [
        {
          "attributes" : {
            "POSITION" : 1,
            "NORMAL" : 2,
            "TANGENT" : 3,
            "TEXCOORD_0" : 4,
            "TEXCOORD_1" : 5
          },
          "indices" : 0,
          "material" : 0
        }
      ],
      "name" : "MbdMD_T_Forest_M_A_House_A"
    }
  ],
  "buffers" : [
    {
      "uri" : "MbdMD_T_Forest_M_A_House_A.bin",
      "byteLength" : 696020
    }
  ],
  "bufferViews" : [
    {
      "buffer" : 0,
      "byteOffset" : 0,
      "byteLength" : 49500
    },
    {
      "buffer" : 0,
      "byteOffset" : 49500,
      "byteLength" : 138540
    },
    {
      "buffer" : 0,
      "byteOffset" : 188040,
      "byteLength" : 138540
    },
    {
      "buffer" : 0,
      "byteOffset" : 326580,
      "byteLength" : 184720
    },
    {
      "buffer" : 0,
      "byteOffset" : 511300,
      "byteLength" : 92360
    },
    {
      "buffer" : 0,
      "byteOffset" : 603660,
      "byteLength" : 92360
    }
  ],
  "accessors" : [
    {
      "bufferView" : 0,
      "componentType" : 5123,
      "count" : 24750,
      "type" : "SCALAR"
    },
    {
      "bufferView" : 1,
      "min" : [ -3.18748, -1.29045e-16, -3.8741 ],
      "max" : [ 3.18748, 6.75037, 3.8741 ],
      "componentType" : 5126,
      "count" : 11545,
      "type" : "VEC3"
    },
    {
      "bufferView" : 2,
      "componentType" : 5126,
      "count" : 11545,
      "type" : "VEC3"
    },
    {
      "bufferView" : 3,
      "componentType" : 5126,
      "count" : 11545,
      "type" : "VEC4"
    },
    {
      "bufferView" : 4,
      "componentType" : 5126,
      "count" : 11545,
      "type" : "VEC2"
    },
    {
      "bufferView" : 5,
      "componentType" : 5126,
      "count" : 11545,
      "type" : "VEC2"
    }
  ]
}
