{
  "asset" : {
    "generator" : "UE Viewer (umodel) build 1590",
    "version" : "2.0"
  },
  "scene" : 0,
  "scenes" : [
    {
      "nodes" : [ 0 ]
    }
  ],
  "nodes" : [
    {
      "name" : "MbdMD_T_Forest_L_A_Build_02",
      "mesh" : 0
    }
  ],
  "materials" : [
    {
      "name" : "MbdMI_Forest_L",
      "pbrMetallicRoughness" : {
        "baseColorFactor" : [ 0.3, 0.3, 0.3, 1.0 ],
        "metallicFactor" : 0.1,
        "roughnessFactor" : 0.5
      }
    }
  ],
  "meshes" : [
    {
      "primitives" : [
        {
          "attributes" : {
            "POSITION" : 1,
            "NORMAL" : 2,
            "TANGENT" : 3,
            "TEXCOORD_0" : 4,
            "TEXCOORD_1" : 5,
            "TEXCOORD_2" : 6
          },
          "indices" : 0,
          "material" : 0
        }
      ],
      "name" : "MbdMD_T_Forest_L_A_Build_02"
    }
  ],
  "buffers" : [
    {
      "uri" : "MbdMD_T_Forest_L_A_Build_02.bin",
      "byteLength" : 97872
    }
  ],
  "bufferViews" : [
    {
      "buffer" : 0,
      "byteOffset" : 0,
      "byteLength" : 4944
    },
    {
      "buffer" : 0,
      "byteOffset" : 4944,
      "byteLength" : 17424
    },
    {
      "buffer" : 0,
      "byteOffset" : 22368,
      "byteLength" : 17424
    },
    {
      "buffer" : 0,
      "byteOffset" : 39792,
      "byteLength" : 23232
    },
    {
      "buffer" : 0,
      "byteOffset" : 63024,
      "byteLength" : 11616
    },
    {
      "buffer" : 0,
      "byteOffset" : 74640,
      "byteLength" : 11616
    },
    {
      "buffer" : 0,
      "byteOffset" : 86256,
      "byteLength" : 11616
    }
  ],
  "accessors" : [
    {
      "bufferView" : 0,
      "componentType" : 5123,
      "count" : 2472,
      "type" : "SCALAR"
    },
    {
      "bufferView" : 1,
      "min" : [ -2.14387, -1.16922e-16, -2.20639 ],
      "max" : [ 2.14387, 5.34375, 2.20639 ],
      "componentType" : 5126,
      "count" : 1452,
      "type" : "VEC3"
    },
    {
      "bufferView" : 2,
      "componentType" : 5126,
      "count" : 1452,
      "type" : "VEC3"
    },
    {
      "bufferView" : 3,
      "componentType" : 5126,
      "count" : 1452,
      "type" : "VEC4"
    },
    {
      "bufferView" : 4,
      "componentType" : 5126,
      "count" : 1452,
      "type" : "VEC2"
    },
    {
      "bufferView" : 5,
      "componentType" : 5126,
      "count" : 1452,
      "type" : "VEC2"
    },
    {
      "bufferView" : 6,
      "componentType" : 5126,
      "count" : 1452,
      "type" : "VEC2"
    }
  ]
}
