{
  "asset" : {
    "generator" : "UE Viewer (umodel) build 1590",
    "version" : "2.0"
  },
  "scene" : 0,
  "scenes" : [
    {
      "nodes" : [ 0 ]
    }
  ],
  "nodes" : [
    {
      "name" : "MbdMD_T_Forest_L_A_ItemShop",
      "mesh" : 0
    }
  ],
  "materials" : [
    {
      "name" : "MbdMI_Forest_L",
      "pbrMetallicRoughness" : {
        "baseColorFactor" : [ 0.3, 0.3, 0.3, 1.0 ],
        "metallicFactor" : 0.1,
        "roughnessFactor" : 0.5
      }
    }
  ],
  "meshes" : [
    {
      "primitives" : [
        {
          "attributes" : {
            "POSITION" : 1,
            "NORMAL" : 2,
            "TANGENT" : 3,
            "TEXCOORD_0" : 4,
            "TEXCOORD_1" : 5,
            "TEXCOORD_2" : 6
          },
          "indices" : 0,
          "material" : 0
        }
      ],
      "name" : "MbdMD_T_Forest_L_A_ItemShop"
    }
  ],
  "buffers" : [
    {
      "uri" : "MbdMD_T_Forest_L_A_ItemShop.bin",
      "byteLength" : 73760
    }
  ],
  "bufferViews" : [
    {
      "buffer" : 0,
      "byteOffset" : 0,
      "byteLength" : 3936
    },
    {
      "buffer" : 0,
      "byteOffset" : 3936,
      "byteLength" : 13092
    },
    {
      "buffer" : 0,
      "byteOffset" : 17028,
      "byteLength" : 13092
    },
    {
      "buffer" : 0,
      "byteOffset" : 30120,
      "byteLength" : 17456
    },
    {
      "buffer" : 0,
      "byteOffset" : 47576,
      "byteLength" : 8728
    },
    {
      "buffer" : 0,
      "byteOffset" : 56304,
      "byteLength" : 8728
    },
    {
      "buffer" : 0,
      "byteOffset" : 65032,
      "byteLength" : 8728
    }
  ],
  "accessors" : [
    {
      "bufferView" : 0,
      "componentType" : 5123,
      "count" : 1968,
      "type" : "SCALAR"
    },
    {
      "bufferView" : 1,
      "min" : [ -1.81244, -1.22464e-16, -2.25 ],
      "max" : [ 1.81244, 6.32495, 2.25 ],
      "componentType" : 5126,
      "count" : 1091,
      "type" : "VEC3"
    },
    {
      "bufferView" : 2,
      "componentType" : 5126,
      "count" : 1091,
      "type" : "VEC3"
    },
    {
      "bufferView" : 3,
      "componentType" : 5126,
      "count" : 1091,
      "type" : "VEC4"
    },
    {
      "bufferView" : 4,
      "componentType" : 5126,
      "count" : 1091,
      "type" : "VEC2"
    },
    {
      "bufferView" : 5,
      "componentType" : 5126,
      "count" : 1091,
      "type" : "VEC2"
    },
    {
      "bufferView" : 6,
      "componentType" : 5126,
      "count" : 1091,
      "type" : "VEC2"
    }
  ]
}
