{
  "asset" : {
    "generator" : "UE Viewer (umodel) build 1590",
    "version" : "2.0"
  },
  "scene" : 0,
  "scenes" : [
    {
      "nodes" : [ 0 ]
    }
  ],
  "nodes" : [
    {
      "name" : "MbdMD_T_Forest_L_A_Build_07",
      "mesh" : 0
    }
  ],
  "materials" : [
    {
      "name" : "MbdMI_Forest_L",
      "pbrMetallicRoughness" : {
        "baseColorFactor" : [ 0.3, 0.3, 0.3, 1.0 ],
        "metallicFactor" : 0.1,
        "roughnessFactor" : 0.5
      }
    }
  ],
  "meshes" : [
    {
      "primitives" : [
        {
          "attributes" : {
            "POSITION" : 1,
            "NORMAL" : 2,
            "TANGENT" : 3,
            "TEXCOORD_0" : 4,
            "TEXCOORD_1" : 5,
            "TEXCOORD_2" : 6
          },
          "indices" : 0,
          "material" : 0
        }
      ],
      "name" : "MbdMD_T_Forest_L_A_Build_07"
    }
  ],
  "buffers" : [
    {
      "uri" : "MbdMD_T_Forest_L_A_Build_07.bin",
      "byteLength" : 105648
    }
  ],
  "bufferViews" : [
    {
      "buffer" : 0,
      "byteOffset" : 0,
      "byteLength" : 5232
    },
    {
      "buffer" : 0,
      "byteOffset" : 5232,
      "byteLength" : 18828
    },
    {
      "buffer" : 0,
      "byteOffset" : 24060,
      "byteLength" : 18828
    },
    {
      "buffer" : 0,
      "byteOffset" : 42888,
      "byteLength" : 25104
    },
    {
      "buffer" : 0,
      "byteOffset" : 67992,
      "byteLength" : 12552
    },
    {
      "buffer" : 0,
      "byteOffset" : 80544,
      "byteLength" : 12552
    },
    {
      "buffer" : 0,
      "byteOffset" : 93096,
      "byteLength" : 12552
    }
  ],
  "accessors" : [
    {
      "bufferView" : 0,
      "componentType" : 5123,
      "count" : 2616,
      "type" : "SCALAR"
    },
    {
      "bufferView" : 1,
      "min" : [ -1.63586, -8.57249e-17, -1.61877 ],
      "max" : [ 1.63586, 4.85675, 1.61877 ],
      "componentType" : 5126,
      "count" : 1569,
      "type" : "VEC3"
    },
    {
      "bufferView" : 2,
      "componentType" : 5126,
      "count" : 1569,
      "type" : "VEC3"
    },
    {
      "bufferView" : 3,
      "componentType" : 5126,
      "count" : 1569,
      "type" : "VEC4"
    },
    {
      "bufferView" : 4,
      "componentType" : 5126,
      "count" : 1569,
      "type" : "VEC2"
    },
    {
      "bufferView" : 5,
      "componentType" : 5126,
      "count" : 1569,
      "type" : "VEC2"
    },
    {
      "bufferView" : 6,
      "componentType" : 5126,
      "count" : 1569,
      "type" : "VEC2"
    }
  ]
}
