{
  "asset" : {
    "generator" : "UE Viewer (umodel) build 1590",
    "version" : "2.0"
  },
  "scene" : 0,
  "scenes" : [
    {
      "nodes" : [ 0 ]
    }
  ],
  "nodes" : [
    {
      "name" : "MbdMD_T_Forest_M_A_Build_03",
      "mesh" : 0
    }
  ],
  "materials" : [
    {
      "name" : "MbdMI_Forest",
      "pbrMetallicRoughness" : {
        "baseColorFactor" : [ 0.3, 0.3, 0.3, 1.0 ],
        "metallicFactor" : 0.1,
        "roughnessFactor" : 0.5
      }
    }
  ],
  "meshes" : [
    {
      "primitives" : [
        {
          "attributes" : {
            "POSITION" : 1,
            "NORMAL" : 2,
            "TANGENT" : 3,
            "TEXCOORD_0" : 4,
            "TEXCOORD_1" : 5
          },
          "indices" : 0,
          "material" : 0
        }
      ],
      "name" : "MbdMD_T_Forest_M_A_Build_03"
    }
  ],
  "buffers" : [
    {
      "uri" : "MbdMD_T_Forest_M_A_Build_03.bin",
      "byteLength" : 586948
    }
  ],
  "bufferViews" : [
    {
      "buffer" : 0,
      "byteOffset" : 0,
      "byteLength" : 41340
    },
    {
      "buffer" : 0,
      "byteOffset" : 41340,
      "byteLength" : 116916
    },
    {
      "buffer" : 0,
      "byteOffset" : 158256,
      "byteLength" : 116916
    },
    {
      "buffer" : 0,
      "byteOffset" : 275172,
      "byteLength" : 155888
    },
    {
      "buffer" : 0,
      "byteOffset" : 431060,
      "byteLength" : 77944
    },
    {
      "buffer" : 0,
      "byteOffset" : 509004,
      "byteLength" : 77944
    }
  ],
  "accessors" : [
    {
      "bufferView" : 0,
      "componentType" : 5123,
      "count" : 20670,
      "type" : "SCALAR"
    },
    {
      "bufferView" : 1,
      "min" : [ -2.6875, -9.84287e-17, -3.37409 ],
      "max" : [ 2.6875, 6.00024, 3.37409 ],
      "componentType" : 5126,
      "count" : 9743,
      "type" : "VEC3"
    },
    {
      "bufferView" : 2,
      "componentType" : 5126,
      "count" : 9743,
      "type" : "VEC3"
    },
    {
      "bufferView" : 3,
      "componentType" : 5126,
      "count" : 9743,
      "type" : "VEC4"
    },
    {
      "bufferView" : 4,
      "componentType" : 5126,
      "count" : 9743,
      "type" : "VEC2"
    },
    {
      "bufferView" : 5,
      "componentType" : 5126,
      "count" : 9743,
      "type" : "VEC2"
    }
  ]
}
