{
  "asset" : {
    "generator" : "UE Viewer (umodel) build 1590",
    "version" : "2.0"
  },
  "scene" : 0,
  "scenes" : [
    {
      "nodes" : [ 0 ]
    }
  ],
  "nodes" : [
    {
      "name" : "MbdMD_T_Forest_M_A_Build_02",
      "mesh" : 0
    }
  ],
  "materials" : [
    {
      "name" : "MbdMI_Forest",
      "pbrMetallicRoughness" : {
        "baseColorFactor" : [ 0.3, 0.3, 0.3, 1.0 ],
        "metallicFactor" : 0.1,
        "roughnessFactor" : 0.5
      }
    }
  ],
  "meshes" : [
    {
      "primitives" : [
        {
          "attributes" : {
            "POSITION" : 1,
            "NORMAL" : 2,
            "TANGENT" : 3,
            "TEXCOORD_0" : 4,
            "TEXCOORD_1" : 5
          },
          "indices" : 0,
          "material" : 0
        }
      ],
      "name" : "MbdMD_T_Forest_M_A_Build_02"
    }
  ],
  "buffers" : [
    {
      "uri" : "MbdMD_T_Forest_M_A_Build_02.bin",
      "byteLength" : 1227072
    }
  ],
  "bufferViews" : [
    {
      "buffer" : 0,
      "byteOffset" : 0,
      "byteLength" : 86912
    },
    {
      "buffer" : 0,
      "byteOffset" : 86912,
      "byteLength" : 244320
    },
    {
      "buffer" : 0,
      "byteOffset" : 331232,
      "byteLength" : 244320
    },
    {
      "buffer" : 0,
      "byteOffset" : 575552,
      "byteLength" : 325760
    },
    {
      "buffer" : 0,
      "byteOffset" : 901312,
      "byteLength" : 162880
    },
    {
      "buffer" : 0,
      "byteOffset" : 1064192,
      "byteLength" : 162880
    }
  ],
  "accessors" : [
    {
      "bufferView" : 0,
      "componentType" : 5123,
      "count" : 43455,
      "type" : "SCALAR"
    },
    {
      "bufferView" : 1,
      "min" : [ -4.53078, -9.34331e-22, -3.18752 ],
      "max" : [ 4.53078, 7.50037, 3.18752 ],
      "componentType" : 5126,
      "count" : 20360,
      "type" : "VEC3"
    },
    {
      "bufferView" : 2,
      "componentType" : 5126,
      "count" : 20360,
      "type" : "VEC3"
    },
    {
      "bufferView" : 3,
      "componentType" : 5126,
      "count" : 20360,
      "type" : "VEC4"
    },
    {
      "bufferView" : 4,
      "componentType" : 5126,
      "count" : 20360,
      "type" : "VEC2"
    },
    {
      "bufferView" : 5,
      "componentType" : 5126,
      "count" : 20360,
      "type" : "VEC2"
    }
  ]
}
