{
  "asset" : {
    "generator" : "UE Viewer (umodel) build 1590",
    "version" : "2.0"
  },
  "scene" : 0,
  "scenes" : [
    {
      "nodes" : [ 0 ]
    }
  ],
  "nodes" : [
    {
      "name" : "MbdMD_T_Forest_L_A_Inn",
      "mesh" : 0
    }
  ],
  "materials" : [
    {
      "name" : "MbdMI_Forest_L",
      "pbrMetallicRoughness" : {
        "baseColorFactor" : [ 0.3, 0.3, 0.3, 1.0 ],
        "metallicFactor" : 0.1,
        "roughnessFactor" : 0.5
      }
    }
  ],
  "meshes" : [
    {
      "primitives" : [
        {
          "attributes" : {
            "POSITION" : 1,
            "NORMAL" : 2,
            "TANGENT" : 3,
            "TEXCOORD_0" : 4,
            "TEXCOORD_1" : 5,
            "TEXCOORD_2" : 6
          },
          "indices" : 0,
          "material" : 0
        }
      ],
      "name" : "MbdMD_T_Forest_L_A_Inn"
    }
  ],
  "buffers" : [
    {
      "uri" : "MbdMD_T_Forest_L_A_Inn.bin",
      "byteLength" : 163580
    }
  ],
  "bufferViews" : [
    {
      "buffer" : 0,
      "byteOffset" : 0,
      "byteLength" : 8444
    },
    {
      "buffer" : 0,
      "byteOffset" : 8444,
      "byteLength" : 29088
    },
    {
      "buffer" : 0,
      "byteOffset" : 37532,
      "byteLength" : 29088
    },
    {
      "buffer" : 0,
      "byteOffset" : 66620,
      "byteLength" : 38784
    },
    {
      "buffer" : 0,
      "byteOffset" : 105404,
      "byteLength" : 19392
    },
    {
      "buffer" : 0,
      "byteOffset" : 124796,
      "byteLength" : 19392
    },
    {
      "buffer" : 0,
      "byteOffset" : 144188,
      "byteLength" : 19392
    }
  ],
  "accessors" : [
    {
      "bufferView" : 0,
      "componentType" : 5123,
      "count" : 4221,
      "type" : "SCALAR"
    },
    {
      "bufferView" : 1,
      "min" : [ -3.42853, 2.12398e-16, -3.78128 ],
      "max" : [ 3.42853, 7.12502, 3.78128 ],
      "componentType" : 5126,
      "count" : 2424,
      "type" : "VEC3"
    },
    {
      "bufferView" : 2,
      "componentType" : 5126,
      "count" : 2424,
      "type" : "VEC3"
    },
    {
      "bufferView" : 3,
      "componentType" : 5126,
      "count" : 2424,
      "type" : "VEC4"
    },
    {
      "bufferView" : 4,
      "componentType" : 5126,
      "count" : 2424,
      "type" : "VEC2"
    },
    {
      "bufferView" : 5,
      "componentType" : 5126,
      "count" : 2424,
      "type" : "VEC2"
    },
    {
      "bufferView" : 6,
      "componentType" : 5126,
      "count" : 2424,
      "type" : "VEC2"
    }
  ]
}
