{
  "asset" : {
    "generator" : "UE Viewer (umodel) build 1590",
    "version" : "2.0"
  },
  "scene" : 0,
  "scenes" : [
    {
      "nodes" : [ 0 ]
    }
  ],
  "nodes" : [
    {
      "name" : "MbdMD_T_Forest_L_A_Build_06",
      "mesh" : 0
    }
  ],
  "materials" : [
    {
      "name" : "MbdMI_Forest_L",
      "pbrMetallicRoughness" : {
        "baseColorFactor" : [ 0.3, 0.3, 0.3, 1.0 ],
        "metallicFactor" : 0.1,
        "roughnessFactor" : 0.5
      }
    }
  ],
  "meshes" : [
    {
      "primitives" : [
        {
          "attributes" : {
            "POSITION" : 1,
            "NORMAL" : 2,
            "TANGENT" : 3,
            "TEXCOORD_0" : 4,
            "TEXCOORD_1" : 5,
            "TEXCOORD_2" : 6
          },
          "indices" : 0,
          "material" : 0
        }
      ],
      "name" : "MbdMD_T_Forest_L_A_Build_06"
    }
  ],
  "buffers" : [
    {
      "uri" : "MbdMD_T_Forest_L_A_Build_06.bin",
      "byteLength" : 57212
    }
  ],
  "bufferViews" : [
    {
      "buffer" : 0,
      "byteOffset" : 0,
      "byteLength" : 3132
    },
    {
      "buffer" : 0,
      "byteOffset" : 3132,
      "byteLength" : 10140
    },
    {
      "buffer" : 0,
      "byteOffset" : 13272,
      "byteLength" : 10140
    },
    {
      "buffer" : 0,
      "byteOffset" : 23412,
      "byteLength" : 13520
    },
    {
      "buffer" : 0,
      "byteOffset" : 36932,
      "byteLength" : 6760
    },
    {
      "buffer" : 0,
      "byteOffset" : 43692,
      "byteLength" : 6760
    },
    {
      "buffer" : 0,
      "byteOffset" : 50452,
      "byteLength" : 6760
    }
  ],
  "accessors" : [
    {
      "bufferView" : 0,
      "componentType" : 5123,
      "count" : 1566,
      "type" : "SCALAR"
    },
    {
      "bufferView" : 1,
      "min" : [ -1.61865, -8.57249e-17, -1.57498 ],
      "max" : [ 1.61865, 3.9375, 1.57498 ],
      "componentType" : 5126,
      "count" : 845,
      "type" : "VEC3"
    },
    {
      "bufferView" : 2,
      "componentType" : 5126,
      "count" : 845,
      "type" : "VEC3"
    },
    {
      "bufferView" : 3,
      "componentType" : 5126,
      "count" : 845,
      "type" : "VEC4"
    },
    {
      "bufferView" : 4,
      "componentType" : 5126,
      "count" : 845,
      "type" : "VEC2"
    },
    {
      "bufferView" : 5,
      "componentType" : 5126,
      "count" : 845,
      "type" : "VEC2"
    },
    {
      "bufferView" : 6,
      "componentType" : 5126,
      "count" : 845,
      "type" : "VEC2"
    }
  ]
}
