{
  "asset" : {
    "generator" : "UE Viewer (umodel) build 1590",
    "version" : "2.0"
  },
  "scene" : 0,
  "scenes" : [
    {
      "nodes" : [ 0 ]
    }
  ],
  "nodes" : [
    {
      "name" : "MbdMD_Co_T_Forest_L_B_Build_03",
      "mesh" : 0
    }
  ],
  "materials" : [
    {
      "name" : "MbdMI_Forest_L",
      "pbrMetallicRoughness" : {
        "baseColorFactor" : [ 0.3, 0.3, 0.3, 1.0 ],
        "metallicFactor" : 0.1,
        "roughnessFactor" : 0.5
      }
    }
  ],
  "meshes" : [
    {
      "primitives" : [
        {
          "attributes" : {
            "POSITION" : 1,
            "NORMAL" : 2,
            "TANGENT" : 3,
            "TEXCOORD_0" : 4,
            "TEXCOORD_1" : 5,
            "TEXCOORD_2" : 6
          },
          "indices" : 0,
          "material" : 0
        }
      ],
      "name" : "MbdMD_Co_T_Forest_L_B_Build_03"
    }
  ],
  "buffers" : [
    {
      "uri" : "MbdMD_Co_T_Forest_L_B_Build_03.bin",
      "byteLength" : 110396
    }
  ],
  "bufferViews" : [
    {
      "buffer" : 0,
      "byteOffset" : 0,
      "byteLength" : 5948
    },
    {
      "buffer" : 0,
      "byteOffset" : 5948,
      "byteLength" : 19584
    },
    {
      "buffer" : 0,
      "byteOffset" : 25532,
      "byteLength" : 19584
    },
    {
      "buffer" : 0,
      "byteOffset" : 45116,
      "byteLength" : 26112
    },
    {
      "buffer" : 0,
      "byteOffset" : 71228,
      "byteLength" : 13056
    },
    {
      "buffer" : 0,
      "byteOffset" : 84284,
      "byteLength" : 13056
    },
    {
      "buffer" : 0,
      "byteOffset" : 97340,
      "byteLength" : 13056
    }
  ],
  "accessors" : [
    {
      "bufferView" : 0,
      "componentType" : 5123,
      "count" : 2973,
      "type" : "SCALAR"
    },
    {
      "bufferView" : 1,
      "min" : [ -2.81252, -1.66475e-16, -3.03125 ],
      "max" : [ 2.81252, 5.625, 3.03125 ],
      "componentType" : 5126,
      "count" : 1632,
      "type" : "VEC3"
    },
    {
      "bufferView" : 2,
      "componentType" : 5126,
      "count" : 1632,
      "type" : "VEC3"
    },
    {
      "bufferView" : 3,
      "componentType" : 5126,
      "count" : 1632,
      "type" : "VEC4"
    },
    {
      "bufferView" : 4,
      "componentType" : 5126,
      "count" : 1632,
      "type" : "VEC2"
    },
    {
      "bufferView" : 5,
      "componentType" : 5126,
      "count" : 1632,
      "type" : "VEC2"
    },
    {
      "bufferView" : 6,
      "componentType" : 5126,
      "count" : 1632,
      "type" : "VEC2"
    }
  ]
}
