{
  "asset" : {
    "generator" : "UE Viewer (umodel) build 1590",
    "version" : "2.0"
  },
  "scene" : 0,
  "scenes" : [
    {
      "nodes" : [ 0 ]
    }
  ],
  "nodes" : [
    {
      "name" : "MbdMD_T_Mount_L_C_Build_05",
      "mesh" : 0
    }
  ],
  "materials" : [
    {
      "name" : "MbdMI_Mount",
      "pbrMetallicRoughness" : {
        "baseColorFactor" : [ 0.3, 0.3, 0.3, 1.0 ],
        "metallicFactor" : 0.1,
        "roughnessFactor" : 0.5
      }
    }
  ],
  "meshes" : [
    {
      "primitives" : [
        {
          "attributes" : {
            "POSITION" : 1,
            "NORMAL" : 2,
            "TANGENT" : 3,
            "TEXCOORD_0" : 4
          },
          "indices" : 0,
          "material" : 0
        }
      ],
      "name" : "MbdMD_T_Mount_L_C_Build_05"
    }
  ],
  "buffers" : [
    {
      "uri" : "MbdMD_T_Mount_L_C_Build_05.bin",
      "byteLength" : 135576
    }
  ],
  "bufferViews" : [
    {
      "buffer" : 0,
      "byteOffset" : 0,
      "byteLength" : 8904
    },
    {
      "buffer" : 0,
      "byteOffset" : 8904,
      "byteLength" : 31668
    },
    {
      "buffer" : 0,
      "byteOffset" : 40572,
      "byteLength" : 31668
    },
    {
      "buffer" : 0,
      "byteOffset" : 72240,
      "byteLength" : 42224
    },
    {
      "buffer" : 0,
      "byteOffset" : 114464,
      "byteLength" : 21112
    }
  ],
  "accessors" : [
    {
      "bufferView" : 0,
      "componentType" : 5123,
      "count" : 4452,
      "type" : "SCALAR"
    },
    {
      "bufferView" : 1,
      "min" : [ -3.28125, -1.83695e-16, -3.3125 ],
      "max" : [ 3.28125, 7.125, 3.3125 ],
      "componentType" : 5126,
      "count" : 2639,
      "type" : "VEC3"
    },
    {
      "bufferView" : 2,
      "componentType" : 5126,
      "count" : 2639,
      "type" : "VEC3"
    },
    {
      "bufferView" : 3,
      "componentType" : 5126,
      "count" : 2639,
      "type" : "VEC4"
    },
    {
      "bufferView" : 4,
      "componentType" : 5126,
      "count" : 2639,
      "type" : "VEC2"
    }
  ]
}
