{
  "asset" : {
    "generator" : "UE Viewer (umodel) build 1590",
    "version" : "2.0"
  },
  "scene" : 0,
  "scenes" : [
    {
      "nodes" : [ 0 ]
    }
  ],
  "nodes" : [
    {
      "name" : "MbdMD_Co_T_Forest_L_B_House_A",
      "mesh" : 0
    }
  ],
  "materials" : [
    {
      "name" : "MbdMI_Forest_L",
      "pbrMetallicRoughness" : {
        "baseColorFactor" : [ 0.3, 0.3, 0.3, 1.0 ],
        "metallicFactor" : 0.1,
        "roughnessFactor" : 0.5
      }
    }
  ],
  "meshes" : [
    {
      "primitives" : [
        {
          "attributes" : {
            "POSITION" : 1,
            "NORMAL" : 2,
            "TANGENT" : 3,
            "TEXCOORD_0" : 4,
            "TEXCOORD_1" : 5,
            "TEXCOORD_2" : 6
          },
          "indices" : 0,
          "material" : 0
        }
      ],
      "name" : "MbdMD_Co_T_Forest_L_B_House_A"
    }
  ],
  "buffers" : [
    {
      "uri" : "MbdMD_Co_T_Forest_L_B_House_A.bin",
      "byteLength" : 103344
    }
  ],
  "bufferViews" : [
    {
      "buffer" : 0,
      "byteOffset" : 0,
      "byteLength" : 5232
    },
    {
      "buffer" : 0,
      "byteOffset" : 5232,
      "byteLength" : 18396
    },
    {
      "buffer" : 0,
      "byteOffset" : 23628,
      "byteLength" : 18396
    },
    {
      "buffer" : 0,
      "byteOffset" : 42024,
      "byteLength" : 24528
    },
    {
      "buffer" : 0,
      "byteOffset" : 66552,
      "byteLength" : 12264
    },
    {
      "buffer" : 0,
      "byteOffset" : 78816,
      "byteLength" : 12264
    },
    {
      "buffer" : 0,
      "byteOffset" : 91080,
      "byteLength" : 12264
    }
  ],
  "accessors" : [
    {
      "bufferView" : 0,
      "componentType" : 5123,
      "count" : 2616,
      "type" : "SCALAR"
    },
    {
      "bufferView" : 1,
      "min" : [ -2.27677, -1.22461e-16, -2.3125 ],
      "max" : [ 2.27677, 6.82501, 2.3125 ],
      "componentType" : 5126,
      "count" : 1533,
      "type" : "VEC3"
    },
    {
      "bufferView" : 2,
      "componentType" : 5126,
      "count" : 1533,
      "type" : "VEC3"
    },
    {
      "bufferView" : 3,
      "componentType" : 5126,
      "count" : 1533,
      "type" : "VEC4"
    },
    {
      "bufferView" : 4,
      "componentType" : 5126,
      "count" : 1533,
      "type" : "VEC2"
    },
    {
      "bufferView" : 5,
      "componentType" : 5126,
      "count" : 1533,
      "type" : "VEC2"
    },
    {
      "bufferView" : 6,
      "componentType" : 5126,
      "count" : 1533,
      "type" : "VEC2"
    }
  ]
}
