{
  "asset" : {
    "generator" : "UE Viewer (umodel) build 1590",
    "version" : "2.0"
  },
  "scene" : 0,
  "scenes" : [
    {
      "nodes" : [ 0 ]
    }
  ],
  "nodes" : [
    {
      "name" : "MbdMD_T_Mount_L_C_Build_02",
      "mesh" : 0
    }
  ],
  "materials" : [
    {
      "name" : "MbdMI_Mount",
      "pbrMetallicRoughness" : {
        "baseColorFactor" : [ 0.3, 0.3, 0.3, 1.0 ],
        "metallicFactor" : 0.1,
        "roughnessFactor" : 0.5
      }
    }
  ],
  "meshes" : [
    {
      "primitives" : [
        {
          "attributes" : {
            "POSITION" : 1,
            "NORMAL" : 2,
            "TANGENT" : 3,
            "TEXCOORD_0" : 4
          },
          "indices" : 0,
          "material" : 0
        }
      ],
      "name" : "MbdMD_T_Mount_L_C_Build_02"
    }
  ],
  "buffers" : [
    {
      "uri" : "MbdMD_T_Mount_L_C_Build_02.bin",
      "byteLength" : 46260
    }
  ],
  "bufferViews" : [
    {
      "buffer" : 0,
      "byteOffset" : 0,
      "byteLength" : 3252
    },
    {
      "buffer" : 0,
      "byteOffset" : 3252,
      "byteLength" : 10752
    },
    {
      "buffer" : 0,
      "byteOffset" : 14004,
      "byteLength" : 10752
    },
    {
      "buffer" : 0,
      "byteOffset" : 24756,
      "byteLength" : 14336
    },
    {
      "buffer" : 0,
      "byteOffset" : 39092,
      "byteLength" : 7168
    }
  ],
  "accessors" : [
    {
      "bufferView" : 0,
      "componentType" : 5123,
      "count" : 1626,
      "type" : "SCALAR"
    },
    {
      "bufferView" : 1,
      "min" : [ -2.28125, -1.83697e-16, -3.3125 ],
      "max" : [ 2.28125, 6.625, 3.3125 ],
      "componentType" : 5126,
      "count" : 896,
      "type" : "VEC3"
    },
    {
      "bufferView" : 2,
      "componentType" : 5126,
      "count" : 896,
      "type" : "VEC3"
    },
    {
      "bufferView" : 3,
      "componentType" : 5126,
      "count" : 896,
      "type" : "VEC4"
    },
    {
      "bufferView" : 4,
      "componentType" : 5126,
      "count" : 896,
      "type" : "VEC2"
    }
  ]
}
