{
  "asset" : {
    "generator" : "UE Viewer (umodel) build 1590",
    "version" : "2.0"
  },
  "scene" : 0,
  "scenes" : [
    {
      "nodes" : [ 0 ]
    }
  ],
  "nodes" : [
    {
      "name" : "MbdMD_T_Mount_L_C_Build_04",
      "mesh" : 0
    }
  ],
  "materials" : [
    {
      "name" : "MbdMI_Mount",
      "pbrMetallicRoughness" : {
        "baseColorFactor" : [ 0.3, 0.3, 0.3, 1.0 ],
        "metallicFactor" : 0.1,
        "roughnessFactor" : 0.5
      }
    }
  ],
  "meshes" : [
    {
      "primitives" : [
        {
          "attributes" : {
            "POSITION" : 1,
            "NORMAL" : 2,
            "TANGENT" : 3,
            "TEXCOORD_0" : 4
          },
          "indices" : 0,
          "material" : 0
        }
      ],
      "name" : "MbdMD_T_Mount_L_C_Build_04"
    }
  ],
  "buffers" : [
    {
      "uri" : "MbdMD_T_Mount_L_C_Build_04.bin",
      "byteLength" : 103092
    }
  ],
  "bufferViews" : [
    {
      "buffer" : 0,
      "byteOffset" : 0,
      "byteLength" : 6900
    },
    {
      "buffer" : 0,
      "byteOffset" : 6900,
      "byteLength" : 24048
    },
    {
      "buffer" : 0,
      "byteOffset" : 30948,
      "byteLength" : 24048
    },
    {
      "buffer" : 0,
      "byteOffset" : 54996,
      "byteLength" : 32064
    },
    {
      "buffer" : 0,
      "byteOffset" : 87060,
      "byteLength" : 16032
    }
  ],
  "accessors" : [
    {
      "bufferView" : 0,
      "componentType" : 5123,
      "count" : 3450,
      "type" : "SCALAR"
    },
    {
      "bufferView" : 1,
      "min" : [ -3.22849, -1.83695e-16, -3.28125 ],
      "max" : [ 3.22849, 8.125, 3.28125 ],
      "componentType" : 5126,
      "count" : 2004,
      "type" : "VEC3"
    },
    {
      "bufferView" : 2,
      "componentType" : 5126,
      "count" : 2004,
      "type" : "VEC3"
    },
    {
      "bufferView" : 3,
      "componentType" : 5126,
      "count" : 2004,
      "type" : "VEC4"
    },
    {
      "bufferView" : 4,
      "componentType" : 5126,
      "count" : 2004,
      "type" : "VEC2"
    }
  ]
}
