{
  "asset" : {
    "generator" : "UE Viewer (umodel) build 1590",
    "version" : "2.0"
  },
  "scene" : 0,
  "scenes" : [
    {
      "nodes" : [ 0 ]
    }
  ],
  "nodes" : [
    {
      "name" : "MbdMD_T_Mount_L_B_Guratu",
      "mesh" : 0
    }
  ],
  "materials" : [
    {
      "name" : "MbdMI_Mount",
      "pbrMetallicRoughness" : {
        "baseColorFactor" : [ 0.3, 0.3, 0.3, 1.0 ],
        "metallicFactor" : 0.1,
        "roughnessFactor" : 0.5
      }
    }
  ],
  "meshes" : [
    {
      "primitives" : [
        {
          "attributes" : {
            "POSITION" : 1,
            "NORMAL" : 2,
            "TANGENT" : 3,
            "TEXCOORD_0" : 4
          },
          "indices" : 0,
          "material" : 0
        }
      ],
      "name" : "MbdMD_T_Mount_L_B_Guratu"
    }
  ],
  "buffers" : [
    {
      "uri" : "MbdMD_T_Mount_L_B_Guratu.bin",
      "byteLength" : 185708
    }
  ],
  "bufferViews" : [
    {
      "buffer" : 0,
      "byteOffset" : 0,
      "byteLength" : 12284
    },
    {
      "buffer" : 0,
      "byteOffset" : 12284,
      "byteLength" : 43356
    },
    {
      "buffer" : 0,
      "byteOffset" : 55640,
      "byteLength" : 43356
    },
    {
      "buffer" : 0,
      "byteOffset" : 98996,
      "byteLength" : 57808
    },
    {
      "buffer" : 0,
      "byteOffset" : 156804,
      "byteLength" : 28904
    }
  ],
  "accessors" : [
    {
      "bufferView" : 0,
      "componentType" : 5123,
      "count" : 6141,
      "type" : "SCALAR"
    },
    {
      "bufferView" : 1,
      "min" : [ -3.29688, -2.75546e-16, -4.8125 ],
      "max" : [ 3.29688, 8.125, 4.8125 ],
      "componentType" : 5126,
      "count" : 3613,
      "type" : "VEC3"
    },
    {
      "bufferView" : 2,
      "componentType" : 5126,
      "count" : 3613,
      "type" : "VEC3"
    },
    {
      "bufferView" : 3,
      "componentType" : 5126,
      "count" : 3613,
      "type" : "VEC4"
    },
    {
      "bufferView" : 4,
      "componentType" : 5126,
      "count" : 3613,
      "type" : "VEC2"
    }
  ]
}
