{
  "asset" : {
    "generator" : "UE Viewer (umodel) build 1590",
    "version" : "2.0"
  },
  "scene" : 0,
  "scenes" : [
    {
      "nodes" : [ 0 ]
    }
  ],
  "nodes" : [
    {
      "name" : "MbdMD_Co_T_Mount_L_A_Build_03",
      "mesh" : 0
    }
  ],
  "materials" : [
    {
      "name" : "MbdMI_Mount",
      "pbrMetallicRoughness" : {
        "baseColorFactor" : [ 0.3, 0.3, 0.3, 1.0 ],
        "metallicFactor" : 0.1,
        "roughnessFactor" : 0.5
      }
    }
  ],
  "meshes" : [
    {
      "primitives" : [
        {
          "attributes" : {
            "POSITION" : 1,
            "NORMAL" : 2,
            "TANGENT" : 3,
            "TEXCOORD_0" : 4,
            "TEXCOORD_1" : 5,
            "TEXCOORD_2" : 6,
            "TEXCOORD_3" : 7
          },
          "indices" : 0,
          "material" : 0
        }
      ],
      "name" : "MbdMD_Co_T_Mount_L_A_Build_03"
    }
  ],
  "buffers" : [
    {
      "uri" : "MbdMD_Co_T_Mount_L_A_Build_03.bin",
      "byteLength" : 59532
    }
  ],
  "bufferViews" : [
    {
      "buffer" : 0,
      "byteOffset" : 0,
      "byteLength" : 2508
    },
    {
      "buffer" : 0,
      "byteOffset" : 2508,
      "byteLength" : 9504
    },
    {
      "buffer" : 0,
      "byteOffset" : 12012,
      "byteLength" : 9504
    },
    {
      "buffer" : 0,
      "byteOffset" : 21516,
      "byteLength" : 12672
    },
    {
      "buffer" : 0,
      "byteOffset" : 34188,
      "byteLength" : 6336
    },
    {
      "buffer" : 0,
      "byteOffset" : 40524,
      "byteLength" : 6336
    },
    {
      "buffer" : 0,
      "byteOffset" : 46860,
      "byteLength" : 6336
    },
    {
      "buffer" : 0,
      "byteOffset" : 53196,
      "byteLength" : 6336
    }
  ],
  "accessors" : [
    {
      "bufferView" : 0,
      "componentType" : 5123,
      "count" : 1254,
      "type" : "SCALAR"
    },
    {
      "bufferView" : 1,
      "min" : [ -2.28125, -1.54036e-16, -2.8125 ],
      "max" : [ 2.28125, 5.625, 2.8125 ],
      "componentType" : 5126,
      "count" : 792,
      "type" : "VEC3"
    },
    {
      "bufferView" : 2,
      "componentType" : 5126,
      "count" : 792,
      "type" : "VEC3"
    },
    {
      "bufferView" : 3,
      "componentType" : 5126,
      "count" : 792,
      "type" : "VEC4"
    },
    {
      "bufferView" : 4,
      "componentType" : 5126,
      "count" : 792,
      "type" : "VEC2"
    },
    {
      "bufferView" : 5,
      "componentType" : 5126,
      "count" : 792,
      "type" : "VEC2"
    },
    {
      "bufferView" : 6,
      "componentType" : 5126,
      "count" : 792,
      "type" : "VEC2"
    },
    {
      "bufferView" : 7,
      "componentType" : 5126,
      "count" : 792,
      "type" : "VEC2"
    }
  ]
}
