{
  "asset" : {
    "generator" : "UE Viewer (umodel) build 1590",
    "version" : "2.0"
  },
  "scene" : 0,
  "scenes" : [
    {
      "nodes" : [ 0 ]
    }
  ],
  "nodes" : [
    {
      "name" : "MbdMD_Co_T_Mount_L_A_House_A",
      "mesh" : 0
    }
  ],
  "materials" : [
    {
      "name" : "MbdMI_Mount",
      "pbrMetallicRoughness" : {
        "baseColorFactor" : [ 0.3, 0.3, 0.3, 1.0 ],
        "metallicFactor" : 0.1,
        "roughnessFactor" : 0.5
      }
    }
  ],
  "meshes" : [
    {
      "primitives" : [
        {
          "attributes" : {
            "POSITION" : 1,
            "NORMAL" : 2,
            "TANGENT" : 3,
            "TEXCOORD_0" : 4,
            "TEXCOORD_1" : 5,
            "TEXCOORD_2" : 6,
            "TEXCOORD_3" : 7
          },
          "indices" : 0,
          "material" : 0
        }
      ],
      "name" : "MbdMD_Co_T_Mount_L_A_House_A"
    }
  ],
  "buffers" : [
    {
      "uri" : "MbdMD_Co_T_Mount_L_A_House_A.bin",
      "byteLength" : 147564
    }
  ],
  "bufferViews" : [
    {
      "buffer" : 0,
      "byteOffset" : 0,
      "byteLength" : 6300
    },
    {
      "buffer" : 0,
      "byteOffset" : 6300,
      "byteLength" : 23544
    },
    {
      "buffer" : 0,
      "byteOffset" : 29844,
      "byteLength" : 23544
    },
    {
      "buffer" : 0,
      "byteOffset" : 53388,
      "byteLength" : 31392
    },
    {
      "buffer" : 0,
      "byteOffset" : 84780,
      "byteLength" : 15696
    },
    {
      "buffer" : 0,
      "byteOffset" : 100476,
      "byteLength" : 15696
    },
    {
      "buffer" : 0,
      "byteOffset" : 116172,
      "byteLength" : 15696
    },
    {
      "buffer" : 0,
      "byteOffset" : 131868,
      "byteLength" : 15696
    }
  ],
  "accessors" : [
    {
      "bufferView" : 0,
      "componentType" : 5123,
      "count" : 3150,
      "type" : "SCALAR"
    },
    {
      "bufferView" : 1,
      "min" : [ -2.3125, -9.60362e-17, -2.71286 ],
      "max" : [ 2.3125, 7.625, 2.71286 ],
      "componentType" : 5126,
      "count" : 1962,
      "type" : "VEC3"
    },
    {
      "bufferView" : 2,
      "componentType" : 5126,
      "count" : 1962,
      "type" : "VEC3"
    },
    {
      "bufferView" : 3,
      "componentType" : 5126,
      "count" : 1962,
      "type" : "VEC4"
    },
    {
      "bufferView" : 4,
      "componentType" : 5126,
      "count" : 1962,
      "type" : "VEC2"
    },
    {
      "bufferView" : 5,
      "componentType" : 5126,
      "count" : 1962,
      "type" : "VEC2"
    },
    {
      "bufferView" : 6,
      "componentType" : 5126,
      "count" : 1962,
      "type" : "VEC2"
    },
    {
      "bufferView" : 7,
      "componentType" : 5126,
      "count" : 1962,
      "type" : "VEC2"
    }
  ]
}
