{
  "asset" : {
    "generator" : "UE Viewer (umodel) build 1590",
    "version" : "2.0"
  },
  "scene" : 0,
  "scenes" : [
    {
      "nodes" : [ 0 ]
    }
  ],
  "nodes" : [
    {
      "name" : "MbdMD_T_Mount_L_B_Build_01",
      "mesh" : 0
    }
  ],
  "materials" : [
    {
      "name" : "MbdMI_Mount",
      "pbrMetallicRoughness" : {
        "baseColorFactor" : [ 0.3, 0.3, 0.3, 1.0 ],
        "metallicFactor" : 0.1,
        "roughnessFactor" : 0.5
      }
    }
  ],
  "meshes" : [
    {
      "primitives" : [
        {
          "attributes" : {
            "POSITION" : 1,
            "NORMAL" : 2,
            "TANGENT" : 3,
            "TEXCOORD_0" : 4
          },
          "indices" : 0,
          "material" : 0
        }
      ],
      "name" : "MbdMD_T_Mount_L_B_Build_01"
    }
  ],
  "buffers" : [
    {
      "uri" : "MbdMD_T_Mount_L_B_Build_01.bin",
      "byteLength" : 123060
    }
  ],
  "bufferViews" : [
    {
      "buffer" : 0,
      "byteOffset" : 0,
      "byteLength" : 8244
    },
    {
      "buffer" : 0,
      "byteOffset" : 8244,
      "byteLength" : 28704
    },
    {
      "buffer" : 0,
      "byteOffset" : 36948,
      "byteLength" : 28704
    },
    {
      "buffer" : 0,
      "byteOffset" : 65652,
      "byteLength" : 38272
    },
    {
      "buffer" : 0,
      "byteOffset" : 103924,
      "byteLength" : 19136
    }
  ],
  "accessors" : [
    {
      "bufferView" : 0,
      "componentType" : 5123,
      "count" : 4122,
      "type" : "SCALAR"
    },
    {
      "bufferView" : 1,
      "min" : [ -3.28125, -2.43973e-16, -4.29688 ],
      "max" : [ 3.28125, 8.125, 4.29688 ],
      "componentType" : 5126,
      "count" : 2392,
      "type" : "VEC3"
    },
    {
      "bufferView" : 2,
      "componentType" : 5126,
      "count" : 2392,
      "type" : "VEC3"
    },
    {
      "bufferView" : 3,
      "componentType" : 5126,
      "count" : 2392,
      "type" : "VEC4"
    },
    {
      "bufferView" : 4,
      "componentType" : 5126,
      "count" : 2392,
      "type" : "VEC2"
    }
  ]
}
