{
  "asset" : {
    "generator" : "UE Viewer (umodel) build 1590",
    "version" : "2.0"
  },
  "scene" : 0,
  "scenes" : [
    {
      "nodes" : [ 0 ]
    }
  ],
  "nodes" : [
    {
      "name" : "MmeMD_Mount_F_A_Obj_L",
      "mesh" : 0
    }
  ],
  "materials" : [
    {
      "name" : "MmeMI_Mount_F_Terrain_Rock_01",
      "pbrMetallicRoughness" : {
        "baseColorFactor" : [ 0.3, 0.3, 0.3, 1.0 ],
        "metallicFactor" : 0.1,
        "roughnessFactor" : 0.5
      }
    }
  ],
  "meshes" : [
    {
      "primitives" : [
        {
          "attributes" : {
            "POSITION" : 1,
            "NORMAL" : 2,
            "TANGENT" : 3,
            "TEXCOORD_0" : 4,
            "TEXCOORD_1" : 5
          },
          "indices" : 0,
          "material" : 0
        }
      ],
      "name" : "MmeMD_Mount_F_A_Obj_L"
    }
  ],
  "buffers" : [
    {
      "uri" : "MmeMD_Mount_F_A_Obj_L.bin",
      "byteLength" : 3204
    }
  ],
  "bufferViews" : [
    {
      "buffer" : 0,
      "byteOffset" : 0,
      "byteLength" : 348
    },
    {
      "buffer" : 0,
      "byteOffset" : 348,
      "byteLength" : 612
    },
    {
      "buffer" : 0,
      "byteOffset" : 960,
      "byteLength" : 612
    },
    {
      "buffer" : 0,
      "byteOffset" : 1572,
      "byteLength" : 816
    },
    {
      "buffer" : 0,
      "byteOffset" : 2388,
      "byteLength" : 408
    },
    {
      "buffer" : 0,
      "byteOffset" : 2796,
      "byteLength" : 408
    }
  ],
  "accessors" : [
    {
      "bufferView" : 0,
      "componentType" : 5123,
      "count" : 174,
      "type" : "SCALAR"
    },
    {
      "bufferView" : 1,
      "min" : [ 0.0939182, -8.88178e-18, -0.861971 ],
      "max" : [ 0.615721, 1.03064, 0.8081 ],
      "componentType" : 5126,
      "count" : 51,
      "type" : "VEC3"
    },
    {
      "bufferView" : 2,
      "componentType" : 5126,
      "count" : 51,
      "type" : "VEC3"
    },
    {
      "bufferView" : 3,
      "componentType" : 5126,
      "count" : 51,
      "type" : "VEC4"
    },
    {
      "bufferView" : 4,
      "componentType" : 5126,
      "count" : 51,
      "type" : "VEC2"
    },
    {
      "bufferView" : 5,
      "componentType" : 5126,
      "count" : 51,
      "type" : "VEC2"
    }
  ]
}
