{
  "asset" : {
    "generator" : "UE Viewer (umodel) build 1590",
    "version" : "2.0"
  },
  "scene" : 0,
  "scenes" : [
    {
      "nodes" : [ 0 ]
    }
  ],
  "nodes" : [
    {
      "name" : "MmeMD_Mount_F_A_Obj_M",
      "mesh" : 0
    }
  ],
  "materials" : [
    {
      "name" : "MmeMI_Mount_F_Terrain_Rock_01",
      "pbrMetallicRoughness" : {
        "baseColorFactor" : [ 0.3, 0.3, 0.3, 1.0 ],
        "metallicFactor" : 0.1,
        "roughnessFactor" : 0.5
      }
    }
  ],
  "meshes" : [
    {
      "primitives" : [
        {
          "attributes" : {
            "POSITION" : 1,
            "NORMAL" : 2,
            "TANGENT" : 3,
            "TEXCOORD_0" : 4,
            "TEXCOORD_1" : 5
          },
          "indices" : 0,
          "material" : 0
        }
      ],
      "name" : "MmeMD_Mount_F_A_Obj_M"
    }
  ],
  "buffers" : [
    {
      "uri" : "MmeMD_Mount_F_A_Obj_M.bin",
      "byteLength" : 2320
    }
  ],
  "bufferViews" : [
    {
      "buffer" : 0,
      "byteOffset" : 0,
      "byteLength" : 248
    },
    {
      "buffer" : 0,
      "byteOffset" : 248,
      "byteLength" : 444
    },
    {
      "buffer" : 0,
      "byteOffset" : 692,
      "byteLength" : 444
    },
    {
      "buffer" : 0,
      "byteOffset" : 1136,
      "byteLength" : 592
    },
    {
      "buffer" : 0,
      "byteOffset" : 1728,
      "byteLength" : 296
    },
    {
      "buffer" : 0,
      "byteOffset" : 2024,
      "byteLength" : 296
    }
  ],
  "accessors" : [
    {
      "bufferView" : 0,
      "componentType" : 5123,
      "count" : 123,
      "type" : "SCALAR"
    },
    {
      "bufferView" : 1,
      "min" : [ -0.0104285, -6.66134e-18, -0.322061 ],
      "max" : [ 0.380588, 1.12138, 0.405836 ],
      "componentType" : 5126,
      "count" : 37,
      "type" : "VEC3"
    },
    {
      "bufferView" : 2,
      "componentType" : 5126,
      "count" : 37,
      "type" : "VEC3"
    },
    {
      "bufferView" : 3,
      "componentType" : 5126,
      "count" : 37,
      "type" : "VEC4"
    },
    {
      "bufferView" : 4,
      "componentType" : 5126,
      "count" : 37,
      "type" : "VEC2"
    },
    {
      "bufferView" : 5,
      "componentType" : 5126,
      "count" : 37,
      "type" : "VEC2"
    }
  ]
}
