{
  "asset" : {
    "generator" : "UE Viewer (umodel) build 1590",
    "version" : "2.0"
  },
  "scene" : 0,
  "scenes" : [
    {
      "nodes" : [ 0 ]
    }
  ],
  "nodes" : [
    {
      "name" : "MmeMD_Mount_F_A_Add_Top_M",
      "mesh" : 0
    }
  ],
  "materials" : [
    {
      "name" : "MmeMI_Mount_F_Terrain_Rock_01",
      "pbrMetallicRoughness" : {
        "baseColorFactor" : [ 0.3, 0.3, 0.3, 1.0 ],
        "metallicFactor" : 0.1,
        "roughnessFactor" : 0.5
      }
    }
  ],
  "meshes" : [
    {
      "primitives" : [
        {
          "attributes" : {
            "POSITION" : 1,
            "NORMAL" : 2,
            "TANGENT" : 3,
            "TEXCOORD_0" : 4,
            "TEXCOORD_1" : 5
          },
          "indices" : 0,
          "material" : 0
        }
      ],
      "name" : "MmeMD_Mount_F_A_Add_Top_M"
    }
  ],
  "buffers" : [
    {
      "uri" : "MmeMD_Mount_F_A_Add_Top_M.bin",
      "byteLength" : 2784
    }
  ],
  "bufferViews" : [
    {
      "buffer" : 0,
      "byteOffset" : 0,
      "byteLength" : 320
    },
    {
      "buffer" : 0,
      "byteOffset" : 320,
      "byteLength" : 528
    },
    {
      "buffer" : 0,
      "byteOffset" : 848,
      "byteLength" : 528
    },
    {
      "buffer" : 0,
      "byteOffset" : 1376,
      "byteLength" : 704
    },
    {
      "buffer" : 0,
      "byteOffset" : 2080,
      "byteLength" : 352
    },
    {
      "buffer" : 0,
      "byteOffset" : 2432,
      "byteLength" : 352
    }
  ],
  "accessors" : [
    {
      "bufferView" : 0,
      "componentType" : 5123,
      "count" : 159,
      "type" : "SCALAR"
    },
    {
      "bufferView" : 1,
      "min" : [ -0.678111, -1, -0.0187702 ],
      "max" : [ 0, 9.32587e-17, 1.62808 ],
      "componentType" : 5126,
      "count" : 44,
      "type" : "VEC3"
    },
    {
      "bufferView" : 2,
      "componentType" : 5126,
      "count" : 44,
      "type" : "VEC3"
    },
    {
      "bufferView" : 3,
      "componentType" : 5126,
      "count" : 44,
      "type" : "VEC4"
    },
    {
      "bufferView" : 4,
      "componentType" : 5126,
      "count" : 44,
      "type" : "VEC2"
    },
    {
      "bufferView" : 5,
      "componentType" : 5126,
      "count" : 44,
      "type" : "VEC2"
    }
  ]
}
