{
  "asset" : {
    "generator" : "UE Viewer (umodel) build 1590",
    "version" : "2.0"
  },
  "scene" : 0,
  "scenes" : [
    {
      "nodes" : [ 0 ]
    }
  ],
  "nodes" : [
    {
      "name" : "MmeMD_Mount_F_A_Add_Top_LB",
      "mesh" : 0
    }
  ],
  "materials" : [
    {
      "name" : "MmeMI_Mount_F_Terrain_Rock_01",
      "pbrMetallicRoughness" : {
        "baseColorFactor" : [ 0.3, 0.3, 0.3, 1.0 ],
        "metallicFactor" : 0.1,
        "roughnessFactor" : 0.5
      }
    }
  ],
  "meshes" : [
    {
      "primitives" : [
        {
          "attributes" : {
            "POSITION" : 1,
            "NORMAL" : 2,
            "TANGENT" : 3,
            "TEXCOORD_0" : 4,
            "TEXCOORD_1" : 5
          },
          "indices" : 0,
          "material" : 0
        }
      ],
      "name" : "MmeMD_Mount_F_A_Add_Top_LB"
    }
  ],
  "buffers" : [
    {
      "uri" : "MmeMD_Mount_F_A_Add_Top_LB.bin",
      "byteLength" : 7668
    }
  ],
  "bufferViews" : [
    {
      "buffer" : 0,
      "byteOffset" : 0,
      "byteLength" : 780
    },
    {
      "buffer" : 0,
      "byteOffset" : 780,
      "byteLength" : 1476
    },
    {
      "buffer" : 0,
      "byteOffset" : 2256,
      "byteLength" : 1476
    },
    {
      "buffer" : 0,
      "byteOffset" : 3732,
      "byteLength" : 1968
    },
    {
      "buffer" : 0,
      "byteOffset" : 5700,
      "byteLength" : 984
    },
    {
      "buffer" : 0,
      "byteOffset" : 6684,
      "byteLength" : 984
    }
  ],
  "accessors" : [
    {
      "bufferView" : 0,
      "componentType" : 5123,
      "count" : 390,
      "type" : "SCALAR"
    },
    {
      "bufferView" : 1,
      "min" : [ -1.67811, -1, -0.140625 ],
      "max" : [ 1.67811, 1.24345e-16, 2.14063 ],
      "componentType" : 5126,
      "count" : 123,
      "type" : "VEC3"
    },
    {
      "bufferView" : 2,
      "componentType" : 5126,
      "count" : 123,
      "type" : "VEC3"
    },
    {
      "bufferView" : 3,
      "componentType" : 5126,
      "count" : 123,
      "type" : "VEC4"
    },
    {
      "bufferView" : 4,
      "componentType" : 5126,
      "count" : 123,
      "type" : "VEC2"
    },
    {
      "bufferView" : 5,
      "componentType" : 5126,
      "count" : 123,
      "type" : "VEC2"
    }
  ]
}
