{
  "asset" : {
    "generator" : "UE Viewer (umodel) build 1590",
    "version" : "2.0"
  },
  "scene" : 0,
  "scenes" : [
    {
      "nodes" : [ 0 ]
    }
  ],
  "nodes" : [
    {
      "name" : "MmeMD_Mount_F_A_Add_Btm_MB",
      "mesh" : 0
    }
  ],
  "materials" : [
    {
      "name" : "MmeMI_Mount_F_Terrain_Rock_01",
      "pbrMetallicRoughness" : {
        "baseColorFactor" : [ 0.3, 0.3, 0.3, 1.0 ],
        "metallicFactor" : 0.1,
        "roughnessFactor" : 0.5
      }
    }
  ],
  "meshes" : [
    {
      "primitives" : [
        {
          "attributes" : {
            "POSITION" : 1,
            "NORMAL" : 2,
            "TANGENT" : 3,
            "TEXCOORD_0" : 4,
            "TEXCOORD_1" : 5
          },
          "indices" : 0,
          "material" : 0
        }
      ],
      "name" : "MmeMD_Mount_F_A_Add_Btm_MB"
    }
  ],
  "buffers" : [
    {
      "uri" : "MmeMD_Mount_F_A_Add_Btm_MB.bin",
      "byteLength" : 3556
    }
  ],
  "bufferViews" : [
    {
      "buffer" : 0,
      "byteOffset" : 0,
      "byteLength" : 420
    },
    {
      "buffer" : 0,
      "byteOffset" : 420,
      "byteLength" : 672
    },
    {
      "buffer" : 0,
      "byteOffset" : 1092,
      "byteLength" : 672
    },
    {
      "buffer" : 0,
      "byteOffset" : 1764,
      "byteLength" : 896
    },
    {
      "buffer" : 0,
      "byteOffset" : 2660,
      "byteLength" : 448
    },
    {
      "buffer" : 0,
      "byteOffset" : 3108,
      "byteLength" : 448
    }
  ],
  "accessors" : [
    {
      "bufferView" : 0,
      "componentType" : 5123,
      "count" : 210,
      "type" : "SCALAR"
    },
    {
      "bufferView" : 1,
      "min" : [ -0.46404, 0, -0.464039 ],
      "max" : [ 0.46404, 1.375, 0.464039 ],
      "componentType" : 5126,
      "count" : 56,
      "type" : "VEC3"
    },
    {
      "bufferView" : 2,
      "componentType" : 5126,
      "count" : 56,
      "type" : "VEC3"
    },
    {
      "bufferView" : 3,
      "componentType" : 5126,
      "count" : 56,
      "type" : "VEC4"
    },
    {
      "bufferView" : 4,
      "componentType" : 5126,
      "count" : 56,
      "type" : "VEC2"
    },
    {
      "bufferView" : 5,
      "componentType" : 5126,
      "count" : 56,
      "type" : "VEC2"
    }
  ]
}
