{
  "asset" : {
    "generator" : "UE Viewer (umodel) build 1590",
    "version" : "2.0"
  },
  "scene" : 0,
  "scenes" : [
    {
      "nodes" : [ 0 ]
    }
  ],
  "nodes" : [
    {
      "name" : "Co_BPI_Com_Stairs_B_12_6_1",
      "mesh" : 0
    }
  ],
  "materials" : [
    {
      "name" : "MmeMI_Mount_F_Terrain_Rock_01",
      "pbrMetallicRoughness" : {
        "baseColorFactor" : [ 0.3, 0.3, 0.3, 1.0 ],
        "metallicFactor" : 0.1,
        "roughnessFactor" : 0.5
      }
    }
  ],
  "meshes" : [
    {
      "primitives" : [
        {
          "attributes" : {
            "POSITION" : 1,
            "NORMAL" : 2,
            "TANGENT" : 3,
            "TEXCOORD_0" : 4,
            "TEXCOORD_1" : 5
          },
          "indices" : 0,
          "material" : 0
        }
      ],
      "name" : "Co_BPI_Com_Stairs_B_12_6_1"
    }
  ],
  "buffers" : [
    {
      "uri" : "Co_BPI_Com_Stairs_B_12_6_1.bin",
      "byteLength" : 43592
    }
  ],
  "bufferViews" : [
    {
      "buffer" : 0,
      "byteOffset" : 0,
      "byteLength" : 2376
    },
    {
      "buffer" : 0,
      "byteOffset" : 2376,
      "byteLength" : 8832
    },
    {
      "buffer" : 0,
      "byteOffset" : 11208,
      "byteLength" : 8832
    },
    {
      "buffer" : 0,
      "byteOffset" : 20040,
      "byteLength" : 11776
    },
    {
      "buffer" : 0,
      "byteOffset" : 31816,
      "byteLength" : 5888
    },
    {
      "buffer" : 0,
      "byteOffset" : 37704,
      "byteLength" : 5888
    }
  ],
  "accessors" : [
    {
      "bufferView" : 0,
      "componentType" : 5123,
      "count" : 1188,
      "type" : "SCALAR"
    },
    {
      "bufferView" : 1,
      "min" : [ -3, -1.5, -3 ],
      "max" : [ 3, 1.5, 3 ],
      "componentType" : 5126,
      "count" : 736,
      "type" : "VEC3"
    },
    {
      "bufferView" : 2,
      "componentType" : 5126,
      "count" : 736,
      "type" : "VEC3"
    },
    {
      "bufferView" : 3,
      "componentType" : 5126,
      "count" : 736,
      "type" : "VEC4"
    },
    {
      "bufferView" : 4,
      "componentType" : 5126,
      "count" : 736,
      "type" : "VEC2"
    },
    {
      "bufferView" : 5,
      "componentType" : 5126,
      "count" : 736,
      "type" : "VEC2"
    }
  ]
}
