{
  "asset" : {
    "generator" : "UE Viewer (umodel) build 1590",
    "version" : "2.0"
  },
  "scene" : 0,
  "scenes" : [
    {
      "nodes" : [ 0 ]
    }
  ],
  "nodes" : [
    {
      "name" : "Co_BPI_WoodStairs_B_4_4_1",
      "mesh" : 0
    }
  ],
  "materials" : [
    {
      "name" : "ObpMI_Deck_A",
      "pbrMetallicRoughness" : {
        "baseColorFactor" : [ 0.3, 0.3, 0.3, 1.0 ],
        "metallicFactor" : 0.1,
        "roughnessFactor" : 0.5
      }
    }
  ],
  "meshes" : [
    {
      "primitives" : [
        {
          "attributes" : {
            "POSITION" : 1,
            "NORMAL" : 2,
            "TANGENT" : 3,
            "TEXCOORD_0" : 4,
            "TEXCOORD_1" : 5,
            "TEXCOORD_2" : 6
          },
          "indices" : 0,
          "material" : 0
        }
      ],
      "name" : "Co_BPI_WoodStairs_B_4_4_1"
    }
  ],
  "buffers" : [
    {
      "uri" : "Co_BPI_WoodStairs_B_4_4_1.bin",
      "byteLength" : 27408
    }
  ],
  "bufferViews" : [
    {
      "buffer" : 0,
      "byteOffset" : 0,
      "byteLength" : 1296
    },
    {
      "buffer" : 0,
      "byteOffset" : 1296,
      "byteLength" : 4896
    },
    {
      "buffer" : 0,
      "byteOffset" : 6192,
      "byteLength" : 4896
    },
    {
      "buffer" : 0,
      "byteOffset" : 11088,
      "byteLength" : 6528
    },
    {
      "buffer" : 0,
      "byteOffset" : 17616,
      "byteLength" : 3264
    },
    {
      "buffer" : 0,
      "byteOffset" : 20880,
      "byteLength" : 3264
    },
    {
      "buffer" : 0,
      "byteOffset" : 24144,
      "byteLength" : 3264
    }
  ],
  "accessors" : [
    {
      "bufferView" : 0,
      "componentType" : 5123,
      "count" : 648,
      "type" : "SCALAR"
    },
    {
      "bufferView" : 1,
      "min" : [ -1.25001, -0.75, -1.875 ],
      "max" : [ 1.25001, 0.75, 1.875 ],
      "componentType" : 5126,
      "count" : 408,
      "type" : "VEC3"
    },
    {
      "bufferView" : 2,
      "componentType" : 5126,
      "count" : 408,
      "type" : "VEC3"
    },
    {
      "bufferView" : 3,
      "componentType" : 5126,
      "count" : 408,
      "type" : "VEC4"
    },
    {
      "bufferView" : 4,
      "componentType" : 5126,
      "count" : 408,
      "type" : "VEC2"
    },
    {
      "bufferView" : 5,
      "componentType" : 5126,
      "count" : 408,
      "type" : "VEC2"
    },
    {
      "bufferView" : 6,
      "componentType" : 5126,
      "count" : 408,
      "type" : "VEC2"
    }
  ]
}
