{
  "asset" : {
    "generator" : "UE Viewer (umodel) build 1590",
    "version" : "2.0"
  },
  "scene" : 0,
  "scenes" : [
    {
      "nodes" : [ 0 ]
    }
  ],
  "nodes" : [
    {
      "name" : "Co_BPI_WoodStairs_B_4_2_1",
      "mesh" : 0
    }
  ],
  "materials" : [
    {
      "name" : "ObpMI_Deck_A",
      "pbrMetallicRoughness" : {
        "baseColorFactor" : [ 0.3, 0.3, 0.3, 1.0 ],
        "metallicFactor" : 0.1,
        "roughnessFactor" : 0.5
      }
    }
  ],
  "meshes" : [
    {
      "primitives" : [
        {
          "attributes" : {
            "POSITION" : 1,
            "NORMAL" : 2,
            "TANGENT" : 3,
            "TEXCOORD_0" : 4,
            "TEXCOORD_1" : 5,
            "TEXCOORD_2" : 6
          },
          "indices" : 0,
          "material" : 0
        }
      ],
      "name" : "Co_BPI_WoodStairs_B_4_2_1"
    }
  ],
  "buffers" : [
    {
      "uri" : "Co_BPI_WoodStairs_B_4_2_1.bin",
      "byteLength" : 18832
    }
  ],
  "bufferViews" : [
    {
      "buffer" : 0,
      "byteOffset" : 0,
      "byteLength" : 912
    },
    {
      "buffer" : 0,
      "byteOffset" : 912,
      "byteLength" : 3360
    },
    {
      "buffer" : 0,
      "byteOffset" : 4272,
      "byteLength" : 3360
    },
    {
      "buffer" : 0,
      "byteOffset" : 7632,
      "byteLength" : 4480
    },
    {
      "buffer" : 0,
      "byteOffset" : 12112,
      "byteLength" : 2240
    },
    {
      "buffer" : 0,
      "byteOffset" : 14352,
      "byteLength" : 2240
    },
    {
      "buffer" : 0,
      "byteOffset" : 16592,
      "byteLength" : 2240
    }
  ],
  "accessors" : [
    {
      "bufferView" : 0,
      "componentType" : 5123,
      "count" : 456,
      "type" : "SCALAR"
    },
    {
      "bufferView" : 1,
      "min" : [ -1.25, -0.75, -0.875004 ],
      "max" : [ 1.25, 0.75, 0.875004 ],
      "componentType" : 5126,
      "count" : 280,
      "type" : "VEC3"
    },
    {
      "bufferView" : 2,
      "componentType" : 5126,
      "count" : 280,
      "type" : "VEC3"
    },
    {
      "bufferView" : 3,
      "componentType" : 5126,
      "count" : 280,
      "type" : "VEC4"
    },
    {
      "bufferView" : 4,
      "componentType" : 5126,
      "count" : 280,
      "type" : "VEC2"
    },
    {
      "bufferView" : 5,
      "componentType" : 5126,
      "count" : 280,
      "type" : "VEC2"
    },
    {
      "bufferView" : 6,
      "componentType" : 5126,
      "count" : 280,
      "type" : "VEC2"
    }
  ]
}
