{
  "asset" : {
    "generator" : "UE Viewer (umodel) build 1590",
    "version" : "2.0"
  },
  "scene" : 0,
  "scenes" : [
    {
      "nodes" : [ 0 ]
    }
  ],
  "nodes" : [
    {
      "name" : "Co_BPI_WoodStairs_B_8_4_1",
      "mesh" : 0
    }
  ],
  "materials" : [
    {
      "name" : "ObpMI_Deck_A",
      "pbrMetallicRoughness" : {
        "baseColorFactor" : [ 0.3, 0.3, 0.3, 1.0 ],
        "metallicFactor" : 0.1,
        "roughnessFactor" : 0.5
      }
    }
  ],
  "meshes" : [
    {
      "primitives" : [
        {
          "attributes" : {
            "POSITION" : 1,
            "NORMAL" : 2,
            "TANGENT" : 3,
            "TEXCOORD_0" : 4,
            "TEXCOORD_1" : 5,
            "TEXCOORD_2" : 6
          },
          "indices" : 0,
          "material" : 0
        }
      ],
      "name" : "Co_BPI_WoodStairs_B_8_4_1"
    }
  ],
  "buffers" : [
    {
      "uri" : "Co_BPI_WoodStairs_B_8_4_1.bin",
      "byteLength" : 50992
    }
  ],
  "bufferViews" : [
    {
      "buffer" : 0,
      "byteOffset" : 0,
      "byteLength" : 2352
    },
    {
      "buffer" : 0,
      "byteOffset" : 2352,
      "byteLength" : 9120
    },
    {
      "buffer" : 0,
      "byteOffset" : 11472,
      "byteLength" : 9120
    },
    {
      "buffer" : 0,
      "byteOffset" : 20592,
      "byteLength" : 12160
    },
    {
      "buffer" : 0,
      "byteOffset" : 32752,
      "byteLength" : 6080
    },
    {
      "buffer" : 0,
      "byteOffset" : 38832,
      "byteLength" : 6080
    },
    {
      "buffer" : 0,
      "byteOffset" : 44912,
      "byteLength" : 6080
    }
  ],
  "accessors" : [
    {
      "bufferView" : 0,
      "componentType" : 5123,
      "count" : 1176,
      "type" : "SCALAR"
    },
    {
      "bufferView" : 1,
      "min" : [ -2.25001, -1.25, -1.87501 ],
      "max" : [ 2.25001, 1.25, 1.87501 ],
      "componentType" : 5126,
      "count" : 760,
      "type" : "VEC3"
    },
    {
      "bufferView" : 2,
      "componentType" : 5126,
      "count" : 760,
      "type" : "VEC3"
    },
    {
      "bufferView" : 3,
      "componentType" : 5126,
      "count" : 760,
      "type" : "VEC4"
    },
    {
      "bufferView" : 4,
      "componentType" : 5126,
      "count" : 760,
      "type" : "VEC2"
    },
    {
      "bufferView" : 5,
      "componentType" : 5126,
      "count" : 760,
      "type" : "VEC2"
    },
    {
      "bufferView" : 6,
      "componentType" : 5126,
      "count" : 760,
      "type" : "VEC2"
    }
  ]
}
