{
  "asset" : {
    "generator" : "UE Viewer (umodel) build 1590",
    "version" : "2.0"
  },
  "scene" : 0,
  "scenes" : [
    {
      "nodes" : [ 0 ]
    }
  ],
  "nodes" : [
    {
      "name" : "Co_BPI_Com_Stairs_B_16_5_1",
      "mesh" : 0
    }
  ],
  "materials" : [
    {
      "name" : "MmeMI_Mount_F_Terrain_Rock_01",
      "pbrMetallicRoughness" : {
        "baseColorFactor" : [ 0.3, 0.3, 0.3, 1.0 ],
        "metallicFactor" : 0.1,
        "roughnessFactor" : 0.5
      }
    }
  ],
  "meshes" : [
    {
      "primitives" : [
        {
          "attributes" : {
            "POSITION" : 1,
            "NORMAL" : 2,
            "TANGENT" : 3,
            "TEXCOORD_0" : 4,
            "TEXCOORD_1" : 5
          },
          "indices" : 0,
          "material" : 0
        }
      ],
      "name" : "Co_BPI_Com_Stairs_B_16_5_1"
    }
  ],
  "buffers" : [
    {
      "uri" : "Co_BPI_Com_Stairs_B_16_5_1.bin",
      "byteLength" : 53376
    }
  ],
  "bufferViews" : [
    {
      "buffer" : 0,
      "byteOffset" : 0,
      "byteLength" : 2976
    },
    {
      "buffer" : 0,
      "byteOffset" : 2976,
      "byteLength" : 10800
    },
    {
      "buffer" : 0,
      "byteOffset" : 13776,
      "byteLength" : 10800
    },
    {
      "buffer" : 0,
      "byteOffset" : 24576,
      "byteLength" : 14400
    },
    {
      "buffer" : 0,
      "byteOffset" : 38976,
      "byteLength" : 7200
    },
    {
      "buffer" : 0,
      "byteOffset" : 46176,
      "byteLength" : 7200
    }
  ],
  "accessors" : [
    {
      "bufferView" : 0,
      "componentType" : 5123,
      "count" : 1488,
      "type" : "SCALAR"
    },
    {
      "bufferView" : 1,
      "min" : [ -4, -2, -2.5 ],
      "max" : [ 4, 2, 2.5 ],
      "componentType" : 5126,
      "count" : 900,
      "type" : "VEC3"
    },
    {
      "bufferView" : 2,
      "componentType" : 5126,
      "count" : 900,
      "type" : "VEC3"
    },
    {
      "bufferView" : 3,
      "componentType" : 5126,
      "count" : 900,
      "type" : "VEC4"
    },
    {
      "bufferView" : 4,
      "componentType" : 5126,
      "count" : 900,
      "type" : "VEC2"
    },
    {
      "bufferView" : 5,
      "componentType" : 5126,
      "count" : 900,
      "type" : "VEC2"
    }
  ]
}
