{
  "asset" : {
    "generator" : "UE Viewer (umodel) build 1590",
    "version" : "2.0"
  },
  "scene" : 0,
  "scenes" : [
    {
      "nodes" : [ 0 ]
    }
  ],
  "nodes" : [
    {
      "name" : "Co_BPI_Com_Stairs_C_8_3_1",
      "mesh" : 0
    }
  ],
  "materials" : [
    {
      "name" : "MmeMI_Mount_F_Terrain_Rock_01",
      "pbrMetallicRoughness" : {
        "baseColorFactor" : [ 0.3, 0.3, 0.3, 1.0 ],
        "metallicFactor" : 0.1,
        "roughnessFactor" : 0.5
      }
    }
  ],
  "meshes" : [
    {
      "primitives" : [
        {
          "attributes" : {
            "POSITION" : 1,
            "NORMAL" : 2,
            "TANGENT" : 3,
            "TEXCOORD_0" : 4,
            "TEXCOORD_1" : 5,
            "TEXCOORD_2" : 6
          },
          "indices" : 0,
          "material" : 0
        }
      ],
      "name" : "Co_BPI_Com_Stairs_C_8_3_1"
    }
  ],
  "buffers" : [
    {
      "uri" : "Co_BPI_Com_Stairs_C_8_3_1.bin",
      "byteLength" : 20040
    }
  ],
  "bufferViews" : [
    {
      "buffer" : 0,
      "byteOffset" : 0,
      "byteLength" : 1032
    },
    {
      "buffer" : 0,
      "byteOffset" : 1032,
      "byteLength" : 3564
    },
    {
      "buffer" : 0,
      "byteOffset" : 4596,
      "byteLength" : 3564
    },
    {
      "buffer" : 0,
      "byteOffset" : 8160,
      "byteLength" : 4752
    },
    {
      "buffer" : 0,
      "byteOffset" : 12912,
      "byteLength" : 2376
    },
    {
      "buffer" : 0,
      "byteOffset" : 15288,
      "byteLength" : 2376
    },
    {
      "buffer" : 0,
      "byteOffset" : 17664,
      "byteLength" : 2376
    }
  ],
  "accessors" : [
    {
      "bufferView" : 0,
      "componentType" : 5123,
      "count" : 516,
      "type" : "SCALAR"
    },
    {
      "bufferView" : 1,
      "min" : [ -1, -1, -1.5 ],
      "max" : [ 1, 1, 1.5 ],
      "componentType" : 5126,
      "count" : 297,
      "type" : "VEC3"
    },
    {
      "bufferView" : 2,
      "componentType" : 5126,
      "count" : 297,
      "type" : "VEC3"
    },
    {
      "bufferView" : 3,
      "componentType" : 5126,
      "count" : 297,
      "type" : "VEC4"
    },
    {
      "bufferView" : 4,
      "componentType" : 5126,
      "count" : 297,
      "type" : "VEC2"
    },
    {
      "bufferView" : 5,
      "componentType" : 5126,
      "count" : 297,
      "type" : "VEC2"
    },
    {
      "bufferView" : 6,
      "componentType" : 5126,
      "count" : 297,
      "type" : "VEC2"
    }
  ]
}
