{
  "asset" : {
    "generator" : "UE Viewer (umodel) build 1590",
    "version" : "2.0"
  },
  "scene" : 0,
  "scenes" : [
    {
      "nodes" : [ 0 ]
    }
  ],
  "nodes" : [
    {
      "name" : "Co_BPI_Com_Stairs_A_8_6_1",
      "mesh" : 0
    }
  ],
  "materials" : [
    {
      "name" : "MmeMI_Mount_F_Terrain_Rock_01",
      "pbrMetallicRoughness" : {
        "baseColorFactor" : [ 0.3, 0.3, 0.3, 1.0 ],
        "metallicFactor" : 0.1,
        "roughnessFactor" : 0.5
      }
    }
  ],
  "meshes" : [
    {
      "primitives" : [
        {
          "attributes" : {
            "POSITION" : 1,
            "NORMAL" : 2,
            "TANGENT" : 3,
            "TEXCOORD_0" : 4,
            "TEXCOORD_1" : 5,
            "TEXCOORD_2" : 6
          },
          "indices" : 0,
          "material" : 0
        }
      ],
      "name" : "Co_BPI_Com_Stairs_A_8_6_1"
    }
  ],
  "buffers" : [
    {
      "uri" : "Co_BPI_Com_Stairs_A_8_6_1.bin",
      "byteLength" : 22540
    }
  ],
  "bufferViews" : [
    {
      "buffer" : 0,
      "byteOffset" : 0,
      "byteLength" : 1100
    },
    {
      "buffer" : 0,
      "byteOffset" : 1100,
      "byteLength" : 4020
    },
    {
      "buffer" : 0,
      "byteOffset" : 5120,
      "byteLength" : 4020
    },
    {
      "buffer" : 0,
      "byteOffset" : 9140,
      "byteLength" : 5360
    },
    {
      "buffer" : 0,
      "byteOffset" : 14500,
      "byteLength" : 2680
    },
    {
      "buffer" : 0,
      "byteOffset" : 17180,
      "byteLength" : 2680
    },
    {
      "buffer" : 0,
      "byteOffset" : 19860,
      "byteLength" : 2680
    }
  ],
  "accessors" : [
    {
      "bufferView" : 0,
      "componentType" : 5123,
      "count" : 549,
      "type" : "SCALAR"
    },
    {
      "bufferView" : 1,
      "min" : [ -1.5, -0.375, -3 ],
      "max" : [ 1.5, 0.375, 3 ],
      "componentType" : 5126,
      "count" : 335,
      "type" : "VEC3"
    },
    {
      "bufferView" : 2,
      "componentType" : 5126,
      "count" : 335,
      "type" : "VEC3"
    },
    {
      "bufferView" : 3,
      "componentType" : 5126,
      "count" : 335,
      "type" : "VEC4"
    },
    {
      "bufferView" : 4,
      "componentType" : 5126,
      "count" : 335,
      "type" : "VEC2"
    },
    {
      "bufferView" : 5,
      "componentType" : 5126,
      "count" : 335,
      "type" : "VEC2"
    },
    {
      "bufferView" : 6,
      "componentType" : 5126,
      "count" : 335,
      "type" : "VEC2"
    }
  ]
}
