{
  "asset" : {
    "generator" : "UE Viewer (umodel) build 1590",
    "version" : "2.0"
  },
  "scene" : 0,
  "scenes" : [
    {
      "nodes" : [ 0 ]
    }
  ],
  "nodes" : [
    {
      "name" : "Co_BPI_Com_Stairs_A_8_5_1",
      "mesh" : 0
    }
  ],
  "materials" : [
    {
      "name" : "MmeMI_Mount_F_Terrain_Rock_01",
      "pbrMetallicRoughness" : {
        "baseColorFactor" : [ 0.3, 0.3, 0.3, 1.0 ],
        "metallicFactor" : 0.1,
        "roughnessFactor" : 0.5
      }
    }
  ],
  "meshes" : [
    {
      "primitives" : [
        {
          "attributes" : {
            "POSITION" : 1,
            "NORMAL" : 2,
            "TANGENT" : 3,
            "TEXCOORD_0" : 4,
            "TEXCOORD_1" : 5,
            "TEXCOORD_2" : 6
          },
          "indices" : 0,
          "material" : 0
        }
      ],
      "name" : "Co_BPI_Com_Stairs_A_8_5_1"
    }
  ],
  "buffers" : [
    {
      "uri" : "Co_BPI_Com_Stairs_A_8_5_1.bin",
      "byteLength" : 26736
    }
  ],
  "bufferViews" : [
    {
      "buffer" : 0,
      "byteOffset" : 0,
      "byteLength" : 1328
    },
    {
      "buffer" : 0,
      "byteOffset" : 1328,
      "byteLength" : 4764
    },
    {
      "buffer" : 0,
      "byteOffset" : 6092,
      "byteLength" : 4764
    },
    {
      "buffer" : 0,
      "byteOffset" : 10856,
      "byteLength" : 6352
    },
    {
      "buffer" : 0,
      "byteOffset" : 17208,
      "byteLength" : 3176
    },
    {
      "buffer" : 0,
      "byteOffset" : 20384,
      "byteLength" : 3176
    },
    {
      "buffer" : 0,
      "byteOffset" : 23560,
      "byteLength" : 3176
    }
  ],
  "accessors" : [
    {
      "bufferView" : 0,
      "componentType" : 5123,
      "count" : 663,
      "type" : "SCALAR"
    },
    {
      "bufferView" : 1,
      "min" : [ -2, -0.5, -2.5 ],
      "max" : [ 2, 0.5, 2.5 ],
      "componentType" : 5126,
      "count" : 397,
      "type" : "VEC3"
    },
    {
      "bufferView" : 2,
      "componentType" : 5126,
      "count" : 397,
      "type" : "VEC3"
    },
    {
      "bufferView" : 3,
      "componentType" : 5126,
      "count" : 397,
      "type" : "VEC4"
    },
    {
      "bufferView" : 4,
      "componentType" : 5126,
      "count" : 397,
      "type" : "VEC2"
    },
    {
      "bufferView" : 5,
      "componentType" : 5126,
      "count" : 397,
      "type" : "VEC2"
    },
    {
      "bufferView" : 6,
      "componentType" : 5126,
      "count" : 397,
      "type" : "VEC2"
    }
  ]
}
