{
  "asset" : {
    "generator" : "UE Viewer (umodel) build 1590",
    "version" : "2.0"
  },
  "scene" : 0,
  "scenes" : [
    {
      "nodes" : [ 0 ]
    }
  ],
  "nodes" : [
    {
      "name" : "Co_BPI_WoodStairs_B_8_3_1",
      "mesh" : 0
    }
  ],
  "materials" : [
    {
      "name" : "ObpMI_Deck_A",
      "pbrMetallicRoughness" : {
        "baseColorFactor" : [ 0.3, 0.3, 0.3, 1.0 ],
        "metallicFactor" : 0.1,
        "roughnessFactor" : 0.5
      }
    }
  ],
  "meshes" : [
    {
      "primitives" : [
        {
          "attributes" : {
            "POSITION" : 1,
            "NORMAL" : 2,
            "TANGENT" : 3,
            "TEXCOORD_0" : 4,
            "TEXCOORD_1" : 5,
            "TEXCOORD_2" : 6
          },
          "indices" : 0,
          "material" : 0
        }
      ],
      "name" : "Co_BPI_WoodStairs_B_8_3_1"
    }
  ],
  "buffers" : [
    {
      "uri" : "Co_BPI_WoodStairs_B_8_3_1.bin",
      "byteLength" : 42416
    }
  ],
  "bufferViews" : [
    {
      "buffer" : 0,
      "byteOffset" : 0,
      "byteLength" : 1968
    },
    {
      "buffer" : 0,
      "byteOffset" : 1968,
      "byteLength" : 7584
    },
    {
      "buffer" : 0,
      "byteOffset" : 9552,
      "byteLength" : 7584
    },
    {
      "buffer" : 0,
      "byteOffset" : 17136,
      "byteLength" : 10112
    },
    {
      "buffer" : 0,
      "byteOffset" : 27248,
      "byteLength" : 5056
    },
    {
      "buffer" : 0,
      "byteOffset" : 32304,
      "byteLength" : 5056
    },
    {
      "buffer" : 0,
      "byteOffset" : 37360,
      "byteLength" : 5056
    }
  ],
  "accessors" : [
    {
      "bufferView" : 0,
      "componentType" : 5123,
      "count" : 984,
      "type" : "SCALAR"
    },
    {
      "bufferView" : 1,
      "min" : [ -2.25, -1.25, -1.37501 ],
      "max" : [ 2.25, 1.25, 1.37501 ],
      "componentType" : 5126,
      "count" : 632,
      "type" : "VEC3"
    },
    {
      "bufferView" : 2,
      "componentType" : 5126,
      "count" : 632,
      "type" : "VEC3"
    },
    {
      "bufferView" : 3,
      "componentType" : 5126,
      "count" : 632,
      "type" : "VEC4"
    },
    {
      "bufferView" : 4,
      "componentType" : 5126,
      "count" : 632,
      "type" : "VEC2"
    },
    {
      "bufferView" : 5,
      "componentType" : 5126,
      "count" : 632,
      "type" : "VEC2"
    },
    {
      "bufferView" : 6,
      "componentType" : 5126,
      "count" : 632,
      "type" : "VEC2"
    }
  ]
}
