{
  "asset" : {
    "generator" : "UE Viewer (umodel) build 1590",
    "version" : "2.0"
  },
  "scene" : 0,
  "scenes" : [
    {
      "nodes" : [ 0 ]
    }
  ],
  "nodes" : [
    {
      "name" : "Co_BPI_Com_Stairs_B_12_8_1",
      "mesh" : 0
    }
  ],
  "materials" : [
    {
      "name" : "MmeMI_Mount_F_Terrain_Rock_01",
      "pbrMetallicRoughness" : {
        "baseColorFactor" : [ 0.3, 0.3, 0.3, 1.0 ],
        "metallicFactor" : 0.1,
        "roughnessFactor" : 0.5
      }
    }
  ],
  "meshes" : [
    {
      "primitives" : [
        {
          "attributes" : {
            "POSITION" : 1,
            "NORMAL" : 2,
            "TANGENT" : 3,
            "TEXCOORD_0" : 4,
            "TEXCOORD_1" : 5
          },
          "indices" : 0,
          "material" : 0
        }
      ],
      "name" : "Co_BPI_Com_Stairs_B_12_8_1"
    }
  ],
  "buffers" : [
    {
      "uri" : "Co_BPI_Com_Stairs_B_12_8_1.bin",
      "byteLength" : 54920
    }
  ],
  "bufferViews" : [
    {
      "buffer" : 0,
      "byteOffset" : 0,
      "byteLength" : 2952
    },
    {
      "buffer" : 0,
      "byteOffset" : 2952,
      "byteLength" : 11136
    },
    {
      "buffer" : 0,
      "byteOffset" : 14088,
      "byteLength" : 11136
    },
    {
      "buffer" : 0,
      "byteOffset" : 25224,
      "byteLength" : 14848
    },
    {
      "buffer" : 0,
      "byteOffset" : 40072,
      "byteLength" : 7424
    },
    {
      "buffer" : 0,
      "byteOffset" : 47496,
      "byteLength" : 7424
    }
  ],
  "accessors" : [
    {
      "bufferView" : 0,
      "componentType" : 5123,
      "count" : 1476,
      "type" : "SCALAR"
    },
    {
      "bufferView" : 1,
      "min" : [ -3, -1.5, -4 ],
      "max" : [ 3, 1.5, 4 ],
      "componentType" : 5126,
      "count" : 928,
      "type" : "VEC3"
    },
    {
      "bufferView" : 2,
      "componentType" : 5126,
      "count" : 928,
      "type" : "VEC3"
    },
    {
      "bufferView" : 3,
      "componentType" : 5126,
      "count" : 928,
      "type" : "VEC4"
    },
    {
      "bufferView" : 4,
      "componentType" : 5126,
      "count" : 928,
      "type" : "VEC2"
    },
    {
      "bufferView" : 5,
      "componentType" : 5126,
      "count" : 928,
      "type" : "VEC2"
    }
  ]
}
