{
  "asset" : {
    "generator" : "UE Viewer (umodel) build 1590",
    "version" : "2.0"
  },
  "scene" : 0,
  "scenes" : [
    {
      "nodes" : [ 0 ]
    }
  ],
  "nodes" : [
    {
      "name" : "Co_BPI_Com_Stairs_C_14_4_1",
      "mesh" : 0
    }
  ],
  "materials" : [
    {
      "name" : "MmeMI_Mount_F_Terrain_Rock_01",
      "pbrMetallicRoughness" : {
        "baseColorFactor" : [ 0.3, 0.3, 0.3, 1.0 ],
        "metallicFactor" : 0.1,
        "roughnessFactor" : 0.5
      }
    }
  ],
  "meshes" : [
    {
      "primitives" : [
        {
          "attributes" : {
            "POSITION" : 1,
            "NORMAL" : 2,
            "TANGENT" : 3,
            "TEXCOORD_0" : 4,
            "TEXCOORD_1" : 5,
            "TEXCOORD_2" : 6,
            "TEXCOORD_3" : 7
          },
          "indices" : 0,
          "material" : 0
        }
      ],
      "name" : "Co_BPI_Com_Stairs_C_14_4_1"
    }
  ],
  "buffers" : [
    {
      "uri" : "Co_BPI_Com_Stairs_C_14_4_1.bin",
      "byteLength" : 55316
    }
  ],
  "bufferViews" : [
    {
      "buffer" : 0,
      "byteOffset" : 0,
      "byteLength" : 2396
    },
    {
      "buffer" : 0,
      "byteOffset" : 2396,
      "byteLength" : 8820
    },
    {
      "buffer" : 0,
      "byteOffset" : 11216,
      "byteLength" : 8820
    },
    {
      "buffer" : 0,
      "byteOffset" : 20036,
      "byteLength" : 11760
    },
    {
      "buffer" : 0,
      "byteOffset" : 31796,
      "byteLength" : 5880
    },
    {
      "buffer" : 0,
      "byteOffset" : 37676,
      "byteLength" : 5880
    },
    {
      "buffer" : 0,
      "byteOffset" : 43556,
      "byteLength" : 5880
    },
    {
      "buffer" : 0,
      "byteOffset" : 49436,
      "byteLength" : 5880
    }
  ],
  "accessors" : [
    {
      "bufferView" : 0,
      "componentType" : 5123,
      "count" : 1197,
      "type" : "SCALAR"
    },
    {
      "bufferView" : 1,
      "min" : [ -2.25, -1.75, -2 ],
      "max" : [ 1.25, 1.75, 2 ],
      "componentType" : 5126,
      "count" : 735,
      "type" : "VEC3"
    },
    {
      "bufferView" : 2,
      "componentType" : 5126,
      "count" : 735,
      "type" : "VEC3"
    },
    {
      "bufferView" : 3,
      "componentType" : 5126,
      "count" : 735,
      "type" : "VEC4"
    },
    {
      "bufferView" : 4,
      "componentType" : 5126,
      "count" : 735,
      "type" : "VEC2"
    },
    {
      "bufferView" : 5,
      "componentType" : 5126,
      "count" : 735,
      "type" : "VEC2"
    },
    {
      "bufferView" : 6,
      "componentType" : 5126,
      "count" : 735,
      "type" : "VEC2"
    },
    {
      "bufferView" : 7,
      "componentType" : 5126,
      "count" : 735,
      "type" : "VEC2"
    }
  ]
}
