{
  "asset" : {
    "generator" : "UE Viewer (umodel) build 1590",
    "version" : "2.0"
  },
  "scene" : 0,
  "scenes" : [
    {
      "nodes" : [ 0 ]
    }
  ],
  "nodes" : [
    {
      "name" : "Co_BPI_WoodStairs_B_12_2_1",
      "mesh" : 0
    }
  ],
  "materials" : [
    {
      "name" : "ObpMI_Deck_A",
      "pbrMetallicRoughness" : {
        "baseColorFactor" : [ 0.3, 0.3, 0.3, 1.0 ],
        "metallicFactor" : 0.1,
        "roughnessFactor" : 0.5
      }
    }
  ],
  "meshes" : [
    {
      "primitives" : [
        {
          "attributes" : {
            "POSITION" : 1,
            "NORMAL" : 2,
            "TANGENT" : 3,
            "TEXCOORD_0" : 4,
            "TEXCOORD_1" : 5,
            "TEXCOORD_2" : 6
          },
          "indices" : 0,
          "material" : 0
        }
      ],
      "name" : "Co_BPI_WoodStairs_B_12_2_1"
    }
  ],
  "buffers" : [
    {
      "uri" : "Co_BPI_WoodStairs_B_12_2_1.bin",
      "byteLength" : 48848
    }
  ],
  "bufferViews" : [
    {
      "buffer" : 0,
      "byteOffset" : 0,
      "byteLength" : 2256
    },
    {
      "buffer" : 0,
      "byteOffset" : 2256,
      "byteLength" : 8736
    },
    {
      "buffer" : 0,
      "byteOffset" : 10992,
      "byteLength" : 8736
    },
    {
      "buffer" : 0,
      "byteOffset" : 19728,
      "byteLength" : 11648
    },
    {
      "buffer" : 0,
      "byteOffset" : 31376,
      "byteLength" : 5824
    },
    {
      "buffer" : 0,
      "byteOffset" : 37200,
      "byteLength" : 5824
    },
    {
      "buffer" : 0,
      "byteOffset" : 43024,
      "byteLength" : 5824
    }
  ],
  "accessors" : [
    {
      "bufferView" : 0,
      "componentType" : 5123,
      "count" : 1128,
      "type" : "SCALAR"
    },
    {
      "bufferView" : 1,
      "min" : [ -3.25, -1.75, -0.87501 ],
      "max" : [ 3.25, 1.75, 0.875009 ],
      "componentType" : 5126,
      "count" : 728,
      "type" : "VEC3"
    },
    {
      "bufferView" : 2,
      "componentType" : 5126,
      "count" : 728,
      "type" : "VEC3"
    },
    {
      "bufferView" : 3,
      "componentType" : 5126,
      "count" : 728,
      "type" : "VEC4"
    },
    {
      "bufferView" : 4,
      "componentType" : 5126,
      "count" : 728,
      "type" : "VEC2"
    },
    {
      "bufferView" : 5,
      "componentType" : 5126,
      "count" : 728,
      "type" : "VEC2"
    },
    {
      "bufferView" : 6,
      "componentType" : 5126,
      "count" : 728,
      "type" : "VEC2"
    }
  ]
}
