{
  "asset" : {
    "generator" : "UE Viewer (umodel) build 1590",
    "version" : "2.0"
  },
  "scene" : 0,
  "scenes" : [
    {
      "nodes" : [ 0 ]
    }
  ],
  "nodes" : [
    {
      "name" : "Co_BPI_Com_Stairs_B_24_5_1",
      "mesh" : 0
    }
  ],
  "materials" : [
    {
      "name" : "MmeMI_Mount_F_Terrain_Rock_01",
      "pbrMetallicRoughness" : {
        "baseColorFactor" : [ 0.3, 0.3, 0.3, 1.0 ],
        "metallicFactor" : 0.1,
        "roughnessFactor" : 0.5
      }
    }
  ],
  "meshes" : [
    {
      "primitives" : [
        {
          "attributes" : {
            "POSITION" : 1,
            "NORMAL" : 2,
            "TANGENT" : 3,
            "TEXCOORD_0" : 4,
            "TEXCOORD_1" : 5,
            "TEXCOORD_2" : 6
          },
          "indices" : 0,
          "material" : 0
        }
      ],
      "name" : "Co_BPI_Com_Stairs_B_24_5_1"
    }
  ],
  "buffers" : [
    {
      "uri" : "Co_BPI_Com_Stairs_B_24_5_1.bin",
      "byteLength" : 105392
    }
  ],
  "bufferViews" : [
    {
      "buffer" : 0,
      "byteOffset" : 0,
      "byteLength" : 5040
    },
    {
      "buffer" : 0,
      "byteOffset" : 5040,
      "byteLength" : 18816
    },
    {
      "buffer" : 0,
      "byteOffset" : 23856,
      "byteLength" : 18816
    },
    {
      "buffer" : 0,
      "byteOffset" : 42672,
      "byteLength" : 25088
    },
    {
      "buffer" : 0,
      "byteOffset" : 67760,
      "byteLength" : 12544
    },
    {
      "buffer" : 0,
      "byteOffset" : 80304,
      "byteLength" : 12544
    },
    {
      "buffer" : 0,
      "byteOffset" : 92848,
      "byteLength" : 12544
    }
  ],
  "accessors" : [
    {
      "bufferView" : 0,
      "componentType" : 5123,
      "count" : 2520,
      "type" : "SCALAR"
    },
    {
      "bufferView" : 1,
      "min" : [ -6, -3, -2.5 ],
      "max" : [ 6, 3, 2.5 ],
      "componentType" : 5126,
      "count" : 1568,
      "type" : "VEC3"
    },
    {
      "bufferView" : 2,
      "componentType" : 5126,
      "count" : 1568,
      "type" : "VEC3"
    },
    {
      "bufferView" : 3,
      "componentType" : 5126,
      "count" : 1568,
      "type" : "VEC4"
    },
    {
      "bufferView" : 4,
      "componentType" : 5126,
      "count" : 1568,
      "type" : "VEC2"
    },
    {
      "bufferView" : 5,
      "componentType" : 5126,
      "count" : 1568,
      "type" : "VEC2"
    },
    {
      "bufferView" : 6,
      "componentType" : 5126,
      "count" : 1568,
      "type" : "VEC2"
    }
  ]
}
