{
  "asset" : {
    "generator" : "UE Viewer (umodel) build 1590",
    "version" : "2.0"
  },
  "scene" : 0,
  "scenes" : [
    {
      "nodes" : [ 0 ]
    }
  ],
  "nodes" : [
    {
      "name" : "Co_BPI_Com_Stairs_B_10_4_1",
      "mesh" : 0
    }
  ],
  "materials" : [
    {
      "name" : "MmeMI_Mount_F_Terrain_Rock_01",
      "pbrMetallicRoughness" : {
        "baseColorFactor" : [ 0.3, 0.3, 0.3, 1.0 ],
        "metallicFactor" : 0.1,
        "roughnessFactor" : 0.5
      }
    }
  ],
  "meshes" : [
    {
      "primitives" : [
        {
          "attributes" : {
            "POSITION" : 1,
            "NORMAL" : 2,
            "TANGENT" : 3,
            "TEXCOORD_0" : 4,
            "TEXCOORD_1" : 5,
            "TEXCOORD_2" : 6
          },
          "indices" : 0,
          "material" : 0
        }
      ],
      "name" : "Co_BPI_Com_Stairs_B_10_4_1"
    }
  ],
  "buffers" : [
    {
      "uri" : "Co_BPI_Com_Stairs_B_10_4_1.bin",
      "byteLength" : 29344
    }
  ],
  "bufferViews" : [
    {
      "buffer" : 0,
      "byteOffset" : 0,
      "byteLength" : 1440
    },
    {
      "buffer" : 0,
      "byteOffset" : 1440,
      "byteLength" : 5232
    },
    {
      "buffer" : 0,
      "byteOffset" : 6672,
      "byteLength" : 5232
    },
    {
      "buffer" : 0,
      "byteOffset" : 11904,
      "byteLength" : 6976
    },
    {
      "buffer" : 0,
      "byteOffset" : 18880,
      "byteLength" : 3488
    },
    {
      "buffer" : 0,
      "byteOffset" : 22368,
      "byteLength" : 3488
    },
    {
      "buffer" : 0,
      "byteOffset" : 25856,
      "byteLength" : 3488
    }
  ],
  "accessors" : [
    {
      "bufferView" : 0,
      "componentType" : 5123,
      "count" : 720,
      "type" : "SCALAR"
    },
    {
      "bufferView" : 1,
      "min" : [ -2.5, -1.25, -2 ],
      "max" : [ 2.5, 1.25, 2 ],
      "componentType" : 5126,
      "count" : 436,
      "type" : "VEC3"
    },
    {
      "bufferView" : 2,
      "componentType" : 5126,
      "count" : 436,
      "type" : "VEC3"
    },
    {
      "bufferView" : 3,
      "componentType" : 5126,
      "count" : 436,
      "type" : "VEC4"
    },
    {
      "bufferView" : 4,
      "componentType" : 5126,
      "count" : 436,
      "type" : "VEC2"
    },
    {
      "bufferView" : 5,
      "componentType" : 5126,
      "count" : 436,
      "type" : "VEC2"
    },
    {
      "bufferView" : 6,
      "componentType" : 5126,
      "count" : 436,
      "type" : "VEC2"
    }
  ]
}
