{
  "asset" : {
    "generator" : "UE Viewer (umodel) build 1590",
    "version" : "2.0"
  },
  "scene" : 0,
  "scenes" : [
    {
      "nodes" : [ 0 ]
    }
  ],
  "nodes" : [
    {
      "name" : "Co_BPI_Com_Stairs_A_16_16_1",
      "mesh" : 0
    }
  ],
  "materials" : [
    {
      "name" : "MmeMI_Mount_F_Terrain_Rock_01",
      "pbrMetallicRoughness" : {
        "baseColorFactor" : [ 0.3, 0.3, 0.3, 1.0 ],
        "metallicFactor" : 0.1,
        "roughnessFactor" : 0.5
      }
    }
  ],
  "meshes" : [
    {
      "primitives" : [
        {
          "attributes" : {
            "POSITION" : 1,
            "NORMAL" : 2,
            "TANGENT" : 3,
            "TEXCOORD_0" : 4,
            "TEXCOORD_1" : 5,
            "TEXCOORD_2" : 6
          },
          "indices" : 0,
          "material" : 0
        }
      ],
      "name" : "Co_BPI_Com_Stairs_A_16_16_1"
    }
  ],
  "buffers" : [
    {
      "uri" : "Co_BPI_Com_Stairs_A_16_16_1.bin",
      "byteLength" : 154972
    }
  ],
  "bufferViews" : [
    {
      "buffer" : 0,
      "byteOffset" : 0,
      "byteLength" : 7260
    },
    {
      "buffer" : 0,
      "byteOffset" : 7260,
      "byteLength" : 27696
    },
    {
      "buffer" : 0,
      "byteOffset" : 34956,
      "byteLength" : 27696
    },
    {
      "buffer" : 0,
      "byteOffset" : 62652,
      "byteLength" : 36928
    },
    {
      "buffer" : 0,
      "byteOffset" : 99580,
      "byteLength" : 18464
    },
    {
      "buffer" : 0,
      "byteOffset" : 118044,
      "byteLength" : 18464
    },
    {
      "buffer" : 0,
      "byteOffset" : 136508,
      "byteLength" : 18464
    }
  ],
  "accessors" : [
    {
      "bufferView" : 0,
      "componentType" : 5123,
      "count" : 3630,
      "type" : "SCALAR"
    },
    {
      "bufferView" : 1,
      "min" : [ -4, -1, -8 ],
      "max" : [ 4, 1, 8 ],
      "componentType" : 5126,
      "count" : 2308,
      "type" : "VEC3"
    },
    {
      "bufferView" : 2,
      "componentType" : 5126,
      "count" : 2308,
      "type" : "VEC3"
    },
    {
      "bufferView" : 3,
      "componentType" : 5126,
      "count" : 2308,
      "type" : "VEC4"
    },
    {
      "bufferView" : 4,
      "componentType" : 5126,
      "count" : 2308,
      "type" : "VEC2"
    },
    {
      "bufferView" : 5,
      "componentType" : 5126,
      "count" : 2308,
      "type" : "VEC2"
    },
    {
      "bufferView" : 6,
      "componentType" : 5126,
      "count" : 2308,
      "type" : "VEC2"
    }
  ]
}
