{
  "asset" : {
    "generator" : "UE Viewer (umodel) build 1590",
    "version" : "2.0"
  },
  "scene" : 0,
  "scenes" : [
    {
      "nodes" : [ 0 ]
    }
  ],
  "nodes" : [
    {
      "name" : "Co_BPI_Com_Stairs_A_30_5_1",
      "mesh" : 0
    }
  ],
  "materials" : [
    {
      "name" : "MmeMI_Mount_F_Terrain_Rock_01",
      "pbrMetallicRoughness" : {
        "baseColorFactor" : [ 0.3, 0.3, 0.3, 1.0 ],
        "metallicFactor" : 0.1,
        "roughnessFactor" : 0.5
      }
    }
  ],
  "meshes" : [
    {
      "primitives" : [
        {
          "attributes" : {
            "POSITION" : 1,
            "NORMAL" : 2,
            "TANGENT" : 3,
            "TEXCOORD_0" : 4,
            "TEXCOORD_1" : 5,
            "TEXCOORD_2" : 6
          },
          "indices" : 0,
          "material" : 0
        }
      ],
      "name" : "Co_BPI_Com_Stairs_A_30_5_1"
    }
  ],
  "buffers" : [
    {
      "uri" : "Co_BPI_Com_Stairs_A_30_5_1.bin",
      "byteLength" : 146612
    }
  ],
  "bufferViews" : [
    {
      "buffer" : 0,
      "byteOffset" : 0,
      "byteLength" : 7028
    },
    {
      "buffer" : 0,
      "byteOffset" : 7028,
      "byteLength" : 26172
    },
    {
      "buffer" : 0,
      "byteOffset" : 33200,
      "byteLength" : 26172
    },
    {
      "buffer" : 0,
      "byteOffset" : 59372,
      "byteLength" : 34896
    },
    {
      "buffer" : 0,
      "byteOffset" : 94268,
      "byteLength" : 17448
    },
    {
      "buffer" : 0,
      "byteOffset" : 111716,
      "byteLength" : 17448
    },
    {
      "buffer" : 0,
      "byteOffset" : 129164,
      "byteLength" : 17448
    }
  ],
  "accessors" : [
    {
      "bufferView" : 0,
      "componentType" : 5123,
      "count" : 3513,
      "type" : "SCALAR"
    },
    {
      "bufferView" : 1,
      "min" : [ -7.5, -1.875, -2.5 ],
      "max" : [ 7.5, 1.875, 2.5 ],
      "componentType" : 5126,
      "count" : 2181,
      "type" : "VEC3"
    },
    {
      "bufferView" : 2,
      "componentType" : 5126,
      "count" : 2181,
      "type" : "VEC3"
    },
    {
      "bufferView" : 3,
      "componentType" : 5126,
      "count" : 2181,
      "type" : "VEC4"
    },
    {
      "bufferView" : 4,
      "componentType" : 5126,
      "count" : 2181,
      "type" : "VEC2"
    },
    {
      "bufferView" : 5,
      "componentType" : 5126,
      "count" : 2181,
      "type" : "VEC2"
    },
    {
      "bufferView" : 6,
      "componentType" : 5126,
      "count" : 2181,
      "type" : "VEC2"
    }
  ]
}
