{
  "asset" : {
    "generator" : "UE Viewer (umodel) build 1590",
    "version" : "2.0"
  },
  "scene" : 0,
  "scenes" : [
    {
      "nodes" : [ 0 ]
    }
  ],
  "nodes" : [
    {
      "name" : "Co_BPI_WoodStairs_B_12_4_1",
      "mesh" : 0
    }
  ],
  "materials" : [
    {
      "name" : "ObpMI_Deck_A",
      "pbrMetallicRoughness" : {
        "baseColorFactor" : [ 0.3, 0.3, 0.3, 1.0 ],
        "metallicFactor" : 0.1,
        "roughnessFactor" : 0.5
      }
    }
  ],
  "meshes" : [
    {
      "primitives" : [
        {
          "attributes" : {
            "POSITION" : 1,
            "NORMAL" : 2,
            "TANGENT" : 3,
            "TEXCOORD_0" : 4,
            "TEXCOORD_1" : 5,
            "TEXCOORD_2" : 6
          },
          "indices" : 0,
          "material" : 0
        }
      ],
      "name" : "Co_BPI_WoodStairs_B_12_4_1"
    }
  ],
  "buffers" : [
    {
      "uri" : "Co_BPI_WoodStairs_B_12_4_1.bin",
      "byteLength" : 74576
    }
  ],
  "bufferViews" : [
    {
      "buffer" : 0,
      "byteOffset" : 0,
      "byteLength" : 3408
    },
    {
      "buffer" : 0,
      "byteOffset" : 3408,
      "byteLength" : 13344
    },
    {
      "buffer" : 0,
      "byteOffset" : 16752,
      "byteLength" : 13344
    },
    {
      "buffer" : 0,
      "byteOffset" : 30096,
      "byteLength" : 17792
    },
    {
      "buffer" : 0,
      "byteOffset" : 47888,
      "byteLength" : 8896
    },
    {
      "buffer" : 0,
      "byteOffset" : 56784,
      "byteLength" : 8896
    },
    {
      "buffer" : 0,
      "byteOffset" : 65680,
      "byteLength" : 8896
    }
  ],
  "accessors" : [
    {
      "bufferView" : 0,
      "componentType" : 5123,
      "count" : 1704,
      "type" : "SCALAR"
    },
    {
      "bufferView" : 1,
      "min" : [ -3.25001, -1.75, -1.87501 ],
      "max" : [ 3.25001, 1.75, 1.87501 ],
      "componentType" : 5126,
      "count" : 1112,
      "type" : "VEC3"
    },
    {
      "bufferView" : 2,
      "componentType" : 5126,
      "count" : 1112,
      "type" : "VEC3"
    },
    {
      "bufferView" : 3,
      "componentType" : 5126,
      "count" : 1112,
      "type" : "VEC4"
    },
    {
      "bufferView" : 4,
      "componentType" : 5126,
      "count" : 1112,
      "type" : "VEC2"
    },
    {
      "bufferView" : 5,
      "componentType" : 5126,
      "count" : 1112,
      "type" : "VEC2"
    },
    {
      "bufferView" : 6,
      "componentType" : 5126,
      "count" : 1112,
      "type" : "VEC2"
    }
  ]
}
