{
  "asset" : {
    "generator" : "UE Viewer (umodel) build 1590",
    "version" : "2.0"
  },
  "scene" : 0,
  "scenes" : [
    {
      "nodes" : [ 0 ]
    }
  ],
  "nodes" : [
    {
      "name" : "Co_BPI_Com_Stairs_B_10_8_1",
      "mesh" : 0
    }
  ],
  "materials" : [
    {
      "name" : "MmeMI_Mount_F_Terrain_Rock_01",
      "pbrMetallicRoughness" : {
        "baseColorFactor" : [ 0.3, 0.3, 0.3, 1.0 ],
        "metallicFactor" : 0.1,
        "roughnessFactor" : 0.5
      }
    }
  ],
  "meshes" : [
    {
      "primitives" : [
        {
          "attributes" : {
            "POSITION" : 1,
            "NORMAL" : 2,
            "TANGENT" : 3,
            "TEXCOORD_0" : 4,
            "TEXCOORD_1" : 5,
            "TEXCOORD_2" : 6
          },
          "indices" : 0,
          "material" : 0
        }
      ],
      "name" : "Co_BPI_Com_Stairs_B_10_8_1"
    }
  ],
  "buffers" : [
    {
      "uri" : "Co_BPI_Com_Stairs_B_10_8_1.bin",
      "byteLength" : 50272
    }
  ],
  "bufferViews" : [
    {
      "buffer" : 0,
      "byteOffset" : 0,
      "byteLength" : 2400
    },
    {
      "buffer" : 0,
      "byteOffset" : 2400,
      "byteLength" : 8976
    },
    {
      "buffer" : 0,
      "byteOffset" : 11376,
      "byteLength" : 8976
    },
    {
      "buffer" : 0,
      "byteOffset" : 20352,
      "byteLength" : 11968
    },
    {
      "buffer" : 0,
      "byteOffset" : 32320,
      "byteLength" : 5984
    },
    {
      "buffer" : 0,
      "byteOffset" : 38304,
      "byteLength" : 5984
    },
    {
      "buffer" : 0,
      "byteOffset" : 44288,
      "byteLength" : 5984
    }
  ],
  "accessors" : [
    {
      "bufferView" : 0,
      "componentType" : 5123,
      "count" : 1200,
      "type" : "SCALAR"
    },
    {
      "bufferView" : 1,
      "min" : [ -2.5, -1.25, -4 ],
      "max" : [ 2.5, 1.25, 4 ],
      "componentType" : 5126,
      "count" : 748,
      "type" : "VEC3"
    },
    {
      "bufferView" : 2,
      "componentType" : 5126,
      "count" : 748,
      "type" : "VEC3"
    },
    {
      "bufferView" : 3,
      "componentType" : 5126,
      "count" : 748,
      "type" : "VEC4"
    },
    {
      "bufferView" : 4,
      "componentType" : 5126,
      "count" : 748,
      "type" : "VEC2"
    },
    {
      "bufferView" : 5,
      "componentType" : 5126,
      "count" : 748,
      "type" : "VEC2"
    },
    {
      "bufferView" : 6,
      "componentType" : 5126,
      "count" : 748,
      "type" : "VEC2"
    }
  ]
}
