{
  "asset" : {
    "generator" : "UE Viewer (umodel) build 1590",
    "version" : "2.0"
  },
  "scene" : 0,
  "scenes" : [
    {
      "nodes" : [ 0 ]
    }
  ],
  "nodes" : [
    {
      "name" : "Co_BPI_Com_D_Stairs_B_16_3_1",
      "mesh" : 0
    }
  ],
  "materials" : [
    {
      "name" : "MmeMI_D_Ruins_Desert",
      "pbrMetallicRoughness" : {
        "baseColorFactor" : [ 0.3, 0.3, 0.3, 1.0 ],
        "metallicFactor" : 0.1,
        "roughnessFactor" : 0.5
      }
    }
  ],
  "meshes" : [
    {
      "primitives" : [
        {
          "attributes" : {
            "POSITION" : 1,
            "NORMAL" : 2,
            "TANGENT" : 3,
            "TEXCOORD_0" : 4,
            "TEXCOORD_1" : 5,
            "TEXCOORD_2" : 6
          },
          "indices" : 0,
          "material" : 0
        }
      ],
      "name" : "Co_BPI_Com_D_Stairs_B_16_3_1"
    }
  ],
  "buffers" : [
    {
      "uri" : "Co_BPI_Com_D_Stairs_B_16_3_1.bin",
      "byteLength" : 105456
    }
  ],
  "bufferViews" : [
    {
      "buffer" : 0,
      "byteOffset" : 0,
      "byteLength" : 5232
    },
    {
      "buffer" : 0,
      "byteOffset" : 5232,
      "byteLength" : 18792
    },
    {
      "buffer" : 0,
      "byteOffset" : 24024,
      "byteLength" : 18792
    },
    {
      "buffer" : 0,
      "byteOffset" : 42816,
      "byteLength" : 25056
    },
    {
      "buffer" : 0,
      "byteOffset" : 67872,
      "byteLength" : 12528
    },
    {
      "buffer" : 0,
      "byteOffset" : 80400,
      "byteLength" : 12528
    },
    {
      "buffer" : 0,
      "byteOffset" : 92928,
      "byteLength" : 12528
    }
  ],
  "accessors" : [
    {
      "bufferView" : 0,
      "componentType" : 5123,
      "count" : 2616,
      "type" : "SCALAR"
    },
    {
      "bufferView" : 1,
      "min" : [ -4.03125, -2.03125, -1.625 ],
      "max" : [ 4.03125, 2.03125, 1.625 ],
      "componentType" : 5126,
      "count" : 1566,
      "type" : "VEC3"
    },
    {
      "bufferView" : 2,
      "componentType" : 5126,
      "count" : 1566,
      "type" : "VEC3"
    },
    {
      "bufferView" : 3,
      "componentType" : 5126,
      "count" : 1566,
      "type" : "VEC4"
    },
    {
      "bufferView" : 4,
      "componentType" : 5126,
      "count" : 1566,
      "type" : "VEC2"
    },
    {
      "bufferView" : 5,
      "componentType" : 5126,
      "count" : 1566,
      "type" : "VEC2"
    },
    {
      "bufferView" : 6,
      "componentType" : 5126,
      "count" : 1566,
      "type" : "VEC2"
    }
  ]
}
