{
  "asset" : {
    "generator" : "UE Viewer (umodel) build 1590",
    "version" : "2.0"
  },
  "scene" : 0,
  "scenes" : [
    {
      "nodes" : [ 0 ]
    }
  ],
  "nodes" : [
    {
      "name" : "Co_BPI_Com_D_Stairs_B_12_4_1",
      "mesh" : 0
    }
  ],
  "materials" : [
    {
      "name" : "MmeMI_D_Ruins_Desert",
      "pbrMetallicRoughness" : {
        "baseColorFactor" : [ 0.3, 0.3, 0.3, 1.0 ],
        "metallicFactor" : 0.1,
        "roughnessFactor" : 0.5
      }
    }
  ],
  "meshes" : [
    {
      "primitives" : [
        {
          "attributes" : {
            "POSITION" : 1,
            "NORMAL" : 2,
            "TANGENT" : 3,
            "TEXCOORD_0" : 4,
            "TEXCOORD_1" : 5,
            "TEXCOORD_2" : 6
          },
          "indices" : 0,
          "material" : 0
        }
      ],
      "name" : "Co_BPI_Com_D_Stairs_B_12_4_1"
    }
  ],
  "buffers" : [
    {
      "uri" : "Co_BPI_Com_D_Stairs_B_12_4_1.bin",
      "byteLength" : 75864
    }
  ],
  "bufferViews" : [
    {
      "buffer" : 0,
      "byteOffset" : 0,
      "byteLength" : 4056
    },
    {
      "buffer" : 0,
      "byteOffset" : 4056,
      "byteLength" : 13464
    },
    {
      "buffer" : 0,
      "byteOffset" : 17520,
      "byteLength" : 13464
    },
    {
      "buffer" : 0,
      "byteOffset" : 30984,
      "byteLength" : 17952
    },
    {
      "buffer" : 0,
      "byteOffset" : 48936,
      "byteLength" : 8976
    },
    {
      "buffer" : 0,
      "byteOffset" : 57912,
      "byteLength" : 8976
    },
    {
      "buffer" : 0,
      "byteOffset" : 66888,
      "byteLength" : 8976
    }
  ],
  "accessors" : [
    {
      "bufferView" : 0,
      "componentType" : 5123,
      "count" : 2028,
      "type" : "SCALAR"
    },
    {
      "bufferView" : 1,
      "min" : [ -3.03125, -1.53125, -2.125 ],
      "max" : [ 3.03125, 1.53125, 2.125 ],
      "componentType" : 5126,
      "count" : 1122,
      "type" : "VEC3"
    },
    {
      "bufferView" : 2,
      "componentType" : 5126,
      "count" : 1122,
      "type" : "VEC3"
    },
    {
      "bufferView" : 3,
      "componentType" : 5126,
      "count" : 1122,
      "type" : "VEC4"
    },
    {
      "bufferView" : 4,
      "componentType" : 5126,
      "count" : 1122,
      "type" : "VEC2"
    },
    {
      "bufferView" : 5,
      "componentType" : 5126,
      "count" : 1122,
      "type" : "VEC2"
    },
    {
      "bufferView" : 6,
      "componentType" : 5126,
      "count" : 1122,
      "type" : "VEC2"
    }
  ]
}
