{
  "asset" : {
    "generator" : "UE Viewer (umodel) build 1590",
    "version" : "2.0"
  },
  "scene" : 0,
  "scenes" : [
    {
      "nodes" : [ 0 ]
    }
  ],
  "nodes" : [
    {
      "name" : "Co_BPI_Com_D_Stairs_B_4_6_1",
      "mesh" : 0
    }
  ],
  "materials" : [
    {
      "name" : "MmeMI_D_Ruins_Desert",
      "pbrMetallicRoughness" : {
        "baseColorFactor" : [ 0.3, 0.3, 0.3, 1.0 ],
        "metallicFactor" : 0.1,
        "roughnessFactor" : 0.5
      }
    }
  ],
  "meshes" : [
    {
      "primitives" : [
        {
          "attributes" : {
            "POSITION" : 1,
            "NORMAL" : 2,
            "TANGENT" : 3,
            "TEXCOORD_0" : 4,
            "TEXCOORD_1" : 5,
            "TEXCOORD_2" : 6
          },
          "indices" : 0,
          "material" : 0
        }
      ],
      "name" : "Co_BPI_Com_D_Stairs_B_4_6_1"
    }
  ],
  "buffers" : [
    {
      "uri" : "Co_BPI_Com_D_Stairs_B_4_6_1.bin",
      "byteLength" : 28040
    }
  ],
  "bufferViews" : [
    {
      "buffer" : 0,
      "byteOffset" : 0,
      "byteLength" : 1416
    },
    {
      "buffer" : 0,
      "byteOffset" : 1416,
      "byteLength" : 4992
    },
    {
      "buffer" : 0,
      "byteOffset" : 6408,
      "byteLength" : 4992
    },
    {
      "buffer" : 0,
      "byteOffset" : 11400,
      "byteLength" : 6656
    },
    {
      "buffer" : 0,
      "byteOffset" : 18056,
      "byteLength" : 3328
    },
    {
      "buffer" : 0,
      "byteOffset" : 21384,
      "byteLength" : 3328
    },
    {
      "buffer" : 0,
      "byteOffset" : 24712,
      "byteLength" : 3328
    }
  ],
  "accessors" : [
    {
      "bufferView" : 0,
      "componentType" : 5123,
      "count" : 708,
      "type" : "SCALAR"
    },
    {
      "bufferView" : 1,
      "min" : [ -1.03125, -0.53125, -3.125 ],
      "max" : [ 1.03125, 0.53125, 3.125 ],
      "componentType" : 5126,
      "count" : 416,
      "type" : "VEC3"
    },
    {
      "bufferView" : 2,
      "componentType" : 5126,
      "count" : 416,
      "type" : "VEC3"
    },
    {
      "bufferView" : 3,
      "componentType" : 5126,
      "count" : 416,
      "type" : "VEC4"
    },
    {
      "bufferView" : 4,
      "componentType" : 5126,
      "count" : 416,
      "type" : "VEC2"
    },
    {
      "bufferView" : 5,
      "componentType" : 5126,
      "count" : 416,
      "type" : "VEC2"
    },
    {
      "bufferView" : 6,
      "componentType" : 5126,
      "count" : 416,
      "type" : "VEC2"
    }
  ]
}
