{
  "asset" : {
    "generator" : "UE Viewer (umodel) build 1590",
    "version" : "2.0"
  },
  "scene" : 0,
  "scenes" : [
    {
      "nodes" : [ 0 ]
    }
  ],
  "nodes" : [
    {
      "name" : "Co_BPI_Com_D_Stairs_B_8_6_1",
      "mesh" : 0
    }
  ],
  "materials" : [
    {
      "name" : "MmeMI_D_Ruins_Desert",
      "pbrMetallicRoughness" : {
        "baseColorFactor" : [ 0.3, 0.3, 0.3, 1.0 ],
        "metallicFactor" : 0.1,
        "roughnessFactor" : 0.5
      }
    }
  ],
  "meshes" : [
    {
      "primitives" : [
        {
          "attributes" : {
            "POSITION" : 1,
            "NORMAL" : 2,
            "TANGENT" : 3,
            "TEXCOORD_0" : 4,
            "TEXCOORD_1" : 5,
            "TEXCOORD_2" : 6
          },
          "indices" : 0,
          "material" : 0
        }
      ],
      "name" : "Co_BPI_Com_D_Stairs_B_8_6_1"
    }
  ],
  "buffers" : [
    {
      "uri" : "Co_BPI_Com_D_Stairs_B_8_6_1.bin",
      "byteLength" : 58656
    }
  ],
  "bufferViews" : [
    {
      "buffer" : 0,
      "byteOffset" : 0,
      "byteLength" : 2976
    },
    {
      "buffer" : 0,
      "byteOffset" : 2976,
      "byteLength" : 10440
    },
    {
      "buffer" : 0,
      "byteOffset" : 13416,
      "byteLength" : 10440
    },
    {
      "buffer" : 0,
      "byteOffset" : 23856,
      "byteLength" : 13920
    },
    {
      "buffer" : 0,
      "byteOffset" : 37776,
      "byteLength" : 6960
    },
    {
      "buffer" : 0,
      "byteOffset" : 44736,
      "byteLength" : 6960
    },
    {
      "buffer" : 0,
      "byteOffset" : 51696,
      "byteLength" : 6960
    }
  ],
  "accessors" : [
    {
      "bufferView" : 0,
      "componentType" : 5123,
      "count" : 1488,
      "type" : "SCALAR"
    },
    {
      "bufferView" : 1,
      "min" : [ -2.03125, -1.03125, -3.125 ],
      "max" : [ 2.03125, 1.03125, 3.125 ],
      "componentType" : 5126,
      "count" : 870,
      "type" : "VEC3"
    },
    {
      "bufferView" : 2,
      "componentType" : 5126,
      "count" : 870,
      "type" : "VEC3"
    },
    {
      "bufferView" : 3,
      "componentType" : 5126,
      "count" : 870,
      "type" : "VEC4"
    },
    {
      "bufferView" : 4,
      "componentType" : 5126,
      "count" : 870,
      "type" : "VEC2"
    },
    {
      "bufferView" : 5,
      "componentType" : 5126,
      "count" : 870,
      "type" : "VEC2"
    },
    {
      "bufferView" : 6,
      "componentType" : 5126,
      "count" : 870,
      "type" : "VEC2"
    }
  ]
}
