{
  "asset" : {
    "generator" : "UE Viewer (umodel) build 1590",
    "version" : "2.0"
  },
  "scene" : 0,
  "scenes" : [
    {
      "nodes" : [ 0 ]
    }
  ],
  "nodes" : [
    {
      "name" : "Co_BPI_Com_D_Stairs_B_12_6_1",
      "mesh" : 0
    }
  ],
  "materials" : [
    {
      "name" : "MmeMI_D_Ruins_Desert",
      "pbrMetallicRoughness" : {
        "baseColorFactor" : [ 0.3, 0.3, 0.3, 1.0 ],
        "metallicFactor" : 0.1,
        "roughnessFactor" : 0.5
      }
    }
  ],
  "meshes" : [
    {
      "primitives" : [
        {
          "attributes" : {
            "POSITION" : 1,
            "NORMAL" : 2,
            "TANGENT" : 3,
            "TEXCOORD_0" : 4,
            "TEXCOORD_1" : 5,
            "TEXCOORD_2" : 6
          },
          "indices" : 0,
          "material" : 0
        }
      ],
      "name" : "Co_BPI_Com_D_Stairs_B_12_6_1"
    }
  ],
  "buffers" : [
    {
      "uri" : "Co_BPI_Com_D_Stairs_B_12_6_1.bin",
      "byteLength" : 89240
    }
  ],
  "bufferViews" : [
    {
      "buffer" : 0,
      "byteOffset" : 0,
      "byteLength" : 4632
    },
    {
      "buffer" : 0,
      "byteOffset" : 4632,
      "byteLength" : 15864
    },
    {
      "buffer" : 0,
      "byteOffset" : 20496,
      "byteLength" : 15864
    },
    {
      "buffer" : 0,
      "byteOffset" : 36360,
      "byteLength" : 21152
    },
    {
      "buffer" : 0,
      "byteOffset" : 57512,
      "byteLength" : 10576
    },
    {
      "buffer" : 0,
      "byteOffset" : 68088,
      "byteLength" : 10576
    },
    {
      "buffer" : 0,
      "byteOffset" : 78664,
      "byteLength" : 10576
    }
  ],
  "accessors" : [
    {
      "bufferView" : 0,
      "componentType" : 5123,
      "count" : 2316,
      "type" : "SCALAR"
    },
    {
      "bufferView" : 1,
      "min" : [ -3.03125, -1.53125, -3.125 ],
      "max" : [ 3.03125, 1.53125, 3.125 ],
      "componentType" : 5126,
      "count" : 1322,
      "type" : "VEC3"
    },
    {
      "bufferView" : 2,
      "componentType" : 5126,
      "count" : 1322,
      "type" : "VEC3"
    },
    {
      "bufferView" : 3,
      "componentType" : 5126,
      "count" : 1322,
      "type" : "VEC4"
    },
    {
      "bufferView" : 4,
      "componentType" : 5126,
      "count" : 1322,
      "type" : "VEC2"
    },
    {
      "bufferView" : 5,
      "componentType" : 5126,
      "count" : 1322,
      "type" : "VEC2"
    },
    {
      "bufferView" : 6,
      "componentType" : 5126,
      "count" : 1322,
      "type" : "VEC2"
    }
  ]
}
