{
  "asset" : {
    "generator" : "UE Viewer (umodel) build 1590",
    "version" : "2.0"
  },
  "scene" : 0,
  "scenes" : [
    {
      "nodes" : [ 0 ]
    }
  ],
  "nodes" : [
    {
      "name" : "ObpMD_Co_D_Ruins_Gate_A_S_2_1",
      "mesh" : 0
    }
  ],
  "materials" : [
    {
      "name" : "MmeMI_D_Ruins_Desert",
      "pbrMetallicRoughness" : {
        "baseColorFactor" : [ 0.3, 0.3, 0.3, 1.0 ],
        "metallicFactor" : 0.1,
        "roughnessFactor" : 0.5
      }
    }
  ],
  "meshes" : [
    {
      "primitives" : [
        {
          "attributes" : {
            "POSITION" : 1,
            "NORMAL" : 2,
            "TANGENT" : 3,
            "TEXCOORD_0" : 4
          },
          "indices" : 0,
          "material" : 0
        }
      ],
      "name" : "ObpMD_Co_D_Ruins_Gate_A_S_2_1"
    }
  ],
  "buffers" : [
    {
      "uri" : "ObpMD_Co_D_Ruins_Gate_A_S_2_1.bin",
      "byteLength" : 53148
    }
  ],
  "bufferViews" : [
    {
      "buffer" : 0,
      "byteOffset" : 0,
      "byteLength" : 3852
    },
    {
      "buffer" : 0,
      "byteOffset" : 3852,
      "byteLength" : 12324
    },
    {
      "buffer" : 0,
      "byteOffset" : 16176,
      "byteLength" : 12324
    },
    {
      "buffer" : 0,
      "byteOffset" : 28500,
      "byteLength" : 16432
    },
    {
      "buffer" : 0,
      "byteOffset" : 44932,
      "byteLength" : 8216
    }
  ],
  "accessors" : [
    {
      "bufferView" : 0,
      "componentType" : 5123,
      "count" : 1926,
      "type" : "SCALAR"
    },
    {
      "bufferView" : 1,
      "min" : [ -0.875, -2.45773e-16, -3.73877 ],
      "max" : [ 0.5, 5, 3.76123 ],
      "componentType" : 5126,
      "count" : 1027,
      "type" : "VEC3"
    },
    {
      "bufferView" : 2,
      "componentType" : 5126,
      "count" : 1027,
      "type" : "VEC3"
    },
    {
      "bufferView" : 3,
      "componentType" : 5126,
      "count" : 1027,
      "type" : "VEC4"
    },
    {
      "bufferView" : 4,
      "componentType" : 5126,
      "count" : 1027,
      "type" : "VEC2"
    }
  ]
}
