{
  "asset" : {
    "generator" : "UE Viewer (umodel) build 1590",
    "version" : "2.0"
  },
  "scene" : 0,
  "scenes" : [
    {
      "nodes" : [ 0 ]
    }
  ],
  "nodes" : [
    {
      "name" : "ObpMD_D_Ruins_Pillar_B_Debris_D",
      "mesh" : 0
    }
  ],
  "materials" : [
    {
      "name" : "ObpMI_D_Ruins_Pillar_B",
      "pbrMetallicRoughness" : {
        "baseColorFactor" : [ 0.3, 0.3, 0.3, 1.0 ],
        "metallicFactor" : 0.1,
        "roughnessFactor" : 0.5
      }
    }
  ],
  "meshes" : [
    {
      "primitives" : [
        {
          "attributes" : {
            "POSITION" : 1,
            "NORMAL" : 2,
            "TANGENT" : 3,
            "TEXCOORD_0" : 4,
            "TEXCOORD_1" : 5
          },
          "indices" : 0,
          "material" : 0
        }
      ],
      "name" : "ObpMD_D_Ruins_Pillar_B_Debris_D"
    }
  ],
  "buffers" : [
    {
      "uri" : "ObpMD_D_Ruins_Pillar_B_Debris_D.bin",
      "byteLength" : 47056
    }
  ],
  "bufferViews" : [
    {
      "buffer" : 0,
      "byteOffset" : 0,
      "byteLength" : 2760
    },
    {
      "buffer" : 0,
      "byteOffset" : 2760,
      "byteLength" : 9492
    },
    {
      "buffer" : 0,
      "byteOffset" : 12252,
      "byteLength" : 9492
    },
    {
      "buffer" : 0,
      "byteOffset" : 21744,
      "byteLength" : 12656
    },
    {
      "buffer" : 0,
      "byteOffset" : 34400,
      "byteLength" : 6328
    },
    {
      "buffer" : 0,
      "byteOffset" : 40728,
      "byteLength" : 6328
    }
  ],
  "accessors" : [
    {
      "bufferView" : 0,
      "componentType" : 5123,
      "count" : 1380,
      "type" : "SCALAR"
    },
    {
      "bufferView" : 1,
      "min" : [ -2, -9.95025e-17, -2 ],
      "max" : [ 2, 11.7407, 2 ],
      "componentType" : 5126,
      "count" : 791,
      "type" : "VEC3"
    },
    {
      "bufferView" : 2,
      "componentType" : 5126,
      "count" : 791,
      "type" : "VEC3"
    },
    {
      "bufferView" : 3,
      "componentType" : 5126,
      "count" : 791,
      "type" : "VEC4"
    },
    {
      "bufferView" : 4,
      "componentType" : 5126,
      "count" : 791,
      "type" : "VEC2"
    },
    {
      "bufferView" : 5,
      "componentType" : 5126,
      "count" : 791,
      "type" : "VEC2"
    }
  ]
}
