{
  "asset" : {
    "generator" : "UE Viewer (umodel) build 1590",
    "version" : "2.0"
  },
  "scene" : 0,
  "scenes" : [
    {
      "nodes" : [ 0 ]
    }
  ],
  "nodes" : [
    {
      "name" : "ObpMD_Co_D_Ruins_Stairs_B_20_4_1",
      "mesh" : 0
    }
  ],
  "materials" : [
    {
      "name" : "MmeMI_D_Ruins_Desert",
      "pbrMetallicRoughness" : {
        "baseColorFactor" : [ 0.3, 0.3, 0.3, 1.0 ],
        "metallicFactor" : 0.1,
        "roughnessFactor" : 0.5
      }
    }
  ],
  "meshes" : [
    {
      "primitives" : [
        {
          "attributes" : {
            "POSITION" : 1,
            "NORMAL" : 2,
            "TANGENT" : 3,
            "TEXCOORD_0" : 4
          },
          "indices" : 0,
          "material" : 0
        }
      ],
      "name" : "ObpMD_Co_D_Ruins_Stairs_B_20_4_1"
    }
  ],
  "buffers" : [
    {
      "uri" : "ObpMD_Co_D_Ruins_Stairs_B_20_4_1.bin",
      "byteLength" : 106440
    }
  ],
  "bufferViews" : [
    {
      "buffer" : 0,
      "byteOffset" : 0,
      "byteLength" : 7272
    },
    {
      "buffer" : 0,
      "byteOffset" : 7272,
      "byteLength" : 24792
    },
    {
      "buffer" : 0,
      "byteOffset" : 32064,
      "byteLength" : 24792
    },
    {
      "buffer" : 0,
      "byteOffset" : 56856,
      "byteLength" : 33056
    },
    {
      "buffer" : 0,
      "byteOffset" : 89912,
      "byteLength" : 16528
    }
  ],
  "accessors" : [
    {
      "bufferView" : 0,
      "componentType" : 5123,
      "count" : 3636,
      "type" : "SCALAR"
    },
    {
      "bufferView" : 1,
      "min" : [ -5.0625, -2.5, -2.125 ],
      "max" : [ 5, 2.5625, 2.125 ],
      "componentType" : 5126,
      "count" : 2066,
      "type" : "VEC3"
    },
    {
      "bufferView" : 2,
      "componentType" : 5126,
      "count" : 2066,
      "type" : "VEC3"
    },
    {
      "bufferView" : 3,
      "componentType" : 5126,
      "count" : 2066,
      "type" : "VEC4"
    },
    {
      "bufferView" : 4,
      "componentType" : 5126,
      "count" : 2066,
      "type" : "VEC2"
    }
  ]
}
