{
  "asset" : {
    "generator" : "UE Viewer (umodel) build 1590",
    "version" : "2.0"
  },
  "scene" : 0,
  "scenes" : [
    {
      "nodes" : [ 0 ]
    }
  ],
  "nodes" : [
    {
      "name" : "ObpMD_Co_D_Ruins_Pillar_7_1",
      "mesh" : 0
    }
  ],
  "materials" : [
    {
      "name" : "MmeMI_D_Ruins_Desert",
      "pbrMetallicRoughness" : {
        "baseColorFactor" : [ 0.3, 0.3, 0.3, 1.0 ],
        "metallicFactor" : 0.1,
        "roughnessFactor" : 0.5
      }
    }
  ],
  "meshes" : [
    {
      "primitives" : [
        {
          "attributes" : {
            "POSITION" : 1,
            "NORMAL" : 2,
            "TANGENT" : 3,
            "TEXCOORD_0" : 4
          },
          "indices" : 0,
          "material" : 0
        }
      ],
      "name" : "ObpMD_Co_D_Ruins_Pillar_7_1"
    }
  ],
  "buffers" : [
    {
      "uri" : "ObpMD_Co_D_Ruins_Pillar_7_1.bin",
      "byteLength" : 15552
    }
  ],
  "bufferViews" : [
    {
      "buffer" : 0,
      "byteOffset" : 0,
      "byteLength" : 1344
    },
    {
      "buffer" : 0,
      "byteOffset" : 1344,
      "byteLength" : 3552
    },
    {
      "buffer" : 0,
      "byteOffset" : 4896,
      "byteLength" : 3552
    },
    {
      "buffer" : 0,
      "byteOffset" : 8448,
      "byteLength" : 4736
    },
    {
      "buffer" : 0,
      "byteOffset" : 13184,
      "byteLength" : 2368
    }
  ],
  "accessors" : [
    {
      "bufferView" : 0,
      "componentType" : 5123,
      "count" : 672,
      "type" : "SCALAR"
    },
    {
      "bufferView" : 1,
      "min" : [ -0.51, -0.0625, -0.51 ],
      "max" : [ 0.51, 10, 0.51 ],
      "componentType" : 5126,
      "count" : 296,
      "type" : "VEC3"
    },
    {
      "bufferView" : 2,
      "componentType" : 5126,
      "count" : 296,
      "type" : "VEC3"
    },
    {
      "bufferView" : 3,
      "componentType" : 5126,
      "count" : 296,
      "type" : "VEC4"
    },
    {
      "bufferView" : 4,
      "componentType" : 5126,
      "count" : 296,
      "type" : "VEC2"
    }
  ]
}
