{
  "asset" : {
    "generator" : "UE Viewer (umodel) build 1590",
    "version" : "2.0"
  },
  "scene" : 0,
  "scenes" : [
    {
      "nodes" : [ 0 ]
    }
  ],
  "nodes" : [
    {
      "name" : "ObpMD_D_Ruins_Gate_B_root_end",
      "mesh" : 0
    }
  ],
  "materials" : [
    {
      "name" : "MmeMI_D_Ruins_Desert",
      "pbrMetallicRoughness" : {
        "baseColorFactor" : [ 0.3, 0.3, 0.3, 1.0 ],
        "metallicFactor" : 0.1,
        "roughnessFactor" : 0.5
      }
    }
  ],
  "meshes" : [
    {
      "primitives" : [
        {
          "attributes" : {
            "POSITION" : 1,
            "NORMAL" : 2,
            "TANGENT" : 3,
            "TEXCOORD_0" : 4,
            "TEXCOORD_1" : 5
          },
          "indices" : 0,
          "material" : 0
        }
      ],
      "name" : "ObpMD_D_Ruins_Gate_B_root_end"
    }
  ],
  "buffers" : [
    {
      "uri" : "ObpMD_D_Ruins_Gate_B_root_end.bin",
      "byteLength" : 8828
    }
  ],
  "bufferViews" : [
    {
      "buffer" : 0,
      "byteOffset" : 0,
      "byteLength" : 540
    },
    {
      "buffer" : 0,
      "byteOffset" : 540,
      "byteLength" : 1776
    },
    {
      "buffer" : 0,
      "byteOffset" : 2316,
      "byteLength" : 1776
    },
    {
      "buffer" : 0,
      "byteOffset" : 4092,
      "byteLength" : 2368
    },
    {
      "buffer" : 0,
      "byteOffset" : 6460,
      "byteLength" : 1184
    },
    {
      "buffer" : 0,
      "byteOffset" : 7644,
      "byteLength" : 1184
    }
  ],
  "accessors" : [
    {
      "bufferView" : 0,
      "componentType" : 5123,
      "count" : 270,
      "type" : "SCALAR"
    },
    {
      "bufferView" : 1,
      "min" : [ -0.4375, 2.35043e-23, 3.76701e-07 ],
      "max" : [ 0.9375, 5, 1.25 ],
      "componentType" : 5126,
      "count" : 148,
      "type" : "VEC3"
    },
    {
      "bufferView" : 2,
      "componentType" : 5126,
      "count" : 148,
      "type" : "VEC3"
    },
    {
      "bufferView" : 3,
      "componentType" : 5126,
      "count" : 148,
      "type" : "VEC4"
    },
    {
      "bufferView" : 4,
      "componentType" : 5126,
      "count" : 148,
      "type" : "VEC2"
    },
    {
      "bufferView" : 5,
      "componentType" : 5126,
      "count" : 148,
      "type" : "VEC2"
    }
  ]
}
