{
  "asset" : {
    "generator" : "UE Viewer (umodel) build 1590",
    "version" : "2.0"
  },
  "scene" : 0,
  "scenes" : [
    {
      "nodes" : [ 0 ]
    }
  ],
  "nodes" : [
    {
      "name" : "ObpMD_D_Ruins_Pillar_B_Debris_C",
      "mesh" : 0
    }
  ],
  "materials" : [
    {
      "name" : "ObpMI_D_Ruins_Pillar_B",
      "pbrMetallicRoughness" : {
        "baseColorFactor" : [ 0.3, 0.3, 0.3, 1.0 ],
        "metallicFactor" : 0.1,
        "roughnessFactor" : 0.5
      }
    }
  ],
  "meshes" : [
    {
      "primitives" : [
        {
          "attributes" : {
            "POSITION" : 1,
            "NORMAL" : 2,
            "TANGENT" : 3,
            "TEXCOORD_0" : 4,
            "TEXCOORD_1" : 5
          },
          "indices" : 0,
          "material" : 0
        }
      ],
      "name" : "ObpMD_D_Ruins_Pillar_B_Debris_C"
    }
  ],
  "buffers" : [
    {
      "uri" : "ObpMD_D_Ruins_Pillar_B_Debris_C.bin",
      "byteLength" : 59388
    }
  ],
  "bufferViews" : [
    {
      "buffer" : 0,
      "byteOffset" : 0,
      "byteLength" : 3444
    },
    {
      "buffer" : 0,
      "byteOffset" : 3444,
      "byteLength" : 11988
    },
    {
      "buffer" : 0,
      "byteOffset" : 15432,
      "byteLength" : 11988
    },
    {
      "buffer" : 0,
      "byteOffset" : 27420,
      "byteLength" : 15984
    },
    {
      "buffer" : 0,
      "byteOffset" : 43404,
      "byteLength" : 7992
    },
    {
      "buffer" : 0,
      "byteOffset" : 51396,
      "byteLength" : 7992
    }
  ],
  "accessors" : [
    {
      "bufferView" : 0,
      "componentType" : 5123,
      "count" : 1722,
      "type" : "SCALAR"
    },
    {
      "bufferView" : 1,
      "min" : [ -2, -1.43051e-06, -2 ],
      "max" : [ 2, 11.125, 2 ],
      "componentType" : 5126,
      "count" : 999,
      "type" : "VEC3"
    },
    {
      "bufferView" : 2,
      "componentType" : 5126,
      "count" : 999,
      "type" : "VEC3"
    },
    {
      "bufferView" : 3,
      "componentType" : 5126,
      "count" : 999,
      "type" : "VEC4"
    },
    {
      "bufferView" : 4,
      "componentType" : 5126,
      "count" : 999,
      "type" : "VEC2"
    },
    {
      "bufferView" : 5,
      "componentType" : 5126,
      "count" : 999,
      "type" : "VEC2"
    }
  ]
}
