{
  "asset" : {
    "generator" : "UE Viewer (umodel) build 1590",
    "version" : "2.0"
  },
  "scene" : 0,
  "scenes" : [
    {
      "nodes" : [ 0 ]
    }
  ],
  "nodes" : [
    {
      "name" : "ObpMD_Co_D_Ruins_D_Cliff_2_2_Wall_A",
      "mesh" : 0
    }
  ],
  "materials" : [
    {
      "name" : "MmeMI_D_Ruins_Sewer_OffWall",
      "pbrMetallicRoughness" : {
        "baseColorFactor" : [ 0.3, 0.3, 0.3, 1.0 ],
        "metallicFactor" : 0.1,
        "roughnessFactor" : 0.5
      }
    }
  ],
  "meshes" : [
    {
      "primitives" : [
        {
          "attributes" : {
            "POSITION" : 1,
            "NORMAL" : 2,
            "TANGENT" : 3,
            "TEXCOORD_0" : 4
          },
          "indices" : 0,
          "material" : 0
        }
      ],
      "name" : "ObpMD_Co_D_Ruins_D_Cliff_2_2_Wall_A"
    }
  ],
  "buffers" : [
    {
      "uri" : "ObpMD_Co_D_Ruins_D_Cliff_2_2_Wall_A.bin",
      "byteLength" : 43344
    }
  ],
  "bufferViews" : [
    {
      "buffer" : 0,
      "byteOffset" : 0,
      "byteLength" : 2832
    },
    {
      "buffer" : 0,
      "byteOffset" : 2832,
      "byteLength" : 10128
    },
    {
      "buffer" : 0,
      "byteOffset" : 12960,
      "byteLength" : 10128
    },
    {
      "buffer" : 0,
      "byteOffset" : 23088,
      "byteLength" : 13504
    },
    {
      "buffer" : 0,
      "byteOffset" : 36592,
      "byteLength" : 6752
    }
  ],
  "accessors" : [
    {
      "bufferView" : 0,
      "componentType" : 5123,
      "count" : 1416,
      "type" : "SCALAR"
    },
    {
      "bufferView" : 1,
      "min" : [ -1.125, -3.06162e-16, -5 ],
      "max" : [ 0.5, 10, 5 ],
      "componentType" : 5126,
      "count" : 844,
      "type" : "VEC3"
    },
    {
      "bufferView" : 2,
      "componentType" : 5126,
      "count" : 844,
      "type" : "VEC3"
    },
    {
      "bufferView" : 3,
      "componentType" : 5126,
      "count" : 844,
      "type" : "VEC4"
    },
    {
      "bufferView" : 4,
      "componentType" : 5126,
      "count" : 844,
      "type" : "VEC2"
    }
  ]
}
