{
  "asset" : {
    "generator" : "UE Viewer (umodel) build 1590",
    "version" : "2.0"
  },
  "scene" : 0,
  "scenes" : [
    {
      "nodes" : [ 0 ]
    }
  ],
  "nodes" : [
    {
      "name" : "ObpMD_Co_D_Ruins_D_Cliff_2_2_Wall_A1",
      "mesh" : 0
    }
  ],
  "materials" : [
    {
      "name" : "MmeMI_D_Ruins_Sewer_OffWall",
      "pbrMetallicRoughness" : {
        "baseColorFactor" : [ 0.3, 0.3, 0.3, 1.0 ],
        "metallicFactor" : 0.1,
        "roughnessFactor" : 0.5
      }
    }
  ],
  "meshes" : [
    {
      "primitives" : [
        {
          "attributes" : {
            "POSITION" : 1,
            "NORMAL" : 2,
            "TANGENT" : 3,
            "TEXCOORD_0" : 4
          },
          "indices" : 0,
          "material" : 0
        }
      ],
      "name" : "ObpMD_Co_D_Ruins_D_Cliff_2_2_Wall_A1"
    }
  ],
  "buffers" : [
    {
      "uri" : "ObpMD_Co_D_Ruins_D_Cliff_2_2_Wall_A1.bin",
      "byteLength" : 71376
    }
  ],
  "bufferViews" : [
    {
      "buffer" : 0,
      "byteOffset" : 0,
      "byteLength" : 4272
    },
    {
      "buffer" : 0,
      "byteOffset" : 4272,
      "byteLength" : 16776
    },
    {
      "buffer" : 0,
      "byteOffset" : 21048,
      "byteLength" : 16776
    },
    {
      "buffer" : 0,
      "byteOffset" : 37824,
      "byteLength" : 22368
    },
    {
      "buffer" : 0,
      "byteOffset" : 60192,
      "byteLength" : 11184
    }
  ],
  "accessors" : [
    {
      "bufferView" : 0,
      "componentType" : 5123,
      "count" : 2136,
      "type" : "SCALAR"
    },
    {
      "bufferView" : 1,
      "min" : [ -1.125, -3.06162e-16, -5 ],
      "max" : [ 0.5, 10, 15 ],
      "componentType" : 5126,
      "count" : 1398,
      "type" : "VEC3"
    },
    {
      "bufferView" : 2,
      "componentType" : 5126,
      "count" : 1398,
      "type" : "VEC3"
    },
    {
      "bufferView" : 3,
      "componentType" : 5126,
      "count" : 1398,
      "type" : "VEC4"
    },
    {
      "bufferView" : 4,
      "componentType" : 5126,
      "count" : 1398,
      "type" : "VEC2"
    }
  ]
}
