{
  "asset" : {
    "generator" : "UE Viewer (umodel) build 1590",
    "version" : "2.0"
  },
  "scene" : 0,
  "scenes" : [
    {
      "nodes" : [ 0 ]
    }
  ],
  "nodes" : [
    {
      "name" : "ObpMD_D_Ruins_Gate_B",
      "mesh" : 0
    }
  ],
  "materials" : [
    {
      "name" : "MmeMI_D_Ruins_Desert",
      "pbrMetallicRoughness" : {
        "baseColorFactor" : [ 0.3, 0.3, 0.3, 1.0 ],
        "metallicFactor" : 0.1,
        "roughnessFactor" : 0.5
      }
    }
  ],
  "meshes" : [
    {
      "primitives" : [
        {
          "attributes" : {
            "POSITION" : 1,
            "NORMAL" : 2,
            "TANGENT" : 3,
            "TEXCOORD_0" : 4,
            "TEXCOORD_1" : 5
          },
          "indices" : 0,
          "material" : 0
        }
      ],
      "name" : "ObpMD_D_Ruins_Gate_B"
    }
  ],
  "buffers" : [
    {
      "uri" : "ObpMD_D_Ruins_Gate_B.bin",
      "byteLength" : 15436
    }
  ],
  "bufferViews" : [
    {
      "buffer" : 0,
      "byteOffset" : 0,
      "byteLength" : 876
    },
    {
      "buffer" : 0,
      "byteOffset" : 876,
      "byteLength" : 3120
    },
    {
      "buffer" : 0,
      "byteOffset" : 3996,
      "byteLength" : 3120
    },
    {
      "buffer" : 0,
      "byteOffset" : 7116,
      "byteLength" : 4160
    },
    {
      "buffer" : 0,
      "byteOffset" : 11276,
      "byteLength" : 2080
    },
    {
      "buffer" : 0,
      "byteOffset" : 13356,
      "byteLength" : 2080
    }
  ],
  "accessors" : [
    {
      "bufferView" : 0,
      "componentType" : 5123,
      "count" : 438,
      "type" : "SCALAR"
    },
    {
      "bufferView" : 1,
      "min" : [ -0.375, -3.06161e-17, -0.750001 ],
      "max" : [ 1.005, 5, 0.75 ],
      "componentType" : 5126,
      "count" : 260,
      "type" : "VEC3"
    },
    {
      "bufferView" : 2,
      "componentType" : 5126,
      "count" : 260,
      "type" : "VEC3"
    },
    {
      "bufferView" : 3,
      "componentType" : 5126,
      "count" : 260,
      "type" : "VEC4"
    },
    {
      "bufferView" : 4,
      "componentType" : 5126,
      "count" : 260,
      "type" : "VEC2"
    },
    {
      "bufferView" : 5,
      "componentType" : 5126,
      "count" : 260,
      "type" : "VEC2"
    }
  ]
}
