{
  "asset" : {
    "generator" : "UE Viewer (umodel) build 1590",
    "version" : "2.0"
  },
  "scene" : 0,
  "scenes" : [
    {
      "nodes" : [ 0 ]
    }
  ],
  "nodes" : [
    {
      "name" : "ObpMD_D_Ruins_wall_Top_root_end",
      "mesh" : 0
    }
  ],
  "materials" : [
    {
      "name" : "MmeMI_D_Ruins_Desert",
      "pbrMetallicRoughness" : {
        "baseColorFactor" : [ 0.3, 0.3, 0.3, 1.0 ],
        "metallicFactor" : 0.1,
        "roughnessFactor" : 0.5
      }
    }
  ],
  "meshes" : [
    {
      "primitives" : [
        {
          "attributes" : {
            "POSITION" : 1,
            "NORMAL" : 2,
            "TANGENT" : 3,
            "TEXCOORD_0" : 4,
            "TEXCOORD_1" : 5
          },
          "indices" : 0,
          "material" : 0
        }
      ],
      "name" : "ObpMD_D_Ruins_wall_Top_root_end"
    }
  ],
  "buffers" : [
    {
      "uri" : "ObpMD_D_Ruins_wall_Top_root_end.bin",
      "byteLength" : 1652
    }
  ],
  "bufferViews" : [
    {
      "buffer" : 0,
      "byteOffset" : 0,
      "byteLength" : 84
    },
    {
      "buffer" : 0,
      "byteOffset" : 84,
      "byteLength" : 336
    },
    {
      "buffer" : 0,
      "byteOffset" : 420,
      "byteLength" : 336
    },
    {
      "buffer" : 0,
      "byteOffset" : 756,
      "byteLength" : 448
    },
    {
      "buffer" : 0,
      "byteOffset" : 1204,
      "byteLength" : 224
    },
    {
      "buffer" : 0,
      "byteOffset" : 1428,
      "byteLength" : 224
    }
  ],
  "accessors" : [
    {
      "bufferView" : 0,
      "componentType" : 5123,
      "count" : 42,
      "type" : "SCALAR"
    },
    {
      "bufferView" : 1,
      "min" : [ -0.375, 3.25066e-23, 5.30873e-07 ],
      "max" : [ 2.0473e-08, 1, 1.125 ],
      "componentType" : 5126,
      "count" : 28,
      "type" : "VEC3"
    },
    {
      "bufferView" : 2,
      "componentType" : 5126,
      "count" : 28,
      "type" : "VEC3"
    },
    {
      "bufferView" : 3,
      "componentType" : 5126,
      "count" : 28,
      "type" : "VEC4"
    },
    {
      "bufferView" : 4,
      "componentType" : 5126,
      "count" : 28,
      "type" : "VEC2"
    },
    {
      "bufferView" : 5,
      "componentType" : 5126,
      "count" : 28,
      "type" : "VEC2"
    }
  ]
}
