{
  "asset" : {
    "generator" : "UE Viewer (umodel) build 1590",
    "version" : "2.0"
  },
  "scene" : 0,
  "scenes" : [
    {
      "nodes" : [ 0 ]
    }
  ],
  "nodes" : [
    {
      "name" : "ObpMD_D_Ruins_Gate_A",
      "mesh" : 0
    }
  ],
  "materials" : [
    {
      "name" : "MmeMI_D_Ruins_Desert",
      "pbrMetallicRoughness" : {
        "baseColorFactor" : [ 0.3, 0.3, 0.3, 1.0 ],
        "metallicFactor" : 0.1,
        "roughnessFactor" : 0.5
      }
    }
  ],
  "meshes" : [
    {
      "primitives" : [
        {
          "attributes" : {
            "POSITION" : 1,
            "NORMAL" : 2,
            "TANGENT" : 3,
            "TEXCOORD_0" : 4,
            "TEXCOORD_1" : 5
          },
          "indices" : 0,
          "material" : 0
        }
      ],
      "name" : "ObpMD_D_Ruins_Gate_A"
    }
  ],
  "buffers" : [
    {
      "uri" : "ObpMD_D_Ruins_Gate_A.bin",
      "byteLength" : 52880
    }
  ],
  "bufferViews" : [
    {
      "buffer" : 0,
      "byteOffset" : 0,
      "byteLength" : 3936
    },
    {
      "buffer" : 0,
      "byteOffset" : 3936,
      "byteLength" : 10488
    },
    {
      "buffer" : 0,
      "byteOffset" : 14424,
      "byteLength" : 10488
    },
    {
      "buffer" : 0,
      "byteOffset" : 24912,
      "byteLength" : 13984
    },
    {
      "buffer" : 0,
      "byteOffset" : 38896,
      "byteLength" : 6992
    },
    {
      "buffer" : 0,
      "byteOffset" : 45888,
      "byteLength" : 6992
    }
  ],
  "accessors" : [
    {
      "bufferView" : 0,
      "componentType" : 5123,
      "count" : 1968,
      "type" : "SCALAR"
    },
    {
      "bufferView" : 1,
      "min" : [ -0.4375, -1.83697e-16, -3 ],
      "max" : [ 0.9375, 5, 3 ],
      "componentType" : 5126,
      "count" : 874,
      "type" : "VEC3"
    },
    {
      "bufferView" : 2,
      "componentType" : 5126,
      "count" : 874,
      "type" : "VEC3"
    },
    {
      "bufferView" : 3,
      "componentType" : 5126,
      "count" : 874,
      "type" : "VEC4"
    },
    {
      "bufferView" : 4,
      "componentType" : 5126,
      "count" : 874,
      "type" : "VEC2"
    },
    {
      "bufferView" : 5,
      "componentType" : 5126,
      "count" : 874,
      "type" : "VEC2"
    }
  ]
}
