{
  "asset" : {
    "generator" : "UE Viewer (umodel) build 1590",
    "version" : "2.0"
  },
  "scene" : 0,
  "scenes" : [
    {
      "nodes" : [ 0 ]
    }
  ],
  "nodes" : [
    {
      "name" : "ObpMD_Co_D_Ruins_Gate_Snow_2_3_A",
      "mesh" : 0
    }
  ],
  "materials" : [
    {
      "name" : "MmeMI_D_Ruins_Sewer",
      "pbrMetallicRoughness" : {
        "baseColorFactor" : [ 0.3, 0.3, 0.3, 1.0 ],
        "metallicFactor" : 0.1,
        "roughnessFactor" : 0.5
      }
    }
  ],
  "meshes" : [
    {
      "primitives" : [
        {
          "attributes" : {
            "POSITION" : 1,
            "NORMAL" : 2,
            "TANGENT" : 3,
            "TEXCOORD_0" : 4
          },
          "indices" : 0,
          "material" : 0
        }
      ],
      "name" : "ObpMD_Co_D_Ruins_Gate_Snow_2_3_A"
    }
  ],
  "buffers" : [
    {
      "uri" : "ObpMD_Co_D_Ruins_Gate_Snow_2_3_A.bin",
      "byteLength" : 114120
    }
  ],
  "bufferViews" : [
    {
      "buffer" : 0,
      "byteOffset" : 0,
      "byteLength" : 8328
    },
    {
      "buffer" : 0,
      "byteOffset" : 8328,
      "byteLength" : 26448
    },
    {
      "buffer" : 0,
      "byteOffset" : 34776,
      "byteLength" : 26448
    },
    {
      "buffer" : 0,
      "byteOffset" : 61224,
      "byteLength" : 35264
    },
    {
      "buffer" : 0,
      "byteOffset" : 96488,
      "byteLength" : 17632
    }
  ],
  "accessors" : [
    {
      "bufferView" : 0,
      "componentType" : 5123,
      "count" : 4164,
      "type" : "SCALAR"
    },
    {
      "bufferView" : 1,
      "min" : [ -0.875, -2.11901e-16, -8.75 ],
      "max" : [ 0.5, 5, 8.75 ],
      "componentType" : 5126,
      "count" : 2204,
      "type" : "VEC3"
    },
    {
      "bufferView" : 2,
      "componentType" : 5126,
      "count" : 2204,
      "type" : "VEC3"
    },
    {
      "bufferView" : 3,
      "componentType" : 5126,
      "count" : 2204,
      "type" : "VEC4"
    },
    {
      "bufferView" : 4,
      "componentType" : 5126,
      "count" : 2204,
      "type" : "VEC2"
    }
  ]
}
