{
  "asset" : {
    "generator" : "UE Viewer (umodel) build 1590",
    "version" : "2.0"
  },
  "scene" : 0,
  "scenes" : [
    {
      "nodes" : [ 0 ]
    }
  ],
  "nodes" : [
    {
      "name" : "ObpMD_D_Ruins_Pillar_B_Debris_B",
      "mesh" : 0
    }
  ],
  "materials" : [
    {
      "name" : "ObpMI_D_Ruins_Pillar_B",
      "pbrMetallicRoughness" : {
        "baseColorFactor" : [ 0.3, 0.3, 0.3, 1.0 ],
        "metallicFactor" : 0.1,
        "roughnessFactor" : 0.5
      }
    }
  ],
  "meshes" : [
    {
      "primitives" : [
        {
          "attributes" : {
            "POSITION" : 1,
            "NORMAL" : 2,
            "TANGENT" : 3,
            "TEXCOORD_0" : 4,
            "TEXCOORD_1" : 5
          },
          "indices" : 0,
          "material" : 0
        }
      ],
      "name" : "ObpMD_D_Ruins_Pillar_B_Debris_B"
    }
  ],
  "buffers" : [
    {
      "uri" : "ObpMD_D_Ruins_Pillar_B_Debris_B.bin",
      "byteLength" : 25208
    }
  ],
  "bufferViews" : [
    {
      "buffer" : 0,
      "byteOffset" : 0,
      "byteLength" : 1296
    },
    {
      "buffer" : 0,
      "byteOffset" : 1296,
      "byteLength" : 5124
    },
    {
      "buffer" : 0,
      "byteOffset" : 6420,
      "byteLength" : 5124
    },
    {
      "buffer" : 0,
      "byteOffset" : 11544,
      "byteLength" : 6832
    },
    {
      "buffer" : 0,
      "byteOffset" : 18376,
      "byteLength" : 3416
    },
    {
      "buffer" : 0,
      "byteOffset" : 21792,
      "byteLength" : 3416
    }
  ],
  "accessors" : [
    {
      "bufferView" : 0,
      "componentType" : 5123,
      "count" : 648,
      "type" : "SCALAR"
    },
    {
      "bufferView" : 1,
      "min" : [ -1.93944, 1.90735e-08, -1.93944 ],
      "max" : [ 1.93944, 6.28097, 1.93944 ],
      "componentType" : 5126,
      "count" : 427,
      "type" : "VEC3"
    },
    {
      "bufferView" : 2,
      "componentType" : 5126,
      "count" : 427,
      "type" : "VEC3"
    },
    {
      "bufferView" : 3,
      "componentType" : 5126,
      "count" : 427,
      "type" : "VEC4"
    },
    {
      "bufferView" : 4,
      "componentType" : 5126,
      "count" : 427,
      "type" : "VEC2"
    },
    {
      "bufferView" : 5,
      "componentType" : 5126,
      "count" : 427,
      "type" : "VEC2"
    }
  ]
}
