{
  "asset" : {
    "generator" : "UE Viewer (umodel) build 1590",
    "version" : "2.0"
  },
  "scene" : 0,
  "scenes" : [
    {
      "nodes" : [ 0 ]
    }
  ],
  "nodes" : [
    {
      "name" : "ObpMD_Co_D_Ruins_Wall_7_1",
      "mesh" : 0
    }
  ],
  "materials" : [
    {
      "name" : "MmeMI_D_Ruins_Desert",
      "pbrMetallicRoughness" : {
        "baseColorFactor" : [ 0.3, 0.3, 0.3, 1.0 ],
        "metallicFactor" : 0.1,
        "roughnessFactor" : 0.5
      }
    }
  ],
  "meshes" : [
    {
      "primitives" : [
        {
          "attributes" : {
            "POSITION" : 1,
            "NORMAL" : 2,
            "TANGENT" : 3,
            "TEXCOORD_0" : 4
          },
          "indices" : 0,
          "material" : 0
        }
      ],
      "name" : "ObpMD_Co_D_Ruins_Wall_7_1"
    }
  ],
  "buffers" : [
    {
      "uri" : "ObpMD_Co_D_Ruins_Wall_7_1.bin",
      "byteLength" : 18648
    }
  ],
  "bufferViews" : [
    {
      "buffer" : 0,
      "byteOffset" : 0,
      "byteLength" : 1176
    },
    {
      "buffer" : 0,
      "byteOffset" : 1176,
      "byteLength" : 4368
    },
    {
      "buffer" : 0,
      "byteOffset" : 5544,
      "byteLength" : 4368
    },
    {
      "buffer" : 0,
      "byteOffset" : 9912,
      "byteLength" : 5824
    },
    {
      "buffer" : 0,
      "byteOffset" : 15736,
      "byteLength" : 2912
    }
  ],
  "accessors" : [
    {
      "bufferView" : 0,
      "componentType" : 5123,
      "count" : 588,
      "type" : "SCALAR"
    },
    {
      "bufferView" : 1,
      "min" : [ -0.875, -2.14313e-16, -3.5 ],
      "max" : [ 0.5, 5, 3.5 ],
      "componentType" : 5126,
      "count" : 364,
      "type" : "VEC3"
    },
    {
      "bufferView" : 2,
      "componentType" : 5126,
      "count" : 364,
      "type" : "VEC3"
    },
    {
      "bufferView" : 3,
      "componentType" : 5126,
      "count" : 364,
      "type" : "VEC4"
    },
    {
      "bufferView" : 4,
      "componentType" : 5126,
      "count" : 364,
      "type" : "VEC2"
    }
  ]
}
