{
  "asset" : {
    "generator" : "UE Viewer (umodel) build 1590",
    "version" : "2.0"
  },
  "scene" : 0,
  "scenes" : [
    {
      "nodes" : [ 0 ]
    }
  ],
  "nodes" : [
    {
      "name" : "ObpMD_Co_D_Ruins_Stairs_B_16_6_1",
      "mesh" : 0
    }
  ],
  "materials" : [
    {
      "name" : "MmeMI_D_Ruins_Desert",
      "pbrMetallicRoughness" : {
        "baseColorFactor" : [ 0.3, 0.3, 0.3, 1.0 ],
        "metallicFactor" : 0.1,
        "roughnessFactor" : 0.5
      }
    }
  ],
  "meshes" : [
    {
      "primitives" : [
        {
          "attributes" : {
            "POSITION" : 1,
            "NORMAL" : 2,
            "TANGENT" : 3,
            "TEXCOORD_0" : 4
          },
          "indices" : 0,
          "material" : 0
        }
      ],
      "name" : "ObpMD_Co_D_Ruins_Stairs_B_16_6_1"
    }
  ],
  "buffers" : [
    {
      "uri" : "ObpMD_Co_D_Ruins_Stairs_B_16_6_1.bin",
      "byteLength" : 94800
    }
  ],
  "bufferViews" : [
    {
      "buffer" : 0,
      "byteOffset" : 0,
      "byteLength" : 6384
    },
    {
      "buffer" : 0,
      "byteOffset" : 6384,
      "byteLength" : 22104
    },
    {
      "buffer" : 0,
      "byteOffset" : 28488,
      "byteLength" : 22104
    },
    {
      "buffer" : 0,
      "byteOffset" : 50592,
      "byteLength" : 29472
    },
    {
      "buffer" : 0,
      "byteOffset" : 80064,
      "byteLength" : 14736
    }
  ],
  "accessors" : [
    {
      "bufferView" : 0,
      "componentType" : 5123,
      "count" : 3192,
      "type" : "SCALAR"
    },
    {
      "bufferView" : 1,
      "min" : [ -4.0625, -2, -3.125 ],
      "max" : [ 4, 2.0625, 3.125 ],
      "componentType" : 5126,
      "count" : 1842,
      "type" : "VEC3"
    },
    {
      "bufferView" : 2,
      "componentType" : 5126,
      "count" : 1842,
      "type" : "VEC3"
    },
    {
      "bufferView" : 3,
      "componentType" : 5126,
      "count" : 1842,
      "type" : "VEC4"
    },
    {
      "bufferView" : 4,
      "componentType" : 5126,
      "count" : 1842,
      "type" : "VEC2"
    }
  ]
}
