{
  "asset" : {
    "generator" : "UE Viewer (umodel) build 1590",
    "version" : "2.0"
  },
  "scene" : 0,
  "scenes" : [
    {
      "nodes" : [ 0 ]
    }
  ],
  "nodes" : [
    {
      "name" : "ObpMD_D_Ruins_Pillar_B_yz_top_st",
      "mesh" : 0
    }
  ],
  "materials" : [
    {
      "name" : "MmeMI_D_Ruins_Desert",
      "pbrMetallicRoughness" : {
        "baseColorFactor" : [ 0.3, 0.3, 0.3, 1.0 ],
        "metallicFactor" : 0.1,
        "roughnessFactor" : 0.5
      }
    }
  ],
  "meshes" : [
    {
      "primitives" : [
        {
          "attributes" : {
            "POSITION" : 1,
            "NORMAL" : 2,
            "TANGENT" : 3,
            "TEXCOORD_0" : 4,
            "TEXCOORD_1" : 5
          },
          "indices" : 0,
          "material" : 0
        }
      ],
      "name" : "ObpMD_D_Ruins_Pillar_B_yz_top_st"
    }
  ],
  "buffers" : [
    {
      "uri" : "ObpMD_D_Ruins_Pillar_B_yz_top_st.bin",
      "byteLength" : 11564
    }
  ],
  "bufferViews" : [
    {
      "buffer" : 0,
      "byteOffset" : 0,
      "byteLength" : 924
    },
    {
      "buffer" : 0,
      "byteOffset" : 924,
      "byteLength" : 2280
    },
    {
      "buffer" : 0,
      "byteOffset" : 3204,
      "byteLength" : 2280
    },
    {
      "buffer" : 0,
      "byteOffset" : 5484,
      "byteLength" : 3040
    },
    {
      "buffer" : 0,
      "byteOffset" : 8524,
      "byteLength" : 1520
    },
    {
      "buffer" : 0,
      "byteOffset" : 10044,
      "byteLength" : 1520
    }
  ],
  "accessors" : [
    {
      "bufferView" : 0,
      "componentType" : 5123,
      "count" : 462,
      "type" : "SCALAR"
    },
    {
      "bufferView" : 1,
      "min" : [ -1.93944, -1.04456e-16, -1.93944 ],
      "max" : [ 1.93944, 2.375, 1.93944 ],
      "componentType" : 5126,
      "count" : 190,
      "type" : "VEC3"
    },
    {
      "bufferView" : 2,
      "componentType" : 5126,
      "count" : 190,
      "type" : "VEC3"
    },
    {
      "bufferView" : 3,
      "componentType" : 5126,
      "count" : 190,
      "type" : "VEC4"
    },
    {
      "bufferView" : 4,
      "componentType" : 5126,
      "count" : 190,
      "type" : "VEC2"
    },
    {
      "bufferView" : 5,
      "componentType" : 5126,
      "count" : 190,
      "type" : "VEC2"
    }
  ]
}
