{
  "asset" : {
    "generator" : "UE Viewer (umodel) build 1590",
    "version" : "2.0"
  },
  "scene" : 0,
  "scenes" : [
    {
      "nodes" : [ 0 ]
    }
  ],
  "nodes" : [
    {
      "name" : "ObpMD_D_Ruins_Pillar_A_yz_mdl_st",
      "mesh" : 0
    }
  ],
  "materials" : [
    {
      "name" : "MmeMI_D_Ruins_Desert",
      "pbrMetallicRoughness" : {
        "baseColorFactor" : [ 0.3, 0.3, 0.3, 1.0 ],
        "metallicFactor" : 0.1,
        "roughnessFactor" : 0.5
      }
    }
  ],
  "meshes" : [
    {
      "primitives" : [
        {
          "attributes" : {
            "POSITION" : 1,
            "NORMAL" : 2,
            "TANGENT" : 3,
            "TEXCOORD_0" : 4,
            "TEXCOORD_1" : 5
          },
          "indices" : 0,
          "material" : 0
        }
      ],
      "name" : "ObpMD_D_Ruins_Pillar_A_yz_mdl_st"
    }
  ],
  "buffers" : [
    {
      "uri" : "ObpMD_D_Ruins_Pillar_A_yz_mdl_st.bin",
      "byteLength" : 1216
    }
  ],
  "bufferViews" : [
    {
      "buffer" : 0,
      "byteOffset" : 0,
      "byteLength" : 96
    },
    {
      "buffer" : 0,
      "byteOffset" : 96,
      "byteLength" : 240
    },
    {
      "buffer" : 0,
      "byteOffset" : 336,
      "byteLength" : 240
    },
    {
      "buffer" : 0,
      "byteOffset" : 576,
      "byteLength" : 320
    },
    {
      "buffer" : 0,
      "byteOffset" : 896,
      "byteLength" : 160
    },
    {
      "buffer" : 0,
      "byteOffset" : 1056,
      "byteLength" : 160
    }
  ],
  "accessors" : [
    {
      "bufferView" : 0,
      "componentType" : 5123,
      "count" : 48,
      "type" : "SCALAR"
    },
    {
      "bufferView" : 1,
      "min" : [ -0.351286, -2.15101e-17, -0.351286 ],
      "max" : [ 0.351286, 1, 0.351286 ],
      "componentType" : 5126,
      "count" : 20,
      "type" : "VEC3"
    },
    {
      "bufferView" : 2,
      "componentType" : 5126,
      "count" : 20,
      "type" : "VEC3"
    },
    {
      "bufferView" : 3,
      "componentType" : 5126,
      "count" : 20,
      "type" : "VEC4"
    },
    {
      "bufferView" : 4,
      "componentType" : 5126,
      "count" : 20,
      "type" : "VEC2"
    },
    {
      "bufferView" : 5,
      "componentType" : 5126,
      "count" : 20,
      "type" : "VEC2"
    }
  ]
}
