{
  "asset" : {
    "generator" : "UE Viewer (umodel) build 1590",
    "version" : "2.0"
  },
  "scene" : 0,
  "scenes" : [
    {
      "nodes" : [ 0 ]
    }
  ],
  "nodes" : [
    {
      "name" : "ObpMD_Co_D_Ruins_Stairs_B_12_3_1",
      "mesh" : 0
    }
  ],
  "materials" : [
    {
      "name" : "MmeMI_D_Ruins_Desert",
      "pbrMetallicRoughness" : {
        "baseColorFactor" : [ 0.3, 0.3, 0.3, 1.0 ],
        "metallicFactor" : 0.1,
        "roughnessFactor" : 0.5
      }
    }
  ],
  "meshes" : [
    {
      "primitives" : [
        {
          "attributes" : {
            "POSITION" : 1,
            "NORMAL" : 2,
            "TANGENT" : 3,
            "TEXCOORD_0" : 4
          },
          "indices" : 0,
          "material" : 0
        }
      ],
      "name" : "ObpMD_Co_D_Ruins_Stairs_B_12_3_1"
    }
  ],
  "buffers" : [
    {
      "uri" : "ObpMD_Co_D_Ruins_Stairs_B_12_3_1.bin",
      "byteLength" : 53784
    }
  ],
  "bufferViews" : [
    {
      "buffer" : 0,
      "byteOffset" : 0,
      "byteLength" : 3768
    },
    {
      "buffer" : 0,
      "byteOffset" : 3768,
      "byteLength" : 12504
    },
    {
      "buffer" : 0,
      "byteOffset" : 16272,
      "byteLength" : 12504
    },
    {
      "buffer" : 0,
      "byteOffset" : 28776,
      "byteLength" : 16672
    },
    {
      "buffer" : 0,
      "byteOffset" : 45448,
      "byteLength" : 8336
    }
  ],
  "accessors" : [
    {
      "bufferView" : 0,
      "componentType" : 5123,
      "count" : 1884,
      "type" : "SCALAR"
    },
    {
      "bufferView" : 1,
      "min" : [ -3.0625, -1.5, -1.625 ],
      "max" : [ 3, 1.5625, 1.625 ],
      "componentType" : 5126,
      "count" : 1042,
      "type" : "VEC3"
    },
    {
      "bufferView" : 2,
      "componentType" : 5126,
      "count" : 1042,
      "type" : "VEC3"
    },
    {
      "bufferView" : 3,
      "componentType" : 5126,
      "count" : 1042,
      "type" : "VEC4"
    },
    {
      "bufferView" : 4,
      "componentType" : 5126,
      "count" : 1042,
      "type" : "VEC2"
    }
  ]
}
