{
  "asset" : {
    "generator" : "UE Viewer (umodel) build 1590",
    "version" : "2.0"
  },
  "scene" : 0,
  "scenes" : [
    {
      "nodes" : [ 0 ]
    }
  ],
  "nodes" : [
    {
      "name" : "ObpMD_D_Ruins_Gate_root_end",
      "mesh" : 0
    }
  ],
  "materials" : [
    {
      "name" : "MmeMI_D_Ruins_Desert",
      "pbrMetallicRoughness" : {
        "baseColorFactor" : [ 0.3, 0.3, 0.3, 1.0 ],
        "metallicFactor" : 0.1,
        "roughnessFactor" : 0.5
      }
    }
  ],
  "meshes" : [
    {
      "primitives" : [
        {
          "attributes" : {
            "POSITION" : 1,
            "NORMAL" : 2,
            "TANGENT" : 3,
            "TEXCOORD_0" : 4,
            "TEXCOORD_1" : 5
          },
          "indices" : 0,
          "material" : 0
        }
      ],
      "name" : "ObpMD_D_Ruins_Gate_root_end"
    }
  ],
  "buffers" : [
    {
      "uri" : "ObpMD_D_Ruins_Gate_root_end.bin",
      "byteLength" : 46200
    }
  ],
  "bufferViews" : [
    {
      "buffer" : 0,
      "byteOffset" : 0,
      "byteLength" : 3192
    },
    {
      "buffer" : 0,
      "byteOffset" : 3192,
      "byteLength" : 9216
    },
    {
      "buffer" : 0,
      "byteOffset" : 12408,
      "byteLength" : 9216
    },
    {
      "buffer" : 0,
      "byteOffset" : 21624,
      "byteLength" : 12288
    },
    {
      "buffer" : 0,
      "byteOffset" : 33912,
      "byteLength" : 6144
    },
    {
      "buffer" : 0,
      "byteOffset" : 40056,
      "byteLength" : 6144
    }
  ],
  "accessors" : [
    {
      "bufferView" : 0,
      "componentType" : 5123,
      "count" : 1596,
      "type" : "SCALAR"
    },
    {
      "bufferView" : 1,
      "min" : [ -0.375, 0, -3.06162e-16 ],
      "max" : [ 1, 5, 5.25 ],
      "componentType" : 5126,
      "count" : 768,
      "type" : "VEC3"
    },
    {
      "bufferView" : 2,
      "componentType" : 5126,
      "count" : 768,
      "type" : "VEC3"
    },
    {
      "bufferView" : 3,
      "componentType" : 5126,
      "count" : 768,
      "type" : "VEC4"
    },
    {
      "bufferView" : 4,
      "componentType" : 5126,
      "count" : 768,
      "type" : "VEC2"
    },
    {
      "bufferView" : 5,
      "componentType" : 5126,
      "count" : 768,
      "type" : "VEC2"
    }
  ]
}
