{
  "asset" : {
    "generator" : "UE Viewer (umodel) build 1590",
    "version" : "2.0"
  },
  "scene" : 0,
  "scenes" : [
    {
      "nodes" : [ 0 ]
    }
  ],
  "nodes" : [
    {
      "name" : "ObpMD_Co_D_Ruins_Stairs_B_4_8_1",
      "mesh" : 0
    }
  ],
  "materials" : [
    {
      "name" : "MmeMI_D_Ruins_Desert",
      "pbrMetallicRoughness" : {
        "baseColorFactor" : [ 0.3, 0.3, 0.3, 1.0 ],
        "metallicFactor" : 0.1,
        "roughnessFactor" : 0.5
      }
    }
  ],
  "meshes" : [
    {
      "primitives" : [
        {
          "attributes" : {
            "POSITION" : 1,
            "NORMAL" : 2,
            "TANGENT" : 3,
            "TEXCOORD_0" : 4
          },
          "indices" : 0,
          "material" : 0
        }
      ],
      "name" : "ObpMD_Co_D_Ruins_Stairs_B_4_8_1"
    }
  ],
  "buffers" : [
    {
      "uri" : "ObpMD_Co_D_Ruins_Stairs_B_4_8_1.bin",
      "byteLength" : 24168
    }
  ],
  "bufferViews" : [
    {
      "buffer" : 0,
      "byteOffset" : 0,
      "byteLength" : 1608
    },
    {
      "buffer" : 0,
      "byteOffset" : 1608,
      "byteLength" : 5640
    },
    {
      "buffer" : 0,
      "byteOffset" : 7248,
      "byteLength" : 5640
    },
    {
      "buffer" : 0,
      "byteOffset" : 12888,
      "byteLength" : 7520
    },
    {
      "buffer" : 0,
      "byteOffset" : 20408,
      "byteLength" : 3760
    }
  ],
  "accessors" : [
    {
      "bufferView" : 0,
      "componentType" : 5123,
      "count" : 804,
      "type" : "SCALAR"
    },
    {
      "bufferView" : 1,
      "min" : [ -1.0625, -0.5, -4.125 ],
      "max" : [ 1, 0.5625, 4.125 ],
      "componentType" : 5126,
      "count" : 470,
      "type" : "VEC3"
    },
    {
      "bufferView" : 2,
      "componentType" : 5126,
      "count" : 470,
      "type" : "VEC3"
    },
    {
      "bufferView" : 3,
      "componentType" : 5126,
      "count" : 470,
      "type" : "VEC4"
    },
    {
      "bufferView" : 4,
      "componentType" : 5126,
      "count" : 470,
      "type" : "VEC2"
    }
  ]
}
