{
  "asset" : {
    "generator" : "UE Viewer (umodel) build 1590",
    "version" : "2.0"
  },
  "scene" : 0,
  "scenes" : [
    {
      "nodes" : [ 0 ]
    }
  ],
  "nodes" : [
    {
      "name" : "ObpMD_Co_D_Ruins_Stairs_B_12_6_1",
      "mesh" : 0
    }
  ],
  "materials" : [
    {
      "name" : "MmeMI_D_Ruins_Desert",
      "pbrMetallicRoughness" : {
        "baseColorFactor" : [ 0.3, 0.3, 0.3, 1.0 ],
        "metallicFactor" : 0.1,
        "roughnessFactor" : 0.5
      }
    }
  ],
  "meshes" : [
    {
      "primitives" : [
        {
          "attributes" : {
            "POSITION" : 1,
            "NORMAL" : 2,
            "TANGENT" : 3,
            "TEXCOORD_0" : 4
          },
          "indices" : 0,
          "material" : 0
        }
      ],
      "name" : "ObpMD_Co_D_Ruins_Stairs_B_12_6_1"
    }
  ],
  "buffers" : [
    {
      "uri" : "ObpMD_Co_D_Ruins_Stairs_B_12_6_1.bin",
      "byteLength" : 68472
    }
  ],
  "bufferViews" : [
    {
      "buffer" : 0,
      "byteOffset" : 0,
      "byteLength" : 4632
    },
    {
      "buffer" : 0,
      "byteOffset" : 4632,
      "byteLength" : 15960
    },
    {
      "buffer" : 0,
      "byteOffset" : 20592,
      "byteLength" : 15960
    },
    {
      "buffer" : 0,
      "byteOffset" : 36552,
      "byteLength" : 21280
    },
    {
      "buffer" : 0,
      "byteOffset" : 57832,
      "byteLength" : 10640
    }
  ],
  "accessors" : [
    {
      "bufferView" : 0,
      "componentType" : 5123,
      "count" : 2316,
      "type" : "SCALAR"
    },
    {
      "bufferView" : 1,
      "min" : [ -3.0625, -1.5, -3.125 ],
      "max" : [ 3, 1.5625, 3.125 ],
      "componentType" : 5126,
      "count" : 1330,
      "type" : "VEC3"
    },
    {
      "bufferView" : 2,
      "componentType" : 5126,
      "count" : 1330,
      "type" : "VEC3"
    },
    {
      "bufferView" : 3,
      "componentType" : 5126,
      "count" : 1330,
      "type" : "VEC4"
    },
    {
      "bufferView" : 4,
      "componentType" : 5126,
      "count" : 1330,
      "type" : "VEC2"
    }
  ]
}
