{
  "asset" : {
    "generator" : "UE Viewer (umodel) build 1590",
    "version" : "2.0"
  },
  "scene" : 0,
  "scenes" : [
    {
      "nodes" : [ 0 ]
    }
  ],
  "nodes" : [
    {
      "name" : "ObpMD_D_Ruins_Gate_C",
      "mesh" : 0
    }
  ],
  "materials" : [
    {
      "name" : "MmeMI_D_Ruins_Desert",
      "pbrMetallicRoughness" : {
        "baseColorFactor" : [ 0.3, 0.3, 0.3, 1.0 ],
        "metallicFactor" : 0.1,
        "roughnessFactor" : 0.5
      }
    }
  ],
  "meshes" : [
    {
      "primitives" : [
        {
          "attributes" : {
            "POSITION" : 1,
            "NORMAL" : 2,
            "TANGENT" : 3,
            "TEXCOORD_0" : 4,
            "TEXCOORD_1" : 5
          },
          "indices" : 0,
          "material" : 0
        }
      ],
      "name" : "ObpMD_D_Ruins_Gate_C"
    }
  ],
  "buffers" : [
    {
      "uri" : "ObpMD_D_Ruins_Gate_C.bin",
      "byteLength" : 73980
    }
  ],
  "bufferViews" : [
    {
      "buffer" : 0,
      "byteOffset" : 0,
      "byteLength" : 4428
    },
    {
      "buffer" : 0,
      "byteOffset" : 4428,
      "byteLength" : 14904
    },
    {
      "buffer" : 0,
      "byteOffset" : 19332,
      "byteLength" : 14904
    },
    {
      "buffer" : 0,
      "byteOffset" : 34236,
      "byteLength" : 19872
    },
    {
      "buffer" : 0,
      "byteOffset" : 54108,
      "byteLength" : 9936
    },
    {
      "buffer" : 0,
      "byteOffset" : 64044,
      "byteLength" : 9936
    }
  ],
  "accessors" : [
    {
      "bufferView" : 0,
      "componentType" : 5123,
      "count" : 2214,
      "type" : "SCALAR"
    },
    {
      "bufferView" : 1,
      "min" : [ -0.875, -1.22465e-16, -2.25 ],
      "max" : [ 0.875, 5, 2.25 ],
      "componentType" : 5126,
      "count" : 1242,
      "type" : "VEC3"
    },
    {
      "bufferView" : 2,
      "componentType" : 5126,
      "count" : 1242,
      "type" : "VEC3"
    },
    {
      "bufferView" : 3,
      "componentType" : 5126,
      "count" : 1242,
      "type" : "VEC4"
    },
    {
      "bufferView" : 4,
      "componentType" : 5126,
      "count" : 1242,
      "type" : "VEC2"
    },
    {
      "bufferView" : 5,
      "componentType" : 5126,
      "count" : 1242,
      "type" : "VEC2"
    }
  ]
}
