{
  "asset" : {
    "generator" : "UE Viewer (umodel) build 1590",
    "version" : "2.0"
  },
  "scene" : 0,
  "scenes" : [
    {
      "nodes" : [ 0 ]
    }
  ],
  "nodes" : [
    {
      "name" : "ObpMD_Co_D_Ruins_Stairs_B_8_8_1",
      "mesh" : 0
    }
  ],
  "materials" : [
    {
      "name" : "MmeMI_D_Ruins_Desert",
      "pbrMetallicRoughness" : {
        "baseColorFactor" : [ 0.3, 0.3, 0.3, 1.0 ],
        "metallicFactor" : 0.1,
        "roughnessFactor" : 0.5
      }
    }
  ],
  "meshes" : [
    {
      "primitives" : [
        {
          "attributes" : {
            "POSITION" : 1,
            "NORMAL" : 2,
            "TANGENT" : 3,
            "TEXCOORD_0" : 4
          },
          "indices" : 0,
          "material" : 0
        }
      ],
      "name" : "ObpMD_Co_D_Ruins_Stairs_B_8_8_1"
    }
  ],
  "buffers" : [
    {
      "uri" : "ObpMD_Co_D_Ruins_Stairs_B_8_8_1.bin",
      "byteLength" : 50304
    }
  ],
  "bufferViews" : [
    {
      "buffer" : 0,
      "byteOffset" : 0,
      "byteLength" : 3360
    },
    {
      "buffer" : 0,
      "byteOffset" : 3360,
      "byteLength" : 11736
    },
    {
      "buffer" : 0,
      "byteOffset" : 15096,
      "byteLength" : 11736
    },
    {
      "buffer" : 0,
      "byteOffset" : 26832,
      "byteLength" : 15648
    },
    {
      "buffer" : 0,
      "byteOffset" : 42480,
      "byteLength" : 7824
    }
  ],
  "accessors" : [
    {
      "bufferView" : 0,
      "componentType" : 5123,
      "count" : 1680,
      "type" : "SCALAR"
    },
    {
      "bufferView" : 1,
      "min" : [ -2.0625, -1, -4.125 ],
      "max" : [ 2, 1.0625, 4.125 ],
      "componentType" : 5126,
      "count" : 978,
      "type" : "VEC3"
    },
    {
      "bufferView" : 2,
      "componentType" : 5126,
      "count" : 978,
      "type" : "VEC3"
    },
    {
      "bufferView" : 3,
      "componentType" : 5126,
      "count" : 978,
      "type" : "VEC4"
    },
    {
      "bufferView" : 4,
      "componentType" : 5126,
      "count" : 978,
      "type" : "VEC2"
    }
  ]
}
