{
  "asset" : {
    "generator" : "UE Viewer (umodel) build 1590",
    "version" : "2.0"
  },
  "scene" : 0,
  "scenes" : [
    {
      "nodes" : [ 0 ]
    }
  ],
  "nodes" : [
    {
      "name" : "ObpMD_D_Ruins_Pillar_B_Debris_A",
      "mesh" : 0
    }
  ],
  "materials" : [
    {
      "name" : "ObpMI_D_Ruins_Pillar_B",
      "pbrMetallicRoughness" : {
        "baseColorFactor" : [ 0.3, 0.3, 0.3, 1.0 ],
        "metallicFactor" : 0.1,
        "roughnessFactor" : 0.5
      }
    }
  ],
  "meshes" : [
    {
      "primitives" : [
        {
          "attributes" : {
            "POSITION" : 1,
            "NORMAL" : 2,
            "TANGENT" : 3,
            "TEXCOORD_0" : 4,
            "TEXCOORD_1" : 5
          },
          "indices" : 0,
          "material" : 0
        }
      ],
      "name" : "ObpMD_D_Ruins_Pillar_B_Debris_A"
    }
  ],
  "buffers" : [
    {
      "uri" : "ObpMD_D_Ruins_Pillar_B_Debris_A.bin",
      "byteLength" : 32464
    }
  ],
  "bufferViews" : [
    {
      "buffer" : 0,
      "byteOffset" : 0,
      "byteLength" : 1776
    },
    {
      "buffer" : 0,
      "byteOffset" : 1776,
      "byteLength" : 6576
    },
    {
      "buffer" : 0,
      "byteOffset" : 8352,
      "byteLength" : 6576
    },
    {
      "buffer" : 0,
      "byteOffset" : 14928,
      "byteLength" : 8768
    },
    {
      "buffer" : 0,
      "byteOffset" : 23696,
      "byteLength" : 4384
    },
    {
      "buffer" : 0,
      "byteOffset" : 28080,
      "byteLength" : 4384
    }
  ],
  "accessors" : [
    {
      "bufferView" : 0,
      "componentType" : 5123,
      "count" : 888,
      "type" : "SCALAR"
    },
    {
      "bufferView" : 1,
      "min" : [ -2, -9.95025e-17, -2 ],
      "max" : [ 2, 6.98309, 2 ],
      "componentType" : 5126,
      "count" : 548,
      "type" : "VEC3"
    },
    {
      "bufferView" : 2,
      "componentType" : 5126,
      "count" : 548,
      "type" : "VEC3"
    },
    {
      "bufferView" : 3,
      "componentType" : 5126,
      "count" : 548,
      "type" : "VEC4"
    },
    {
      "bufferView" : 4,
      "componentType" : 5126,
      "count" : 548,
      "type" : "VEC2"
    },
    {
      "bufferView" : 5,
      "componentType" : 5126,
      "count" : 548,
      "type" : "VEC2"
    }
  ]
}
