{
  "asset" : {
    "generator" : "UE Viewer (umodel) build 1590",
    "version" : "2.0"
  },
  "scene" : 0,
  "scenes" : [
    {
      "nodes" : [ 0 ]
    }
  ],
  "nodes" : [
    {
      "name" : "ObpMD_Co_D_Ruins_Wall_4_1",
      "mesh" : 0
    }
  ],
  "materials" : [
    {
      "name" : "MmeMI_D_Ruins_Desert",
      "pbrMetallicRoughness" : {
        "baseColorFactor" : [ 0.3, 0.3, 0.3, 1.0 ],
        "metallicFactor" : 0.1,
        "roughnessFactor" : 0.5
      }
    }
  ],
  "meshes" : [
    {
      "primitives" : [
        {
          "attributes" : {
            "POSITION" : 1,
            "NORMAL" : 2,
            "TANGENT" : 3,
            "TEXCOORD_0" : 4
          },
          "indices" : 0,
          "material" : 0
        }
      ],
      "name" : "ObpMD_Co_D_Ruins_Wall_4_1"
    }
  ],
  "buffers" : [
    {
      "uri" : "ObpMD_Co_D_Ruins_Wall_4_1.bin",
      "byteLength" : 10656
    }
  ],
  "bufferViews" : [
    {
      "buffer" : 0,
      "byteOffset" : 0,
      "byteLength" : 672
    },
    {
      "buffer" : 0,
      "byteOffset" : 672,
      "byteLength" : 2496
    },
    {
      "buffer" : 0,
      "byteOffset" : 3168,
      "byteLength" : 2496
    },
    {
      "buffer" : 0,
      "byteOffset" : 5664,
      "byteLength" : 3328
    },
    {
      "buffer" : 0,
      "byteOffset" : 8992,
      "byteLength" : 1664
    }
  ],
  "accessors" : [
    {
      "bufferView" : 0,
      "componentType" : 5123,
      "count" : 336,
      "type" : "SCALAR"
    },
    {
      "bufferView" : 1,
      "min" : [ -0.875, -1.22465e-16, -2 ],
      "max" : [ 0.5, 5, 2 ],
      "componentType" : 5126,
      "count" : 208,
      "type" : "VEC3"
    },
    {
      "bufferView" : 2,
      "componentType" : 5126,
      "count" : 208,
      "type" : "VEC3"
    },
    {
      "bufferView" : 3,
      "componentType" : 5126,
      "count" : 208,
      "type" : "VEC4"
    },
    {
      "bufferView" : 4,
      "componentType" : 5126,
      "count" : 208,
      "type" : "VEC2"
    }
  ]
}
