{
  "asset" : {
    "generator" : "UE Viewer (umodel) build 1590",
    "version" : "2.0"
  },
  "scene" : 0,
  "scenes" : [
    {
      "nodes" : [ 0 ]
    }
  ],
  "nodes" : [
    {
      "name" : "ObpMD_D_Ruins_Gate_B_root_lp",
      "mesh" : 0
    }
  ],
  "materials" : [
    {
      "name" : "MmeMI_D_Ruins_Desert",
      "pbrMetallicRoughness" : {
        "baseColorFactor" : [ 0.3, 0.3, 0.3, 1.0 ],
        "metallicFactor" : 0.1,
        "roughnessFactor" : 0.5
      }
    }
  ],
  "meshes" : [
    {
      "primitives" : [
        {
          "attributes" : {
            "POSITION" : 1,
            "NORMAL" : 2,
            "TANGENT" : 3,
            "TEXCOORD_0" : 4,
            "TEXCOORD_1" : 5
          },
          "indices" : 0,
          "material" : 0
        }
      ],
      "name" : "ObpMD_D_Ruins_Gate_B_root_lp"
    }
  ],
  "buffers" : [
    {
      "uri" : "ObpMD_D_Ruins_Gate_B_root_lp.bin",
      "byteLength" : 2968
    }
  ],
  "bufferViews" : [
    {
      "buffer" : 0,
      "byteOffset" : 0,
      "byteLength" : 168
    },
    {
      "buffer" : 0,
      "byteOffset" : 168,
      "byteLength" : 600
    },
    {
      "buffer" : 0,
      "byteOffset" : 768,
      "byteLength" : 600
    },
    {
      "buffer" : 0,
      "byteOffset" : 1368,
      "byteLength" : 800
    },
    {
      "buffer" : 0,
      "byteOffset" : 2168,
      "byteLength" : 400
    },
    {
      "buffer" : 0,
      "byteOffset" : 2568,
      "byteLength" : 400
    }
  ],
  "accessors" : [
    {
      "bufferView" : 0,
      "componentType" : 5123,
      "count" : 84,
      "type" : "SCALAR"
    },
    {
      "bufferView" : 1,
      "min" : [ -0.4375, 2.35043e-23, 3.76701e-07 ],
      "max" : [ -0.0624995, 5, 1 ],
      "componentType" : 5126,
      "count" : 50,
      "type" : "VEC3"
    },
    {
      "bufferView" : 2,
      "componentType" : 5126,
      "count" : 50,
      "type" : "VEC3"
    },
    {
      "bufferView" : 3,
      "componentType" : 5126,
      "count" : 50,
      "type" : "VEC4"
    },
    {
      "bufferView" : 4,
      "componentType" : 5126,
      "count" : 50,
      "type" : "VEC2"
    },
    {
      "bufferView" : 5,
      "componentType" : 5126,
      "count" : 50,
      "type" : "VEC2"
    }
  ]
}
