{
  "asset" : {
    "generator" : "UE Viewer (umodel) build 1590",
    "version" : "2.0"
  },
  "scene" : 0,
  "scenes" : [
    {
      "nodes" : [ 0 ]
    }
  ],
  "nodes" : [
    {
      "name" : "ObpMD_Co_D_Residence_Window_A3_1",
      "mesh" : 0
    }
  ],
  "materials" : [
    {
      "name" : "ObpMI_D_residence_A",
      "pbrMetallicRoughness" : {
        "baseColorFactor" : [ 0.3, 0.3, 0.3, 1.0 ],
        "metallicFactor" : 0.1,
        "roughnessFactor" : 0.5
      }
    }
  ],
  "meshes" : [
    {
      "primitives" : [
        {
          "attributes" : {
            "POSITION" : 1,
            "NORMAL" : 2,
            "TANGENT" : 3,
            "TEXCOORD_0" : 4
          },
          "indices" : 0,
          "material" : 0
        }
      ],
      "name" : "ObpMD_Co_D_Residence_Window_A3_1"
    }
  ],
  "buffers" : [
    {
      "uri" : "ObpMD_Co_D_Residence_Window_A3_1.bin",
      "byteLength" : 52404
    }
  ],
  "bufferViews" : [
    {
      "buffer" : 0,
      "byteOffset" : 0,
      "byteLength" : 4020
    },
    {
      "buffer" : 0,
      "byteOffset" : 4020,
      "byteLength" : 12096
    },
    {
      "buffer" : 0,
      "byteOffset" : 16116,
      "byteLength" : 12096
    },
    {
      "buffer" : 0,
      "byteOffset" : 28212,
      "byteLength" : 16128
    },
    {
      "buffer" : 0,
      "byteOffset" : 44340,
      "byteLength" : 8064
    }
  ],
  "accessors" : [
    {
      "bufferView" : 0,
      "componentType" : 5123,
      "count" : 2010,
      "type" : "SCALAR"
    },
    {
      "bufferView" : 1,
      "min" : [ -1.19209e-07, -2.91466e-16, -4 ],
      "max" : [ 0.5, 5, 4 ],
      "componentType" : 5126,
      "count" : 1008,
      "type" : "VEC3"
    },
    {
      "bufferView" : 2,
      "componentType" : 5126,
      "count" : 1008,
      "type" : "VEC3"
    },
    {
      "bufferView" : 3,
      "componentType" : 5126,
      "count" : 1008,
      "type" : "VEC4"
    },
    {
      "bufferView" : 4,
      "componentType" : 5126,
      "count" : 1008,
      "type" : "VEC2"
    }
  ]
}
