{
  "asset" : {
    "generator" : "UE Viewer (umodel) build 1590",
    "version" : "2.0"
  },
  "scene" : 0,
  "scenes" : [
    {
      "nodes" : [ 0 ]
    }
  ],
  "nodes" : [
    {
      "name" : "ObpMD_Co_D_Residence_StairesSide_12_1",
      "mesh" : 0
    }
  ],
  "materials" : [
    {
      "name" : "WorldGridMaterial",
      "pbrMetallicRoughness" : {
        "baseColorFactor" : [ 0.3, 0.3, 0.3, 1.0 ],
        "metallicFactor" : 0.1,
        "roughnessFactor" : 0.5
      }
    }
  ],
  "meshes" : [
    {
      "primitives" : [
        {
          "attributes" : {
            "POSITION" : 1,
            "NORMAL" : 2,
            "TANGENT" : 3,
            "TEXCOORD_0" : 4
          },
          "indices" : 0,
          "material" : 0
        }
      ],
      "name" : "ObpMD_Co_D_Residence_StairesSide_12_1"
    }
  ],
  "buffers" : [
    {
      "uri" : "ObpMD_Co_D_Residence_StairesSide_12_1.bin",
      "byteLength" : 22848
    }
  ],
  "bufferViews" : [
    {
      "buffer" : 0,
      "byteOffset" : 0,
      "byteLength" : 1344
    },
    {
      "buffer" : 0,
      "byteOffset" : 1344,
      "byteLength" : 5376
    },
    {
      "buffer" : 0,
      "byteOffset" : 6720,
      "byteLength" : 5376
    },
    {
      "buffer" : 0,
      "byteOffset" : 12096,
      "byteLength" : 7168
    },
    {
      "buffer" : 0,
      "byteOffset" : 19264,
      "byteLength" : 3584
    }
  ],
  "accessors" : [
    {
      "bufferView" : 0,
      "componentType" : 5123,
      "count" : 672,
      "type" : "SCALAR"
    },
    {
      "bufferView" : 1,
      "min" : [ -3.125, -2.25, -0.1875 ],
      "max" : [ 3, 2.49, 0.1875 ],
      "componentType" : 5126,
      "count" : 448,
      "type" : "VEC3"
    },
    {
      "bufferView" : 2,
      "componentType" : 5126,
      "count" : 448,
      "type" : "VEC3"
    },
    {
      "bufferView" : 3,
      "componentType" : 5126,
      "count" : 448,
      "type" : "VEC4"
    },
    {
      "bufferView" : 4,
      "componentType" : 5126,
      "count" : 448,
      "type" : "VEC2"
    }
  ]
}
