{
  "asset" : {
    "generator" : "UE Viewer (umodel) build 1590",
    "version" : "2.0"
  },
  "scene" : 0,
  "scenes" : [
    {
      "nodes" : [ 0 ]
    }
  ],
  "nodes" : [
    {
      "name" : "ObpMD_Residence_WallSide_Verner_B",
      "mesh" : 0
    }
  ],
  "materials" : [
    {
      "name" : "ObpMI_D_residence_Verner_A",
      "pbrMetallicRoughness" : {
        "baseColorFactor" : [ 0.3, 0.3, 0.3, 1.0 ],
        "metallicFactor" : 0.1,
        "roughnessFactor" : 0.5
      }
    }
  ],
  "meshes" : [
    {
      "primitives" : [
        {
          "attributes" : {
            "POSITION" : 1,
            "NORMAL" : 2,
            "TANGENT" : 3,
            "TEXCOORD_0" : 4
          },
          "indices" : 0,
          "material" : 0
        }
      ],
      "name" : "ObpMD_Residence_WallSide_Verner_B"
    }
  ],
  "buffers" : [
    {
      "uri" : "ObpMD_Residence_WallSide_Verner_B.bin",
      "byteLength" : 9932
    }
  ],
  "bufferViews" : [
    {
      "buffer" : 0,
      "byteOffset" : 0,
      "byteLength" : 572
    },
    {
      "buffer" : 0,
      "byteOffset" : 572,
      "byteLength" : 2340
    },
    {
      "buffer" : 0,
      "byteOffset" : 2912,
      "byteLength" : 2340
    },
    {
      "buffer" : 0,
      "byteOffset" : 5252,
      "byteLength" : 3120
    },
    {
      "buffer" : 0,
      "byteOffset" : 8372,
      "byteLength" : 1560
    }
  ],
  "accessors" : [
    {
      "bufferView" : 0,
      "componentType" : 5123,
      "count" : 285,
      "type" : "SCALAR"
    },
    {
      "bufferView" : 1,
      "min" : [ -23, -12, -20 ],
      "max" : [ 24, 8, 70 ],
      "componentType" : 5126,
      "count" : 195,
      "type" : "VEC3"
    },
    {
      "bufferView" : 2,
      "componentType" : 5126,
      "count" : 195,
      "type" : "VEC3"
    },
    {
      "bufferView" : 3,
      "componentType" : 5126,
      "count" : 195,
      "type" : "VEC4"
    },
    {
      "bufferView" : 4,
      "componentType" : 5126,
      "count" : 195,
      "type" : "VEC2"
    }
  ]
}
