{
  "asset" : {
    "generator" : "UE Viewer (umodel) build 1590",
    "version" : "2.0"
  },
  "scene" : 0,
  "scenes" : [
    {
      "nodes" : [ 0 ]
    }
  ],
  "nodes" : [
    {
      "name" : "ObpMD_Residence_WallSide_Battle_A",
      "mesh" : 0
    }
  ],
  "materials" : [
    {
      "name" : "ObpMI_D_residence_Kokuyoukai_A",
      "pbrMetallicRoughness" : {
        "baseColorFactor" : [ 0.3, 0.3, 0.3, 1.0 ],
        "metallicFactor" : 0.1,
        "roughnessFactor" : 0.5
      }
    }
  ],
  "meshes" : [
    {
      "primitives" : [
        {
          "attributes" : {
            "POSITION" : 1,
            "NORMAL" : 2,
            "TANGENT" : 3,
            "TEXCOORD_0" : 4
          },
          "indices" : 0,
          "material" : 0
        }
      ],
      "name" : "ObpMD_Residence_WallSide_Battle_A"
    }
  ],
  "buffers" : [
    {
      "uri" : "ObpMD_Residence_WallSide_Battle_A.bin",
      "byteLength" : 225000
    }
  ],
  "bufferViews" : [
    {
      "buffer" : 0,
      "byteOffset" : 0,
      "byteLength" : 14472
    },
    {
      "buffer" : 0,
      "byteOffset" : 14472,
      "byteLength" : 52632
    },
    {
      "buffer" : 0,
      "byteOffset" : 67104,
      "byteLength" : 52632
    },
    {
      "buffer" : 0,
      "byteOffset" : 119736,
      "byteLength" : 70176
    },
    {
      "buffer" : 0,
      "byteOffset" : 189912,
      "byteLength" : 35088
    }
  ],
  "accessors" : [
    {
      "bufferView" : 0,
      "componentType" : 5123,
      "count" : 7236,
      "type" : "SCALAR"
    },
    {
      "bufferView" : 1,
      "min" : [ -35, -0.745, -11.25 ],
      "max" : [ 19, 6.99, 11.125 ],
      "componentType" : 5126,
      "count" : 4386,
      "type" : "VEC3"
    },
    {
      "bufferView" : 2,
      "componentType" : 5126,
      "count" : 4386,
      "type" : "VEC3"
    },
    {
      "bufferView" : 3,
      "componentType" : 5126,
      "count" : 4386,
      "type" : "VEC4"
    },
    {
      "bufferView" : 4,
      "componentType" : 5126,
      "count" : 4386,
      "type" : "VEC2"
    }
  ]
}
