{
  "asset" : {
    "generator" : "UE Viewer (umodel) build 1590",
    "version" : "2.0"
  },
  "scene" : 0,
  "scenes" : [
    {
      "nodes" : [ 0 ]
    }
  ],
  "nodes" : [
    {
      "name" : "ObpMD_Co_D_Residence_Floor_SHA_A",
      "mesh" : 0
    }
  ],
  "materials" : [
    {
      "name" : "ObpMI_D_residence_A",
      "pbrMetallicRoughness" : {
        "baseColorFactor" : [ 0.3, 0.3, 0.3, 1.0 ],
        "metallicFactor" : 0.1,
        "roughnessFactor" : 0.5
      }
    }
  ],
  "meshes" : [
    {
      "primitives" : [
        {
          "attributes" : {
            "POSITION" : 1,
            "NORMAL" : 2,
            "TANGENT" : 3,
            "TEXCOORD_0" : 4
          },
          "indices" : 0,
          "material" : 0
        }
      ],
      "name" : "ObpMD_Co_D_Residence_Floor_SHA_A"
    }
  ],
  "buffers" : [
    {
      "uri" : "ObpMD_Co_D_Residence_Floor_SHA_A.bin",
      "byteLength" : 72612
    }
  ],
  "bufferViews" : [
    {
      "buffer" : 0,
      "byteOffset" : 0,
      "byteLength" : 5028
    },
    {
      "buffer" : 0,
      "byteOffset" : 5028,
      "byteLength" : 16896
    },
    {
      "buffer" : 0,
      "byteOffset" : 21924,
      "byteLength" : 16896
    },
    {
      "buffer" : 0,
      "byteOffset" : 38820,
      "byteLength" : 22528
    },
    {
      "buffer" : 0,
      "byteOffset" : 61348,
      "byteLength" : 11264
    }
  ],
  "accessors" : [
    {
      "bufferView" : 0,
      "componentType" : 5123,
      "count" : 2514,
      "type" : "SCALAR"
    },
    {
      "bufferView" : 1,
      "min" : [ -18.5, -6.4294e-16, -10.5 ],
      "max" : [ 7.5, 5.81707e-16, 9.5 ],
      "componentType" : 5126,
      "count" : 1408,
      "type" : "VEC3"
    },
    {
      "bufferView" : 2,
      "componentType" : 5126,
      "count" : 1408,
      "type" : "VEC3"
    },
    {
      "bufferView" : 3,
      "componentType" : 5126,
      "count" : 1408,
      "type" : "VEC4"
    },
    {
      "bufferView" : 4,
      "componentType" : 5126,
      "count" : 1408,
      "type" : "VEC2"
    }
  ]
}
