{
  "asset" : {
    "generator" : "UE Viewer (umodel) build 1590",
    "version" : "2.0"
  },
  "scene" : 0,
  "scenes" : [
    {
      "nodes" : [ 0 ]
    }
  ],
  "nodes" : [
    {
      "name" : "ObpMD_Co_D_Residence_Staires_Carpet_12_6_1",
      "mesh" : 0
    }
  ],
  "materials" : [
    {
      "name" : "ObpMI_D_residence_Kokuyoukai_A",
      "pbrMetallicRoughness" : {
        "baseColorFactor" : [ 0.3, 0.3, 0.3, 1.0 ],
        "metallicFactor" : 0.1,
        "roughnessFactor" : 0.5
      }
    }
  ],
  "meshes" : [
    {
      "primitives" : [
        {
          "attributes" : {
            "POSITION" : 1,
            "NORMAL" : 2,
            "TANGENT" : 3,
            "TEXCOORD_0" : 4
          },
          "indices" : 0,
          "material" : 0
        }
      ],
      "name" : "ObpMD_Co_D_Residence_Staires_Carpet_12_6_1"
    }
  ],
  "buffers" : [
    {
      "uri" : "ObpMD_Co_D_Residence_Staires_Carpet_12_6_1.bin",
      "byteLength" : 24768
    }
  ],
  "bufferViews" : [
    {
      "buffer" : 0,
      "byteOffset" : 0,
      "byteLength" : 1728
    },
    {
      "buffer" : 0,
      "byteOffset" : 1728,
      "byteLength" : 5760
    },
    {
      "buffer" : 0,
      "byteOffset" : 7488,
      "byteLength" : 5760
    },
    {
      "buffer" : 0,
      "byteOffset" : 13248,
      "byteLength" : 7680
    },
    {
      "buffer" : 0,
      "byteOffset" : 20928,
      "byteLength" : 3840
    }
  ],
  "accessors" : [
    {
      "bufferView" : 0,
      "componentType" : 5123,
      "count" : 864,
      "type" : "SCALAR"
    },
    {
      "bufferView" : 1,
      "min" : [ -3, -1.5, -2.8125 ],
      "max" : [ 3, 1.5, 2.8125 ],
      "componentType" : 5126,
      "count" : 480,
      "type" : "VEC3"
    },
    {
      "bufferView" : 2,
      "componentType" : 5126,
      "count" : 480,
      "type" : "VEC3"
    },
    {
      "bufferView" : 3,
      "componentType" : 5126,
      "count" : 480,
      "type" : "VEC4"
    },
    {
      "bufferView" : 4,
      "componentType" : 5126,
      "count" : 480,
      "type" : "VEC2"
    }
  ]
}
