{
  "asset" : {
    "generator" : "UE Viewer (umodel) build 1590",
    "version" : "2.0"
  },
  "scene" : 0,
  "scenes" : [
    {
      "nodes" : [ 0 ]
    }
  ],
  "nodes" : [
    {
      "name" : "ObpMD_Residence_WallSide_SHA_E000000",
      "mesh" : 0
    }
  ],
  "materials" : [
    {
      "name" : "ObpMI_D_residence_WallSide",
      "pbrMetallicRoughness" : {
        "baseColorFactor" : [ 0.3, 0.3, 0.3, 1.0 ],
        "metallicFactor" : 0.1,
        "roughnessFactor" : 0.5
      }
    }
  ],
  "meshes" : [
    {
      "primitives" : [
        {
          "attributes" : {
            "POSITION" : 1,
            "NORMAL" : 2,
            "TANGENT" : 3,
            "TEXCOORD_0" : 4
          },
          "indices" : 0,
          "material" : 0
        }
      ],
      "name" : "ObpMD_Residence_WallSide_SHA_E000000"
    }
  ],
  "buffers" : [
    {
      "uri" : "ObpMD_Residence_WallSide_SHA_E000000.bin",
      "byteLength" : 2856
    }
  ],
  "bufferViews" : [
    {
      "buffer" : 0,
      "byteOffset" : 0,
      "byteLength" : 168
    },
    {
      "buffer" : 0,
      "byteOffset" : 168,
      "byteLength" : 672
    },
    {
      "buffer" : 0,
      "byteOffset" : 840,
      "byteLength" : 672
    },
    {
      "buffer" : 0,
      "byteOffset" : 1512,
      "byteLength" : 896
    },
    {
      "buffer" : 0,
      "byteOffset" : 2408,
      "byteLength" : 448
    }
  ],
  "accessors" : [
    {
      "bufferView" : 0,
      "componentType" : 5123,
      "count" : 84,
      "type" : "SCALAR"
    },
    {
      "bufferView" : 1,
      "min" : [ -8.25, -1.5, -6.375 ],
      "max" : [ 5.75, 2, 5.625 ],
      "componentType" : 5126,
      "count" : 56,
      "type" : "VEC3"
    },
    {
      "bufferView" : 2,
      "componentType" : 5126,
      "count" : 56,
      "type" : "VEC3"
    },
    {
      "bufferView" : 3,
      "componentType" : 5126,
      "count" : 56,
      "type" : "VEC4"
    },
    {
      "bufferView" : 4,
      "componentType" : 5126,
      "count" : 56,
      "type" : "VEC2"
    }
  ]
}
