{
  "asset" : {
    "generator" : "UE Viewer (umodel) build 1590",
    "version" : "2.0"
  },
  "scene" : 0,
  "scenes" : [
    {
      "nodes" : [ 0 ]
    }
  ],
  "nodes" : [
    {
      "name" : "ObpMD_Co_D_Residence_Wall_A5_1",
      "mesh" : 0
    }
  ],
  "materials" : [
    {
      "name" : "ObpMI_D_residence_A",
      "pbrMetallicRoughness" : {
        "baseColorFactor" : [ 0.3, 0.3, 0.3, 1.0 ],
        "metallicFactor" : 0.1,
        "roughnessFactor" : 0.5
      }
    }
  ],
  "meshes" : [
    {
      "primitives" : [
        {
          "attributes" : {
            "POSITION" : 1,
            "NORMAL" : 2,
            "TANGENT" : 3,
            "TEXCOORD_0" : 4
          },
          "indices" : 0,
          "material" : 0
        }
      ],
      "name" : "ObpMD_Co_D_Residence_Wall_A5_1"
    }
  ],
  "buffers" : [
    {
      "uri" : "ObpMD_Co_D_Residence_Wall_A5_1.bin",
      "byteLength" : 9996
    }
  ],
  "bufferViews" : [
    {
      "buffer" : 0,
      "byteOffset" : 0,
      "byteLength" : 780
    },
    {
      "buffer" : 0,
      "byteOffset" : 780,
      "byteLength" : 2304
    },
    {
      "buffer" : 0,
      "byteOffset" : 3084,
      "byteLength" : 2304
    },
    {
      "buffer" : 0,
      "byteOffset" : 5388,
      "byteLength" : 3072
    },
    {
      "buffer" : 0,
      "byteOffset" : 8460,
      "byteLength" : 1536
    }
  ],
  "accessors" : [
    {
      "bufferView" : 0,
      "componentType" : 5123,
      "count" : 390,
      "type" : "SCALAR"
    },
    {
      "bufferView" : 1,
      "min" : [ -1.19209e-07, 2.13689e-16, -2.5 ],
      "max" : [ 0.25, 5, 2.5 ],
      "componentType" : 5126,
      "count" : 192,
      "type" : "VEC3"
    },
    {
      "bufferView" : 2,
      "componentType" : 5126,
      "count" : 192,
      "type" : "VEC3"
    },
    {
      "bufferView" : 3,
      "componentType" : 5126,
      "count" : 192,
      "type" : "VEC4"
    },
    {
      "bufferView" : 4,
      "componentType" : 5126,
      "count" : 192,
      "type" : "VEC2"
    }
  ]
}
