{
  "asset" : {
    "generator" : "UE Viewer (umodel) build 1590",
    "version" : "2.0"
  },
  "scene" : 0,
  "scenes" : [
    {
      "nodes" : [ 0 ]
    }
  ],
  "nodes" : [
    {
      "name" : "ObpMD_Co_D_Residence_Floor_A_15_19_1",
      "mesh" : 0
    }
  ],
  "materials" : [
    {
      "name" : "ObpMI_D_residence_A",
      "pbrMetallicRoughness" : {
        "baseColorFactor" : [ 0.3, 0.3, 0.3, 1.0 ],
        "metallicFactor" : 0.1,
        "roughnessFactor" : 0.5
      }
    }
  ],
  "meshes" : [
    {
      "primitives" : [
        {
          "attributes" : {
            "POSITION" : 1,
            "NORMAL" : 2,
            "TANGENT" : 3,
            "TEXCOORD_0" : 4
          },
          "indices" : 0,
          "material" : 0
        }
      ],
      "name" : "ObpMD_Co_D_Residence_Floor_A_15_19_1"
    }
  ],
  "buffers" : [
    {
      "uri" : "ObpMD_Co_D_Residence_Floor_A_15_19_1.bin",
      "byteLength" : 65724
    }
  ],
  "bufferViews" : [
    {
      "buffer" : 0,
      "byteOffset" : 0,
      "byteLength" : 4284
    },
    {
      "buffer" : 0,
      "byteOffset" : 4284,
      "byteLength" : 15360
    },
    {
      "buffer" : 0,
      "byteOffset" : 19644,
      "byteLength" : 15360
    },
    {
      "buffer" : 0,
      "byteOffset" : 35004,
      "byteLength" : 20480
    },
    {
      "buffer" : 0,
      "byteOffset" : 55484,
      "byteLength" : 10240
    }
  ],
  "accessors" : [
    {
      "bufferView" : 0,
      "componentType" : 5123,
      "count" : 2142,
      "type" : "SCALAR"
    },
    {
      "bufferView" : 1,
      "min" : [ -8, -6.12323e-16, -10 ],
      "max" : [ 8, 6.12323e-16, 10 ],
      "componentType" : 5126,
      "count" : 1280,
      "type" : "VEC3"
    },
    {
      "bufferView" : 2,
      "componentType" : 5126,
      "count" : 1280,
      "type" : "VEC3"
    },
    {
      "bufferView" : 3,
      "componentType" : 5126,
      "count" : 1280,
      "type" : "VEC4"
    },
    {
      "bufferView" : 4,
      "componentType" : 5126,
      "count" : 1280,
      "type" : "VEC2"
    }
  ]
}
