{
  "asset" : {
    "generator" : "UE Viewer (umodel) build 1590",
    "version" : "2.0"
  },
  "scene" : 0,
  "scenes" : [
    {
      "nodes" : [ 0 ]
    }
  ],
  "nodes" : [
    {
      "name" : "ObpMD_Co_D_Residence_Enter_A_R",
      "mesh" : 0
    }
  ],
  "materials" : [
    {
      "name" : "ObpMI_D_residence_A",
      "pbrMetallicRoughness" : {
        "baseColorFactor" : [ 0.3, 0.3, 0.3, 1.0 ],
        "metallicFactor" : 0.1,
        "roughnessFactor" : 0.5
      }
    }
  ],
  "meshes" : [
    {
      "primitives" : [
        {
          "attributes" : {
            "POSITION" : 1,
            "NORMAL" : 2,
            "TANGENT" : 3,
            "TEXCOORD_0" : 4
          },
          "indices" : 0,
          "material" : 0
        }
      ],
      "name" : "ObpMD_Co_D_Residence_Enter_A_R"
    }
  ],
  "buffers" : [
    {
      "uri" : "ObpMD_Co_D_Residence_Enter_A_R.bin",
      "byteLength" : 24828
    }
  ],
  "bufferViews" : [
    {
      "buffer" : 0,
      "byteOffset" : 0,
      "byteLength" : 1836
    },
    {
      "buffer" : 0,
      "byteOffset" : 1836,
      "byteLength" : 5748
    },
    {
      "buffer" : 0,
      "byteOffset" : 7584,
      "byteLength" : 5748
    },
    {
      "buffer" : 0,
      "byteOffset" : 13332,
      "byteLength" : 7664
    },
    {
      "buffer" : 0,
      "byteOffset" : 20996,
      "byteLength" : 3832
    }
  ],
  "accessors" : [
    {
      "bufferView" : 0,
      "componentType" : 5123,
      "count" : 918,
      "type" : "SCALAR"
    },
    {
      "bufferView" : 1,
      "min" : [ -0.5, -1.23229e-16, -1 ],
      "max" : [ 0.5, 5, 1.5 ],
      "componentType" : 5126,
      "count" : 479,
      "type" : "VEC3"
    },
    {
      "bufferView" : 2,
      "componentType" : 5126,
      "count" : 479,
      "type" : "VEC3"
    },
    {
      "bufferView" : 3,
      "componentType" : 5126,
      "count" : 479,
      "type" : "VEC4"
    },
    {
      "bufferView" : 4,
      "componentType" : 5126,
      "count" : 479,
      "type" : "VEC2"
    }
  ]
}
