{
  "asset" : {
    "generator" : "UE Viewer (umodel) build 1590",
    "version" : "2.0"
  },
  "scene" : 0,
  "scenes" : [
    {
      "nodes" : [ 0 ]
    }
  ],
  "nodes" : [
    {
      "name" : "ObpMD_Co_D_Residence_StairesSide_N6_N",
      "mesh" : 0
    }
  ],
  "materials" : [
    {
      "name" : "WorldGridMaterial",
      "pbrMetallicRoughness" : {
        "baseColorFactor" : [ 0.3, 0.3, 0.3, 1.0 ],
        "metallicFactor" : 0.1,
        "roughnessFactor" : 0.5
      }
    }
  ],
  "meshes" : [
    {
      "primitives" : [
        {
          "attributes" : {
            "POSITION" : 1,
            "NORMAL" : 2,
            "TANGENT" : 3,
            "TEXCOORD_0" : 4
          },
          "indices" : 0,
          "material" : 0
        }
      ],
      "name" : "ObpMD_Co_D_Residence_StairesSide_N6_N"
    }
  ],
  "buffers" : [
    {
      "uri" : "ObpMD_Co_D_Residence_StairesSide_N6_N.bin",
      "byteLength" : 8160
    }
  ],
  "bufferViews" : [
    {
      "buffer" : 0,
      "byteOffset" : 0,
      "byteLength" : 480
    },
    {
      "buffer" : 0,
      "byteOffset" : 480,
      "byteLength" : 1920
    },
    {
      "buffer" : 0,
      "byteOffset" : 2400,
      "byteLength" : 1920
    },
    {
      "buffer" : 0,
      "byteOffset" : 4320,
      "byteLength" : 2560
    },
    {
      "buffer" : 0,
      "byteOffset" : 6880,
      "byteLength" : 1280
    }
  ],
  "accessors" : [
    {
      "bufferView" : 0,
      "componentType" : 5123,
      "count" : 240,
      "type" : "SCALAR"
    },
    {
      "bufferView" : 1,
      "min" : [ -4.125, -2.75, -0.1875 ],
      "max" : [ 4, 2.125, 0.1875 ],
      "componentType" : 5126,
      "count" : 160,
      "type" : "VEC3"
    },
    {
      "bufferView" : 2,
      "componentType" : 5126,
      "count" : 160,
      "type" : "VEC3"
    },
    {
      "bufferView" : 3,
      "componentType" : 5126,
      "count" : 160,
      "type" : "VEC4"
    },
    {
      "bufferView" : 4,
      "componentType" : 5126,
      "count" : 160,
      "type" : "VEC2"
    }
  ]
}
