{
  "asset" : {
    "generator" : "UE Viewer (umodel) build 1590",
    "version" : "2.0"
  },
  "scene" : 0,
  "scenes" : [
    {
      "nodes" : [ 0 ]
    }
  ],
  "nodes" : [
    {
      "name" : "ObpMD_Residence_Raybarth_Stairs_A",
      "mesh" : 0
    }
  ],
  "materials" : [
    {
      "name" : "ObpMI_D_residence_A",
      "pbrMetallicRoughness" : {
        "baseColorFactor" : [ 0.3, 0.3, 0.3, 1.0 ],
        "metallicFactor" : 0.1,
        "roughnessFactor" : 0.5
      }
    }
  ],
  "meshes" : [
    {
      "primitives" : [
        {
          "attributes" : {
            "POSITION" : 1,
            "NORMAL" : 2,
            "TANGENT" : 3,
            "TEXCOORD_0" : 4
          },
          "indices" : 0,
          "material" : 0
        }
      ],
      "name" : "ObpMD_Residence_Raybarth_Stairs_A"
    }
  ],
  "buffers" : [
    {
      "uri" : "ObpMD_Residence_Raybarth_Stairs_A.bin",
      "byteLength" : 161028
    }
  ],
  "bufferViews" : [
    {
      "buffer" : 0,
      "byteOffset" : 0,
      "byteLength" : 10212
    },
    {
      "buffer" : 0,
      "byteOffset" : 10212,
      "byteLength" : 37704
    },
    {
      "buffer" : 0,
      "byteOffset" : 47916,
      "byteLength" : 37704
    },
    {
      "buffer" : 0,
      "byteOffset" : 85620,
      "byteLength" : 50272
    },
    {
      "buffer" : 0,
      "byteOffset" : 135892,
      "byteLength" : 25136
    }
  ],
  "accessors" : [
    {
      "bufferView" : 0,
      "componentType" : 5123,
      "count" : 5106,
      "type" : "SCALAR"
    },
    {
      "bufferView" : 1,
      "min" : [ -6.3125, -3.745, -8 ],
      "max" : [ 5.71, 2.99, 8 ],
      "componentType" : 5126,
      "count" : 3142,
      "type" : "VEC3"
    },
    {
      "bufferView" : 2,
      "componentType" : 5126,
      "count" : 3142,
      "type" : "VEC3"
    },
    {
      "bufferView" : 3,
      "componentType" : 5126,
      "count" : 3142,
      "type" : "VEC4"
    },
    {
      "bufferView" : 4,
      "componentType" : 5126,
      "count" : 3142,
      "type" : "VEC2"
    }
  ]
}
