{
  "asset" : {
    "generator" : "UE Viewer (umodel) build 1590",
    "version" : "2.0"
  },
  "scene" : 0,
  "scenes" : [
    {
      "nodes" : [ 0 ]
    }
  ],
  "nodes" : [
    {
      "name" : "ObpMD_Co_D_Residence_StairesSideWall_Corner_A",
      "mesh" : 0
    }
  ],
  "materials" : [
    {
      "name" : "ObpMI_D_residence_Kokuyoukai_A",
      "pbrMetallicRoughness" : {
        "baseColorFactor" : [ 0.3, 0.3, 0.3, 1.0 ],
        "metallicFactor" : 0.1,
        "roughnessFactor" : 0.5
      }
    }
  ],
  "meshes" : [
    {
      "primitives" : [
        {
          "attributes" : {
            "POSITION" : 1,
            "NORMAL" : 2,
            "TANGENT" : 3,
            "TEXCOORD_0" : 4
          },
          "indices" : 0,
          "material" : 0
        }
      ],
      "name" : "ObpMD_Co_D_Residence_StairesSideWall_Corner_A"
    }
  ],
  "buffers" : [
    {
      "uri" : "ObpMD_Co_D_Residence_StairesSideWall_Corner_A.bin",
      "byteLength" : 17028
    }
  ],
  "bufferViews" : [
    {
      "buffer" : 0,
      "byteOffset" : 0,
      "byteLength" : 1092
    },
    {
      "buffer" : 0,
      "byteOffset" : 1092,
      "byteLength" : 3984
    },
    {
      "buffer" : 0,
      "byteOffset" : 5076,
      "byteLength" : 3984
    },
    {
      "buffer" : 0,
      "byteOffset" : 9060,
      "byteLength" : 5312
    },
    {
      "buffer" : 0,
      "byteOffset" : 14372,
      "byteLength" : 2656
    }
  ],
  "accessors" : [
    {
      "bufferView" : 0,
      "componentType" : 5123,
      "count" : 546,
      "type" : "SCALAR"
    },
    {
      "bufferView" : 1,
      "min" : [ -7, -2.44929e-16, -4 ],
      "max" : [ 0.25, 5, 0.25 ],
      "componentType" : 5126,
      "count" : 332,
      "type" : "VEC3"
    },
    {
      "bufferView" : 2,
      "componentType" : 5126,
      "count" : 332,
      "type" : "VEC3"
    },
    {
      "bufferView" : 3,
      "componentType" : 5126,
      "count" : 332,
      "type" : "VEC4"
    },
    {
      "bufferView" : 4,
      "componentType" : 5126,
      "count" : 332,
      "type" : "VEC2"
    }
  ]
}
