{
  "asset" : {
    "generator" : "UE Viewer (umodel) build 1590",
    "version" : "2.0"
  },
  "scene" : 0,
  "scenes" : [
    {
      "nodes" : [ 0 ]
    }
  ],
  "nodes" : [
    {
      "name" : "ObpMD_Residence_WallSide_Library_A",
      "mesh" : 0
    }
  ],
  "materials" : [
    {
      "name" : "ObpMI_D_residence_School_A",
      "pbrMetallicRoughness" : {
        "baseColorFactor" : [ 0.3, 0.3, 0.3, 1.0 ],
        "metallicFactor" : 0.1,
        "roughnessFactor" : 0.5
      }
    }
  ],
  "meshes" : [
    {
      "primitives" : [
        {
          "attributes" : {
            "POSITION" : 1,
            "NORMAL" : 2,
            "TANGENT" : 3,
            "TEXCOORD_0" : 4
          },
          "indices" : 0,
          "material" : 0
        }
      ],
      "name" : "ObpMD_Residence_WallSide_Library_A"
    }
  ],
  "buffers" : [
    {
      "uri" : "ObpMD_Residence_WallSide_Library_A.bin",
      "byteLength" : 3500
    }
  ],
  "bufferViews" : [
    {
      "buffer" : 0,
      "byteOffset" : 0,
      "byteLength" : 188
    },
    {
      "buffer" : 0,
      "byteOffset" : 188,
      "byteLength" : 828
    },
    {
      "buffer" : 0,
      "byteOffset" : 1016,
      "byteLength" : 828
    },
    {
      "buffer" : 0,
      "byteOffset" : 1844,
      "byteLength" : 1104
    },
    {
      "buffer" : 0,
      "byteOffset" : 2948,
      "byteLength" : 552
    }
  ],
  "accessors" : [
    {
      "bufferView" : 0,
      "componentType" : 5123,
      "count" : 93,
      "type" : "SCALAR"
    },
    {
      "bufferView" : 1,
      "min" : [ -6, -6, -11 ],
      "max" : [ 6, 3, 12 ],
      "componentType" : 5126,
      "count" : 69,
      "type" : "VEC3"
    },
    {
      "bufferView" : 2,
      "componentType" : 5126,
      "count" : 69,
      "type" : "VEC3"
    },
    {
      "bufferView" : 3,
      "componentType" : 5126,
      "count" : 69,
      "type" : "VEC4"
    },
    {
      "bufferView" : 4,
      "componentType" : 5126,
      "count" : 69,
      "type" : "VEC2"
    }
  ]
}
