{
  "asset" : {
    "generator" : "UE Viewer (umodel) build 1590",
    "version" : "2.0"
  },
  "scene" : 0,
  "scenes" : [
    {
      "nodes" : [ 0 ]
    }
  ],
  "nodes" : [
    {
      "name" : "ObpMD_D_Residence_Stairs_Pole_A",
      "mesh" : 0
    }
  ],
  "materials" : [
    {
      "name" : "ObpMI_D_residence_A",
      "pbrMetallicRoughness" : {
        "baseColorFactor" : [ 0.3, 0.3, 0.3, 1.0 ],
        "metallicFactor" : 0.1,
        "roughnessFactor" : 0.5
      }
    }
  ],
  "meshes" : [
    {
      "primitives" : [
        {
          "attributes" : {
            "POSITION" : 1,
            "NORMAL" : 2,
            "TANGENT" : 3,
            "TEXCOORD_0" : 4,
            "TEXCOORD_1" : 5
          },
          "indices" : 0,
          "material" : 0
        }
      ],
      "name" : "ObpMD_D_Residence_Stairs_Pole_A"
    }
  ],
  "buffers" : [
    {
      "uri" : "ObpMD_D_Residence_Stairs_Pole_A.bin",
      "byteLength" : 3092
    }
  ],
  "bufferViews" : [
    {
      "buffer" : 0,
      "byteOffset" : 0,
      "byteLength" : 180
    },
    {
      "buffer" : 0,
      "byteOffset" : 180,
      "byteLength" : 624
    },
    {
      "buffer" : 0,
      "byteOffset" : 804,
      "byteLength" : 624
    },
    {
      "buffer" : 0,
      "byteOffset" : 1428,
      "byteLength" : 832
    },
    {
      "buffer" : 0,
      "byteOffset" : 2260,
      "byteLength" : 416
    },
    {
      "buffer" : 0,
      "byteOffset" : 2676,
      "byteLength" : 416
    }
  ],
  "accessors" : [
    {
      "bufferView" : 0,
      "componentType" : 5123,
      "count" : 90,
      "type" : "SCALAR"
    },
    {
      "bufferView" : 1,
      "min" : [ -0.3125, -1.0625, -0.3125 ],
      "max" : [ 0.3125, 1.375, 0.3125 ],
      "componentType" : 5126,
      "count" : 52,
      "type" : "VEC3"
    },
    {
      "bufferView" : 2,
      "componentType" : 5126,
      "count" : 52,
      "type" : "VEC3"
    },
    {
      "bufferView" : 3,
      "componentType" : 5126,
      "count" : 52,
      "type" : "VEC4"
    },
    {
      "bufferView" : 4,
      "componentType" : 5126,
      "count" : 52,
      "type" : "VEC2"
    },
    {
      "bufferView" : 5,
      "componentType" : 5126,
      "count" : 52,
      "type" : "VEC2"
    }
  ]
}
