{
  "asset" : {
    "generator" : "UE Viewer (umodel) build 1590",
    "version" : "2.0"
  },
  "scene" : 0,
  "scenes" : [
    {
      "nodes" : [ 0 ]
    }
  ],
  "nodes" : [
    {
      "name" : "ObpMD_Residence_WallSide_D_Mount_3_1_B",
      "mesh" : 0
    }
  ],
  "materials" : [
    {
      "name" : "ObpMI_D_Residence_Theater_A",
      "pbrMetallicRoughness" : {
        "baseColorFactor" : [ 0.3, 0.3, 0.3, 1.0 ],
        "metallicFactor" : 0.1,
        "roughnessFactor" : 0.5
      }
    }
  ],
  "meshes" : [
    {
      "primitives" : [
        {
          "attributes" : {
            "POSITION" : 1,
            "NORMAL" : 2,
            "TANGENT" : 3,
            "TEXCOORD_0" : 4
          },
          "indices" : 0,
          "material" : 0
        }
      ],
      "name" : "ObpMD_Residence_WallSide_D_Mount_3_1_B"
    }
  ],
  "buffers" : [
    {
      "uri" : "ObpMD_Residence_WallSide_D_Mount_3_1_B.bin",
      "byteLength" : 7152
    }
  ],
  "bufferViews" : [
    {
      "buffer" : 0,
      "byteOffset" : 0,
      "byteLength" : 432
    },
    {
      "buffer" : 0,
      "byteOffset" : 432,
      "byteLength" : 1680
    },
    {
      "buffer" : 0,
      "byteOffset" : 2112,
      "byteLength" : 1680
    },
    {
      "buffer" : 0,
      "byteOffset" : 3792,
      "byteLength" : 2240
    },
    {
      "buffer" : 0,
      "byteOffset" : 6032,
      "byteLength" : 1120
    }
  ],
  "accessors" : [
    {
      "bufferView" : 0,
      "componentType" : 5123,
      "count" : 216,
      "type" : "SCALAR"
    },
    {
      "bufferView" : 1,
      "min" : [ -18, -11.5, -21 ],
      "max" : [ 20, 12.5, 51 ],
      "componentType" : 5126,
      "count" : 140,
      "type" : "VEC3"
    },
    {
      "bufferView" : 2,
      "componentType" : 5126,
      "count" : 140,
      "type" : "VEC3"
    },
    {
      "bufferView" : 3,
      "componentType" : 5126,
      "count" : 140,
      "type" : "VEC4"
    },
    {
      "bufferView" : 4,
      "componentType" : 5126,
      "count" : 140,
      "type" : "VEC2"
    }
  ]
}
