{
  "asset" : {
    "generator" : "UE Viewer (umodel) build 1590",
    "version" : "2.0"
  },
  "scene" : 0,
  "scenes" : [
    {
      "nodes" : [ 0 ]
    }
  ],
  "nodes" : [
    {
      "name" : "ObpMD_Co_D_Residence_StairesSideWall_8_L",
      "mesh" : 0
    }
  ],
  "materials" : [
    {
      "name" : "ObpMI_D_residence_Verner_A",
      "pbrMetallicRoughness" : {
        "baseColorFactor" : [ 0.3, 0.3, 0.3, 1.0 ],
        "metallicFactor" : 0.1,
        "roughnessFactor" : 0.5
      }
    }
  ],
  "meshes" : [
    {
      "primitives" : [
        {
          "attributes" : {
            "POSITION" : 1,
            "NORMAL" : 2,
            "TANGENT" : 3,
            "TEXCOORD_0" : 4
          },
          "indices" : 0,
          "material" : 0
        }
      ],
      "name" : "ObpMD_Co_D_Residence_StairesSideWall_8_L"
    }
  ],
  "buffers" : [
    {
      "uri" : "ObpMD_Co_D_Residence_StairesSideWall_8_L.bin",
      "byteLength" : 9108
    }
  ],
  "bufferViews" : [
    {
      "buffer" : 0,
      "byteOffset" : 0,
      "byteLength" : 564
    },
    {
      "buffer" : 0,
      "byteOffset" : 564,
      "byteLength" : 2136
    },
    {
      "buffer" : 0,
      "byteOffset" : 2700,
      "byteLength" : 2136
    },
    {
      "buffer" : 0,
      "byteOffset" : 4836,
      "byteLength" : 2848
    },
    {
      "buffer" : 0,
      "byteOffset" : 7684,
      "byteLength" : 1424
    }
  ],
  "accessors" : [
    {
      "bufferView" : 0,
      "componentType" : 5123,
      "count" : 282,
      "type" : "SCALAR"
    },
    {
      "bufferView" : 1,
      "min" : [ -1.19209e-07, 8.81375e-17, -4 ],
      "max" : [ 0.25, 4.125, 4 ],
      "componentType" : 5126,
      "count" : 178,
      "type" : "VEC3"
    },
    {
      "bufferView" : 2,
      "componentType" : 5126,
      "count" : 178,
      "type" : "VEC3"
    },
    {
      "bufferView" : 3,
      "componentType" : 5126,
      "count" : 178,
      "type" : "VEC4"
    },
    {
      "bufferView" : 4,
      "componentType" : 5126,
      "count" : 178,
      "type" : "VEC2"
    }
  ]
}
