{
  "asset" : {
    "generator" : "UE Viewer (umodel) build 1590",
    "version" : "2.0"
  },
  "scene" : 0,
  "scenes" : [
    {
      "nodes" : [ 0 ]
    }
  ],
  "nodes" : [
    {
      "name" : "ObpMD_D_Residence_Handrail_A_no_btm_st",
      "mesh" : 0
    }
  ],
  "materials" : [
    {
      "name" : "ObpMI_D_residence_A",
      "pbrMetallicRoughness" : {
        "baseColorFactor" : [ 0.3, 0.3, 0.3, 1.0 ],
        "metallicFactor" : 0.1,
        "roughnessFactor" : 0.5
      }
    }
  ],
  "meshes" : [
    {
      "primitives" : [
        {
          "attributes" : {
            "POSITION" : 1,
            "NORMAL" : 2,
            "TANGENT" : 3,
            "TEXCOORD_0" : 4
          },
          "indices" : 0,
          "material" : 0
        }
      ],
      "name" : "ObpMD_D_Residence_Handrail_A_no_btm_st"
    }
  ],
  "buffers" : [
    {
      "uri" : "ObpMD_D_Residence_Handrail_A_no_btm_st.bin",
      "byteLength" : 1632
    }
  ],
  "bufferViews" : [
    {
      "buffer" : 0,
      "byteOffset" : 0,
      "byteLength" : 96
    },
    {
      "buffer" : 0,
      "byteOffset" : 96,
      "byteLength" : 384
    },
    {
      "buffer" : 0,
      "byteOffset" : 480,
      "byteLength" : 384
    },
    {
      "buffer" : 0,
      "byteOffset" : 864,
      "byteLength" : 512
    },
    {
      "buffer" : 0,
      "byteOffset" : 1376,
      "byteLength" : 256
    }
  ],
  "accessors" : [
    {
      "bufferView" : 0,
      "componentType" : 5123,
      "count" : 48,
      "type" : "SCALAR"
    },
    {
      "bufferView" : 1,
      "min" : [ 0, -0.875, -0.1875 ],
      "max" : [ 0.999997, 0.5, 0.1875 ],
      "componentType" : 5126,
      "count" : 32,
      "type" : "VEC3"
    },
    {
      "bufferView" : 2,
      "componentType" : 5126,
      "count" : 32,
      "type" : "VEC3"
    },
    {
      "bufferView" : 3,
      "componentType" : 5126,
      "count" : 32,
      "type" : "VEC4"
    },
    {
      "bufferView" : 4,
      "componentType" : 5126,
      "count" : 32,
      "type" : "VEC2"
    }
  ]
}
