{
  "asset" : {
    "generator" : "UE Viewer (umodel) build 1590",
    "version" : "2.0"
  },
  "scene" : 0,
  "scenes" : [
    {
      "nodes" : [ 0 ]
    }
  ],
  "nodes" : [
    {
      "name" : "ObpMD_Residence_Syoukan_Stairs_B",
      "mesh" : 0
    }
  ],
  "materials" : [
    {
      "name" : "ObpMI_D_residence_Kokuyoukai_A",
      "pbrMetallicRoughness" : {
        "baseColorFactor" : [ 0.3, 0.3, 0.3, 1.0 ],
        "metallicFactor" : 0.1,
        "roughnessFactor" : 0.5
      }
    }
  ],
  "meshes" : [
    {
      "primitives" : [
        {
          "attributes" : {
            "POSITION" : 1,
            "NORMAL" : 2,
            "TANGENT" : 3,
            "TEXCOORD_0" : 4
          },
          "indices" : 0,
          "material" : 0
        }
      ],
      "name" : "ObpMD_Residence_Syoukan_Stairs_B"
    }
  ],
  "buffers" : [
    {
      "uri" : "ObpMD_Residence_Syoukan_Stairs_B.bin",
      "byteLength" : 102816
    }
  ],
  "bufferViews" : [
    {
      "buffer" : 0,
      "byteOffset" : 0,
      "byteLength" : 6240
    },
    {
      "buffer" : 0,
      "byteOffset" : 6240,
      "byteLength" : 24144
    },
    {
      "buffer" : 0,
      "byteOffset" : 30384,
      "byteLength" : 24144
    },
    {
      "buffer" : 0,
      "byteOffset" : 54528,
      "byteLength" : 32192
    },
    {
      "buffer" : 0,
      "byteOffset" : 86720,
      "byteLength" : 16096
    }
  ],
  "accessors" : [
    {
      "bufferView" : 0,
      "componentType" : 5123,
      "count" : 3120,
      "type" : "SCALAR"
    },
    {
      "bufferView" : 1,
      "min" : [ -2, -0.745, -2.6875 ],
      "max" : [ 2, 2.995, 2.1875 ],
      "componentType" : 5126,
      "count" : 2012,
      "type" : "VEC3"
    },
    {
      "bufferView" : 2,
      "componentType" : 5126,
      "count" : 2012,
      "type" : "VEC3"
    },
    {
      "bufferView" : 3,
      "componentType" : 5126,
      "count" : 2012,
      "type" : "VEC4"
    },
    {
      "bufferView" : 4,
      "componentType" : 5126,
      "count" : 2012,
      "type" : "VEC2"
    }
  ]
}
