{
  "asset" : {
    "generator" : "UE Viewer (umodel) build 1590",
    "version" : "2.0"
  },
  "scene" : 0,
  "scenes" : [
    {
      "nodes" : [ 0 ]
    }
  ],
  "nodes" : [
    {
      "name" : "ObpMD_Co_D_Residence_Wall_B9_1",
      "mesh" : 0
    }
  ],
  "materials" : [
    {
      "name" : "ObpMI_D_residence_A",
      "pbrMetallicRoughness" : {
        "baseColorFactor" : [ 0.3, 0.3, 0.3, 1.0 ],
        "metallicFactor" : 0.1,
        "roughnessFactor" : 0.5
      }
    }
  ],
  "meshes" : [
    {
      "primitives" : [
        {
          "attributes" : {
            "POSITION" : 1,
            "NORMAL" : 2,
            "TANGENT" : 3,
            "TEXCOORD_0" : 4
          },
          "indices" : 0,
          "material" : 0
        }
      ],
      "name" : "ObpMD_Co_D_Residence_Wall_B9_1"
    }
  ],
  "buffers" : [
    {
      "uri" : "ObpMD_Co_D_Residence_Wall_B9_1.bin",
      "byteLength" : 22140
    }
  ],
  "bufferViews" : [
    {
      "buffer" : 0,
      "byteOffset" : 0,
      "byteLength" : 1404
    },
    {
      "buffer" : 0,
      "byteOffset" : 1404,
      "byteLength" : 5184
    },
    {
      "buffer" : 0,
      "byteOffset" : 6588,
      "byteLength" : 5184
    },
    {
      "buffer" : 0,
      "byteOffset" : 11772,
      "byteLength" : 6912
    },
    {
      "buffer" : 0,
      "byteOffset" : 18684,
      "byteLength" : 3456
    }
  ],
  "accessors" : [
    {
      "bufferView" : 0,
      "componentType" : 5123,
      "count" : 702,
      "type" : "SCALAR"
    },
    {
      "bufferView" : 1,
      "min" : [ -1.19209e-07, -3.06162e-16, -4.5 ],
      "max" : [ 0.25, 5, 4.5 ],
      "componentType" : 5126,
      "count" : 432,
      "type" : "VEC3"
    },
    {
      "bufferView" : 2,
      "componentType" : 5126,
      "count" : 432,
      "type" : "VEC3"
    },
    {
      "bufferView" : 3,
      "componentType" : 5126,
      "count" : 432,
      "type" : "VEC4"
    },
    {
      "bufferView" : 4,
      "componentType" : 5126,
      "count" : 432,
      "type" : "VEC2"
    }
  ]
}
