{
  "asset" : {
    "generator" : "UE Viewer (umodel) build 1590",
    "version" : "2.0"
  },
  "scene" : 0,
  "scenes" : [
    {
      "nodes" : [ 0 ]
    }
  ],
  "nodes" : [
    {
      "name" : "ObpMD_Residence_Raybarth_Stairs_C",
      "mesh" : 0
    }
  ],
  "materials" : [
    {
      "name" : "ObpMI_D_residence_A",
      "pbrMetallicRoughness" : {
        "baseColorFactor" : [ 0.3, 0.3, 0.3, 1.0 ],
        "metallicFactor" : 0.1,
        "roughnessFactor" : 0.5
      }
    }
  ],
  "meshes" : [
    {
      "primitives" : [
        {
          "attributes" : {
            "POSITION" : 1,
            "NORMAL" : 2,
            "TANGENT" : 3,
            "TEXCOORD_0" : 4
          },
          "indices" : 0,
          "material" : 0
        }
      ],
      "name" : "ObpMD_Residence_Raybarth_Stairs_C"
    }
  ],
  "buffers" : [
    {
      "uri" : "ObpMD_Residence_Raybarth_Stairs_C.bin",
      "byteLength" : 84768
    }
  ],
  "bufferViews" : [
    {
      "buffer" : 0,
      "byteOffset" : 0,
      "byteLength" : 4992
    },
    {
      "buffer" : 0,
      "byteOffset" : 4992,
      "byteLength" : 19944
    },
    {
      "buffer" : 0,
      "byteOffset" : 24936,
      "byteLength" : 19944
    },
    {
      "buffer" : 0,
      "byteOffset" : 44880,
      "byteLength" : 26592
    },
    {
      "buffer" : 0,
      "byteOffset" : 71472,
      "byteLength" : 13296
    }
  ],
  "accessors" : [
    {
      "bufferView" : 0,
      "componentType" : 5123,
      "count" : 2496,
      "type" : "SCALAR"
    },
    {
      "bufferView" : 1,
      "min" : [ -3.62502, -3.745, -5 ],
      "max" : [ 3.625, 2.995, 5.00001 ],
      "componentType" : 5126,
      "count" : 1662,
      "type" : "VEC3"
    },
    {
      "bufferView" : 2,
      "componentType" : 5126,
      "count" : 1662,
      "type" : "VEC3"
    },
    {
      "bufferView" : 3,
      "componentType" : 5126,
      "count" : 1662,
      "type" : "VEC4"
    },
    {
      "bufferView" : 4,
      "componentType" : 5126,
      "count" : 1662,
      "type" : "VEC2"
    }
  ]
}
