{
  "asset" : {
    "generator" : "UE Viewer (umodel) build 1590",
    "version" : "2.0"
  },
  "scene" : 0,
  "scenes" : [
    {
      "nodes" : [ 0 ]
    }
  ],
  "nodes" : [
    {
      "name" : "ObpMD_Residence_WallSide_Orlik_B",
      "mesh" : 0
    }
  ],
  "materials" : [
    {
      "name" : "ObpMI_D_residence_WallSide",
      "pbrMetallicRoughness" : {
        "baseColorFactor" : [ 0.3, 0.3, 0.3, 1.0 ],
        "metallicFactor" : 0.1,
        "roughnessFactor" : 0.5
      }
    }
  ],
  "meshes" : [
    {
      "primitives" : [
        {
          "attributes" : {
            "POSITION" : 1,
            "NORMAL" : 2,
            "TANGENT" : 3,
            "TEXCOORD_0" : 4
          },
          "indices" : 0,
          "material" : 0
        }
      ],
      "name" : "ObpMD_Residence_WallSide_Orlik_B"
    }
  ],
  "buffers" : [
    {
      "uri" : "ObpMD_Residence_WallSide_Orlik_B.bin",
      "byteLength" : 4380
    }
  ],
  "bufferViews" : [
    {
      "buffer" : 0,
      "byteOffset" : 0,
      "byteLength" : 252
    },
    {
      "buffer" : 0,
      "byteOffset" : 252,
      "byteLength" : 1032
    },
    {
      "buffer" : 0,
      "byteOffset" : 1284,
      "byteLength" : 1032
    },
    {
      "buffer" : 0,
      "byteOffset" : 2316,
      "byteLength" : 1376
    },
    {
      "buffer" : 0,
      "byteOffset" : 3692,
      "byteLength" : 688
    }
  ],
  "accessors" : [
    {
      "bufferView" : 0,
      "componentType" : 5123,
      "count" : 126,
      "type" : "SCALAR"
    },
    {
      "bufferView" : 1,
      "min" : [ -26, -5, -35 ],
      "max" : [ 12, 10, 35 ],
      "componentType" : 5126,
      "count" : 86,
      "type" : "VEC3"
    },
    {
      "bufferView" : 2,
      "componentType" : 5126,
      "count" : 86,
      "type" : "VEC3"
    },
    {
      "bufferView" : 3,
      "componentType" : 5126,
      "count" : 86,
      "type" : "VEC4"
    },
    {
      "bufferView" : 4,
      "componentType" : 5126,
      "count" : 86,
      "type" : "VEC2"
    }
  ]
}
