{
  "asset" : {
    "generator" : "UE Viewer (umodel) build 1590",
    "version" : "2.0"
  },
  "scene" : 0,
  "scenes" : [
    {
      "nodes" : [ 0 ]
    }
  ],
  "nodes" : [
    {
      "name" : "ObpMD_Residence_WallSide_D_Mount_3_1_A",
      "mesh" : 0
    }
  ],
  "materials" : [
    {
      "name" : "ObpMI_D_Residence_Theater_A",
      "pbrMetallicRoughness" : {
        "baseColorFactor" : [ 0.3, 0.3, 0.3, 1.0 ],
        "metallicFactor" : 0.1,
        "roughnessFactor" : 0.5
      }
    }
  ],
  "meshes" : [
    {
      "primitives" : [
        {
          "attributes" : {
            "POSITION" : 1,
            "NORMAL" : 2,
            "TANGENT" : 3,
            "TEXCOORD_0" : 4
          },
          "indices" : 0,
          "material" : 0
        }
      ],
      "name" : "ObpMD_Residence_WallSide_D_Mount_3_1_A"
    }
  ],
  "buffers" : [
    {
      "uri" : "ObpMD_Residence_WallSide_D_Mount_3_1_A.bin",
      "byteLength" : 10016
    }
  ],
  "bufferViews" : [
    {
      "buffer" : 0,
      "byteOffset" : 0,
      "byteLength" : 560
    },
    {
      "buffer" : 0,
      "byteOffset" : 560,
      "byteLength" : 2364
    },
    {
      "buffer" : 0,
      "byteOffset" : 2924,
      "byteLength" : 2364
    },
    {
      "buffer" : 0,
      "byteOffset" : 5288,
      "byteLength" : 3152
    },
    {
      "buffer" : 0,
      "byteOffset" : 8440,
      "byteLength" : 1576
    }
  ],
  "accessors" : [
    {
      "bufferView" : 0,
      "componentType" : 5123,
      "count" : 279,
      "type" : "SCALAR"
    },
    {
      "bufferView" : 1,
      "min" : [ -23, -11.5, -19 ],
      "max" : [ 27, 12.5, 58 ],
      "componentType" : 5126,
      "count" : 197,
      "type" : "VEC3"
    },
    {
      "bufferView" : 2,
      "componentType" : 5126,
      "count" : 197,
      "type" : "VEC3"
    },
    {
      "bufferView" : 3,
      "componentType" : 5126,
      "count" : 197,
      "type" : "VEC4"
    },
    {
      "bufferView" : 4,
      "componentType" : 5126,
      "count" : 197,
      "type" : "VEC2"
    }
  ]
}
