{
  "asset" : {
    "generator" : "UE Viewer (umodel) build 1590",
    "version" : "2.0"
  },
  "scene" : 0,
  "scenes" : [
    {
      "nodes" : [ 0 ]
    }
  ],
  "nodes" : [
    {
      "name" : "ObpMD_D_Residence_Enter_A_floor",
      "mesh" : 0
    }
  ],
  "materials" : [
    {
      "name" : "ObpMI_D_residence_A",
      "pbrMetallicRoughness" : {
        "baseColorFactor" : [ 0.3, 0.3, 0.3, 1.0 ],
        "metallicFactor" : 0.1,
        "roughnessFactor" : 0.5
      }
    }
  ],
  "meshes" : [
    {
      "primitives" : [
        {
          "attributes" : {
            "POSITION" : 1,
            "NORMAL" : 2,
            "TANGENT" : 3,
            "TEXCOORD_0" : 4,
            "TEXCOORD_1" : 5
          },
          "indices" : 0,
          "material" : 0
        }
      ],
      "name" : "ObpMD_D_Residence_Enter_A_floor"
    }
  ],
  "buffers" : [
    {
      "uri" : "ObpMD_D_Residence_Enter_A_floor.bin",
      "byteLength" : 708
    }
  ],
  "bufferViews" : [
    {
      "buffer" : 0,
      "byteOffset" : 0,
      "byteLength" : 36
    },
    {
      "buffer" : 0,
      "byteOffset" : 36,
      "byteLength" : 144
    },
    {
      "buffer" : 0,
      "byteOffset" : 180,
      "byteLength" : 144
    },
    {
      "buffer" : 0,
      "byteOffset" : 324,
      "byteLength" : 192
    },
    {
      "buffer" : 0,
      "byteOffset" : 516,
      "byteLength" : 96
    },
    {
      "buffer" : 0,
      "byteOffset" : 612,
      "byteLength" : 96
    }
  ],
  "accessors" : [
    {
      "bufferView" : 0,
      "componentType" : 5123,
      "count" : 18,
      "type" : "SCALAR"
    },
    {
      "bufferView" : 1,
      "min" : [ -0.5, -7.75455e-17, -1 ],
      "max" : [ 0.5, 7.75455e-17, 1 ],
      "componentType" : 5126,
      "count" : 12,
      "type" : "VEC3"
    },
    {
      "bufferView" : 2,
      "componentType" : 5126,
      "count" : 12,
      "type" : "VEC3"
    },
    {
      "bufferView" : 3,
      "componentType" : 5126,
      "count" : 12,
      "type" : "VEC4"
    },
    {
      "bufferView" : 4,
      "componentType" : 5126,
      "count" : 12,
      "type" : "VEC2"
    },
    {
      "bufferView" : 5,
      "componentType" : 5126,
      "count" : 12,
      "type" : "VEC2"
    }
  ]
}
