{
  "asset" : {
    "generator" : "UE Viewer (umodel) build 1590",
    "version" : "2.0"
  },
  "scene" : 0,
  "scenes" : [
    {
      "nodes" : [ 0 ]
    }
  ],
  "nodes" : [
    {
      "name" : "ObpMD_Co_D_Residence_StairesSide_10_1",
      "mesh" : 0
    }
  ],
  "materials" : [
    {
      "name" : "WorldGridMaterial",
      "pbrMetallicRoughness" : {
        "baseColorFactor" : [ 0.3, 0.3, 0.3, 1.0 ],
        "metallicFactor" : 0.1,
        "roughnessFactor" : 0.5
      }
    }
  ],
  "meshes" : [
    {
      "primitives" : [
        {
          "attributes" : {
            "POSITION" : 1,
            "NORMAL" : 2,
            "TANGENT" : 3,
            "TEXCOORD_0" : 4
          },
          "indices" : 0,
          "material" : 0
        }
      ],
      "name" : "ObpMD_Co_D_Residence_StairesSide_10_1"
    }
  ],
  "buffers" : [
    {
      "uri" : "ObpMD_Co_D_Residence_StairesSide_10_1.bin",
      "byteLength" : 19584
    }
  ],
  "bufferViews" : [
    {
      "buffer" : 0,
      "byteOffset" : 0,
      "byteLength" : 1152
    },
    {
      "buffer" : 0,
      "byteOffset" : 1152,
      "byteLength" : 4608
    },
    {
      "buffer" : 0,
      "byteOffset" : 5760,
      "byteLength" : 4608
    },
    {
      "buffer" : 0,
      "byteOffset" : 10368,
      "byteLength" : 6144
    },
    {
      "buffer" : 0,
      "byteOffset" : 16512,
      "byteLength" : 3072
    }
  ],
  "accessors" : [
    {
      "bufferView" : 0,
      "componentType" : 5123,
      "count" : 576,
      "type" : "SCALAR"
    },
    {
      "bufferView" : 1,
      "min" : [ -2.625, -2, -0.1875 ],
      "max" : [ 2.5, 2.24, 0.1875 ],
      "componentType" : 5126,
      "count" : 384,
      "type" : "VEC3"
    },
    {
      "bufferView" : 2,
      "componentType" : 5126,
      "count" : 384,
      "type" : "VEC3"
    },
    {
      "bufferView" : 3,
      "componentType" : 5126,
      "count" : 384,
      "type" : "VEC4"
    },
    {
      "bufferView" : 4,
      "componentType" : 5126,
      "count" : 384,
      "type" : "VEC2"
    }
  ]
}
