{
  "asset" : {
    "generator" : "UE Viewer (umodel) build 1590",
    "version" : "2.0"
  },
  "scene" : 0,
  "scenes" : [
    {
      "nodes" : [ 0 ]
    }
  ],
  "nodes" : [
    {
      "name" : "ObpMD_Residence_WallSide_Syoukan",
      "mesh" : 0
    }
  ],
  "materials" : [
    {
      "name" : "ObpMI_D_residence_Kokuyoukai_A",
      "pbrMetallicRoughness" : {
        "baseColorFactor" : [ 0.3, 0.3, 0.3, 1.0 ],
        "metallicFactor" : 0.1,
        "roughnessFactor" : 0.5
      }
    }
  ],
  "meshes" : [
    {
      "primitives" : [
        {
          "attributes" : {
            "POSITION" : 1,
            "NORMAL" : 2,
            "TANGENT" : 3,
            "TEXCOORD_0" : 4
          },
          "indices" : 0,
          "material" : 0
        }
      ],
      "name" : "ObpMD_Residence_WallSide_Syoukan"
    }
  ],
  "buffers" : [
    {
      "uri" : "ObpMD_Residence_WallSide_Syoukan.bin",
      "byteLength" : 2064
    }
  ],
  "bufferViews" : [
    {
      "buffer" : 0,
      "byteOffset" : 0,
      "byteLength" : 144
    },
    {
      "buffer" : 0,
      "byteOffset" : 144,
      "byteLength" : 480
    },
    {
      "buffer" : 0,
      "byteOffset" : 624,
      "byteLength" : 480
    },
    {
      "buffer" : 0,
      "byteOffset" : 1104,
      "byteLength" : 640
    },
    {
      "buffer" : 0,
      "byteOffset" : 1744,
      "byteLength" : 320
    }
  ],
  "accessors" : [
    {
      "bufferView" : 0,
      "componentType" : 5123,
      "count" : 72,
      "type" : "SCALAR"
    },
    {
      "bufferView" : 1,
      "min" : [ -13.5, -10.5, -10 ],
      "max" : [ 13.5, 5.5, 17 ],
      "componentType" : 5126,
      "count" : 40,
      "type" : "VEC3"
    },
    {
      "bufferView" : 2,
      "componentType" : 5126,
      "count" : 40,
      "type" : "VEC3"
    },
    {
      "bufferView" : 3,
      "componentType" : 5126,
      "count" : 40,
      "type" : "VEC4"
    },
    {
      "bufferView" : 4,
      "componentType" : 5126,
      "count" : 40,
      "type" : "VEC2"
    }
  ]
}
