{
  "asset" : {
    "generator" : "UE Viewer (umodel) build 1590",
    "version" : "2.0"
  },
  "scene" : 0,
  "scenes" : [
    {
      "nodes" : [ 0 ]
    }
  ],
  "nodes" : [
    {
      "name" : "ObpMD_Co_D_Residence_Floor_A_11_6_1",
      "mesh" : 0
    }
  ],
  "materials" : [
    {
      "name" : "ObpMI_D_residence_Kokuyoukai_A",
      "pbrMetallicRoughness" : {
        "baseColorFactor" : [ 0.3, 0.3, 0.3, 1.0 ],
        "metallicFactor" : 0.1,
        "roughnessFactor" : 0.5
      }
    }
  ],
  "meshes" : [
    {
      "primitives" : [
        {
          "attributes" : {
            "POSITION" : 1,
            "NORMAL" : 2,
            "TANGENT" : 3,
            "TEXCOORD_0" : 4
          },
          "indices" : 0,
          "material" : 0
        }
      ],
      "name" : "ObpMD_Co_D_Residence_Floor_A_11_6_1"
    }
  ],
  "buffers" : [
    {
      "uri" : "ObpMD_Co_D_Residence_Floor_A_11_6_1.bin",
      "byteLength" : 17376
    }
  ],
  "bufferViews" : [
    {
      "buffer" : 0,
      "byteOffset" : 0,
      "byteLength" : 1248
    },
    {
      "buffer" : 0,
      "byteOffset" : 1248,
      "byteLength" : 4032
    },
    {
      "buffer" : 0,
      "byteOffset" : 5280,
      "byteLength" : 4032
    },
    {
      "buffer" : 0,
      "byteOffset" : 9312,
      "byteLength" : 5376
    },
    {
      "buffer" : 0,
      "byteOffset" : 14688,
      "byteLength" : 2688
    }
  ],
  "accessors" : [
    {
      "bufferView" : 0,
      "componentType" : 5123,
      "count" : 624,
      "type" : "SCALAR"
    },
    {
      "bufferView" : 1,
      "min" : [ -6, -2.14313e-16, -3.5 ],
      "max" : [ 6, 2.14313e-16, 3.5 ],
      "componentType" : 5126,
      "count" : 336,
      "type" : "VEC3"
    },
    {
      "bufferView" : 2,
      "componentType" : 5126,
      "count" : 336,
      "type" : "VEC3"
    },
    {
      "bufferView" : 3,
      "componentType" : 5126,
      "count" : 336,
      "type" : "VEC4"
    },
    {
      "bufferView" : 4,
      "componentType" : 5126,
      "count" : 336,
      "type" : "VEC2"
    }
  ]
}
