{
  "asset" : {
    "generator" : "UE Viewer (umodel) build 1590",
    "version" : "2.0"
  },
  "scene" : 0,
  "scenes" : [
    {
      "nodes" : [ 0 ]
    }
  ],
  "nodes" : [
    {
      "name" : "ObpMD_Residence_Ivon_Stairs_B",
      "mesh" : 0
    }
  ],
  "materials" : [
    {
      "name" : "ObpMI_D_residence_Ivon_A",
      "pbrMetallicRoughness" : {
        "baseColorFactor" : [ 0.3, 0.3, 0.3, 1.0 ],
        "metallicFactor" : 0.1,
        "roughnessFactor" : 0.5
      }
    }
  ],
  "meshes" : [
    {
      "primitives" : [
        {
          "attributes" : {
            "POSITION" : 1,
            "NORMAL" : 2,
            "TANGENT" : 3,
            "TEXCOORD_0" : 4
          },
          "indices" : 0,
          "material" : 0
        }
      ],
      "name" : "ObpMD_Residence_Ivon_Stairs_B"
    }
  ],
  "buffers" : [
    {
      "uri" : "ObpMD_Residence_Ivon_Stairs_B.bin",
      "byteLength" : 37320
    }
  ],
  "bufferViews" : [
    {
      "buffer" : 0,
      "byteOffset" : 0,
      "byteLength" : 2280
    },
    {
      "buffer" : 0,
      "byteOffset" : 2280,
      "byteLength" : 8760
    },
    {
      "buffer" : 0,
      "byteOffset" : 11040,
      "byteLength" : 8760
    },
    {
      "buffer" : 0,
      "byteOffset" : 19800,
      "byteLength" : 11680
    },
    {
      "buffer" : 0,
      "byteOffset" : 31480,
      "byteLength" : 5840
    }
  ],
  "accessors" : [
    {
      "bufferView" : 0,
      "componentType" : 5123,
      "count" : 1140,
      "type" : "SCALAR"
    },
    {
      "bufferView" : 1,
      "min" : [ -3.0625, -4, -2.3125 ],
      "max" : [ 2.625, 1.4375, 1.3125 ],
      "componentType" : 5126,
      "count" : 730,
      "type" : "VEC3"
    },
    {
      "bufferView" : 2,
      "componentType" : 5126,
      "count" : 730,
      "type" : "VEC3"
    },
    {
      "bufferView" : 3,
      "componentType" : 5126,
      "count" : 730,
      "type" : "VEC4"
    },
    {
      "bufferView" : 4,
      "componentType" : 5126,
      "count" : 730,
      "type" : "VEC2"
    }
  ]
}
