{
  "asset" : {
    "generator" : "UE Viewer (umodel) build 1590",
    "version" : "2.0"
  },
  "scene" : 0,
  "scenes" : [
    {
      "nodes" : [ 0 ]
    }
  ],
  "nodes" : [
    {
      "name" : "ObpMD_Residence_Ivon_Stairs_A",
      "mesh" : 0
    }
  ],
  "materials" : [
    {
      "name" : "ObpMI_D_residence_Ivon_A",
      "pbrMetallicRoughness" : {
        "baseColorFactor" : [ 0.3, 0.3, 0.3, 1.0 ],
        "metallicFactor" : 0.1,
        "roughnessFactor" : 0.5
      }
    }
  ],
  "meshes" : [
    {
      "primitives" : [
        {
          "attributes" : {
            "POSITION" : 1,
            "NORMAL" : 2,
            "TANGENT" : 3,
            "TEXCOORD_0" : 4,
            "TEXCOORD_1" : 5
          },
          "indices" : 0,
          "material" : 0
        }
      ],
      "name" : "ObpMD_Residence_Ivon_Stairs_A"
    }
  ],
  "buffers" : [
    {
      "uri" : "ObpMD_Residence_Ivon_Stairs_A.bin",
      "byteLength" : 136768
    }
  ],
  "bufferViews" : [
    {
      "buffer" : 0,
      "byteOffset" : 0,
      "byteLength" : 6960
    },
    {
      "buffer" : 0,
      "byteOffset" : 6960,
      "byteLength" : 27816
    },
    {
      "buffer" : 0,
      "byteOffset" : 34776,
      "byteLength" : 27816
    },
    {
      "buffer" : 0,
      "byteOffset" : 62592,
      "byteLength" : 37088
    },
    {
      "buffer" : 0,
      "byteOffset" : 99680,
      "byteLength" : 18544
    },
    {
      "buffer" : 0,
      "byteOffset" : 118224,
      "byteLength" : 18544
    }
  ],
  "accessors" : [
    {
      "bufferView" : 0,
      "componentType" : 5123,
      "count" : 3480,
      "type" : "SCALAR"
    },
    {
      "bufferView" : 1,
      "min" : [ -7.125, -0.75, -5.25 ],
      "max" : [ 6.25, 5.99, 4.25 ],
      "componentType" : 5126,
      "count" : 2318,
      "type" : "VEC3"
    },
    {
      "bufferView" : 2,
      "componentType" : 5126,
      "count" : 2318,
      "type" : "VEC3"
    },
    {
      "bufferView" : 3,
      "componentType" : 5126,
      "count" : 2318,
      "type" : "VEC4"
    },
    {
      "bufferView" : 4,
      "componentType" : 5126,
      "count" : 2318,
      "type" : "VEC2"
    },
    {
      "bufferView" : 5,
      "componentType" : 5126,
      "count" : 2318,
      "type" : "VEC2"
    }
  ]
}
