{
  "asset" : {
    "generator" : "UE Viewer (umodel) build 1590",
    "version" : "2.0"
  },
  "scene" : 0,
  "scenes" : [
    {
      "nodes" : [ 0 ]
    }
  ],
  "nodes" : [
    {
      "name" : "ObpMD_Residence_WallSide_Raybarth_A",
      "mesh" : 0
    }
  ],
  "materials" : [
    {
      "name" : "ObpMI_D_residence_WallSide",
      "pbrMetallicRoughness" : {
        "baseColorFactor" : [ 0.3, 0.3, 0.3, 1.0 ],
        "metallicFactor" : 0.1,
        "roughnessFactor" : 0.5
      }
    }
  ],
  "meshes" : [
    {
      "primitives" : [
        {
          "attributes" : {
            "POSITION" : 1,
            "NORMAL" : 2,
            "TANGENT" : 3,
            "TEXCOORD_0" : 4
          },
          "indices" : 0,
          "material" : 0
        }
      ],
      "name" : "ObpMD_Residence_WallSide_Raybarth_A"
    }
  ],
  "buffers" : [
    {
      "uri" : "ObpMD_Residence_WallSide_Raybarth_A.bin",
      "byteLength" : 3492
    }
  ],
  "bufferViews" : [
    {
      "buffer" : 0,
      "byteOffset" : 0,
      "byteLength" : 228
    },
    {
      "buffer" : 0,
      "byteOffset" : 228,
      "byteLength" : 816
    },
    {
      "buffer" : 0,
      "byteOffset" : 1044,
      "byteLength" : 816
    },
    {
      "buffer" : 0,
      "byteOffset" : 1860,
      "byteLength" : 1088
    },
    {
      "buffer" : 0,
      "byteOffset" : 2948,
      "byteLength" : 544
    }
  ],
  "accessors" : [
    {
      "bufferView" : 0,
      "componentType" : 5123,
      "count" : 114,
      "type" : "SCALAR"
    },
    {
      "bufferView" : 1,
      "min" : [ -22, -9, -50 ],
      "max" : [ -4, 10, 50 ],
      "componentType" : 5126,
      "count" : 68,
      "type" : "VEC3"
    },
    {
      "bufferView" : 2,
      "componentType" : 5126,
      "count" : 68,
      "type" : "VEC3"
    },
    {
      "bufferView" : 3,
      "componentType" : 5126,
      "count" : 68,
      "type" : "VEC4"
    },
    {
      "bufferView" : 4,
      "componentType" : 5126,
      "count" : 68,
      "type" : "VEC2"
    }
  ]
}
